solid OpenSCAD_Model
  facet normal -1 0 0
    outer loop
      vertex 0 0 0
      vertex 0 12 34
      vertex 0 12 0
    endloop
  endfacet
  facet normal -1 -0 0
    outer loop
      vertex 0 12 34
      vertex 0 0 0
      vertex 0 0 34
    endloop
  endfacet
  facet normal 0 0 1
    outer loop
      vertex 12 12 34
      vertex 10 10 34
      vertex 12 0 34
    endloop
  endfacet
  facet normal 0 0 1
    outer loop
      vertex 12 12 34
      vertex 2 10 34
      vertex 10 10 34
    endloop
  endfacet
  facet normal 0 0 1
    outer loop
      vertex 2 10 34
      vertex 0 12 34
      vertex 2 2 34
    endloop
  endfacet
  facet normal -0 0 1
    outer loop
      vertex 0 12 34
      vertex 2 10 34
      vertex 12 12 34
    endloop
  endfacet
  facet normal -0 0 1
    outer loop
      vertex 10 2 34
      vertex 12 0 34
      vertex 10 10 34
    endloop
  endfacet
  facet normal -0 0 1
    outer loop
      vertex 2 2 34
      vertex 12 0 34
      vertex 10 2 34
    endloop
  endfacet
  facet normal 0 0 1
    outer loop
      vertex 2 2 34
      vertex 0 0 34
      vertex 12 0 34
    endloop
  endfacet
  facet normal 0 0 1
    outer loop
      vertex 0 0 34
      vertex 2 2 34
      vertex 0 12 34
    endloop
  endfacet
  facet normal 1 -0 0
    outer loop
      vertex 12 0 34
      vertex 12 12 0
      vertex 12 12 34
    endloop
  endfacet
  facet normal 1 0 0
    outer loop
      vertex 12 12 0
      vertex 12 0 34
      vertex 12 0 0
    endloop
  endfacet
  facet normal 0 1 0
    outer loop
      vertex 12 12 34
      vertex 10 12 32
      vertex 0 12 34
    endloop
  endfacet
  facet normal 0 1 0
    outer loop
      vertex 12 12 34
      vertex 10 12 7
      vertex 10 12 32
    endloop
  endfacet
  facet normal 0 1 0
    outer loop
      vertex 10 12 7
      vertex 10 12 5
      vertex 2 12 7
    endloop
  endfacet
  facet normal 0 1 -0
    outer loop
      vertex 12 12 0
      vertex 10 12 7
      vertex 12 12 34
    endloop
  endfacet
  facet normal 0 1 0
    outer loop
      vertex 10 12 7
      vertex 12 12 0
      vertex 10 12 5
    endloop
  endfacet
  facet normal 0 1 0
    outer loop
      vertex 10 12 2
      vertex 12 12 0
      vertex 2 12 2
    endloop
  endfacet
  facet normal 0 1 0
    outer loop
      vertex 10 12 5
      vertex 12 12 0
      vertex 10 12 2
    endloop
  endfacet
  facet normal 0 1 -0
    outer loop
      vertex 2 12 32
      vertex 0 12 34
      vertex 10 12 32
    endloop
  endfacet
  facet normal 0 1 -0
    outer loop
      vertex 2 12 7
      vertex 0 12 34
      vertex 2 12 32
    endloop
  endfacet
  facet normal 0 1 0
    outer loop
      vertex 2 12 5
      vertex 2 12 7
      vertex 10 12 5
    endloop
  endfacet
  facet normal 0 1 0
    outer loop
      vertex 0 12 0
      vertex 2 12 7
      vertex 2 12 5
    endloop
  endfacet
  facet normal 0 1 0
    outer loop
      vertex 0 12 0
      vertex 2 12 5
      vertex 2 12 2
    endloop
  endfacet
  facet normal 0 1 0
    outer loop
      vertex 2 12 7
      vertex 0 12 0
      vertex 0 12 34
    endloop
  endfacet
  facet normal 0 1 0
    outer loop
      vertex 0 12 0
      vertex 2 12 2
      vertex 12 12 0
    endloop
  endfacet
  facet normal 0 0 -1
    outer loop
      vertex 12 0 0
      vertex 4.10385 6 0
      vertex 12 12 0
    endloop
  endfacet
  facet normal 0 0 -1
    outer loop
      vertex 12 0 0
      vertex 4.08495 5.82016 0
      vertex 4.10385 6 0
    endloop
  endfacet
  facet normal 0 0 -1
    outer loop
      vertex 12 0 0
      vertex 4.07659 5.79442 0
      vertex 4.08495 5.82016 0
    endloop
  endfacet
  facet normal 0 0 -1
    outer loop
      vertex 12 0 0
      vertex 4.02907 5.64817 0
      vertex 4.07659 5.79442 0
    endloop
  endfacet
  facet normal 0 0 -1
    outer loop
      vertex 12 0 0
      vertex 4.01553 5.62473 0
      vertex 4.02907 5.64817 0
    endloop
  endfacet
  facet normal 0 0 -1
    outer loop
      vertex 12 0 0
      vertex 3.93865 5.49157 0
      vertex 4.01553 5.62473 0
    endloop
  endfacet
  facet normal 0 0 -1
    outer loop
      vertex 12 0 0
      vertex 3.83576 5.3773 0
      vertex 3.93865 5.49157 0
    endloop
  endfacet
  facet normal 0 0 -1
    outer loop
      vertex 12 0 0
      vertex 3.81764 5.35718 0
      vertex 3.83576 5.3773 0
    endloop
  endfacet
  facet normal 0 0 -1
    outer loop
      vertex 12 0 0
      vertex 3.79573 5.34126 0
      vertex 3.81764 5.35718 0
    endloop
  endfacet
  facet normal 0 0 -1
    outer loop
      vertex 12 0 0
      vertex 3.67134 5.25089 0
      vertex 3.79573 5.34126 0
    endloop
  endfacet
  facet normal 0 0 -1
    outer loop
      vertex 12 0 0
      vertex 3.50613 5.17734 0
      vertex 3.67134 5.25089 0
    endloop
  endfacet
  facet normal 0 0 -1
    outer loop
      vertex 0 0 0
      vertex 3.50613 5.17734 0
      vertex 12 0 0
    endloop
  endfacet
  facet normal 0 0 -1
    outer loop
      vertex 3.50613 5.17734 0
      vertex 0 0 0
      vertex 3.35577 5.14538 0
    endloop
  endfacet
  facet normal 0 0 -1
    outer loop
      vertex 3.35577 5.14538 0
      vertex 0 0 0
      vertex 3.32924 5.13974 0
    endloop
  endfacet
  facet normal -0 0 -1
    outer loop
      vertex 3.32924 5.13974 0
      vertex 0 0 0
      vertex 3.1484 5.13974 0
    endloop
  endfacet
  facet normal -0 0 -1
    outer loop
      vertex 3.1484 5.13974 0
      vertex 0 0 0
      vertex 3.12186 5.14538 0
    endloop
  endfacet
  facet normal -0 0 -1
    outer loop
      vertex 3.12186 5.14538 0
      vertex 0 0 0
      vertex 2.97151 5.17734 0
    endloop
  endfacet
  facet normal -0 0 -1
    outer loop
      vertex 2.97151 5.17734 0
      vertex 0 0 0
      vertex 2.83111 5.23984 0
    endloop
  endfacet
  facet normal -0 0 -1
    outer loop
      vertex 2.37663 5.97295 0
      vertex 0 0 0
      vertex 2.37379 6 0
    endloop
  endfacet
  facet normal -0 0 -1
    outer loop
      vertex 2.39269 5.82016 0
      vertex 0 0 0
      vertex 2.37663 5.97295 0
    endloop
  endfacet
  facet normal -0 0 -1
    outer loop
      vertex 2.44017 5.67403 0
      vertex 0 0 0
      vertex 2.39269 5.82016 0
    endloop
  endfacet
  facet normal -0 0 -1
    outer loop
      vertex 2.44857 5.64817 0
      vertex 0 0 0
      vertex 2.44017 5.67403 0
    endloop
  endfacet
  facet normal -0 0 -1
    outer loop
      vertex 2.46217 5.62463 0
      vertex 0 0 0
      vertex 2.44857 5.64817 0
    endloop
  endfacet
  facet normal -0 0 -1
    outer loop
      vertex 2.53899 5.49157 0
      vertex 0 0 0
      vertex 2.46217 5.62463 0
    endloop
  endfacet
  facet normal -0 0 -1
    outer loop
      vertex 2.64182 5.37737 0
      vertex 0 0 0
      vertex 2.53899 5.49157 0
    endloop
  endfacet
  facet normal -0 0 -1
    outer loop
      vertex 2.66 5.35718 0
      vertex 0 0 0
      vertex 2.64182 5.37737 0
    endloop
  endfacet
  facet normal -0 0 -1
    outer loop
      vertex 2.78433 5.26685 0
      vertex 0 0 0
      vertex 2.66 5.35718 0
    endloop
  endfacet
  facet normal -0 0 -1
    outer loop
      vertex 2.8063 5.25089 0
      vertex 0 0 0
      vertex 2.78433 5.26685 0
    endloop
  endfacet
  facet normal -0 0 -1
    outer loop
      vertex 2.83111 5.23984 0
      vertex 0 0 0
      vertex 2.8063 5.25089 0
    endloop
  endfacet
  facet normal 0 0 -1
    outer loop
      vertex 4.08495 6.17984 0
      vertex 12 12 0
      vertex 4.10385 6 0
    endloop
  endfacet
  facet normal 0 0 -1
    outer loop
      vertex 4.07659 6.20558 0
      vertex 12 12 0
      vertex 4.08495 6.17984 0
    endloop
  endfacet
  facet normal 0 0 -1
    outer loop
      vertex 4.02907 6.35183 0
      vertex 12 12 0
      vertex 4.07659 6.20558 0
    endloop
  endfacet
  facet normal 0 0 -1
    outer loop
      vertex 4.01553 6.37527 0
      vertex 12 12 0
      vertex 4.02907 6.35183 0
    endloop
  endfacet
  facet normal 0 0 -1
    outer loop
      vertex 3.93865 6.50843 0
      vertex 12 12 0
      vertex 4.01553 6.37527 0
    endloop
  endfacet
  facet normal 0 0 -1
    outer loop
      vertex 3.83576 6.6227 0
      vertex 12 12 0
      vertex 3.93865 6.50843 0
    endloop
  endfacet
  facet normal 0 0 -1
    outer loop
      vertex 3.81764 6.64282 0
      vertex 12 12 0
      vertex 3.83576 6.6227 0
    endloop
  endfacet
  facet normal 0 0 -1
    outer loop
      vertex 3.79573 6.65874 0
      vertex 12 12 0
      vertex 3.81764 6.64282 0
    endloop
  endfacet
  facet normal 0 0 -1
    outer loop
      vertex 3.67134 6.74911 0
      vertex 12 12 0
      vertex 3.79573 6.65874 0
    endloop
  endfacet
  facet normal 0 0 -1
    outer loop
      vertex 3.50613 6.82266 0
      vertex 12 12 0
      vertex 3.67134 6.74911 0
    endloop
  endfacet
  facet normal 0 0 -1
    outer loop
      vertex 0 12 0
      vertex 3.50613 6.82266 0
      vertex 3.35577 6.85462 0
    endloop
  endfacet
  facet normal 0 0 -1
    outer loop
      vertex 0 12 0
      vertex 3.35577 6.85462 0
      vertex 3.32924 6.86026 0
    endloop
  endfacet
  facet normal 0 0 -1
    outer loop
      vertex 0 12 0
      vertex 3.32924 6.86026 0
      vertex 3.1484 6.86026 0
    endloop
  endfacet
  facet normal 0 0 -1
    outer loop
      vertex 0 12 0
      vertex 3.1484 6.86026 0
      vertex 3.12186 6.85462 0
    endloop
  endfacet
  facet normal 0 0 -1
    outer loop
      vertex 0 12 0
      vertex 3.12186 6.85462 0
      vertex 2.97151 6.82266 0
    endloop
  endfacet
  facet normal 0 0 -1
    outer loop
      vertex 0 12 0
      vertex 2.97151 6.82266 0
      vertex 2.83111 6.76016 0
    endloop
  endfacet
  facet normal 0 0 -1
    outer loop
      vertex 0 12 0
      vertex 2.83111 6.76016 0
      vertex 2.8063 6.74911 0
    endloop
  endfacet
  facet normal 0 0 -1
    outer loop
      vertex 0 12 0
      vertex 2.37379 6 0
      vertex 0 0 0
    endloop
  endfacet
  facet normal 0 0 -1
    outer loop
      vertex 2.37379 6 0
      vertex 0 12 0
      vertex 2.37663 6.02705 0
    endloop
  endfacet
  facet normal 0 0 -1
    outer loop
      vertex 2.37663 6.02705 0
      vertex 0 12 0
      vertex 2.39269 6.17984 0
    endloop
  endfacet
  facet normal 0 0 -1
    outer loop
      vertex 2.39269 6.17984 0
      vertex 0 12 0
      vertex 2.44017 6.32597 0
    endloop
  endfacet
  facet normal 0 0 -1
    outer loop
      vertex 3.50613 6.82266 0
      vertex 0 12 0
      vertex 12 12 0
    endloop
  endfacet
  facet normal 0 0 -1
    outer loop
      vertex 2.78433 6.73315 0
      vertex 0 12 0
      vertex 2.8063 6.74911 0
    endloop
  endfacet
  facet normal 0 0 -1
    outer loop
      vertex 2.66 6.64282 0
      vertex 0 12 0
      vertex 2.78433 6.73315 0
    endloop
  endfacet
  facet normal 0 0 -1
    outer loop
      vertex 2.64182 6.62263 0
      vertex 0 12 0
      vertex 2.66 6.64282 0
    endloop
  endfacet
  facet normal 0 0 -1
    outer loop
      vertex 2.53899 6.50843 0
      vertex 0 12 0
      vertex 2.64182 6.62263 0
    endloop
  endfacet
  facet normal 0 0 -1
    outer loop
      vertex 2.46217 6.37537 0
      vertex 0 12 0
      vertex 2.53899 6.50843 0
    endloop
  endfacet
  facet normal 0 0 -1
    outer loop
      vertex 2.44857 6.35183 0
      vertex 0 12 0
      vertex 2.46217 6.37537 0
    endloop
  endfacet
  facet normal 0 0 -1
    outer loop
      vertex 2.44017 6.32597 0
      vertex 0 12 0
      vertex 2.44857 6.35183 0
    endloop
  endfacet
  facet normal 0 -1 0
    outer loop
      vertex 0 0 34
      vertex 2 0 32
      vertex 12 0 34
    endloop
  endfacet
  facet normal 0 -1 0
    outer loop
      vertex 0 0 34
      vertex 2 0 7
      vertex 2 0 32
    endloop
  endfacet
  facet normal 0 -1 0
    outer loop
      vertex 2 0 7
      vertex 2 0 5
      vertex 10 0 7
    endloop
  endfacet
  facet normal 0 -1 0
    outer loop
      vertex 0 0 0
      vertex 2 0 7
      vertex 0 0 34
    endloop
  endfacet
  facet normal 0 -1 -0
    outer loop
      vertex 2 0 7
      vertex 0 0 0
      vertex 2 0 5
    endloop
  endfacet
  facet normal 0 -1 -0
    outer loop
      vertex 2 0 2
      vertex 0 0 0
      vertex 10 0 2
    endloop
  endfacet
  facet normal 0 -1 -0
    outer loop
      vertex 2 0 5
      vertex 0 0 0
      vertex 2 0 2
    endloop
  endfacet
  facet normal 0 -1 0
    outer loop
      vertex 10 0 32
      vertex 12 0 34
      vertex 2 0 32
    endloop
  endfacet
  facet normal 0 -1 0
    outer loop
      vertex 10 0 7
      vertex 12 0 34
      vertex 10 0 32
    endloop
  endfacet
  facet normal 0 -1 0
    outer loop
      vertex 10 0 5
      vertex 10 0 7
      vertex 2 0 5
    endloop
  endfacet
  facet normal 0 -1 0
    outer loop
      vertex 12 0 0
      vertex 10 0 7
      vertex 10 0 5
    endloop
  endfacet
  facet normal 0 -1 0
    outer loop
      vertex 12 0 0
      vertex 10 0 5
      vertex 10 0 2
    endloop
  endfacet
  facet normal 0 -1 0
    outer loop
      vertex 10 0 7
      vertex 12 0 0
      vertex 12 0 34
    endloop
  endfacet
  facet normal 0 -1 0
    outer loop
      vertex 12 0 0
      vertex 10 0 2
      vertex 0 0 0
    endloop
  endfacet
  facet normal 1 0 0
    outer loop
      vertex 2 10 34
      vertex 2 2 34
      vertex 2 10 32
    endloop
  endfacet
  facet normal 1 -0 0
    outer loop
      vertex 2 10 32
      vertex 2 12 7
      vertex 2 12 32
    endloop
  endfacet
  facet normal 1 0 0
    outer loop
      vertex 2 2 32
      vertex 2 10 32
      vertex 2 2 34
    endloop
  endfacet
  facet normal 1 0 0
    outer loop
      vertex 2 10 32
      vertex 2 2 32
      vertex 2 12 7
    endloop
  endfacet
  facet normal 1 0 0
    outer loop
      vertex 2 0 7
      vertex 2 2 32
      vertex 2 0 32
    endloop
  endfacet
  facet normal 1 0 0
    outer loop
      vertex 2 2 32
      vertex 2 0 7
      vertex 2 12 7
    endloop
  endfacet
  facet normal 1 -0 0
    outer loop
      vertex 2 0 5
      vertex 2 12 2
      vertex 2 12 5
    endloop
  endfacet
  facet normal 1 0 0
    outer loop
      vertex 2 12 2
      vertex 2 0 5
      vertex 2 0 2
    endloop
  endfacet
  facet normal 0 0 -1
    outer loop
      vertex 2 0 32
      vertex 10 2 32
      vertex 10 0 32
    endloop
  endfacet
  facet normal -0 0 -1
    outer loop
      vertex 10 2 32
      vertex 2 0 32
      vertex 2 2 32
    endloop
  endfacet
  facet normal 0 0 -1
    outer loop
      vertex 2 10 32
      vertex 10 12 32
      vertex 10 10 32
    endloop
  endfacet
  facet normal -0 0 -1
    outer loop
      vertex 10 12 32
      vertex 2 10 32
      vertex 2 12 32
    endloop
  endfacet
  facet normal -1 0 0
    outer loop
      vertex 10 12 7
      vertex 10 10 32
      vertex 10 12 32
    endloop
  endfacet
  facet normal -1 0 0
    outer loop
      vertex 10 10 32
      vertex 10 2 32
      vertex 10 10 34
    endloop
  endfacet
  facet normal -1 0 0
    outer loop
      vertex 10 12 7
      vertex 10 2 32
      vertex 10 10 32
    endloop
  endfacet
  facet normal -1 0 0
    outer loop
      vertex 10 0 7
      vertex 10 2 32
      vertex 10 12 7
    endloop
  endfacet
  facet normal -1 -0 0
    outer loop
      vertex 10 2 32
      vertex 10 0 7
      vertex 10 0 32
    endloop
  endfacet
  facet normal -1 -0 0
    outer loop
      vertex 10 10 34
      vertex 10 2 32
      vertex 10 2 34
    endloop
  endfacet
  facet normal -1 0 0
    outer loop
      vertex 10 0 2
      vertex 10 12 5
      vertex 10 12 2
    endloop
  endfacet
  facet normal -1 -0 0
    outer loop
      vertex 10 12 5
      vertex 10 0 2
      vertex 10 0 5
    endloop
  endfacet
  facet normal 0 0 1
    outer loop
      vertex 10 12 2
      vertex 4.0864 6 2
      vertex 10 0 2
    endloop
  endfacet
  facet normal 0 0 1
    outer loop
      vertex 10 12 2
      vertex 4.06749 6.17984 2
      vertex 4.0864 6 2
    endloop
  endfacet
  facet normal 0 0 1
    outer loop
      vertex 10 12 2
      vertex 4.05354 6.22278 2
      vertex 4.06749 6.17984 2
    endloop
  endfacet
  facet normal 0 0 1
    outer loop
      vertex 10 12 2
      vertex 4.01161 6.35183 2
      vertex 4.05354 6.22278 2
    endloop
  endfacet
  facet normal 0 0 1
    outer loop
      vertex 10 12 2
      vertex 3.98904 6.39093 2
      vertex 4.01161 6.35183 2
    endloop
  endfacet
  facet normal 0 0 1
    outer loop
      vertex 10 12 2
      vertex 3.92119 6.50843 2
      vertex 3.98904 6.39093 2
    endloop
  endfacet
  facet normal 0 0 1
    outer loop
      vertex 10 12 2
      vertex 3.83041 6.60926 2
      vertex 3.92119 6.50843 2
    endloop
  endfacet
  facet normal 0 0 1
    outer loop
      vertex 10 12 2
      vertex 3.80019 6.64282 2
      vertex 3.83041 6.60926 2
    endloop
  endfacet
  facet normal 0 0 1
    outer loop
      vertex 10 12 2
      vertex 3.76364 6.66937 2
      vertex 3.80019 6.64282 2
    endloop
  endfacet
  facet normal 0 0 1
    outer loop
      vertex 10 12 2
      vertex 3.65388 6.74911 2
      vertex 3.76364 6.66937 2
    endloop
  endfacet
  facet normal -0 0 1
    outer loop
      vertex 2 12 2
      vertex 3.65388 6.74911 2
      vertex 10 12 2
    endloop
  endfacet
  facet normal 0 0 1
    outer loop
      vertex 3.65388 6.74911 2
      vertex 2 12 2
      vertex 3.48868 6.82266 2
    endloop
  endfacet
  facet normal 0 0 1
    outer loop
      vertex 3.48868 6.82266 2
      vertex 2 12 2
      vertex 3.356 6.85086 2
    endloop
  endfacet
  facet normal 0 0 1
    outer loop
      vertex 3.356 6.85086 2
      vertex 2 12 2
      vertex 3.31179 6.86026 2
    endloop
  endfacet
  facet normal 0 0 1
    outer loop
      vertex 3.31179 6.86026 2
      vertex 2 12 2
      vertex 3.13094 6.86026 2
    endloop
  endfacet
  facet normal 0 0 1
    outer loop
      vertex 3.13094 6.86026 2
      vertex 2 12 2
      vertex 3.08671 6.85086 2
    endloop
  endfacet
  facet normal 0 0 1
    outer loop
      vertex 3.08671 6.85086 2
      vertex 2 12 2
      vertex 2.95406 6.82266 2
    endloop
  endfacet
  facet normal 0 0 1
    outer loop
      vertex 2.95406 6.82266 2
      vertex 2 12 2
      vertex 2.83018 6.76751 2
    endloop
  endfacet
  facet normal 0 0 1
    outer loop
      vertex 2.83018 6.76751 2
      vertex 2 12 2
      vertex 2.78885 6.74911 2
    endloop
  endfacet
  facet normal 0 0 1
    outer loop
      vertex 2.78885 6.74911 2
      vertex 2 12 2
      vertex 2.75224 6.72252 2
    endloop
  endfacet
  facet normal 0 0 1
    outer loop
      vertex 2 12 2
      vertex 2.61226 6.60919 2
      vertex 2.64255 6.64282 2
    endloop
  endfacet
  facet normal 0 0 1
    outer loop
      vertex 2.36106 6.04503 2
      vertex 2 12 2
      vertex 2.35633 6 2
    endloop
  endfacet
  facet normal 0 0 1
    outer loop
      vertex 2.37524 6.17984 2
      vertex 2 12 2
      vertex 2.36106 6.04503 2
    endloop
  endfacet
  facet normal 0 0 1
    outer loop
      vertex 2.41713 6.30877 2
      vertex 2 12 2
      vertex 2.37524 6.17984 2
    endloop
  endfacet
  facet normal 0 0 1
    outer loop
      vertex 2.43112 6.35183 2
      vertex 2 12 2
      vertex 2.41713 6.30877 2
    endloop
  endfacet
  facet normal 0 0 1
    outer loop
      vertex 2.45375 6.39103 2
      vertex 2 12 2
      vertex 2.43112 6.35183 2
    endloop
  endfacet
  facet normal 0 0 1
    outer loop
      vertex 2.52154 6.50843 2
      vertex 2 12 2
      vertex 2.45375 6.39103 2
    endloop
  endfacet
  facet normal 0 0 1
    outer loop
      vertex 2.61226 6.60919 2
      vertex 2 12 2
      vertex 2.52154 6.50843 2
    endloop
  endfacet
  facet normal 0 0 1
    outer loop
      vertex 2.75224 6.72252 2
      vertex 2 12 2
      vertex 2.64255 6.64282 2
    endloop
  endfacet
  facet normal -0 0 1
    outer loop
      vertex 4.06749 5.82016 2
      vertex 10 0 2
      vertex 4.0864 6 2
    endloop
  endfacet
  facet normal -0 0 1
    outer loop
      vertex 4.05354 5.77722 2
      vertex 10 0 2
      vertex 4.06749 5.82016 2
    endloop
  endfacet
  facet normal -0 0 1
    outer loop
      vertex 4.01161 5.64817 2
      vertex 10 0 2
      vertex 4.05354 5.77722 2
    endloop
  endfacet
  facet normal -0 0 1
    outer loop
      vertex 3.98904 5.60907 2
      vertex 10 0 2
      vertex 4.01161 5.64817 2
    endloop
  endfacet
  facet normal -0 0 1
    outer loop
      vertex 3.92119 5.49157 2
      vertex 10 0 2
      vertex 3.98904 5.60907 2
    endloop
  endfacet
  facet normal -0 0 1
    outer loop
      vertex 3.83041 5.39074 2
      vertex 10 0 2
      vertex 3.92119 5.49157 2
    endloop
  endfacet
  facet normal -0 0 1
    outer loop
      vertex 3.80019 5.35718 2
      vertex 10 0 2
      vertex 3.83041 5.39074 2
    endloop
  endfacet
  facet normal -0 0 1
    outer loop
      vertex 3.76364 5.33063 2
      vertex 10 0 2
      vertex 3.80019 5.35718 2
    endloop
  endfacet
  facet normal -0 0 1
    outer loop
      vertex 3.65388 5.25089 2
      vertex 10 0 2
      vertex 3.76364 5.33063 2
    endloop
  endfacet
  facet normal 0 0 1
    outer loop
      vertex 2 0 2
      vertex 3.65388 5.25089 2
      vertex 3.48868 5.17734 2
    endloop
  endfacet
  facet normal 0 0 1
    outer loop
      vertex 2 0 2
      vertex 3.48868 5.17734 2
      vertex 3.356 5.14914 2
    endloop
  endfacet
  facet normal 0 0 1
    outer loop
      vertex 2 0 2
      vertex 3.356 5.14914 2
      vertex 3.31179 5.13974 2
    endloop
  endfacet
  facet normal 0 0 1
    outer loop
      vertex 2 0 2
      vertex 3.31179 5.13974 2
      vertex 3.13094 5.13974 2
    endloop
  endfacet
  facet normal 0 0 1
    outer loop
      vertex 2 0 2
      vertex 3.13094 5.13974 2
      vertex 3.08671 5.14914 2
    endloop
  endfacet
  facet normal 0 0 1
    outer loop
      vertex 2 0 2
      vertex 3.08671 5.14914 2
      vertex 2.95406 5.17734 2
    endloop
  endfacet
  facet normal 0 0 1
    outer loop
      vertex 2 0 2
      vertex 2.95406 5.17734 2
      vertex 2.83018 5.23249 2
    endloop
  endfacet
  facet normal 0 0 1
    outer loop
      vertex 2 0 2
      vertex 2.83018 5.23249 2
      vertex 2.78885 5.25089 2
    endloop
  endfacet
  facet normal 0 0 1
    outer loop
      vertex 2 0 2
      vertex 2.78885 5.25089 2
      vertex 2.75224 5.27748 2
    endloop
  endfacet
  facet normal 0 0 1
    outer loop
      vertex 2 0 2
      vertex 2.75224 5.27748 2
      vertex 2.64255 5.35718 2
    endloop
  endfacet
  facet normal 0 0 1
    outer loop
      vertex 2 0 2
      vertex 2.61226 5.39081 2
      vertex 2.52154 5.49157 2
    endloop
  endfacet
  facet normal 0 0 1
    outer loop
      vertex 3.65388 5.25089 2
      vertex 2 0 2
      vertex 10 0 2
    endloop
  endfacet
  facet normal 0 0 1
    outer loop
      vertex 2.61226 5.39081 2
      vertex 2 0 2
      vertex 2.64255 5.35718 2
    endloop
  endfacet
  facet normal 0 0 1
    outer loop
      vertex 2.45375 5.60897 2
      vertex 2 0 2
      vertex 2.52154 5.49157 2
    endloop
  endfacet
  facet normal 0 0 1
    outer loop
      vertex 2.43112 5.64817 2
      vertex 2 0 2
      vertex 2.45375 5.60897 2
    endloop
  endfacet
  facet normal 0 0 1
    outer loop
      vertex 2.41713 5.69123 2
      vertex 2 0 2
      vertex 2.43112 5.64817 2
    endloop
  endfacet
  facet normal 0 0 1
    outer loop
      vertex 2.37524 5.82016 2
      vertex 2 0 2
      vertex 2.41713 5.69123 2
    endloop
  endfacet
  facet normal 0 0 1
    outer loop
      vertex 2.36106 5.95497 2
      vertex 2 0 2
      vertex 2.37524 5.82016 2
    endloop
  endfacet
  facet normal 0 0 1
    outer loop
      vertex 2.35633 6 2
      vertex 2 0 2
      vertex 2.36106 5.95497 2
    endloop
  endfacet
  facet normal 0 0 1
    outer loop
      vertex 2 0 2
      vertex 2.35633 6 2
      vertex 2 12 2
    endloop
  endfacet
  facet normal 0 0 1
    outer loop
      vertex 10 12 7
      vertex 4.04276 6 7
      vertex 10 0 7
    endloop
  endfacet
  facet normal 0 0 1
    outer loop
      vertex 10 12 7
      vertex 4.02386 6.17984 7
      vertex 4.04276 6 7
    endloop
  endfacet
  facet normal 0 0 1
    outer loop
      vertex 10 12 7
      vertex 3.99594 6.26578 7
      vertex 4.02386 6.17984 7
    endloop
  endfacet
  facet normal 0 0 1
    outer loop
      vertex 10 12 7
      vertex 3.96798 6.35183 7
      vertex 3.99594 6.26578 7
    endloop
  endfacet
  facet normal 0 0 1
    outer loop
      vertex 10 12 7
      vertex 3.9228 6.43008 7
      vertex 3.96798 6.35183 7
    endloop
  endfacet
  facet normal 0 0 1
    outer loop
      vertex 10 12 7
      vertex 3.87756 6.50843 7
      vertex 3.9228 6.43008 7
    endloop
  endfacet
  facet normal 0 0 1
    outer loop
      vertex 10 12 7
      vertex 3.81702 6.57566 7
      vertex 3.87756 6.50843 7
    endloop
  endfacet
  facet normal 0 0 1
    outer loop
      vertex 10 12 7
      vertex 3.75655 6.64282 7
      vertex 3.81702 6.57566 7
    endloop
  endfacet
  facet normal 0 0 1
    outer loop
      vertex 10 12 7
      vertex 3.68343 6.69594 7
      vertex 3.75655 6.64282 7
    endloop
  endfacet
  facet normal 0 0 1
    outer loop
      vertex 10 12 7
      vertex 3.61025 6.74911 7
      vertex 3.68343 6.69594 7
    endloop
  endfacet
  facet normal -0 0 1
    outer loop
      vertex 2 12 7
      vertex 3.61025 6.74911 7
      vertex 10 12 7
    endloop
  endfacet
  facet normal 0 0 1
    outer loop
      vertex 3.61025 6.74911 7
      vertex 2 12 7
      vertex 3.44504 6.82266 7
    endloop
  endfacet
  facet normal 0 0 1
    outer loop
      vertex 3.44504 6.82266 7
      vertex 2 12 7
      vertex 3.35659 6.84146 7
    endloop
  endfacet
  facet normal 0 0 1
    outer loop
      vertex 3.35659 6.84146 7
      vertex 2 12 7
      vertex 3.26815 6.86026 7
    endloop
  endfacet
  facet normal 0 0 1
    outer loop
      vertex 3.26815 6.86026 7
      vertex 2 12 7
      vertex 3.08731 6.86026 7
    endloop
  endfacet
  facet normal 0 0 1
    outer loop
      vertex 3.08731 6.86026 7
      vertex 2 12 7
      vertex 2.99885 6.84146 7
    endloop
  endfacet
  facet normal 0 0 1
    outer loop
      vertex 2.99885 6.84146 7
      vertex 2 12 7
      vertex 2.91042 6.82266 7
    endloop
  endfacet
  facet normal 0 0 1
    outer loop
      vertex 2.91042 6.82266 7
      vertex 2 12 7
      vertex 2.82785 6.7859 7
    endloop
  endfacet
  facet normal 0 0 1
    outer loop
      vertex 2 12 7
      vertex 2.53837 6.57559 7
      vertex 2.59891 6.64282 7
    endloop
  endfacet
  facet normal 0 0 1
    outer loop
      vertex 2.32216 6.08999 7
      vertex 2 12 7
      vertex 2.3127 6 7
    endloop
  endfacet
  facet normal 0 0 1
    outer loop
      vertex 2.3316 6.17984 7
      vertex 2 12 7
      vertex 2.32216 6.08999 7
    endloop
  endfacet
  facet normal 0 0 1
    outer loop
      vertex 2.35952 6.26577 7
      vertex 2 12 7
      vertex 2.3316 6.17984 7
    endloop
  endfacet
  facet normal 0 0 1
    outer loop
      vertex 2.38748 6.35183 7
      vertex 2 12 7
      vertex 2.35952 6.26577 7
    endloop
  endfacet
  facet normal 0 0 1
    outer loop
      vertex 2.43273 6.43018 7
      vertex 2 12 7
      vertex 2.38748 6.35183 7
    endloop
  endfacet
  facet normal 0 0 1
    outer loop
      vertex 2.4779 6.50843 7
      vertex 2 12 7
      vertex 2.43273 6.43018 7
    endloop
  endfacet
  facet normal 0 0 1
    outer loop
      vertex 2.53837 6.57559 7
      vertex 2 12 7
      vertex 2.4779 6.50843 7
    endloop
  endfacet
  facet normal 0 0 1
    outer loop
      vertex 2.67203 6.69594 7
      vertex 2 12 7
      vertex 2.59891 6.64282 7
    endloop
  endfacet
  facet normal 0 0 1
    outer loop
      vertex 2.74521 6.74911 7
      vertex 2 12 7
      vertex 2.67203 6.69594 7
    endloop
  endfacet
  facet normal 0 0 1
    outer loop
      vertex 2.82785 6.7859 7
      vertex 2 12 7
      vertex 2.74521 6.74911 7
    endloop
  endfacet
  facet normal -0 0 1
    outer loop
      vertex 4.02386 5.82016 7
      vertex 10 0 7
      vertex 4.04276 6 7
    endloop
  endfacet
  facet normal -0 0 1
    outer loop
      vertex 3.99594 5.73422 7
      vertex 10 0 7
      vertex 4.02386 5.82016 7
    endloop
  endfacet
  facet normal -0 0 1
    outer loop
      vertex 3.96798 5.64817 7
      vertex 10 0 7
      vertex 3.99594 5.73422 7
    endloop
  endfacet
  facet normal -0 0 1
    outer loop
      vertex 3.9228 5.56992 7
      vertex 10 0 7
      vertex 3.96798 5.64817 7
    endloop
  endfacet
  facet normal -0 0 1
    outer loop
      vertex 3.87756 5.49157 7
      vertex 10 0 7
      vertex 3.9228 5.56992 7
    endloop
  endfacet
  facet normal -0 0 1
    outer loop
      vertex 3.81702 5.42434 7
      vertex 10 0 7
      vertex 3.87756 5.49157 7
    endloop
  endfacet
  facet normal -0 0 1
    outer loop
      vertex 3.75655 5.35718 7
      vertex 10 0 7
      vertex 3.81702 5.42434 7
    endloop
  endfacet
  facet normal -0 0 1
    outer loop
      vertex 3.68343 5.30406 7
      vertex 10 0 7
      vertex 3.75655 5.35718 7
    endloop
  endfacet
  facet normal -0 0 1
    outer loop
      vertex 3.61025 5.25089 7
      vertex 10 0 7
      vertex 3.68343 5.30406 7
    endloop
  endfacet
  facet normal 0 0 1
    outer loop
      vertex 2 0 7
      vertex 3.61025 5.25089 7
      vertex 3.44504 5.17734 7
    endloop
  endfacet
  facet normal 0 0 1
    outer loop
      vertex 2 0 7
      vertex 3.44504 5.17734 7
      vertex 3.35659 5.15853 7
    endloop
  endfacet
  facet normal 0 0 1
    outer loop
      vertex 2 0 7
      vertex 3.35659 5.15853 7
      vertex 3.26815 5.13974 7
    endloop
  endfacet
  facet normal 0 0 1
    outer loop
      vertex 2 0 7
      vertex 3.26815 5.13974 7
      vertex 3.08731 5.13974 7
    endloop
  endfacet
  facet normal 0 0 1
    outer loop
      vertex 2 0 7
      vertex 3.08731 5.13974 7
      vertex 2.99885 5.15854 7
    endloop
  endfacet
  facet normal 0 0 1
    outer loop
      vertex 2 0 7
      vertex 2.99885 5.15854 7
      vertex 2.91042 5.17734 7
    endloop
  endfacet
  facet normal 0 0 1
    outer loop
      vertex 2 0 7
      vertex 2.91042 5.17734 7
      vertex 2.82785 5.2141 7
    endloop
  endfacet
  facet normal 0 0 1
    outer loop
      vertex 2 0 7
      vertex 2.82785 5.2141 7
      vertex 2.74521 5.25089 7
    endloop
  endfacet
  facet normal 0 0 1
    outer loop
      vertex 2 0 7
      vertex 2.53837 5.42441 7
      vertex 2.4779 5.49157 7
    endloop
  endfacet
  facet normal 0 0 1
    outer loop
      vertex 3.61025 5.25089 7
      vertex 2 0 7
      vertex 10 0 7
    endloop
  endfacet
  facet normal 0 0 1
    outer loop
      vertex 2.67203 5.30406 7
      vertex 2 0 7
      vertex 2.74521 5.25089 7
    endloop
  endfacet
  facet normal 0 0 1
    outer loop
      vertex 2.59891 5.35718 7
      vertex 2 0 7
      vertex 2.67203 5.30406 7
    endloop
  endfacet
  facet normal 0 0 1
    outer loop
      vertex 2.53837 5.42441 7
      vertex 2 0 7
      vertex 2.59891 5.35718 7
    endloop
  endfacet
  facet normal 0 0 1
    outer loop
      vertex 2.43273 5.56982 7
      vertex 2 0 7
      vertex 2.4779 5.49157 7
    endloop
  endfacet
  facet normal 0 0 1
    outer loop
      vertex 2.38748 5.64817 7
      vertex 2 0 7
      vertex 2.43273 5.56982 7
    endloop
  endfacet
  facet normal 0 0 1
    outer loop
      vertex 2.35952 5.73423 7
      vertex 2 0 7
      vertex 2.38748 5.64817 7
    endloop
  endfacet
  facet normal 0 0 1
    outer loop
      vertex 2.3316 5.82016 7
      vertex 2 0 7
      vertex 2.35952 5.73423 7
    endloop
  endfacet
  facet normal 0 0 1
    outer loop
      vertex 2.32216 5.91001 7
      vertex 2 0 7
      vertex 2.3316 5.82016 7
    endloop
  endfacet
  facet normal 0 0 1
    outer loop
      vertex 2.3127 6 7
      vertex 2 0 7
      vertex 2.32216 5.91001 7
    endloop
  endfacet
  facet normal 0 0 1
    outer loop
      vertex 2 0 7
      vertex 2.3127 6 7
      vertex 2 12 7
    endloop
  endfacet
  facet normal 0 0 -1
    outer loop
      vertex 10 0 5
      vertex 4.06022 6 5
      vertex 10 12 5
    endloop
  endfacet
  facet normal 0 0 -1
    outer loop
      vertex 10 0 5
      vertex 4.04131 5.82016 5
      vertex 4.06022 6 5
    endloop
  endfacet
  facet normal 0 0 -1
    outer loop
      vertex 10 0 5
      vertex 4.01898 5.75142 5
      vertex 4.04131 5.82016 5
    endloop
  endfacet
  facet normal 0 0 -1
    outer loop
      vertex 10 0 5
      vertex 3.98543 5.64817 5
      vertex 4.01898 5.75142 5
    endloop
  endfacet
  facet normal 0 0 -1
    outer loop
      vertex 10 0 5
      vertex 3.94929 5.58558 5
      vertex 3.98543 5.64817 5
    endloop
  endfacet
  facet normal 0 0 -1
    outer loop
      vertex 10 0 5
      vertex 3.89501 5.49157 5
      vertex 3.94929 5.58558 5
    endloop
  endfacet
  facet normal 0 0 -1
    outer loop
      vertex 10 0 5
      vertex 3.82238 5.4109 5
      vertex 3.89501 5.49157 5
    endloop
  endfacet
  facet normal 0 0 -1
    outer loop
      vertex 10 0 5
      vertex 3.774 5.35718 5
      vertex 3.82238 5.4109 5
    endloop
  endfacet
  facet normal 0 0 -1
    outer loop
      vertex 10 0 5
      vertex 3.71551 5.31469 5
      vertex 3.774 5.35718 5
    endloop
  endfacet
  facet normal 0 0 -1
    outer loop
      vertex 10 0 5
      vertex 3.6277 5.25089 5
      vertex 3.71551 5.31469 5
    endloop
  endfacet
  facet normal 0 0 -1
    outer loop
      vertex 2 0 5
      vertex 3.6277 5.25089 5
      vertex 10 0 5
    endloop
  endfacet
  facet normal 0 0 -1
    outer loop
      vertex 3.6277 5.25089 5
      vertex 2 0 5
      vertex 3.46249 5.17734 5
    endloop
  endfacet
  facet normal 0 0 -1
    outer loop
      vertex 3.46249 5.17734 5
      vertex 2 0 5
      vertex 3.35635 5.15478 5
    endloop
  endfacet
  facet normal 0 0 -1
    outer loop
      vertex 3.35635 5.15478 5
      vertex 2 0 5
      vertex 3.28561 5.13974 5
    endloop
  endfacet
  facet normal -0 0 -1
    outer loop
      vertex 3.28561 5.13974 5
      vertex 2 0 5
      vertex 3.10476 5.13974 5
    endloop
  endfacet
  facet normal -0 0 -1
    outer loop
      vertex 3.10476 5.13974 5
      vertex 2 0 5
      vertex 3.03399 5.15478 5
    endloop
  endfacet
  facet normal -0 0 -1
    outer loop
      vertex 3.03399 5.15478 5
      vertex 2 0 5
      vertex 2.92787 5.17734 5
    endloop
  endfacet
  facet normal -0 0 -1
    outer loop
      vertex 2.92787 5.17734 5
      vertex 2 0 5
      vertex 2.82878 5.22145 5
    endloop
  endfacet
  facet normal -0 0 -1
    outer loop
      vertex 2.33772 5.92799 5
      vertex 2 0 5
      vertex 2.33015 6 5
    endloop
  endfacet
  facet normal -0 0 -1
    outer loop
      vertex 2.34905 5.82016 5
      vertex 2 0 5
      vertex 2.33772 5.92799 5
    endloop
  endfacet
  facet normal -0 0 -1
    outer loop
      vertex 2.38256 5.71703 5
      vertex 2 0 5
      vertex 2.34905 5.82016 5
    endloop
  endfacet
  facet normal -0 0 -1
    outer loop
      vertex 2.40494 5.64817 5
      vertex 2 0 5
      vertex 2.38256 5.71703 5
    endloop
  endfacet
  facet normal -0 0 -1
    outer loop
      vertex 2.44114 5.58548 5
      vertex 2 0 5
      vertex 2.40494 5.64817 5
    endloop
  endfacet
  facet normal -0 0 -1
    outer loop
      vertex 2.49536 5.49157 5
      vertex 2 0 5
      vertex 2.44114 5.58548 5
    endloop
  endfacet
  facet normal -0 0 -1
    outer loop
      vertex 2.56793 5.41097 5
      vertex 2 0 5
      vertex 2.49536 5.49157 5
    endloop
  endfacet
  facet normal -0 0 -1
    outer loop
      vertex 2.61636 5.35718 5
      vertex 2 0 5
      vertex 2.56793 5.41097 5
    endloop
  endfacet
  facet normal -0 0 -1
    outer loop
      vertex 2.70411 5.29343 5
      vertex 2 0 5
      vertex 2.61636 5.35718 5
    endloop
  endfacet
  facet normal -0 0 -1
    outer loop
      vertex 2.76267 5.25089 5
      vertex 2 0 5
      vertex 2.70411 5.29343 5
    endloop
  endfacet
  facet normal -0 0 -1
    outer loop
      vertex 2.82878 5.22145 5
      vertex 2 0 5
      vertex 2.76267 5.25089 5
    endloop
  endfacet
  facet normal 0 0 -1
    outer loop
      vertex 4.04131 6.17984 5
      vertex 10 12 5
      vertex 4.06022 6 5
    endloop
  endfacet
  facet normal 0 0 -1
    outer loop
      vertex 4.01898 6.24858 5
      vertex 10 12 5
      vertex 4.04131 6.17984 5
    endloop
  endfacet
  facet normal 0 0 -1
    outer loop
      vertex 3.98543 6.35183 5
      vertex 10 12 5
      vertex 4.01898 6.24858 5
    endloop
  endfacet
  facet normal 0 0 -1
    outer loop
      vertex 3.94929 6.41442 5
      vertex 10 12 5
      vertex 3.98543 6.35183 5
    endloop
  endfacet
  facet normal 0 0 -1
    outer loop
      vertex 3.89501 6.50843 5
      vertex 10 12 5
      vertex 3.94929 6.41442 5
    endloop
  endfacet
  facet normal 0 0 -1
    outer loop
      vertex 3.82238 6.5891 5
      vertex 10 12 5
      vertex 3.89501 6.50843 5
    endloop
  endfacet
  facet normal 0 0 -1
    outer loop
      vertex 3.774 6.64282 5
      vertex 10 12 5
      vertex 3.82238 6.5891 5
    endloop
  endfacet
  facet normal 0 0 -1
    outer loop
      vertex 3.71551 6.68531 5
      vertex 10 12 5
      vertex 3.774 6.64282 5
    endloop
  endfacet
  facet normal 0 0 -1
    outer loop
      vertex 3.6277 6.74911 5
      vertex 10 12 5
      vertex 3.71551 6.68531 5
    endloop
  endfacet
  facet normal 0 0 -1
    outer loop
      vertex 2 12 5
      vertex 3.6277 6.74911 5
      vertex 3.46249 6.82266 5
    endloop
  endfacet
  facet normal 0 0 -1
    outer loop
      vertex 2 12 5
      vertex 3.46249 6.82266 5
      vertex 3.35635 6.84522 5
    endloop
  endfacet
  facet normal 0 0 -1
    outer loop
      vertex 2 12 5
      vertex 3.35635 6.84522 5
      vertex 3.28561 6.86026 5
    endloop
  endfacet
  facet normal 0 0 -1
    outer loop
      vertex 2 12 5
      vertex 3.28561 6.86026 5
      vertex 3.10476 6.86026 5
    endloop
  endfacet
  facet normal 0 0 -1
    outer loop
      vertex 2 12 5
      vertex 3.10476 6.86026 5
      vertex 3.03399 6.84522 5
    endloop
  endfacet
  facet normal 0 0 -1
    outer loop
      vertex 2 12 5
      vertex 3.03399 6.84522 5
      vertex 2.92787 6.82266 5
    endloop
  endfacet
  facet normal 0 0 -1
    outer loop
      vertex 2 12 5
      vertex 2.92787 6.82266 5
      vertex 2.82878 6.77854 5
    endloop
  endfacet
  facet normal 0 0 -1
    outer loop
      vertex 2 12 5
      vertex 2.82878 6.77854 5
      vertex 2.76267 6.74911 5
    endloop
  endfacet
  facet normal 0 0 -1
    outer loop
      vertex 3.6277 6.74911 5
      vertex 2 12 5
      vertex 10 12 5
    endloop
  endfacet
  facet normal 0 0 -1
    outer loop
      vertex 2.70411 6.70657 5
      vertex 2 12 5
      vertex 2.76267 6.74911 5
    endloop
  endfacet
  facet normal 0 0 -1
    outer loop
      vertex 2.61636 6.64282 5
      vertex 2 12 5
      vertex 2.70411 6.70657 5
    endloop
  endfacet
  facet normal 0 0 -1
    outer loop
      vertex 2.56793 6.58903 5
      vertex 2 12 5
      vertex 2.61636 6.64282 5
    endloop
  endfacet
  facet normal 0 0 -1
    outer loop
      vertex 2.49536 6.50843 5
      vertex 2 12 5
      vertex 2.56793 6.58903 5
    endloop
  endfacet
  facet normal 0 0 -1
    outer loop
      vertex 2.44114 6.41452 5
      vertex 2 12 5
      vertex 2.49536 6.50843 5
    endloop
  endfacet
  facet normal 0 0 -1
    outer loop
      vertex 2.40494 6.35183 5
      vertex 2 12 5
      vertex 2.44114 6.41452 5
    endloop
  endfacet
  facet normal 0 0 -1
    outer loop
      vertex 2.38256 6.28297 5
      vertex 2 12 5
      vertex 2.40494 6.35183 5
    endloop
  endfacet
  facet normal 0 0 -1
    outer loop
      vertex 2.34905 6.17984 5
      vertex 2 12 5
      vertex 2.38256 6.28297 5
    endloop
  endfacet
  facet normal 0 0 -1
    outer loop
      vertex 2.33772 6.07201 5
      vertex 2 12 5
      vertex 2.34905 6.17984 5
    endloop
  endfacet
  facet normal 0 0 -1
    outer loop
      vertex 2.33015 6 5
      vertex 2 12 5
      vertex 2.33772 6.07201 5
    endloop
  endfacet
  facet normal 0 0 -1
    outer loop
      vertex 2 12 5
      vertex 2.33015 6 5
      vertex 2 0 5
    endloop
  endfacet
  facet normal -0.994486 -0.104514 -0.00868186
    outer loop
      vertex 4.10385 6 0
      vertex 4.06749 6.17984 2
      vertex 4.08495 6.17984 0
    endloop
  endfacet
  facet normal -0.99448 -0.104569 -0.00867684
    outer loop
      vertex 4.06749 6.17984 2
      vertex 4.10385 6 0
      vertex 4.0864 6 2
    endloop
  endfacet
  facet normal -0.99448 -0.104569 -0.00867684
    outer loop
      vertex 4.06022 6 5
      vertex 4.02386 6.17984 7
      vertex 4.04131 6.17984 5
    endloop
  endfacet
  facet normal -0.994486 -0.104514 -0.00868186
    outer loop
      vertex 4.02386 6.17984 7
      vertex 4.06022 6 5
      vertex 4.04276 6 7
    endloop
  endfacet
  facet normal -0.866001 0.499986 -0.00755529
    outer loop
      vertex 3.93865 5.49157 0
      vertex 3.98904 5.60907 2
      vertex 4.01553 5.62473 0
    endloop
  endfacet
  facet normal -0.865964 0.500048 -0.00755987
    outer loop
      vertex 3.98904 5.60907 2
      vertex 3.93865 5.49157 0
      vertex 3.92119 5.49157 2
    endloop
  endfacet
  facet normal -0.865988 0.500009 -0.00755494
    outer loop
      vertex 3.89501 5.49157 5
      vertex 3.9228 5.56992 7
      vertex 3.94929 5.58558 5
    endloop
  endfacet
  facet normal -0.865979 0.500024 -0.00755566
    outer loop
      vertex 3.9228 5.56992 7
      vertex 3.89501 5.49157 5
      vertex 3.87756 5.49157 7
    endloop
  endfacet
  facet normal 0.743114 -0.669134 0.00648367
    outer loop
      vertex 2.64255 6.64282 2
      vertex 2.64182 6.62263 0
      vertex 2.66 6.64282 0
    endloop
  endfacet
  facet normal 0.743026 -0.669231 0.00648469
    outer loop
      vertex 2.64182 6.62263 0
      vertex 2.64255 6.64282 2
      vertex 2.61226 6.60919 2
    endloop
  endfacet
  facet normal 0.743148 -0.669096 0.00648397
    outer loop
      vertex 2.59891 6.64282 7
      vertex 2.56793 6.58903 5
      vertex 2.61636 6.64282 5
    endloop
  endfacet
  facet normal 0.743097 -0.669152 0.00648627
    outer loop
      vertex 2.56793 6.58903 5
      vertex 2.59891 6.64282 7
      vertex 2.53837 6.57559 7
    endloop
  endfacet
  facet normal 0 -1 0
    outer loop
      vertex 3.1484 6.86026 0
      vertex 3.31179 6.86026 2
      vertex 3.13094 6.86026 2
    endloop
  endfacet
  facet normal 0 -1 -0
    outer loop
      vertex 3.31179 6.86026 2
      vertex 3.1484 6.86026 0
      vertex 3.32924 6.86026 0
    endloop
  endfacet
  facet normal 0 -1 0
    outer loop
      vertex 3.10476 6.86026 5
      vertex 3.26815 6.86026 7
      vertex 3.08731 6.86026 7
    endloop
  endfacet
  facet normal 0 -1 -0
    outer loop
      vertex 3.26815 6.86026 7
      vertex 3.10476 6.86026 5
      vertex 3.28561 6.86026 5
    endloop
  endfacet
  facet normal 0.994476 -0.104604 0.0086768
    outer loop
      vertex 2.36106 6.04503 2
      vertex 2.39269 6.17984 0
      vertex 2.37524 6.17984 2
    endloop
  endfacet
  facet normal 0.994484 -0.104532 0.0086818
    outer loop
      vertex 2.39269 6.17984 0
      vertex 2.36106 6.04503 2
      vertex 2.37663 6.02705 0
    endloop
  endfacet
  facet normal 0.994489 -0.104485 0.00867691
    outer loop
      vertex 2.32216 6.08999 7
      vertex 2.34905 6.17984 5
      vertex 2.3316 6.17984 7
    endloop
  endfacet
  facet normal 0.994488 -0.104494 0.00867651
    outer loop
      vertex 2.34905 6.17984 5
      vertex 2.32216 6.08999 7
      vertex 2.33772 6.07201 5
    endloop
  endfacet
  facet normal -0.743058 -0.669195 -0.00648318
    outer loop
      vertex 3.83576 6.6227 0
      vertex 3.80019 6.64282 2
      vertex 3.81764 6.64282 0
    endloop
  endfacet
  facet normal -0.743102 -0.669146 -0.00648446
    outer loop
      vertex 3.80019 6.64282 2
      vertex 3.83576 6.6227 0
      vertex 3.83041 6.60926 2
    endloop
  endfacet
  facet normal -0.743058 -0.669195 -0.00648318
    outer loop
      vertex 3.82238 6.5891 5
      vertex 3.75655 6.64282 7
      vertex 3.774 6.64282 5
    endloop
  endfacet
  facet normal -0.743135 -0.66911 -0.00648802
    outer loop
      vertex 3.75655 6.64282 7
      vertex 3.82238 6.5891 5
      vertex 3.81702 6.57566 7
    endloop
  endfacet
  facet normal 0.207925 0.978143 0.00181536
    outer loop
      vertex 2.97151 5.17734 0
      vertex 3.08671 5.14914 2
      vertex 3.12186 5.14538 0
    endloop
  endfacet
  facet normal 0.207942 0.978139 0.0018143
    outer loop
      vertex 3.08671 5.14914 2
      vertex 2.97151 5.17734 0
      vertex 2.95406 5.17734 2
    endloop
  endfacet
  facet normal 0.207942 0.978139 0.00181464
    outer loop
      vertex 2.92787 5.17734 5
      vertex 2.99885 5.15854 7
      vertex 3.03399 5.15478 5
    endloop
  endfacet
  facet normal 0.20795 0.978138 0.00181436
    outer loop
      vertex 2.99885 5.15854 7
      vertex 2.92787 5.17734 5
      vertex 2.91042 5.17734 7
    endloop
  endfacet
  facet normal -0.951061 -0.308892 -0.00830451
    outer loop
      vertex 4.08495 6.17984 0
      vertex 4.05354 6.22278 2
      vertex 4.07659 6.20558 0
    endloop
  endfacet
  facet normal -0.951037 -0.308965 -0.00830255
    outer loop
      vertex 4.05354 6.22278 2
      vertex 4.08495 6.17984 0
      vertex 4.06749 6.17984 2
    endloop
  endfacet
  facet normal -0.951044 -0.308944 -0.00829911
    outer loop
      vertex 4.04131 6.17984 5
      vertex 3.99594 6.26578 7
      vertex 4.01898 6.24858 5
    endloop
  endfacet
  facet normal -0.951035 -0.30897 -0.00829778
    outer loop
      vertex 3.99594 6.26578 7
      vertex 4.04131 6.17984 5
      vertex 4.02386 6.17984 7
    endloop
  endfacet
  facet normal -0.207897 -0.978149 -0.00181501
    outer loop
      vertex 3.35577 6.85462 0
      vertex 3.48868 6.82266 2
      vertex 3.356 6.85086 2
    endloop
  endfacet
  facet normal -0.207911 -0.978146 -0.00181403
    outer loop
      vertex 3.48868 6.82266 2
      vertex 3.35577 6.85462 0
      vertex 3.50613 6.82266 0
    endloop
  endfacet
  facet normal -0.207905 -0.978147 -0.00181397
    outer loop
      vertex 3.35635 6.84522 5
      vertex 3.44504 6.82266 7
      vertex 3.35659 6.84146 7
    endloop
  endfacet
  facet normal -0.207905 -0.978147 -0.00181397
    outer loop
      vertex 3.44504 6.82266 7
      vertex 3.35635 6.84522 5
      vertex 3.46249 6.82266 5
    endloop
  endfacet
  facet normal -0.406726 -0.913543 -0.00354868
    outer loop
      vertex 3.50613 6.82266 0
      vertex 3.65388 6.74911 2
      vertex 3.48868 6.82266 2
    endloop
  endfacet
  facet normal -0.406705 -0.913553 -0.00355054
    outer loop
      vertex 3.65388 6.74911 2
      vertex 3.50613 6.82266 0
      vertex 3.67134 6.74911 0
    endloop
  endfacet
  facet normal -0.406705 -0.913553 -0.0035485
    outer loop
      vertex 3.46249 6.82266 5
      vertex 3.61025 6.74911 7
      vertex 3.44504 6.82266 7
    endloop
  endfacet
  facet normal -0.406705 -0.913553 -0.0035485
    outer loop
      vertex 3.61025 6.74911 7
      vertex 3.46249 6.82266 5
      vertex 3.6277 6.74911 5
    endloop
  endfacet
  facet normal -0.207972 0.978133 -0.00181497
    outer loop
      vertex 3.35577 5.14538 0
      vertex 3.31179 5.13974 2
      vertex 3.356 5.14914 2
    endloop
  endfacet
  facet normal -0.207942 0.978139 -0.0018143
    outer loop
      vertex 3.31179 5.13974 2
      vertex 3.35577 5.14538 0
      vertex 3.32924 5.13974 0
    endloop
  endfacet
  facet normal -0.207821 0.978165 -0.00180912
    outer loop
      vertex 3.35635 5.15478 5
      vertex 3.26815 5.13974 7
      vertex 3.35659 5.15853 7
    endloop
  endfacet
  facet normal -0.207961 0.978135 -0.0018155
    outer loop
      vertex 3.26815 5.13974 7
      vertex 3.35635 5.15478 5
      vertex 3.28561 5.13974 5
    endloop
  endfacet
  facet normal 0.587773 0.80901 0.00513093
    outer loop
      vertex 2.66 5.35718 0
      vertex 2.75224 5.27748 2
      vertex 2.78433 5.26685 0
    endloop
  endfacet
  facet normal 0.587804 0.808987 0.00512859
    outer loop
      vertex 2.75224 5.27748 2
      vertex 2.66 5.35718 0
      vertex 2.64255 5.35718 2
    endloop
  endfacet
  facet normal 0.587753 0.809024 0.00512759
    outer loop
      vertex 2.61636 5.35718 5
      vertex 2.67203 5.30406 7
      vertex 2.70411 5.29343 5
    endloop
  endfacet
  facet normal 0.587743 0.809032 0.00512806
    outer loop
      vertex 2.67203 5.30406 7
      vertex 2.61636 5.35718 5
      vertex 2.59891 5.35718 7
    endloop
  endfacet
  facet normal -0.951026 -0.309 -0.00830245
    outer loop
      vertex 4.02907 6.35183 0
      vertex 4.05354 6.22278 2
      vertex 4.01161 6.35183 2
    endloop
  endfacet
  facet normal -0.951023 -0.309009 -0.00830306
    outer loop
      vertex 4.05354 6.22278 2
      vertex 4.02907 6.35183 0
      vertex 4.07659 6.20558 0
    endloop
  endfacet
  facet normal -0.951022 -0.309013 -0.00829766
    outer loop
      vertex 3.98543 6.35183 5
      vertex 3.99594 6.26578 7
      vertex 3.96798 6.35183 7
    endloop
  endfacet
  facet normal -0.951018 -0.309023 -0.00829813
    outer loop
      vertex 3.99594 6.26578 7
      vertex 3.98543 6.35183 5
      vertex 4.01898 6.24858 5
    endloop
  endfacet
  facet normal -0.587703 -0.80906 -0.00512954
    outer loop
      vertex 3.79573 6.65874 0
      vertex 3.80019 6.64282 2
      vertex 3.76364 6.66937 2
    endloop
  endfacet
  facet normal -0.587813 -0.808981 -0.00512867
    outer loop
      vertex 3.80019 6.64282 2
      vertex 3.79573 6.65874 0
      vertex 3.81764 6.64282 0
    endloop
  endfacet
  facet normal -0.587743 -0.809032 -0.00512739
    outer loop
      vertex 3.71551 6.68531 5
      vertex 3.75655 6.64282 7
      vertex 3.68343 6.69594 7
    endloop
  endfacet
  facet normal -0.587728 -0.809042 -0.00512793
    outer loop
      vertex 3.75655 6.64282 7
      vertex 3.71551 6.68531 5
      vertex 3.774 6.64282 5
    endloop
  endfacet
  facet normal -0.86589 -0.500177 -0.00755233
    outer loop
      vertex 4.02907 6.35183 0
      vertex 3.98904 6.39093 2
      vertex 4.01553 6.37527 0
    endloop
  endfacet
  facet normal -0.866043 -0.499913 -0.00756055
    outer loop
      vertex 3.98904 6.39093 2
      vertex 4.02907 6.35183 0
      vertex 4.01161 6.35183 2
    endloop
  endfacet
  facet normal -0.865979 -0.500024 -0.00755471
    outer loop
      vertex 3.98543 6.35183 5
      vertex 3.9228 6.43008 7
      vertex 3.94929 6.41442 5
    endloop
  endfacet
  facet normal -0.865989 -0.500005 -0.00755576
    outer loop
      vertex 3.9228 6.43008 7
      vertex 3.98543 6.35183 5
      vertex 3.96798 6.35183 7
    endloop
  endfacet
  facet normal 0.207882 -0.978152 0.0018146
    outer loop
      vertex 3.12186 6.85462 0
      vertex 3.13094 6.86026 2
      vertex 3.08671 6.85086 2
    endloop
  endfacet
  facet normal 0.207867 -0.978155 0.00181468
    outer loop
      vertex 3.13094 6.86026 2
      vertex 3.12186 6.85462 0
      vertex 3.1484 6.86026 0
    endloop
  endfacet
  facet normal 0.207882 -0.978152 0.00181356
    outer loop
      vertex 3.03399 6.84522 5
      vertex 3.08731 6.86026 7
      vertex 2.99885 6.84146 7
    endloop
  endfacet
  facet normal 0.207877 -0.978153 0.00181372
    outer loop
      vertex 3.08731 6.86026 7
      vertex 3.03399 6.84522 5
      vertex 3.10476 6.86026 5
    endloop
  endfacet
  facet normal 0.994496 0.104413 0.00868195
    outer loop
      vertex 2.35633 6 2
      vertex 2.37663 5.97295 0
      vertex 2.37379 6 0
    endloop
  endfacet
  facet normal 0.994491 0.104462 0.00868123
    outer loop
      vertex 2.37663 5.97295 0
      vertex 2.35633 6 2
      vertex 2.36106 5.95497 2
    endloop
  endfacet
  facet normal 0.994482 0.104544 0.00867686
    outer loop
      vertex 2.3127 6 7
      vertex 2.33772 5.92799 5
      vertex 2.33015 6 5
    endloop
  endfacet
  facet normal 0.994483 0.104543 0.00867691
    outer loop
      vertex 2.33772 5.92799 5
      vertex 2.3127 6 7
      vertex 2.32216 5.91001 7
    endloop
  endfacet
  facet normal -0.994486 0.104514 -0.00867689
    outer loop
      vertex 4.08495 5.82016 0
      vertex 4.0864 6 2
      vertex 4.10385 6 0
    endloop
  endfacet
  facet normal -0.99448 0.104569 -0.00868181
    outer loop
      vertex 4.0864 6 2
      vertex 4.08495 5.82016 0
      vertex 4.06749 5.82016 2
    endloop
  endfacet
  facet normal -0.99448 0.104569 -0.00868181
    outer loop
      vertex 4.04131 5.82016 5
      vertex 4.04276 6 7
      vertex 4.06022 6 5
    endloop
  endfacet
  facet normal -0.994486 0.104514 -0.00867689
    outer loop
      vertex 4.04276 6 7
      vertex 4.04131 5.82016 5
      vertex 4.02386 5.82016 7
    endloop
  endfacet
  facet normal 0 1 0
    outer loop
      vertex 3.1484 5.13974 0
      vertex 3.31179 5.13974 2
      vertex 3.32924 5.13974 0
    endloop
  endfacet
  facet normal 0 1 0
    outer loop
      vertex 3.31179 5.13974 2
      vertex 3.1484 5.13974 0
      vertex 3.13094 5.13974 2
    endloop
  endfacet
  facet normal 0 1 0
    outer loop
      vertex 3.10476 5.13974 5
      vertex 3.26815 5.13974 7
      vertex 3.28561 5.13974 5
    endloop
  endfacet
  facet normal 0 1 0
    outer loop
      vertex 3.26815 5.13974 7
      vertex 3.10476 5.13974 5
      vertex 3.08731 5.13974 7
    endloop
  endfacet
  facet normal -0.207972 -0.978133 -0.00181456
    outer loop
      vertex 3.32924 6.86026 0
      vertex 3.356 6.85086 2
      vertex 3.31179 6.86026 2
    endloop
  endfacet
  facet normal -0.207942 -0.978139 -0.00181499
    outer loop
      vertex 3.356 6.85086 2
      vertex 3.32924 6.86026 0
      vertex 3.35577 6.85462 0
    endloop
  endfacet
  facet normal -0.207927 -0.978143 -0.0018152
    outer loop
      vertex 3.28561 6.86026 5
      vertex 3.35659 6.84146 7
      vertex 3.26815 6.86026 7
    endloop
  endfacet
  facet normal -0.207961 -0.978135 -0.00181394
    outer loop
      vertex 3.35659 6.84146 7
      vertex 3.28561 6.86026 5
      vertex 3.35635 6.84522 5
    endloop
  endfacet
  facet normal 0.994476 0.104604 0.00868239
    outer loop
      vertex 2.37524 5.82016 2
      vertex 2.37663 5.97295 0
      vertex 2.36106 5.95497 2
    endloop
  endfacet
  facet normal 0.994484 0.104532 0.00867687
    outer loop
      vertex 2.37663 5.97295 0
      vertex 2.37524 5.82016 2
      vertex 2.39269 5.82016 0
    endloop
  endfacet
  facet normal 0.994489 0.104485 0.00867644
    outer loop
      vertex 2.3316 5.82016 7
      vertex 2.33772 5.92799 5
      vertex 2.32216 5.91001 7
    endloop
  endfacet
  facet normal 0.994488 0.104494 0.00867691
    outer loop
      vertex 2.33772 5.92799 5
      vertex 2.3316 5.82016 7
      vertex 2.34905 5.82016 5
    endloop
  endfacet
  facet normal 0.951028 -0.308994 0.0082985
    outer loop
      vertex 2.37524 6.17984 2
      vertex 2.44017 6.32597 0
      vertex 2.41713 6.30877 2
    endloop
  endfacet
  facet normal 0.951025 -0.309003 0.00829769
    outer loop
      vertex 2.44017 6.32597 0
      vertex 2.37524 6.17984 2
      vertex 2.39269 6.17984 0
    endloop
  endfacet
  facet normal 0.951025 -0.309003 0.00829838
    outer loop
      vertex 2.3316 6.17984 7
      vertex 2.38256 6.28297 5
      vertex 2.35952 6.26577 7
    endloop
  endfacet
  facet normal 0.951021 -0.309015 0.00829766
    outer loop
      vertex 2.38256 6.28297 5
      vertex 2.3316 6.17984 7
      vertex 2.34905 6.17984 5
    endloop
  endfacet
  facet normal 0.866021 -0.49995 0.00756056
    outer loop
      vertex 2.43112 6.35183 2
      vertex 2.46217 6.37537 0
      vertex 2.45375 6.39103 2
    endloop
  endfacet
  facet normal 0.865855 -0.500239 0.00755458
    outer loop
      vertex 2.46217 6.37537 0
      vertex 2.43112 6.35183 2
      vertex 2.44857 6.35183 0
    endloop
  endfacet
  facet normal 0.865931 -0.500107 0.00755708
    outer loop
      vertex 2.38748 6.35183 7
      vertex 2.44114 6.41452 5
      vertex 2.43273 6.43018 7
    endloop
  endfacet
  facet normal 0.865965 -0.500047 0.00755988
    outer loop
      vertex 2.44114 6.41452 5
      vertex 2.38748 6.35183 7
      vertex 2.40494 6.35183 5
    endloop
  endfacet
  facet normal 0.743146 -0.669097 0.00648737
    outer loop
      vertex 2.52154 6.50843 2
      vertex 2.64182 6.62263 0
      vertex 2.61226 6.60919 2
    endloop
  endfacet
  facet normal 0.743117 -0.66913 0.00648369
    outer loop
      vertex 2.64182 6.62263 0
      vertex 2.52154 6.50843 2
      vertex 2.53899 6.50843 0
    endloop
  endfacet
  facet normal 0.743135 -0.66911 0.00648713
    outer loop
      vertex 2.4779 6.50843 7
      vertex 2.56793 6.58903 5
      vertex 2.53837 6.57559 7
    endloop
  endfacet
  facet normal 0.743141 -0.669103 0.00648762
    outer loop
      vertex 2.56793 6.58903 5
      vertex 2.4779 6.50843 7
      vertex 2.49536 6.50843 5
    endloop
  endfacet
  facet normal -0.951023 0.309009 -0.00830306
    outer loop
      vertex 4.02907 5.64817 0
      vertex 4.05354 5.77722 2
      vertex 4.07659 5.79442 0
    endloop
  endfacet
  facet normal -0.951026 0.309 -0.00830245
    outer loop
      vertex 4.05354 5.77722 2
      vertex 4.02907 5.64817 0
      vertex 4.01161 5.64817 2
    endloop
  endfacet
  facet normal -0.951018 0.309023 -0.00829813
    outer loop
      vertex 3.98543 5.64817 5
      vertex 3.99594 5.73422 7
      vertex 4.01898 5.75142 5
    endloop
  endfacet
  facet normal -0.951022 0.309013 -0.00829766
    outer loop
      vertex 3.99594 5.73422 7
      vertex 3.98543 5.64817 5
      vertex 3.96798 5.64817 7
    endloop
  endfacet
  facet normal 0.40671 0.91355 0.00354642
    outer loop
      vertex 2.83111 5.23984 0
      vertex 2.78885 5.25089 2
      vertex 2.83018 5.23249 2
    endloop
  endfacet
  facet normal 0.406853 0.913487 0.00354979
    outer loop
      vertex 2.78885 5.25089 2
      vertex 2.83111 5.23984 0
      vertex 2.8063 5.25089 0
    endloop
  endfacet
  facet normal 0.4067 0.913555 0.00354643
    outer loop
      vertex 2.82878 5.22145 5
      vertex 2.74521 5.25089 7
      vertex 2.82785 5.2141 7
    endloop
  endfacet
  facet normal 0.406802 0.913509 0.00355139
    outer loop
      vertex 2.74521 5.25089 7
      vertex 2.82878 5.22145 5
      vertex 2.76267 5.25089 5
    endloop
  endfacet
  facet normal 0.994491 -0.104462 0.00868123
    outer loop
      vertex 2.35633 6 2
      vertex 2.37663 6.02705 0
      vertex 2.36106 6.04503 2
    endloop
  endfacet
  facet normal 0.994496 -0.104413 0.00868195
    outer loop
      vertex 2.37663 6.02705 0
      vertex 2.35633 6 2
      vertex 2.37379 6 0
    endloop
  endfacet
  facet normal 0.994483 -0.104543 0.00867691
    outer loop
      vertex 2.3127 6 7
      vertex 2.33772 6.07201 5
      vertex 2.32216 6.08999 7
    endloop
  endfacet
  facet normal 0.994482 -0.104544 0.00867686
    outer loop
      vertex 2.33772 6.07201 5
      vertex 2.3127 6 7
      vertex 2.33015 6 5
    endloop
  endfacet
  facet normal 0.587804 -0.808987 0.00512859
    outer loop
      vertex 2.66 6.64282 0
      vertex 2.75224 6.72252 2
      vertex 2.64255 6.64282 2
    endloop
  endfacet
  facet normal 0.587773 -0.80901 0.00513093
    outer loop
      vertex 2.75224 6.72252 2
      vertex 2.66 6.64282 0
      vertex 2.78433 6.73315 0
    endloop
  endfacet
  facet normal 0.587743 -0.809032 0.00512806
    outer loop
      vertex 2.61636 6.64282 5
      vertex 2.67203 6.69594 7
      vertex 2.59891 6.64282 7
    endloop
  endfacet
  facet normal 0.587753 -0.809024 0.00512759
    outer loop
      vertex 2.67203 6.69594 7
      vertex 2.61636 6.64282 5
      vertex 2.70411 6.70657 5
    endloop
  endfacet
  facet normal 0.406704 -0.913553 0.00354643
    outer loop
      vertex 2.83111 6.76016 0
      vertex 2.95406 6.82266 2
      vertex 2.83018 6.76751 2
    endloop
  endfacet
  facet normal 0.406679 -0.913564 0.00354828
    outer loop
      vertex 2.95406 6.82266 2
      vertex 2.83111 6.76016 0
      vertex 2.97151 6.82266 0
    endloop
  endfacet
  facet normal 0.406711 -0.91355 0.00355098
    outer loop
      vertex 2.82878 6.77854 5
      vertex 2.91042 6.82266 7
      vertex 2.82785 6.7859 7
    endloop
  endfacet
  facet normal 0.406752 -0.913532 0.00354891
    outer loop
      vertex 2.91042 6.82266 7
      vertex 2.82878 6.77854 5
      vertex 2.92787 6.82266 5
    endloop
  endfacet
  facet normal -0.951061 0.308892 -0.00830276
    outer loop
      vertex 4.07659 5.79442 0
      vertex 4.06749 5.82016 2
      vertex 4.08495 5.82016 0
    endloop
  endfacet
  facet normal -0.951037 0.308965 -0.0083036
    outer loop
      vertex 4.06749 5.82016 2
      vertex 4.07659 5.79442 0
      vertex 4.05354 5.77722 2
    endloop
  endfacet
  facet normal -0.951044 0.308944 -0.00829786
    outer loop
      vertex 4.01898 5.75142 5
      vertex 4.02386 5.82016 7
      vertex 4.04131 5.82016 5
    endloop
  endfacet
  facet normal -0.951035 0.30897 -0.00829878
    outer loop
      vertex 4.02386 5.82016 7
      vertex 4.01898 5.75142 5
      vertex 3.99594 5.73422 7
    endloop
  endfacet
  facet normal -0.86589 0.500177 -0.00755922
    outer loop
      vertex 4.01553 5.62473 0
      vertex 4.01161 5.64817 2
      vertex 4.02907 5.64817 0
    endloop
  endfacet
  facet normal -0.866043 0.499913 -0.00755642
    outer loop
      vertex 4.01161 5.64817 2
      vertex 4.01553 5.62473 0
      vertex 3.98904 5.60907 2
    endloop
  endfacet
  facet normal -0.865979 0.500024 -0.00755567
    outer loop
      vertex 3.94929 5.58558 5
      vertex 3.96798 5.64817 7
      vertex 3.98543 5.64817 5
    endloop
  endfacet
  facet normal -0.865989 0.500005 -0.00755499
    outer loop
      vertex 3.96798 5.64817 7
      vertex 3.94929 5.58558 5
      vertex 3.9228 5.56992 7
    endloop
  endfacet
  facet normal -0.743058 0.669195 -0.00648467
    outer loop
      vertex 3.81764 5.35718 0
      vertex 3.83041 5.39074 2
      vertex 3.83576 5.3773 0
    endloop
  endfacet
  facet normal -0.743102 0.669146 -0.00648357
    outer loop
      vertex 3.83041 5.39074 2
      vertex 3.81764 5.35718 0
      vertex 3.80019 5.35718 2
    endloop
  endfacet
  facet normal -0.743058 0.669195 -0.00648839
    outer loop
      vertex 3.774 5.35718 5
      vertex 3.81702 5.42434 7
      vertex 3.82238 5.4109 5
    endloop
  endfacet
  facet normal -0.743135 0.66911 -0.00648386
    outer loop
      vertex 3.81702 5.42434 7
      vertex 3.774 5.35718 5
      vertex 3.75655 5.35718 7
    endloop
  endfacet
  facet normal 0.951028 0.308994 0.00829772
    outer loop
      vertex 2.41713 5.69123 2
      vertex 2.39269 5.82016 0
      vertex 2.37524 5.82016 2
    endloop
  endfacet
  facet normal 0.951025 0.309003 0.00829838
    outer loop
      vertex 2.39269 5.82016 0
      vertex 2.41713 5.69123 2
      vertex 2.44017 5.67403 0
    endloop
  endfacet
  facet normal 0.951025 0.309003 0.00829769
    outer loop
      vertex 2.35952 5.73423 7
      vertex 2.34905 5.82016 5
      vertex 2.3316 5.82016 7
    endloop
  endfacet
  facet normal 0.951021 0.309015 0.00829823
    outer loop
      vertex 2.34905 5.82016 5
      vertex 2.35952 5.73423 7
      vertex 2.38256 5.71703 5
    endloop
  endfacet
  facet normal 0.951031 0.308986 0.0082986
    outer loop
      vertex 2.43112 5.64817 2
      vertex 2.44017 5.67403 0
      vertex 2.41713 5.69123 2
    endloop
  endfacet
  facet normal 0.95105 0.308926 0.00829791
    outer loop
      vertex 2.44017 5.67403 0
      vertex 2.43112 5.64817 2
      vertex 2.44857 5.64817 0
    endloop
  endfacet
  facet normal 0.951032 0.30898 0.00829866
    outer loop
      vertex 2.38748 5.64817 7
      vertex 2.38256 5.71703 5
      vertex 2.35952 5.73423 7
    endloop
  endfacet
  facet normal 0.950999 0.309082 0.00830222
    outer loop
      vertex 2.38256 5.71703 5
      vertex 2.38748 5.64817 7
      vertex 2.40494 5.64817 5
    endloop
  endfacet
  facet normal -0.207897 0.978149 -0.0018139
    outer loop
      vertex 3.50613 5.17734 0
      vertex 3.356 5.14914 2
      vertex 3.48868 5.17734 2
    endloop
  endfacet
  facet normal -0.207911 0.978146 -0.001815
    outer loop
      vertex 3.356 5.14914 2
      vertex 3.50613 5.17734 0
      vertex 3.35577 5.14538 0
    endloop
  endfacet
  facet normal -0.208011 0.978125 -0.00181489
    outer loop
      vertex 3.46249 5.17734 5
      vertex 3.35659 5.15853 7
      vertex 3.44504 5.17734 7
    endloop
  endfacet
  facet normal -0.207905 0.978147 -0.00180908
    outer loop
      vertex 3.35659 5.15853 7
      vertex 3.46249 5.17734 5
      vertex 3.35635 5.15478 5
    endloop
  endfacet
  facet normal -0.406705 0.913553 -0.00355054
    outer loop
      vertex 3.50613 5.17734 0
      vertex 3.65388 5.25089 2
      vertex 3.67134 5.25089 0
    endloop
  endfacet
  facet normal -0.406726 0.913543 -0.00354868
    outer loop
      vertex 3.65388 5.25089 2
      vertex 3.50613 5.17734 0
      vertex 3.48868 5.17734 2
    endloop
  endfacet
  facet normal -0.406705 0.913553 -0.0035485
    outer loop
      vertex 3.46249 5.17734 5
      vertex 3.61025 5.25089 7
      vertex 3.6277 5.25089 5
    endloop
  endfacet
  facet normal -0.406705 0.913553 -0.0035485
    outer loop
      vertex 3.61025 5.25089 7
      vertex 3.46249 5.17734 5
      vertex 3.44504 5.17734 7
    endloop
  endfacet
  facet normal 0.406704 0.913553 0.00354849
    outer loop
      vertex 2.97151 5.17734 0
      vertex 2.83018 5.23249 2
      vertex 2.95406 5.17734 2
    endloop
  endfacet
  facet normal 0.406679 0.913564 0.00354645
    outer loop
      vertex 2.83018 5.23249 2
      vertex 2.97151 5.17734 0
      vertex 2.83111 5.23984 0
    endloop
  endfacet
  facet normal 0.406711 0.91355 0.00354855
    outer loop
      vertex 2.92787 5.17734 5
      vertex 2.82785 5.2141 7
      vertex 2.91042 5.17734 7
    endloop
  endfacet
  facet normal 0.406675 0.913566 0.00354646
    outer loop
      vertex 2.82785 5.2141 7
      vertex 2.92787 5.17734 5
      vertex 2.82878 5.22145 5
    endloop
  endfacet
  facet normal -0.743158 0.669085 -0.00648777
    outer loop
      vertex 3.93865 5.49157 0
      vertex 3.83041 5.39074 2
      vertex 3.92119 5.49157 2
    endloop
  endfacet
  facet normal -0.743127 0.66912 -0.00648435
    outer loop
      vertex 3.83041 5.39074 2
      vertex 3.93865 5.49157 0
      vertex 3.83576 5.3773 0
    endloop
  endfacet
  facet normal -0.743097 0.669152 -0.00648352
    outer loop
      vertex 3.89501 5.49157 5
      vertex 3.81702 5.42434 7
      vertex 3.87756 5.49157 7
    endloop
  endfacet
  facet normal -0.743155 0.669088 -0.00648793
    outer loop
      vertex 3.81702 5.42434 7
      vertex 3.89501 5.49157 5
      vertex 3.82238 5.4109 5
    endloop
  endfacet
  facet normal -0.587813 0.808981 -0.00512867
    outer loop
      vertex 3.79573 5.34126 0
      vertex 3.80019 5.35718 2
      vertex 3.81764 5.35718 0
    endloop
  endfacet
  facet normal -0.587703 0.80906 -0.00512954
    outer loop
      vertex 3.80019 5.35718 2
      vertex 3.79573 5.34126 0
      vertex 3.76364 5.33063 2
    endloop
  endfacet
  facet normal -0.587728 0.809042 -0.00512793
    outer loop
      vertex 3.71551 5.31469 5
      vertex 3.75655 5.35718 7
      vertex 3.774 5.35718 5
    endloop
  endfacet
  facet normal -0.587743 0.809032 -0.00512739
    outer loop
      vertex 3.75655 5.35718 7
      vertex 3.71551 5.31469 5
      vertex 3.68343 5.30406 7
    endloop
  endfacet
  facet normal 0.207867 0.978155 0.00181468
    outer loop
      vertex 3.12186 5.14538 0
      vertex 3.13094 5.13974 2
      vertex 3.1484 5.13974 0
    endloop
  endfacet
  facet normal 0.207882 0.978152 0.0018146
    outer loop
      vertex 3.13094 5.13974 2
      vertex 3.12186 5.14538 0
      vertex 3.08671 5.14914 2
    endloop
  endfacet
  facet normal 0.207877 0.978153 0.00181372
    outer loop
      vertex 3.03399 5.15478 5
      vertex 3.08731 5.13974 7
      vertex 3.10476 5.13974 5
    endloop
  endfacet
  facet normal 0.207882 0.978152 0.00181356
    outer loop
      vertex 3.08731 5.13974 7
      vertex 3.03399 5.15478 5
      vertex 2.99885 5.15854 7
    endloop
  endfacet
  facet normal -0.587752 -0.809025 -0.00513107
    outer loop
      vertex 3.67134 6.74911 0
      vertex 3.76364 6.66937 2
      vertex 3.65388 6.74911 2
    endloop
  endfacet
  facet normal -0.587758 -0.809021 -0.00513063
    outer loop
      vertex 3.76364 6.66937 2
      vertex 3.67134 6.74911 0
      vertex 3.79573 6.65874 0
    endloop
  endfacet
  facet normal -0.587789 -0.808998 -0.00512846
    outer loop
      vertex 3.6277 6.74911 5
      vertex 3.68343 6.69594 7
      vertex 3.61025 6.74911 7
    endloop
  endfacet
  facet normal -0.587791 -0.808996 -0.00512836
    outer loop
      vertex 3.68343 6.69594 7
      vertex 3.6277 6.74911 5
      vertex 3.71551 6.68531 5
    endloop
  endfacet
  facet normal 0.865972 -0.500036 0.0075556
    outer loop
      vertex 2.45375 6.39103 2
      vertex 2.53899 6.50843 0
      vertex 2.52154 6.50843 2
    endloop
  endfacet
  facet normal 0.866007 -0.499975 0.00756069
    outer loop
      vertex 2.53899 6.50843 0
      vertex 2.45375 6.39103 2
      vertex 2.46217 6.37537 0
    endloop
  endfacet
  facet normal 0.866037 -0.499922 0.00756051
    outer loop
      vertex 2.43273 6.43018 7
      vertex 2.49536 6.50843 5
      vertex 2.4779 6.50843 7
    endloop
  endfacet
  facet normal 0.865997 -0.499993 0.00755646
    outer loop
      vertex 2.49536 6.50843 5
      vertex 2.43273 6.43018 7
      vertex 2.44114 6.41452 5
    endloop
  endfacet
  facet normal 0.207942 -0.978139 0.0018143
    outer loop
      vertex 2.97151 6.82266 0
      vertex 3.08671 6.85086 2
      vertex 2.95406 6.82266 2
    endloop
  endfacet
  facet normal 0.207925 -0.978143 0.00181536
    outer loop
      vertex 3.08671 6.85086 2
      vertex 2.97151 6.82266 0
      vertex 3.12186 6.85462 0
    endloop
  endfacet
  facet normal 0.20795 -0.978138 0.00181436
    outer loop
      vertex 2.92787 6.82266 5
      vertex 2.99885 6.84146 7
      vertex 2.91042 6.82266 7
    endloop
  endfacet
  facet normal 0.207942 -0.978139 0.00181464
    outer loop
      vertex 2.99885 6.84146 7
      vertex 2.92787 6.82266 5
      vertex 3.03399 6.84522 5
    endloop
  endfacet
  facet normal 0.40671 -0.91355 0.00354855
    outer loop
      vertex 2.8063 6.74911 0
      vertex 2.83018 6.76751 2
      vertex 2.78885 6.74911 2
    endloop
  endfacet
  facet normal 0.406853 -0.913487 0.00354625
    outer loop
      vertex 2.83018 6.76751 2
      vertex 2.8063 6.74911 0
      vertex 2.83111 6.76016 0
    endloop
  endfacet
  facet normal 0.4067 -0.913555 0.00355049
    outer loop
      vertex 2.76267 6.74911 5
      vertex 2.82785 6.7859 7
      vertex 2.74521 6.74911 7
    endloop
  endfacet
  facet normal 0.406687 -0.913561 0.00355101
    outer loop
      vertex 2.82785 6.7859 7
      vertex 2.76267 6.74911 5
      vertex 2.82878 6.77854 5
    endloop
  endfacet
  facet normal 0.587651 -0.809098 0.00512851
    outer loop
      vertex 2.78433 6.73315 0
      vertex 2.78885 6.74911 2
      vertex 2.75224 6.72252 2
    endloop
  endfacet
  facet normal 0.587726 -0.809044 0.00512791
    outer loop
      vertex 2.78885 6.74911 2
      vertex 2.78433 6.73315 0
      vertex 2.8063 6.74911 0
    endloop
  endfacet
  facet normal 0.587789 -0.808998 0.00512832
    outer loop
      vertex 2.70411 6.70657 5
      vertex 2.74521 6.74911 7
      vertex 2.67203 6.69594 7
    endloop
  endfacet
  facet normal 0.58772 -0.809048 0.0051308
    outer loop
      vertex 2.74521 6.74911 7
      vertex 2.70411 6.70657 5
      vertex 2.76267 6.74911 5
    endloop
  endfacet
  facet normal 0.865972 0.500036 0.00756102
    outer loop
      vertex 2.52154 5.49157 2
      vertex 2.46217 5.62463 0
      vertex 2.45375 5.60897 2
    endloop
  endfacet
  facet normal 0.866007 0.499975 0.00755591
    outer loop
      vertex 2.46217 5.62463 0
      vertex 2.52154 5.49157 2
      vertex 2.53899 5.49157 0
    endloop
  endfacet
  facet normal 0.866037 0.499922 0.00755608
    outer loop
      vertex 2.4779 5.49157 7
      vertex 2.44114 5.58548 5
      vertex 2.43273 5.56982 7
    endloop
  endfacet
  facet normal 0.865997 0.499993 0.00756015
    outer loop
      vertex 2.44114 5.58548 5
      vertex 2.4779 5.49157 7
      vertex 2.49536 5.49157 5
    endloop
  endfacet
  facet normal 0.865855 0.500239 0.00755458
    outer loop
      vertex 2.43112 5.64817 2
      vertex 2.46217 5.62463 0
      vertex 2.44857 5.64817 0
    endloop
  endfacet
  facet normal 0.866021 0.49995 0.00756056
    outer loop
      vertex 2.46217 5.62463 0
      vertex 2.43112 5.64817 2
      vertex 2.45375 5.60897 2
    endloop
  endfacet
  facet normal 0.865965 0.500047 0.00755988
    outer loop
      vertex 2.38748 5.64817 7
      vertex 2.44114 5.58548 5
      vertex 2.40494 5.64817 5
    endloop
  endfacet
  facet normal 0.865931 0.500107 0.00755708
    outer loop
      vertex 2.44114 5.58548 5
      vertex 2.38748 5.64817 7
      vertex 2.43273 5.56982 7
    endloop
  endfacet
  facet normal -0.587758 0.809021 -0.00513063
    outer loop
      vertex 3.67134 5.25089 0
      vertex 3.76364 5.33063 2
      vertex 3.79573 5.34126 0
    endloop
  endfacet
  facet normal -0.587752 0.809025 -0.00513107
    outer loop
      vertex 3.76364 5.33063 2
      vertex 3.67134 5.25089 0
      vertex 3.65388 5.25089 2
    endloop
  endfacet
  facet normal -0.587791 0.808996 -0.00512836
    outer loop
      vertex 3.6277 5.25089 5
      vertex 3.68343 5.30406 7
      vertex 3.71551 5.31469 5
    endloop
  endfacet
  facet normal -0.587789 0.808998 -0.00512846
    outer loop
      vertex 3.68343 5.30406 7
      vertex 3.6277 5.25089 5
      vertex 3.61025 5.25089 7
    endloop
  endfacet
  facet normal 0.587726 0.809044 0.00512791
    outer loop
      vertex 2.78433 5.26685 0
      vertex 2.78885 5.25089 2
      vertex 2.8063 5.25089 0
    endloop
  endfacet
  facet normal 0.587651 0.809098 0.00512851
    outer loop
      vertex 2.78885 5.25089 2
      vertex 2.78433 5.26685 0
      vertex 2.75224 5.27748 2
    endloop
  endfacet
  facet normal 0.58772 0.809048 0.0051308
    outer loop
      vertex 2.70411 5.29343 5
      vertex 2.74521 5.25089 7
      vertex 2.76267 5.25089 5
    endloop
  endfacet
  facet normal 0.587789 0.808998 0.00512832
    outer loop
      vertex 2.74521 5.25089 7
      vertex 2.70411 5.29343 5
      vertex 2.67203 5.30406 7
    endloop
  endfacet
  facet normal -0.865964 -0.500048 -0.00755987
    outer loop
      vertex 3.93865 6.50843 0
      vertex 3.98904 6.39093 2
      vertex 3.92119 6.50843 2
    endloop
  endfacet
  facet normal -0.866001 -0.499986 -0.00755529
    outer loop
      vertex 3.98904 6.39093 2
      vertex 3.93865 6.50843 0
      vertex 4.01553 6.37527 0
    endloop
  endfacet
  facet normal -0.865979 -0.500024 -0.00755566
    outer loop
      vertex 3.89501 6.50843 5
      vertex 3.9228 6.43008 7
      vertex 3.87756 6.50843 7
    endloop
  endfacet
  facet normal -0.865988 -0.500009 -0.00755494
    outer loop
      vertex 3.9228 6.43008 7
      vertex 3.89501 6.50843 5
      vertex 3.94929 6.41442 5
    endloop
  endfacet
  facet normal 0.95105 -0.308926 0.00829791
    outer loop
      vertex 2.43112 6.35183 2
      vertex 2.44017 6.32597 0
      vertex 2.44857 6.35183 0
    endloop
  endfacet
  facet normal 0.951031 -0.308986 0.0082986
    outer loop
      vertex 2.44017 6.32597 0
      vertex 2.43112 6.35183 2
      vertex 2.41713 6.30877 2
    endloop
  endfacet
  facet normal 0.950999 -0.309082 0.00830222
    outer loop
      vertex 2.38748 6.35183 7
      vertex 2.38256 6.28297 5
      vertex 2.40494 6.35183 5
    endloop
  endfacet
  facet normal 0.951032 -0.30898 0.00829866
    outer loop
      vertex 2.38256 6.28297 5
      vertex 2.38748 6.35183 7
      vertex 2.35952 6.26577 7
    endloop
  endfacet
  facet normal 0.743146 0.669097 0.00648395
    outer loop
      vertex 2.61226 5.39081 2
      vertex 2.53899 5.49157 0
      vertex 2.52154 5.49157 2
    endloop
  endfacet
  facet normal 0.743117 0.66913 0.00648671
    outer loop
      vertex 2.53899 5.49157 0
      vertex 2.61226 5.39081 2
      vertex 2.64182 5.37737 0
    endloop
  endfacet
  facet normal 0.743135 0.66911 0.00648757
    outer loop
      vertex 2.53837 5.42441 7
      vertex 2.49536 5.49157 5
      vertex 2.4779 5.49157 7
    endloop
  endfacet
  facet normal 0.743141 0.669103 0.00648725
    outer loop
      vertex 2.49536 5.49157 5
      vertex 2.53837 5.42441 7
      vertex 2.56793 5.41097 5
    endloop
  endfacet
  facet normal 0.743026 0.669231 0.00648469
    outer loop
      vertex 2.64255 5.35718 2
      vertex 2.64182 5.37737 0
      vertex 2.61226 5.39081 2
    endloop
  endfacet
  facet normal 0.743114 0.669134 0.00648367
    outer loop
      vertex 2.64182 5.37737 0
      vertex 2.64255 5.35718 2
      vertex 2.66 5.35718 0
    endloop
  endfacet
  facet normal 0.743097 0.669152 0.00648627
    outer loop
      vertex 2.59891 5.35718 7
      vertex 2.56793 5.41097 5
      vertex 2.53837 5.42441 7
    endloop
  endfacet
  facet normal 0.743148 0.669096 0.00648397
    outer loop
      vertex 2.56793 5.41097 5
      vertex 2.59891 5.35718 7
      vertex 2.61636 5.35718 5
    endloop
  endfacet
  facet normal -0.743127 -0.66912 -0.00648435
    outer loop
      vertex 3.93865 6.50843 0
      vertex 3.83041 6.60926 2
      vertex 3.83576 6.6227 0
    endloop
  endfacet
  facet normal -0.743158 -0.669085 -0.00648777
    outer loop
      vertex 3.83041 6.60926 2
      vertex 3.93865 6.50843 0
      vertex 3.92119 6.50843 2
    endloop
  endfacet
  facet normal -0.743155 -0.669088 -0.00648793
    outer loop
      vertex 3.89501 6.50843 5
      vertex 3.81702 6.57566 7
      vertex 3.82238 6.5891 5
    endloop
  endfacet
  facet normal -0.743097 -0.669152 -0.00648352
    outer loop
      vertex 3.81702 6.57566 7
      vertex 3.89501 6.50843 5
      vertex 3.87756 6.50843 7
    endloop
  endfacet
  facet normal 0 1 -0
    outer loop
      vertex 10 2 32
      vertex 2 2 34
      vertex 10 2 34
    endloop
  endfacet
  facet normal 0 1 0
    outer loop
      vertex 2 2 34
      vertex 10 2 32
      vertex 2 2 32
    endloop
  endfacet
  facet normal 0 -1 0
    outer loop
      vertex 2 10 32
      vertex 10 10 34
      vertex 2 10 34
    endloop
  endfacet
  facet normal 0 -1 -0
    outer loop
      vertex 10 10 34
      vertex 2 10 32
      vertex 10 10 32
    endloop
  endfacet
endsolid OpenSCAD_Model
