solid OpenSCAD_Model
  facet normal 0 0 1
    outer loop
      vertex 4 5 2
      vertex 2.2 2.5 2
      vertex 4 0 2
    endloop
  endfacet
  facet normal 0 0 1
    outer loop
      vertex 4 5 2
      vertex 2.18689 2.62475 2
      vertex 2.2 2.5 2
    endloop
  endfacet
  facet normal 0 0 1
    outer loop
      vertex 4 5 2
      vertex 2.14813 2.74404 2
      vertex 2.18689 2.62475 2
    endloop
  endfacet
  facet normal 0 0 1
    outer loop
      vertex 4 5 2
      vertex 2.08541 2.85267 2
      vertex 2.14813 2.74404 2
    endloop
  endfacet
  facet normal 0 0 1
    outer loop
      vertex 4 5 2
      vertex 2.00148 2.94589 2
      vertex 2.08541 2.85267 2
    endloop
  endfacet
  facet normal 0 0 1
    outer loop
      vertex 4 5 2
      vertex 1.9 3.01962 2
      vertex 2.00148 2.94589 2
    endloop
  endfacet
  facet normal 0 0 1
    outer loop
      vertex 4 5 2
      vertex 1.78541 3.07063 2
      vertex 1.9 3.01962 2
    endloop
  endfacet
  facet normal 0 0 1
    outer loop
      vertex 4 5 2
      vertex 1.66272 3.09671 2
      vertex 1.78541 3.07063 2
    endloop
  endfacet
  facet normal -0 0 1
    outer loop
      vertex 0.2 5 2
      vertex 1.66272 3.09671 2
      vertex 4 5 2
    endloop
  endfacet
  facet normal 0 0 1
    outer loop
      vertex 1.66272 3.09671 2
      vertex 0.2 5 2
      vertex 1.53728 3.09671 2
    endloop
  endfacet
  facet normal 0 0 1
    outer loop
      vertex 1.53728 3.09671 2
      vertex 0.2 5 2
      vertex 1.41459 3.07063 2
    endloop
  endfacet
  facet normal 0 0 1
    outer loop
      vertex 1.41459 3.07063 2
      vertex 0.2 5 2
      vertex 1.3 3.01962 2
    endloop
  endfacet
  facet normal 0 0 1
    outer loop
      vertex 1.01311 2.62475 2
      vertex 0.2 5 2
      vertex 1 2.5 2
    endloop
  endfacet
  facet normal 0 0 1
    outer loop
      vertex 1.05187 2.74404 2
      vertex 0.2 5 2
      vertex 1.01311 2.62475 2
    endloop
  endfacet
  facet normal 0 0 1
    outer loop
      vertex 1.11459 2.85267 2
      vertex 0.2 5 2
      vertex 1.05187 2.74404 2
    endloop
  endfacet
  facet normal 0 0 1
    outer loop
      vertex 1.19852 2.94589 2
      vertex 0.2 5 2
      vertex 1.11459 2.85267 2
    endloop
  endfacet
  facet normal 0 0 1
    outer loop
      vertex 1.3 3.01962 2
      vertex 0.2 5 2
      vertex 1.19852 2.94589 2
    endloop
  endfacet
  facet normal -0 0 1
    outer loop
      vertex 2.18689 2.37525 2
      vertex 4 0 2
      vertex 2.2 2.5 2
    endloop
  endfacet
  facet normal -0 0 1
    outer loop
      vertex 2.14813 2.25596 2
      vertex 4 0 2
      vertex 2.18689 2.37525 2
    endloop
  endfacet
  facet normal -0 0 1
    outer loop
      vertex 2.08541 2.14733 2
      vertex 4 0 2
      vertex 2.14813 2.25596 2
    endloop
  endfacet
  facet normal -0 0 1
    outer loop
      vertex 2.00148 2.05411 2
      vertex 4 0 2
      vertex 2.08541 2.14733 2
    endloop
  endfacet
  facet normal -0 0 1
    outer loop
      vertex 1.9 1.98038 2
      vertex 4 0 2
      vertex 2.00148 2.05411 2
    endloop
  endfacet
  facet normal -0 0 1
    outer loop
      vertex 1.78541 1.92937 2
      vertex 4 0 2
      vertex 1.9 1.98038 2
    endloop
  endfacet
  facet normal -0 0 1
    outer loop
      vertex 1.66272 1.90329 2
      vertex 4 0 2
      vertex 1.78541 1.92937 2
    endloop
  endfacet
  facet normal 0 0 1
    outer loop
      vertex 0.2 0 2
      vertex 1.66272 1.90329 2
      vertex 1.53728 1.90329 2
    endloop
  endfacet
  facet normal 0 0 1
    outer loop
      vertex 0.2 0 2
      vertex 1.53728 1.90329 2
      vertex 1.41459 1.92937 2
    endloop
  endfacet
  facet normal 0 0 1
    outer loop
      vertex 0.2 0 2
      vertex 1.41459 1.92937 2
      vertex 1.3 1.98038 2
    endloop
  endfacet
  facet normal 0 0 1
    outer loop
      vertex 0.2 0 2
      vertex 1.3 1.98038 2
      vertex 1.19852 2.05411 2
    endloop
  endfacet
  facet normal 0 0 1
    outer loop
      vertex 0.2 0 2
      vertex 1 2.5 2
      vertex 0.2 5 2
    endloop
  endfacet
  facet normal 0 0 1
    outer loop
      vertex 1.66272 1.90329 2
      vertex 0.2 0 2
      vertex 4 0 2
    endloop
  endfacet
  facet normal 0 0 1
    outer loop
      vertex 1.11459 2.14733 2
      vertex 0.2 0 2
      vertex 1.19852 2.05411 2
    endloop
  endfacet
  facet normal 0 0 1
    outer loop
      vertex 1.05187 2.25596 2
      vertex 0.2 0 2
      vertex 1.11459 2.14733 2
    endloop
  endfacet
  facet normal 0 0 1
    outer loop
      vertex 1.01311 2.37525 2
      vertex 0.2 0 2
      vertex 1.05187 2.25596 2
    endloop
  endfacet
  facet normal 0 0 1
    outer loop
      vertex 1 2.5 2
      vertex 0.2 0 2
      vertex 1.01311 2.37525 2
    endloop
  endfacet
  facet normal -1 0 0
    outer loop
      vertex 4 0 8.1
      vertex 4 5 18.3
      vertex 4 5 8.1
    endloop
  endfacet
  facet normal -1 -0 0
    outer loop
      vertex 4 5 18.3
      vertex 4 0 8.1
      vertex 4 0 18.3
    endloop
  endfacet
  facet normal -1 0 0
    outer loop
      vertex 4 0 2
      vertex 4 5 6.1
      vertex 4 5 2
    endloop
  endfacet
  facet normal -1 -0 0
    outer loop
      vertex 4 5 6.1
      vertex 4 0 2
      vertex 4 0 6.1
    endloop
  endfacet
  facet normal 0 1 0
    outer loop
      vertex 4 5 18.3
      vertex 4 5 20.3
      vertex 5 5 20.3
    endloop
  endfacet
  facet normal 0 1 0
    outer loop
      vertex 0.2 5 18.3
      vertex 4 5 20.3
      vertex 4 5 18.3
    endloop
  endfacet
  facet normal 0 1 0
    outer loop
      vertex 4 5 20.3
      vertex 0.2 5 18.3
      vertex 0 5 20.3
    endloop
  endfacet
  facet normal 0 1 0
    outer loop
      vertex 5 5 20.3
      vertex 4 5 8.1
      vertex 4 5 18.3
    endloop
  endfacet
  facet normal 0 1 0
    outer loop
      vertex 4 5 8.1
      vertex 4 5 6.1
      vertex 1.1 5 8.1
    endloop
  endfacet
  facet normal 0 1 -0
    outer loop
      vertex 5 5 0
      vertex 4 5 8.1
      vertex 5 5 20.3
    endloop
  endfacet
  facet normal 0 1 0
    outer loop
      vertex 4 5 8.1
      vertex 5 5 0
      vertex 4 5 6.1
    endloop
  endfacet
  facet normal 0 1 0
    outer loop
      vertex 4 5 2
      vertex 5 5 0
      vertex 0.2 5 2
    endloop
  endfacet
  facet normal 0 1 0
    outer loop
      vertex 4 5 6.1
      vertex 5 5 0
      vertex 4 5 2
    endloop
  endfacet
  facet normal 0 1 0
    outer loop
      vertex 0 5 20.3
      vertex 0.2 5 18.3
      vertex -0.799999 5 20.3
    endloop
  endfacet
  facet normal 0 1 -0
    outer loop
      vertex 0.2 5 2
      vertex -0.799999 5 20.3
      vertex 0.2 5 18.3
    endloop
  endfacet
  facet normal 0 1 0
    outer loop
      vertex 0.2 5 2
      vertex -0.799999 5 0
      vertex -0.799999 5 20.3
    endloop
  endfacet
  facet normal 0 1 0
    outer loop
      vertex -0.799999 5 0
      vertex 0.2 5 2
      vertex 5 5 0
    endloop
  endfacet
  facet normal 0 1 0
    outer loop
      vertex 1.1 5 8.1
      vertex 4 5 6.1
      vertex 1.1 5 6.1
    endloop
  endfacet
  facet normal 0 0 -1
    outer loop
      vertex 5 0 0
      vertex 2.2 2.5 0
      vertex 5 5 0
    endloop
  endfacet
  facet normal 0 0 -1
    outer loop
      vertex 5 0 0
      vertex 2.18689 2.37525 0
      vertex 2.2 2.5 0
    endloop
  endfacet
  facet normal 0 0 -1
    outer loop
      vertex 5 0 0
      vertex 2.14813 2.25596 0
      vertex 2.18689 2.37525 0
    endloop
  endfacet
  facet normal 0 0 -1
    outer loop
      vertex 5 0 0
      vertex 2.08541 2.14733 0
      vertex 2.14813 2.25596 0
    endloop
  endfacet
  facet normal 0 0 -1
    outer loop
      vertex 5 0 0
      vertex 2.00148 2.05411 0
      vertex 2.08541 2.14733 0
    endloop
  endfacet
  facet normal 0 0 -1
    outer loop
      vertex 5 0 0
      vertex 1.9 1.98038 0
      vertex 2.00148 2.05411 0
    endloop
  endfacet
  facet normal 0 0 -1
    outer loop
      vertex 5 0 0
      vertex 1.78541 1.92937 0
      vertex 1.9 1.98038 0
    endloop
  endfacet
  facet normal 0 0 -1
    outer loop
      vertex 5 0 0
      vertex 1.66272 1.90329 0
      vertex 1.78541 1.92937 0
    endloop
  endfacet
  facet normal 0 0 -1
    outer loop
      vertex -0.799999 0 0
      vertex 1.66272 1.90329 0
      vertex 5 0 0
    endloop
  endfacet
  facet normal -0 0 -1
    outer loop
      vertex 1.66272 1.90329 0
      vertex -0.799999 0 0
      vertex 1.53728 1.90329 0
    endloop
  endfacet
  facet normal -0 0 -1
    outer loop
      vertex 1.53728 1.90329 0
      vertex -0.799999 0 0
      vertex 1.41459 1.92937 0
    endloop
  endfacet
  facet normal -0 0 -1
    outer loop
      vertex 1.01311 2.37525 0
      vertex -0.799999 0 0
      vertex 1 2.5 0
    endloop
  endfacet
  facet normal -0 0 -1
    outer loop
      vertex 1.05187 2.25596 0
      vertex -0.799999 0 0
      vertex 1.01311 2.37525 0
    endloop
  endfacet
  facet normal -0 0 -1
    outer loop
      vertex 1.11459 2.14733 0
      vertex -0.799999 0 0
      vertex 1.05187 2.25596 0
    endloop
  endfacet
  facet normal -0 0 -1
    outer loop
      vertex 1.19852 2.05411 0
      vertex -0.799999 0 0
      vertex 1.11459 2.14733 0
    endloop
  endfacet
  facet normal -0 0 -1
    outer loop
      vertex 1.3 1.98038 0
      vertex -0.799999 0 0
      vertex 1.19852 2.05411 0
    endloop
  endfacet
  facet normal -0 0 -1
    outer loop
      vertex 1.41459 1.92937 0
      vertex -0.799999 0 0
      vertex 1.3 1.98038 0
    endloop
  endfacet
  facet normal 0 0 -1
    outer loop
      vertex 2.18689 2.62475 0
      vertex 5 5 0
      vertex 2.2 2.5 0
    endloop
  endfacet
  facet normal 0 0 -1
    outer loop
      vertex 2.14813 2.74404 0
      vertex 5 5 0
      vertex 2.18689 2.62475 0
    endloop
  endfacet
  facet normal 0 0 -1
    outer loop
      vertex 2.08541 2.85267 0
      vertex 5 5 0
      vertex 2.14813 2.74404 0
    endloop
  endfacet
  facet normal 0 0 -1
    outer loop
      vertex 2.00148 2.94589 0
      vertex 5 5 0
      vertex 2.08541 2.85267 0
    endloop
  endfacet
  facet normal 0 0 -1
    outer loop
      vertex 1.9 3.01962 0
      vertex 5 5 0
      vertex 2.00148 2.94589 0
    endloop
  endfacet
  facet normal 0 0 -1
    outer loop
      vertex 1.78541 3.07063 0
      vertex 5 5 0
      vertex 1.9 3.01962 0
    endloop
  endfacet
  facet normal 0 0 -1
    outer loop
      vertex 1.66272 3.09671 0
      vertex 5 5 0
      vertex 1.78541 3.07063 0
    endloop
  endfacet
  facet normal 0 0 -1
    outer loop
      vertex -0.799999 5 0
      vertex 1.66272 3.09671 0
      vertex 1.53728 3.09671 0
    endloop
  endfacet
  facet normal 0 0 -1
    outer loop
      vertex -0.799999 5 0
      vertex 1.53728 3.09671 0
      vertex 1.41459 3.07063 0
    endloop
  endfacet
  facet normal 0 0 -1
    outer loop
      vertex -0.799999 5 0
      vertex 1.41459 3.07063 0
      vertex 1.3 3.01962 0
    endloop
  endfacet
  facet normal 0 0 -1
    outer loop
      vertex -0.799999 5 0
      vertex 1 2.5 0
      vertex -0.799999 0 0
    endloop
  endfacet
  facet normal 0 0 -1
    outer loop
      vertex 1 2.5 0
      vertex -0.799999 5 0
      vertex 1.01311 2.62475 0
    endloop
  endfacet
  facet normal 0 0 -1
    outer loop
      vertex 1.01311 2.62475 0
      vertex -0.799999 5 0
      vertex 1.05187 2.74404 0
    endloop
  endfacet
  facet normal 0 0 -1
    outer loop
      vertex 1.66272 3.09671 0
      vertex -0.799999 5 0
      vertex 5 5 0
    endloop
  endfacet
  facet normal 0 0 -1
    outer loop
      vertex 1.19852 2.94589 0
      vertex -0.799999 5 0
      vertex 1.3 3.01962 0
    endloop
  endfacet
  facet normal 0 0 -1
    outer loop
      vertex 1.11459 2.85267 0
      vertex -0.799999 5 0
      vertex 1.19852 2.94589 0
    endloop
  endfacet
  facet normal 0 0 -1
    outer loop
      vertex 1.05187 2.74404 0
      vertex -0.799999 5 0
      vertex 1.11459 2.85267 0
    endloop
  endfacet
  facet normal 0 -1 0
    outer loop
      vertex 1.1 0 8.1
      vertex 1.1 0 6.1
      vertex 4 0 8.1
    endloop
  endfacet
  facet normal 0 -1 0
    outer loop
      vertex 0.2 0 18.3
      vertex 0 0 20.3
      vertex -0.799999 0 20.3
    endloop
  endfacet
  facet normal 0 -1 0
    outer loop
      vertex 0 0 20.3
      vertex 0.2 0 18.3
      vertex 4 0 20.3
    endloop
  endfacet
  facet normal 0 -1 0
    outer loop
      vertex 4 0 18.3
      vertex 4 0 20.3
      vertex 0.2 0 18.3
    endloop
  endfacet
  facet normal 0 -1 0
    outer loop
      vertex -0.799999 0 20.3
      vertex 0.2 0 2
      vertex 0.2 0 18.3
    endloop
  endfacet
  facet normal 0 -1 -0
    outer loop
      vertex 0.2 0 2
      vertex -0.799999 0 0
      vertex 4 0 2
    endloop
  endfacet
  facet normal 0 -1 0
    outer loop
      vertex -0.799999 0 0
      vertex 0.2 0 2
      vertex -0.799999 0 20.3
    endloop
  endfacet
  facet normal 0 -1 0
    outer loop
      vertex 4 0 20.3
      vertex 4 0 18.3
      vertex 5 0 20.3
    endloop
  endfacet
  facet normal 0 -1 0
    outer loop
      vertex 4 0 8.1
      vertex 5 0 20.3
      vertex 4 0 18.3
    endloop
  endfacet
  facet normal 0 -1 0
    outer loop
      vertex 4 0 6.1
      vertex 4 0 8.1
      vertex 1.1 0 6.1
    endloop
  endfacet
  facet normal 0 -1 0
    outer loop
      vertex 5 0 0
      vertex 4 0 8.1
      vertex 4 0 6.1
    endloop
  endfacet
  facet normal 0 -1 0
    outer loop
      vertex 5 0 0
      vertex 4 0 6.1
      vertex 4 0 2
    endloop
  endfacet
  facet normal 0 -1 0
    outer loop
      vertex 4 0 8.1
      vertex 5 0 0
      vertex 5 0 20.3
    endloop
  endfacet
  facet normal 0 -1 0
    outer loop
      vertex 5 0 0
      vertex 4 0 2
      vertex -0.799999 0 0
    endloop
  endfacet
  facet normal -0.994523 -0.104515 0
    outer loop
      vertex 2.2 2.5 0
      vertex 2.18689 2.62475 2
      vertex 2.18689 2.62475 0
    endloop
  endfacet
  facet normal -0.994523 -0.104515 0
    outer loop
      vertex 2.18689 2.62475 2
      vertex 2.2 2.5 0
      vertex 2.2 2.5 2
    endloop
  endfacet
  facet normal 0.207923 -0.978145 0
    outer loop
      vertex 1.41459 3.07063 0
      vertex 1.53728 3.09671 2
      vertex 1.41459 3.07063 2
    endloop
  endfacet
  facet normal 0.207923 -0.978145 0
    outer loop
      vertex 1.53728 3.09671 2
      vertex 1.41459 3.07063 0
      vertex 1.53728 3.09671 0
    endloop
  endfacet
  facet normal -0.207923 0.978145 0
    outer loop
      vertex 1.78541 1.92937 0
      vertex 1.66272 1.90329 2
      vertex 1.78541 1.92937 2
    endloop
  endfacet
  facet normal -0.207923 0.978145 0
    outer loop
      vertex 1.66272 1.90329 2
      vertex 1.78541 1.92937 0
      vertex 1.66272 1.90329 0
    endloop
  endfacet
  facet normal -0.587788 -0.809015 0
    outer loop
      vertex 1.9 3.01962 0
      vertex 2.00148 2.94589 2
      vertex 1.9 3.01962 2
    endloop
  endfacet
  facet normal -0.587788 -0.809015 -0
    outer loop
      vertex 2.00148 2.94589 2
      vertex 1.9 3.01962 0
      vertex 2.00148 2.94589 0
    endloop
  endfacet
  facet normal 0.866017 -0.500015 0
    outer loop
      vertex 1.05187 2.74404 2
      vertex 1.11459 2.85267 0
      vertex 1.11459 2.85267 2
    endloop
  endfacet
  facet normal 0.866017 -0.500015 0
    outer loop
      vertex 1.11459 2.85267 0
      vertex 1.05187 2.74404 2
      vertex 1.05187 2.74404 0
    endloop
  endfacet
  facet normal 0.951056 -0.309019 0
    outer loop
      vertex 1.01311 2.62475 2
      vertex 1.05187 2.74404 0
      vertex 1.05187 2.74404 2
    endloop
  endfacet
  facet normal 0.951056 -0.309019 0
    outer loop
      vertex 1.05187 2.74404 0
      vertex 1.01311 2.62475 2
      vertex 1.01311 2.62475 0
    endloop
  endfacet
  facet normal 0.587788 -0.809015 0
    outer loop
      vertex 1.19852 2.94589 0
      vertex 1.3 3.01962 2
      vertex 1.19852 2.94589 2
    endloop
  endfacet
  facet normal 0.587788 -0.809015 0
    outer loop
      vertex 1.3 3.01962 2
      vertex 1.19852 2.94589 0
      vertex 1.3 3.01962 0
    endloop
  endfacet
  facet normal -0.951056 0.309019 0
    outer loop
      vertex 2.14813 2.25596 0
      vertex 2.18689 2.37525 2
      vertex 2.18689 2.37525 0
    endloop
  endfacet
  facet normal -0.951056 0.309019 0
    outer loop
      vertex 2.18689 2.37525 2
      vertex 2.14813 2.25596 0
      vertex 2.14813 2.25596 2
    endloop
  endfacet
  facet normal -0.866017 -0.500015 0
    outer loop
      vertex 2.14813 2.74404 0
      vertex 2.08541 2.85267 2
      vertex 2.08541 2.85267 0
    endloop
  endfacet
  facet normal -0.866017 -0.500015 0
    outer loop
      vertex 2.08541 2.85267 2
      vertex 2.14813 2.74404 0
      vertex 2.14813 2.74404 2
    endloop
  endfacet
  facet normal -0.951056 -0.309019 0
    outer loop
      vertex 2.18689 2.62475 0
      vertex 2.14813 2.74404 2
      vertex 2.14813 2.74404 0
    endloop
  endfacet
  facet normal -0.951056 -0.309019 0
    outer loop
      vertex 2.14813 2.74404 2
      vertex 2.18689 2.62475 0
      vertex 2.18689 2.62475 2
    endloop
  endfacet
  facet normal -0.743167 -0.669106 0
    outer loop
      vertex 2.08541 2.85267 0
      vertex 2.00148 2.94589 2
      vertex 2.00148 2.94589 0
    endloop
  endfacet
  facet normal -0.743167 -0.669106 0
    outer loop
      vertex 2.00148 2.94589 2
      vertex 2.08541 2.85267 0
      vertex 2.08541 2.85267 2
    endloop
  endfacet
  facet normal -0.207923 -0.978145 0
    outer loop
      vertex 1.66272 3.09671 0
      vertex 1.78541 3.07063 2
      vertex 1.66272 3.09671 2
    endloop
  endfacet
  facet normal -0.207923 -0.978145 -0
    outer loop
      vertex 1.78541 3.07063 2
      vertex 1.66272 3.09671 0
      vertex 1.78541 3.07063 0
    endloop
  endfacet
  facet normal 0 -1 0
    outer loop
      vertex 1.53728 3.09671 0
      vertex 1.66272 3.09671 2
      vertex 1.53728 3.09671 2
    endloop
  endfacet
  facet normal 0 -1 -0
    outer loop
      vertex 1.66272 3.09671 2
      vertex 1.53728 3.09671 0
      vertex 1.66272 3.09671 0
    endloop
  endfacet
  facet normal -0.406678 -0.913571 0
    outer loop
      vertex 1.78541 3.07063 0
      vertex 1.9 3.01962 2
      vertex 1.78541 3.07063 2
    endloop
  endfacet
  facet normal -0.406678 -0.913571 -0
    outer loop
      vertex 1.9 3.01962 2
      vertex 1.78541 3.07063 0
      vertex 1.9 3.01962 0
    endloop
  endfacet
  facet normal 0.994523 -0.104515 0
    outer loop
      vertex 1 2.5 2
      vertex 1.01311 2.62475 0
      vertex 1.01311 2.62475 2
    endloop
  endfacet
  facet normal 0.994523 -0.104515 0
    outer loop
      vertex 1.01311 2.62475 0
      vertex 1 2.5 2
      vertex 1 2.5 0
    endloop
  endfacet
  facet normal 0.743167 -0.669106 0
    outer loop
      vertex 1.11459 2.85267 2
      vertex 1.19852 2.94589 0
      vertex 1.19852 2.94589 2
    endloop
  endfacet
  facet normal 0.743167 -0.669106 0
    outer loop
      vertex 1.19852 2.94589 0
      vertex 1.11459 2.85267 2
      vertex 1.11459 2.85267 0
    endloop
  endfacet
  facet normal 0.406678 -0.913571 0
    outer loop
      vertex 1.3 3.01962 0
      vertex 1.41459 3.07063 2
      vertex 1.3 3.01962 2
    endloop
  endfacet
  facet normal 0.406678 -0.913571 0
    outer loop
      vertex 1.41459 3.07063 2
      vertex 1.3 3.01962 0
      vertex 1.41459 3.07063 0
    endloop
  endfacet
  facet normal -0.994523 0.104515 0
    outer loop
      vertex 2.18689 2.37525 0
      vertex 2.2 2.5 2
      vertex 2.2 2.5 0
    endloop
  endfacet
  facet normal -0.994523 0.104515 0
    outer loop
      vertex 2.2 2.5 2
      vertex 2.18689 2.37525 0
      vertex 2.18689 2.37525 2
    endloop
  endfacet
  facet normal -0.743167 0.669106 0
    outer loop
      vertex 2.00148 2.05411 0
      vertex 2.08541 2.14733 2
      vertex 2.08541 2.14733 0
    endloop
  endfacet
  facet normal -0.743167 0.669106 0
    outer loop
      vertex 2.08541 2.14733 2
      vertex 2.00148 2.05411 0
      vertex 2.00148 2.05411 2
    endloop
  endfacet
  facet normal 0.994523 0.104515 0
    outer loop
      vertex 1.01311 2.37525 2
      vertex 1 2.5 0
      vertex 1 2.5 2
    endloop
  endfacet
  facet normal 0.994523 0.104515 0
    outer loop
      vertex 1 2.5 0
      vertex 1.01311 2.37525 2
      vertex 1.01311 2.37525 0
    endloop
  endfacet
  facet normal -0.866017 0.500015 0
    outer loop
      vertex 2.08541 2.14733 0
      vertex 2.14813 2.25596 2
      vertex 2.14813 2.25596 0
    endloop
  endfacet
  facet normal -0.866017 0.500015 0
    outer loop
      vertex 2.14813 2.25596 2
      vertex 2.08541 2.14733 0
      vertex 2.08541 2.14733 2
    endloop
  endfacet
  facet normal 0.406678 0.913571 -0
    outer loop
      vertex 1.41459 1.92937 0
      vertex 1.3 1.98038 2
      vertex 1.41459 1.92937 2
    endloop
  endfacet
  facet normal 0.406678 0.913571 0
    outer loop
      vertex 1.3 1.98038 2
      vertex 1.41459 1.92937 0
      vertex 1.3 1.98038 0
    endloop
  endfacet
  facet normal 0.743167 0.669106 0
    outer loop
      vertex 1.19852 2.05411 2
      vertex 1.11459 2.14733 0
      vertex 1.11459 2.14733 2
    endloop
  endfacet
  facet normal 0.743167 0.669106 0
    outer loop
      vertex 1.11459 2.14733 0
      vertex 1.19852 2.05411 2
      vertex 1.19852 2.05411 0
    endloop
  endfacet
  facet normal 0.587788 0.809015 -0
    outer loop
      vertex 1.3 1.98038 0
      vertex 1.19852 2.05411 2
      vertex 1.3 1.98038 2
    endloop
  endfacet
  facet normal 0.587788 0.809015 0
    outer loop
      vertex 1.19852 2.05411 2
      vertex 1.3 1.98038 0
      vertex 1.19852 2.05411 0
    endloop
  endfacet
  facet normal 0 1 -0
    outer loop
      vertex 1.66272 1.90329 0
      vertex 1.53728 1.90329 2
      vertex 1.66272 1.90329 2
    endloop
  endfacet
  facet normal 0 1 0
    outer loop
      vertex 1.53728 1.90329 2
      vertex 1.66272 1.90329 0
      vertex 1.53728 1.90329 0
    endloop
  endfacet
  facet normal 0.866017 0.500015 0
    outer loop
      vertex 1.11459 2.14733 2
      vertex 1.05187 2.25596 0
      vertex 1.05187 2.25596 2
    endloop
  endfacet
  facet normal 0.866017 0.500015 0
    outer loop
      vertex 1.05187 2.25596 0
      vertex 1.11459 2.14733 2
      vertex 1.11459 2.14733 0
    endloop
  endfacet
  facet normal 0.951056 0.309019 0
    outer loop
      vertex 1.05187 2.25596 2
      vertex 1.01311 2.37525 0
      vertex 1.01311 2.37525 2
    endloop
  endfacet
  facet normal 0.951056 0.309019 0
    outer loop
      vertex 1.01311 2.37525 0
      vertex 1.05187 2.25596 2
      vertex 1.05187 2.25596 0
    endloop
  endfacet
  facet normal -0.587788 0.809015 0
    outer loop
      vertex 2.00148 2.05411 0
      vertex 1.9 1.98038 2
      vertex 2.00148 2.05411 2
    endloop
  endfacet
  facet normal -0.587788 0.809015 0
    outer loop
      vertex 1.9 1.98038 2
      vertex 2.00148 2.05411 0
      vertex 1.9 1.98038 0
    endloop
  endfacet
  facet normal -0.406678 0.913571 0
    outer loop
      vertex 1.9 1.98038 0
      vertex 1.78541 1.92937 2
      vertex 1.9 1.98038 2
    endloop
  endfacet
  facet normal -0.406678 0.913571 0
    outer loop
      vertex 1.78541 1.92937 2
      vertex 1.9 1.98038 0
      vertex 1.78541 1.92937 0
    endloop
  endfacet
  facet normal 0.207923 0.978145 -0
    outer loop
      vertex 1.53728 1.90329 0
      vertex 1.41459 1.92937 2
      vertex 1.53728 1.90329 2
    endloop
  endfacet
  facet normal 0.207923 0.978145 0
    outer loop
      vertex 1.41459 1.92937 2
      vertex 1.53728 1.90329 0
      vertex 1.41459 1.92937 0
    endloop
  endfacet
  facet normal 0 0 1
    outer loop
      vertex 4 5 20.3
      vertex 2.2 2.5 20.3
      vertex 4 0 20.3
    endloop
  endfacet
  facet normal 0 0 1
    outer loop
      vertex 4 5 20.3
      vertex 2.16504 2.83266 20.3
      vertex 2.2 2.5 20.3
    endloop
  endfacet
  facet normal 0 0 1
    outer loop
      vertex 4 5 20.3
      vertex 2.06167 3.15078 20.3
      vertex 2.16504 2.83266 20.3
    endloop
  endfacet
  facet normal 0 0 1
    outer loop
      vertex 4 5 20.3
      vertex 1.89443 3.44046 20.3
      vertex 2.06167 3.15078 20.3
    endloop
  endfacet
  facet normal 0 0 1
    outer loop
      vertex 4 5 20.3
      vertex 1.67061 3.68903 20.3
      vertex 1.89443 3.44046 20.3
    endloop
  endfacet
  facet normal 0 0 1
    outer loop
      vertex 4 5 20.3
      vertex 1.4 3.88564 20.3
      vertex 1.67061 3.68903 20.3
    endloop
  endfacet
  facet normal 0 0 1
    outer loop
      vertex 4 5 20.3
      vertex 1.09443 4.02169 20.3
      vertex 1.4 3.88564 20.3
    endloop
  endfacet
  facet normal -0 0 1
    outer loop
      vertex 0 5 20.3
      vertex 1.09443 4.02169 20.3
      vertex 4 5 20.3
    endloop
  endfacet
  facet normal 0 0 1
    outer loop
      vertex 1.09443 4.02169 20.3
      vertex 0 5 20.3
      vertex 0.767245 4.09123 20.3
    endloop
  endfacet
  facet normal 0 0 1
    outer loop
      vertex 0.767245 4.09123 20.3
      vertex 0 5 20.3
      vertex 0.432754 4.09123 20.3
    endloop
  endfacet
  facet normal 0 0 1
    outer loop
      vertex 0.432754 4.09123 20.3
      vertex 0 5 20.3
      vertex 0.105573 4.02169 20.3
    endloop
  endfacet
  facet normal 0 0 1
    outer loop
      vertex 0.105573 4.02169 20.3
      vertex 0 5 20.3
      vertex 0 3.97469 20.3
    endloop
  endfacet
  facet normal -0 0 1
    outer loop
      vertex 2.16504 2.16734 20.3
      vertex 4 0 20.3
      vertex 2.2 2.5 20.3
    endloop
  endfacet
  facet normal -0 0 1
    outer loop
      vertex 2.06167 1.84922 20.3
      vertex 4 0 20.3
      vertex 2.16504 2.16734 20.3
    endloop
  endfacet
  facet normal -0 0 1
    outer loop
      vertex 1.89443 1.55954 20.3
      vertex 4 0 20.3
      vertex 2.06167 1.84922 20.3
    endloop
  endfacet
  facet normal -0 0 1
    outer loop
      vertex 1.67061 1.31097 20.3
      vertex 4 0 20.3
      vertex 1.89443 1.55954 20.3
    endloop
  endfacet
  facet normal -0 0 1
    outer loop
      vertex 1.4 1.11436 20.3
      vertex 4 0 20.3
      vertex 1.67061 1.31097 20.3
    endloop
  endfacet
  facet normal -0 0 1
    outer loop
      vertex 1.09443 0.978309 20.3
      vertex 4 0 20.3
      vertex 1.4 1.11436 20.3
    endloop
  endfacet
  facet normal 0 0 1
    outer loop
      vertex 0 0 20.3
      vertex 1.09443 0.978309 20.3
      vertex 0.767245 0.908765 20.3
    endloop
  endfacet
  facet normal 0 0 1
    outer loop
      vertex 0 0 20.3
      vertex 0.767245 0.908765 20.3
      vertex 0.432754 0.908765 20.3
    endloop
  endfacet
  facet normal 0 0 1
    outer loop
      vertex 0 0 20.3
      vertex 0.432754 0.908765 20.3
      vertex 0.105573 0.978309 20.3
    endloop
  endfacet
  facet normal 0 0 1
    outer loop
      vertex 1.09443 0.978309 20.3
      vertex 0 0 20.3
      vertex 4 0 20.3
    endloop
  endfacet
  facet normal 0 0 1
    outer loop
      vertex 0 0 20.3
      vertex 0.105573 0.978309 20.3
      vertex 0 1.02531 20.3
    endloop
  endfacet
  facet normal 0 0 -1
    outer loop
      vertex 4 0 18.3
      vertex 2.2 2.5 18.3
      vertex 4 5 18.3
    endloop
  endfacet
  facet normal 0 0 -1
    outer loop
      vertex 4 0 18.3
      vertex 2.16504 2.16734 18.3
      vertex 2.2 2.5 18.3
    endloop
  endfacet
  facet normal 0 0 -1
    outer loop
      vertex 4 0 18.3
      vertex 2.06167 1.84922 18.3
      vertex 2.16504 2.16734 18.3
    endloop
  endfacet
  facet normal 0 0 -1
    outer loop
      vertex 4 0 18.3
      vertex 1.89443 1.55954 18.3
      vertex 2.06167 1.84922 18.3
    endloop
  endfacet
  facet normal 0 0 -1
    outer loop
      vertex 4 0 18.3
      vertex 1.67061 1.31097 18.3
      vertex 1.89443 1.55954 18.3
    endloop
  endfacet
  facet normal 0 0 -1
    outer loop
      vertex 4 0 18.3
      vertex 1.4 1.11436 18.3
      vertex 1.67061 1.31097 18.3
    endloop
  endfacet
  facet normal 0 0 -1
    outer loop
      vertex 4 0 18.3
      vertex 1.09443 0.978309 18.3
      vertex 1.4 1.11436 18.3
    endloop
  endfacet
  facet normal 0 0 -1
    outer loop
      vertex 0.2 0 18.3
      vertex 1.09443 0.978309 18.3
      vertex 4 0 18.3
    endloop
  endfacet
  facet normal 0 0 -1
    outer loop
      vertex 1.09443 0.978309 18.3
      vertex 0.2 0 18.3
      vertex 0.767245 0.908765 18.3
    endloop
  endfacet
  facet normal -0 0 -1
    outer loop
      vertex 0.767245 0.908765 18.3
      vertex 0.2 0 18.3
      vertex 0.432754 0.908765 18.3
    endloop
  endfacet
  facet normal -0 0 -1
    outer loop
      vertex 0.432754 0.908765 18.3
      vertex 0.2 0 18.3
      vertex 0.2 0.958238 18.3
    endloop
  endfacet
  facet normal 0 0 -1
    outer loop
      vertex 2.16504 2.83266 18.3
      vertex 4 5 18.3
      vertex 2.2 2.5 18.3
    endloop
  endfacet
  facet normal 0 0 -1
    outer loop
      vertex 2.06167 3.15078 18.3
      vertex 4 5 18.3
      vertex 2.16504 2.83266 18.3
    endloop
  endfacet
  facet normal 0 0 -1
    outer loop
      vertex 1.89443 3.44046 18.3
      vertex 4 5 18.3
      vertex 2.06167 3.15078 18.3
    endloop
  endfacet
  facet normal 0 0 -1
    outer loop
      vertex 1.67061 3.68903 18.3
      vertex 4 5 18.3
      vertex 1.89443 3.44046 18.3
    endloop
  endfacet
  facet normal 0 0 -1
    outer loop
      vertex 1.4 3.88564 18.3
      vertex 4 5 18.3
      vertex 1.67061 3.68903 18.3
    endloop
  endfacet
  facet normal 0 0 -1
    outer loop
      vertex 1.09443 4.02169 18.3
      vertex 4 5 18.3
      vertex 1.4 3.88564 18.3
    endloop
  endfacet
  facet normal 0 0 -1
    outer loop
      vertex 0.2 5 18.3
      vertex 1.09443 4.02169 18.3
      vertex 0.767245 4.09123 18.3
    endloop
  endfacet
  facet normal 0 0 -1
    outer loop
      vertex 0.2 5 18.3
      vertex 0.767245 4.09123 18.3
      vertex 0.432754 4.09123 18.3
    endloop
  endfacet
  facet normal 0 0 -1
    outer loop
      vertex 0.2 5 18.3
      vertex 0.432754 4.09123 18.3
      vertex 0.2 4.04176 18.3
    endloop
  endfacet
  facet normal 0 0 -1
    outer loop
      vertex 1.09443 4.02169 18.3
      vertex 0.2 5 18.3
      vertex 4 5 18.3
    endloop
  endfacet
  facet normal -0.994523 -0.104517 0
    outer loop
      vertex 2.2 2.5 18.3
      vertex 2.16504 2.83266 20.3
      vertex 2.16504 2.83266 18.3
    endloop
  endfacet
  facet normal -0.994523 -0.104517 0
    outer loop
      vertex 2.16504 2.83266 20.3
      vertex 2.2 2.5 18.3
      vertex 2.2 2.5 20.3
    endloop
  endfacet
  facet normal 0.207898 -0.97815 0
    outer loop
      vertex 0.2 4.04176 18.3
      vertex 0.432754 4.09123 20.3
      vertex 0.2 4.04176 20.3
    endloop
  endfacet
  facet normal 0.207898 -0.97815 0
    outer loop
      vertex 0.432754 4.09123 20.3
      vertex 0.2 4.04176 18.3
      vertex 0.432754 4.09123 18.3
    endloop
  endfacet
  facet normal 0 0 -1
    outer loop
      vertex 0.432754 4.09123 20.3
      vertex 0.105573 4.02169 20.3
      vertex 0.2 4.04176 20.3
    endloop
  endfacet
  facet normal -0.207908 0.978148 0
    outer loop
      vertex 1.09443 0.978309 18.3
      vertex 0.767245 0.908765 20.3
      vertex 1.09443 0.978309 20.3
    endloop
  endfacet
  facet normal -0.207908 0.978148 0
    outer loop
      vertex 0.767245 0.908765 20.3
      vertex 1.09443 0.978309 18.3
      vertex 0.767245 0.908765 18.3
    endloop
  endfacet
  facet normal -0.587786 -0.809017 0
    outer loop
      vertex 1.4 3.88564 18.3
      vertex 1.67061 3.68903 20.3
      vertex 1.4 3.88564 20.3
    endloop
  endfacet
  facet normal -0.587786 -0.809017 -0
    outer loop
      vertex 1.67061 3.68903 20.3
      vertex 1.4 3.88564 18.3
      vertex 1.67061 3.68903 18.3
    endloop
  endfacet
  facet normal -0.866034 -0.499985 0
    outer loop
      vertex 2.06167 3.15078 18.3
      vertex 1.89443 3.44046 20.3
      vertex 1.89443 3.44046 18.3
    endloop
  endfacet
  facet normal -0.866034 -0.499985 0
    outer loop
      vertex 1.89443 3.44046 20.3
      vertex 2.06167 3.15078 18.3
      vertex 2.06167 3.15078 20.3
    endloop
  endfacet
  facet normal -0.951051 -0.309035 0
    outer loop
      vertex 2.16504 2.83266 18.3
      vertex 2.06167 3.15078 20.3
      vertex 2.06167 3.15078 18.3
    endloop
  endfacet
  facet normal -0.951051 -0.309035 0
    outer loop
      vertex 2.06167 3.15078 20.3
      vertex 2.16504 2.83266 18.3
      vertex 2.16504 2.83266 20.3
    endloop
  endfacet
  facet normal -0.743135 -0.669141 0
    outer loop
      vertex 1.89443 3.44046 18.3
      vertex 1.67061 3.68903 20.3
      vertex 1.67061 3.68903 18.3
    endloop
  endfacet
  facet normal -0.743135 -0.669141 0
    outer loop
      vertex 1.67061 3.68903 20.3
      vertex 1.89443 3.44046 18.3
      vertex 1.89443 3.44046 20.3
    endloop
  endfacet
  facet normal -0.207896 -0.978151 0
    outer loop
      vertex 0.767245 4.09123 18.3
      vertex 1.09443 4.02169 20.3
      vertex 0.767245 4.09123 20.3
    endloop
  endfacet
  facet normal -0.207896 -0.978151 -0
    outer loop
      vertex 1.09443 4.02169 20.3
      vertex 0.767245 4.09123 18.3
      vertex 1.09443 4.02169 18.3
    endloop
  endfacet
  facet normal 0 -1 0
    outer loop
      vertex 0.432754 4.09123 18.3
      vertex 0.767245 4.09123 20.3
      vertex 0.432754 4.09123 20.3
    endloop
  endfacet
  facet normal 0 -1 -0
    outer loop
      vertex 0.767245 4.09123 20.3
      vertex 0.432754 4.09123 18.3
      vertex 0.767245 4.09123 18.3
    endloop
  endfacet
  facet normal -0.40674 -0.913544 0
    outer loop
      vertex 1.09443 4.02169 18.3
      vertex 1.4 3.88564 20.3
      vertex 1.09443 4.02169 20.3
    endloop
  endfacet
  facet normal -0.40674 -0.913544 -0
    outer loop
      vertex 1.4 3.88564 20.3
      vertex 1.09443 4.02169 18.3
      vertex 1.4 3.88564 18.3
    endloop
  endfacet
  facet normal -0.994523 0.104517 0
    outer loop
      vertex 2.16504 2.16734 18.3
      vertex 2.2 2.5 20.3
      vertex 2.2 2.5 18.3
    endloop
  endfacet
  facet normal -0.994523 0.104517 0
    outer loop
      vertex 2.2 2.5 20.3
      vertex 2.16504 2.16734 18.3
      vertex 2.16504 2.16734 20.3
    endloop
  endfacet
  facet normal -0.743135 0.669141 0
    outer loop
      vertex 1.67061 1.31097 18.3
      vertex 1.89443 1.55954 20.3
      vertex 1.89443 1.55954 18.3
    endloop
  endfacet
  facet normal -0.743135 0.669141 0
    outer loop
      vertex 1.89443 1.55954 20.3
      vertex 1.67061 1.31097 18.3
      vertex 1.67061 1.31097 20.3
    endloop
  endfacet
  facet normal -0.866034 0.499985 0
    outer loop
      vertex 1.89443 1.55954 18.3
      vertex 2.06167 1.84922 20.3
      vertex 2.06167 1.84922 18.3
    endloop
  endfacet
  facet normal -0.866034 0.499985 0
    outer loop
      vertex 2.06167 1.84922 20.3
      vertex 1.89443 1.55954 18.3
      vertex 1.89443 1.55954 20.3
    endloop
  endfacet
  facet normal -0.951051 0.309035 0
    outer loop
      vertex 2.06167 1.84922 18.3
      vertex 2.16504 2.16734 20.3
      vertex 2.16504 2.16734 18.3
    endloop
  endfacet
  facet normal -0.951051 0.309035 0
    outer loop
      vertex 2.16504 2.16734 20.3
      vertex 2.06167 1.84922 18.3
      vertex 2.06167 1.84922 20.3
    endloop
  endfacet
  facet normal 0 1 -0
    outer loop
      vertex 0.767245 0.908765 18.3
      vertex 0.432754 0.908765 20.3
      vertex 0.767245 0.908765 20.3
    endloop
  endfacet
  facet normal 0 1 0
    outer loop
      vertex 0.432754 0.908765 20.3
      vertex 0.767245 0.908765 18.3
      vertex 0.432754 0.908765 18.3
    endloop
  endfacet
  facet normal -0.587786 0.809017 0
    outer loop
      vertex 1.67061 1.31097 18.3
      vertex 1.4 1.11436 20.3
      vertex 1.67061 1.31097 20.3
    endloop
  endfacet
  facet normal -0.587786 0.809017 0
    outer loop
      vertex 1.4 1.11436 20.3
      vertex 1.67061 1.31097 18.3
      vertex 1.4 1.11436 18.3
    endloop
  endfacet
  facet normal -0.406743 0.913543 0
    outer loop
      vertex 1.4 1.11436 18.3
      vertex 1.09443 0.978309 20.3
      vertex 1.4 1.11436 20.3
    endloop
  endfacet
  facet normal -0.406743 0.913543 0
    outer loop
      vertex 1.09443 0.978309 20.3
      vertex 1.4 1.11436 18.3
      vertex 1.09443 0.978309 18.3
    endloop
  endfacet
  facet normal 0.20791 0.978148 -0
    outer loop
      vertex 0.432754 0.908765 18.3
      vertex 0.2 0.958238 20.3
      vertex 0.432754 0.908765 20.3
    endloop
  endfacet
  facet normal 0.20791 0.978148 0
    outer loop
      vertex 0.2 0.958238 20.3
      vertex 0.432754 0.908765 18.3
      vertex 0.2 0.958238 18.3
    endloop
  endfacet
  facet normal 0 0 -1
    outer loop
      vertex 0.105573 0.978309 20.3
      vertex 0.432754 0.908765 20.3
      vertex 0.2 0.958238 20.3
    endloop
  endfacet
  facet normal -1 0 0
    outer loop
      vertex 1.1 0 6.1
      vertex 1.1 1.90329 8.1
      vertex 1.1 1.90329 6.1
    endloop
  endfacet
  facet normal -1 -0 0
    outer loop
      vertex 1.1 1.90329 8.1
      vertex 1.1 0 6.1
      vertex 1.1 0 8.1
    endloop
  endfacet
  facet normal -1 0 0
    outer loop
      vertex 1.1 3.09671 6.1
      vertex 1.1 5 8.1
      vertex 1.1 5 6.1
    endloop
  endfacet
  facet normal -1 -0 0
    outer loop
      vertex 1.1 5 8.1
      vertex 1.1 3.09671 6.1
      vertex 1.1 3.09671 8.1
    endloop
  endfacet
  facet normal 0 0 1
    outer loop
      vertex 4 5 8.1
      vertex 1.7 2.5 8.1
      vertex 4 0 8.1
    endloop
  endfacet
  facet normal 0 0 1
    outer loop
      vertex 4 5 8.1
      vertex 1.68689 2.62475 8.1
      vertex 1.7 2.5 8.1
    endloop
  endfacet
  facet normal 0 0 1
    outer loop
      vertex 4 5 8.1
      vertex 1.64813 2.74404 8.1
      vertex 1.68689 2.62475 8.1
    endloop
  endfacet
  facet normal 0 0 1
    outer loop
      vertex 4 5 8.1
      vertex 1.58541 2.85267 8.1
      vertex 1.64813 2.74404 8.1
    endloop
  endfacet
  facet normal 0 0 1
    outer loop
      vertex 4 5 8.1
      vertex 1.50148 2.94589 8.1
      vertex 1.58541 2.85267 8.1
    endloop
  endfacet
  facet normal -0 0 1
    outer loop
      vertex 1.1 5 8.1
      vertex 1.50148 2.94589 8.1
      vertex 4 5 8.1
    endloop
  endfacet
  facet normal 0 0 1
    outer loop
      vertex 1.50148 2.94589 8.1
      vertex 1.1 5 8.1
      vertex 1.4 3.01962 8.1
    endloop
  endfacet
  facet normal 0 0 1
    outer loop
      vertex 1.4 3.01962 8.1
      vertex 1.1 5 8.1
      vertex 1.28541 3.07063 8.1
    endloop
  endfacet
  facet normal 0 0 1
    outer loop
      vertex 1.28541 3.07063 8.1
      vertex 1.1 5 8.1
      vertex 1.16272 3.09671 8.1
    endloop
  endfacet
  facet normal 0 0 1
    outer loop
      vertex 1.16272 3.09671 8.1
      vertex 1.1 5 8.1
      vertex 1.1 3.09671 8.1
    endloop
  endfacet
  facet normal -0 0 1
    outer loop
      vertex 1.68689 2.37525 8.1
      vertex 4 0 8.1
      vertex 1.7 2.5 8.1
    endloop
  endfacet
  facet normal -0 0 1
    outer loop
      vertex 1.64813 2.25596 8.1
      vertex 4 0 8.1
      vertex 1.68689 2.37525 8.1
    endloop
  endfacet
  facet normal -0 0 1
    outer loop
      vertex 1.58541 2.14733 8.1
      vertex 4 0 8.1
      vertex 1.64813 2.25596 8.1
    endloop
  endfacet
  facet normal -0 0 1
    outer loop
      vertex 1.50148 2.05411 8.1
      vertex 4 0 8.1
      vertex 1.58541 2.14733 8.1
    endloop
  endfacet
  facet normal 0 0 1
    outer loop
      vertex 1.1 0 8.1
      vertex 1.50148 2.05411 8.1
      vertex 1.4 1.98038 8.1
    endloop
  endfacet
  facet normal 0 0 1
    outer loop
      vertex 1.1 0 8.1
      vertex 1.4 1.98038 8.1
      vertex 1.28541 1.92937 8.1
    endloop
  endfacet
  facet normal 0 0 1
    outer loop
      vertex 1.1 0 8.1
      vertex 1.28541 1.92937 8.1
      vertex 1.16272 1.90329 8.1
    endloop
  endfacet
  facet normal 0 0 1
    outer loop
      vertex 1.1 0 8.1
      vertex 1.16272 1.90329 8.1
      vertex 1.1 1.90329 8.1
    endloop
  endfacet
  facet normal 0 0 1
    outer loop
      vertex 1.50148 2.05411 8.1
      vertex 1.1 0 8.1
      vertex 4 0 8.1
    endloop
  endfacet
  facet normal 0 0 -1
    outer loop
      vertex 4 0 6.1
      vertex 1.7 2.5 6.1
      vertex 4 5 6.1
    endloop
  endfacet
  facet normal 0 0 -1
    outer loop
      vertex 4 0 6.1
      vertex 1.68689 2.37525 6.1
      vertex 1.7 2.5 6.1
    endloop
  endfacet
  facet normal 0 0 -1
    outer loop
      vertex 4 0 6.1
      vertex 1.64813 2.25596 6.1
      vertex 1.68689 2.37525 6.1
    endloop
  endfacet
  facet normal 0 0 -1
    outer loop
      vertex 4 0 6.1
      vertex 1.58541 2.14733 6.1
      vertex 1.64813 2.25596 6.1
    endloop
  endfacet
  facet normal 0 0 -1
    outer loop
      vertex 4 0 6.1
      vertex 1.50148 2.05411 6.1
      vertex 1.58541 2.14733 6.1
    endloop
  endfacet
  facet normal 0 0 -1
    outer loop
      vertex 1.1 0 6.1
      vertex 1.50148 2.05411 6.1
      vertex 4 0 6.1
    endloop
  endfacet
  facet normal 0 0 -1
    outer loop
      vertex 1.50148 2.05411 6.1
      vertex 1.1 0 6.1
      vertex 1.4 1.98038 6.1
    endloop
  endfacet
  facet normal 0 0 -1
    outer loop
      vertex 1.4 1.98038 6.1
      vertex 1.1 0 6.1
      vertex 1.28541 1.92937 6.1
    endloop
  endfacet
  facet normal 0 0 -1
    outer loop
      vertex 1.28541 1.92937 6.1
      vertex 1.1 0 6.1
      vertex 1.16272 1.90329 6.1
    endloop
  endfacet
  facet normal -0 0 -1
    outer loop
      vertex 1.16272 1.90329 6.1
      vertex 1.1 0 6.1
      vertex 1.1 1.90329 6.1
    endloop
  endfacet
  facet normal 0 0 -1
    outer loop
      vertex 1.68689 2.62475 6.1
      vertex 4 5 6.1
      vertex 1.7 2.5 6.1
    endloop
  endfacet
  facet normal 0 0 -1
    outer loop
      vertex 1.64813 2.74404 6.1
      vertex 4 5 6.1
      vertex 1.68689 2.62475 6.1
    endloop
  endfacet
  facet normal 0 0 -1
    outer loop
      vertex 1.58541 2.85267 6.1
      vertex 4 5 6.1
      vertex 1.64813 2.74404 6.1
    endloop
  endfacet
  facet normal 0 0 -1
    outer loop
      vertex 1.50148 2.94589 6.1
      vertex 4 5 6.1
      vertex 1.58541 2.85267 6.1
    endloop
  endfacet
  facet normal 0 0 -1
    outer loop
      vertex 1.1 5 6.1
      vertex 1.50148 2.94589 6.1
      vertex 1.4 3.01962 6.1
    endloop
  endfacet
  facet normal 0 0 -1
    outer loop
      vertex 1.1 5 6.1
      vertex 1.4 3.01962 6.1
      vertex 1.28541 3.07063 6.1
    endloop
  endfacet
  facet normal 0 0 -1
    outer loop
      vertex 1.1 5 6.1
      vertex 1.28541 3.07063 6.1
      vertex 1.16272 3.09671 6.1
    endloop
  endfacet
  facet normal 0 0 -1
    outer loop
      vertex 1.1 5 6.1
      vertex 1.16272 3.09671 6.1
      vertex 1.1 3.09671 6.1
    endloop
  endfacet
  facet normal 0 0 -1
    outer loop
      vertex 1.50148 2.94589 6.1
      vertex 1.1 5 6.1
      vertex 4 5 6.1
    endloop
  endfacet
  facet normal -0.994523 -0.104515 0
    outer loop
      vertex 1.7 2.5 6.1
      vertex 1.68689 2.62475 8.1
      vertex 1.68689 2.62475 6.1
    endloop
  endfacet
  facet normal -0.994523 -0.104515 0
    outer loop
      vertex 1.68689 2.62475 8.1
      vertex 1.7 2.5 6.1
      vertex 1.7 2.5 8.1
    endloop
  endfacet
  facet normal -0.587788 -0.809015 0
    outer loop
      vertex 1.4 3.01962 6.1
      vertex 1.50148 2.94589 8.1
      vertex 1.4 3.01962 8.1
    endloop
  endfacet
  facet normal -0.587788 -0.809015 -0
    outer loop
      vertex 1.50148 2.94589 8.1
      vertex 1.4 3.01962 6.1
      vertex 1.50148 2.94589 6.1
    endloop
  endfacet
  facet normal -0.866017 -0.500015 0
    outer loop
      vertex 1.64813 2.74404 6.1
      vertex 1.58541 2.85267 8.1
      vertex 1.58541 2.85267 6.1
    endloop
  endfacet
  facet normal -0.866017 -0.500015 0
    outer loop
      vertex 1.58541 2.85267 8.1
      vertex 1.64813 2.74404 6.1
      vertex 1.64813 2.74404 8.1
    endloop
  endfacet
  facet normal -0.951056 -0.309019 0
    outer loop
      vertex 1.68689 2.62475 6.1
      vertex 1.64813 2.74404 8.1
      vertex 1.64813 2.74404 6.1
    endloop
  endfacet
  facet normal -0.951056 -0.309019 0
    outer loop
      vertex 1.64813 2.74404 8.1
      vertex 1.68689 2.62475 6.1
      vertex 1.68689 2.62475 8.1
    endloop
  endfacet
  facet normal -0.743167 -0.669106 0
    outer loop
      vertex 1.58541 2.85267 6.1
      vertex 1.50148 2.94589 8.1
      vertex 1.50148 2.94589 6.1
    endloop
  endfacet
  facet normal -0.743167 -0.669106 0
    outer loop
      vertex 1.50148 2.94589 8.1
      vertex 1.58541 2.85267 6.1
      vertex 1.58541 2.85267 8.1
    endloop
  endfacet
  facet normal -0.207923 -0.978145 0
    outer loop
      vertex 1.16272 3.09671 6.1
      vertex 1.28541 3.07063 8.1
      vertex 1.16272 3.09671 8.1
    endloop
  endfacet
  facet normal -0.207923 -0.978145 -0
    outer loop
      vertex 1.28541 3.07063 8.1
      vertex 1.16272 3.09671 6.1
      vertex 1.28541 3.07063 6.1
    endloop
  endfacet
  facet normal 0 -1 0
    outer loop
      vertex 1.1 3.09671 6.1
      vertex 1.16272 3.09671 8.1
      vertex 1.1 3.09671 8.1
    endloop
  endfacet
  facet normal 0 -1 -0
    outer loop
      vertex 1.16272 3.09671 8.1
      vertex 1.1 3.09671 6.1
      vertex 1.16272 3.09671 6.1
    endloop
  endfacet
  facet normal -0.406678 -0.913571 0
    outer loop
      vertex 1.28541 3.07063 6.1
      vertex 1.4 3.01962 8.1
      vertex 1.28541 3.07063 8.1
    endloop
  endfacet
  facet normal -0.406678 -0.913571 -0
    outer loop
      vertex 1.4 3.01962 8.1
      vertex 1.28541 3.07063 6.1
      vertex 1.4 3.01962 6.1
    endloop
  endfacet
  facet normal -0.866017 0.500015 0
    outer loop
      vertex 1.58541 2.14733 6.1
      vertex 1.64813 2.25596 8.1
      vertex 1.64813 2.25596 6.1
    endloop
  endfacet
  facet normal -0.866017 0.500015 0
    outer loop
      vertex 1.64813 2.25596 8.1
      vertex 1.58541 2.14733 6.1
      vertex 1.58541 2.14733 8.1
    endloop
  endfacet
  facet normal -0.994523 0.104515 0
    outer loop
      vertex 1.68689 2.37525 6.1
      vertex 1.7 2.5 8.1
      vertex 1.7 2.5 6.1
    endloop
  endfacet
  facet normal -0.994523 0.104515 0
    outer loop
      vertex 1.7 2.5 8.1
      vertex 1.68689 2.37525 6.1
      vertex 1.68689 2.37525 8.1
    endloop
  endfacet
  facet normal 0 1 -0
    outer loop
      vertex 1.16272 1.90329 6.1
      vertex 1.1 1.90329 8.1
      vertex 1.16272 1.90329 8.1
    endloop
  endfacet
  facet normal 0 1 0
    outer loop
      vertex 1.1 1.90329 8.1
      vertex 1.16272 1.90329 6.1
      vertex 1.1 1.90329 6.1
    endloop
  endfacet
  facet normal -0.743167 0.669106 0
    outer loop
      vertex 1.50148 2.05411 6.1
      vertex 1.58541 2.14733 8.1
      vertex 1.58541 2.14733 6.1
    endloop
  endfacet
  facet normal -0.743167 0.669106 0
    outer loop
      vertex 1.58541 2.14733 8.1
      vertex 1.50148 2.05411 6.1
      vertex 1.50148 2.05411 8.1
    endloop
  endfacet
  facet normal -0.406678 0.913571 0
    outer loop
      vertex 1.4 1.98038 6.1
      vertex 1.28541 1.92937 8.1
      vertex 1.4 1.98038 8.1
    endloop
  endfacet
  facet normal -0.406678 0.913571 0
    outer loop
      vertex 1.28541 1.92937 8.1
      vertex 1.4 1.98038 6.1
      vertex 1.28541 1.92937 6.1
    endloop
  endfacet
  facet normal -0.951056 0.309019 0
    outer loop
      vertex 1.64813 2.25596 6.1
      vertex 1.68689 2.37525 8.1
      vertex 1.68689 2.37525 6.1
    endloop
  endfacet
  facet normal -0.951056 0.309019 0
    outer loop
      vertex 1.68689 2.37525 8.1
      vertex 1.64813 2.25596 6.1
      vertex 1.64813 2.25596 8.1
    endloop
  endfacet
  facet normal -0.207923 0.978145 0
    outer loop
      vertex 1.28541 1.92937 6.1
      vertex 1.16272 1.90329 8.1
      vertex 1.28541 1.92937 8.1
    endloop
  endfacet
  facet normal -0.207923 0.978145 0
    outer loop
      vertex 1.16272 1.90329 8.1
      vertex 1.28541 1.92937 6.1
      vertex 1.16272 1.90329 6.1
    endloop
  endfacet
  facet normal -0.587788 0.809015 0
    outer loop
      vertex 1.50148 2.05411 6.1
      vertex 1.4 1.98038 8.1
      vertex 1.50148 2.05411 8.1
    endloop
  endfacet
  facet normal -0.587788 0.809015 0
    outer loop
      vertex 1.4 1.98038 8.1
      vertex 1.50148 2.05411 6.1
      vertex 1.4 1.98038 6.1
    endloop
  endfacet
  facet normal -0 0 1
    outer loop
      vertex 4 5 20.3
      vertex 5 0 20.3
      vertex 5 5 20.3
    endloop
  endfacet
  facet normal 0 0 1
    outer loop
      vertex 5 0 20.3
      vertex 4 5 20.3
      vertex 4 0 20.3
    endloop
  endfacet
  facet normal 1 -0 0
    outer loop
      vertex 5 0 20.3
      vertex 5 5 0
      vertex 5 5 20.3
    endloop
  endfacet
  facet normal 1 0 0
    outer loop
      vertex 5 5 0
      vertex 5 0 20.3
      vertex 5 0 0
    endloop
  endfacet
  facet normal -1 0 0
    outer loop
      vertex -0.799999 0 0
      vertex -0.799999 5 20.3
      vertex -0.799999 5 0
    endloop
  endfacet
  facet normal -1 -0 0
    outer loop
      vertex -0.799999 5 20.3
      vertex -0.799999 0 0
      vertex -0.799999 0 20.3
    endloop
  endfacet
  facet normal -0 0 1
    outer loop
      vertex -0.799999 5 20.3
      vertex 0 3.97469 20.3
      vertex 0 5 20.3
    endloop
  endfacet
  facet normal 0 0 1
    outer loop
      vertex 0 3.97469 20.3
      vertex -0.799999 5 20.3
      vertex 0 1.02531 20.3
    endloop
  endfacet
  facet normal 0 0 1
    outer loop
      vertex -0.799999 0 20.3
      vertex 0 1.02531 20.3
      vertex -0.799999 5 20.3
    endloop
  endfacet
  facet normal 0 0 1
    outer loop
      vertex 0 1.02531 20.3
      vertex -0.799999 0 20.3
      vertex 0 0 20.3
    endloop
  endfacet
  facet normal 0 0 1
    outer loop
      vertex 0 3.97469 20.3
      vertex 0.2 4.04176 20.3
      vertex 0.105573 4.02169 20.3
    endloop
  endfacet
  facet normal 0 0 1
    outer loop
      vertex 0.2 4.04176 20.3
      vertex 0 3.97469 20.3
      vertex 0.2 0.958238 20.3
    endloop
  endfacet
  facet normal -0 0 1
    outer loop
      vertex 0 1.02531 20.3
      vertex 0.2 0.958238 20.3
      vertex 0 3.97469 20.3
    endloop
  endfacet
  facet normal 0 0 1
    outer loop
      vertex 0.2 0.958238 20.3
      vertex 0 1.02531 20.3
      vertex 0.105573 0.978309 20.3
    endloop
  endfacet
  facet normal 1 0 0
    outer loop
      vertex 0.2 4.04176 20.3
      vertex 0.2 0.958238 20.3
      vertex 0.2 4.04176 18.3
    endloop
  endfacet
  facet normal 1 -0 0
    outer loop
      vertex 0.2 4.04176 18.3
      vertex 0.2 5 2
      vertex 0.2 5 18.3
    endloop
  endfacet
  facet normal 1 0 0
    outer loop
      vertex 0.2 0.958238 18.3
      vertex 0.2 4.04176 18.3
      vertex 0.2 0.958238 20.3
    endloop
  endfacet
  facet normal 1 0 0
    outer loop
      vertex 0.2 4.04176 18.3
      vertex 0.2 0.958238 18.3
      vertex 0.2 5 2
    endloop
  endfacet
  facet normal 1 0 0
    outer loop
      vertex 0.2 0 2
      vertex 0.2 0.958238 18.3
      vertex 0.2 0 18.3
    endloop
  endfacet
  facet normal 1 0 0
    outer loop
      vertex 0.2 0.958238 18.3
      vertex 0.2 0 2
      vertex 0.2 5 2
    endloop
  endfacet
endsolid OpenSCAD_Model
