solid OpenSCAD_Model
  facet normal -1 0 0
    outer loop
      vertex 0 0 0
      vertex 0 12 34
      vertex 0 12 0
    endloop
  endfacet
  facet normal -1 -0 0
    outer loop
      vertex 0 12 34
      vertex 0 0 0
      vertex 0 0 34
    endloop
  endfacet
  facet normal 0 0 1
    outer loop
      vertex 12 12 34
      vertex 10 10 34
      vertex 12 0 34
    endloop
  endfacet
  facet normal 0 0 1
    outer loop
      vertex 12 12 34
      vertex 2 10 34
      vertex 10 10 34
    endloop
  endfacet
  facet normal 0 0 1
    outer loop
      vertex 2 10 34
      vertex 0 12 34
      vertex 2 2 34
    endloop
  endfacet
  facet normal -0 0 1
    outer loop
      vertex 0 12 34
      vertex 2 10 34
      vertex 12 12 34
    endloop
  endfacet
  facet normal -0 0 1
    outer loop
      vertex 10 2 34
      vertex 12 0 34
      vertex 10 10 34
    endloop
  endfacet
  facet normal -0 0 1
    outer loop
      vertex 2 2 34
      vertex 12 0 34
      vertex 10 2 34
    endloop
  endfacet
  facet normal 0 0 1
    outer loop
      vertex 2 2 34
      vertex 0 0 34
      vertex 12 0 34
    endloop
  endfacet
  facet normal 0 0 1
    outer loop
      vertex 0 0 34
      vertex 2 2 34
      vertex 0 12 34
    endloop
  endfacet
  facet normal 1 -0 0
    outer loop
      vertex 12 0 34
      vertex 12 12 0
      vertex 12 12 34
    endloop
  endfacet
  facet normal 1 0 0
    outer loop
      vertex 12 12 0
      vertex 12 0 34
      vertex 12 0 0
    endloop
  endfacet
  facet normal 0 1 0
    outer loop
      vertex 12 12 34
      vertex 10 12 32
      vertex 0 12 34
    endloop
  endfacet
  facet normal 0 1 0
    outer loop
      vertex 12 12 34
      vertex 10 12 7
      vertex 10 12 32
    endloop
  endfacet
  facet normal 0 1 0
    outer loop
      vertex 10 12 7
      vertex 10 12 5
      vertex 2 12 7
    endloop
  endfacet
  facet normal 0 1 -0
    outer loop
      vertex 12 12 0
      vertex 10 12 7
      vertex 12 12 34
    endloop
  endfacet
  facet normal 0 1 0
    outer loop
      vertex 10 12 7
      vertex 12 12 0
      vertex 10 12 5
    endloop
  endfacet
  facet normal 0 1 0
    outer loop
      vertex 10 12 2
      vertex 12 12 0
      vertex 2 12 2
    endloop
  endfacet
  facet normal 0 1 0
    outer loop
      vertex 10 12 5
      vertex 12 12 0
      vertex 10 12 2
    endloop
  endfacet
  facet normal 0 1 -0
    outer loop
      vertex 2 12 32
      vertex 0 12 34
      vertex 10 12 32
    endloop
  endfacet
  facet normal 0 1 -0
    outer loop
      vertex 2 12 7
      vertex 0 12 34
      vertex 2 12 32
    endloop
  endfacet
  facet normal 0 1 0
    outer loop
      vertex 2 12 5
      vertex 2 12 7
      vertex 10 12 5
    endloop
  endfacet
  facet normal 0 1 0
    outer loop
      vertex 0 12 0
      vertex 2 12 7
      vertex 2 12 5
    endloop
  endfacet
  facet normal 0 1 0
    outer loop
      vertex 0 12 0
      vertex 2 12 5
      vertex 2 12 2
    endloop
  endfacet
  facet normal 0 1 0
    outer loop
      vertex 2 12 7
      vertex 0 12 0
      vertex 0 12 34
    endloop
  endfacet
  facet normal 0 1 0
    outer loop
      vertex 0 12 0
      vertex 2 12 2
      vertex 12 12 0
    endloop
  endfacet
  facet normal 0 0 -1
    outer loop
      vertex 12 0 0
      vertex 4.13 6 0
      vertex 12 12 0
    endloop
  endfacet
  facet normal 0 0 -1
    outer loop
      vertex 12 0 0
      vertex 4.1111 5.82016 0
      vertex 4.13 6 0
    endloop
  endfacet
  facet normal 0 0 -1
    outer loop
      vertex 12 0 0
      vertex 4.05522 5.64817 0
      vertex 4.1111 5.82016 0
    endloop
  endfacet
  facet normal 0 0 -1
    outer loop
      vertex 12 0 0
      vertex 3.9648 5.49157 0
      vertex 4.05522 5.64817 0
    endloop
  endfacet
  facet normal 0 0 -1
    outer loop
      vertex 12 0 0
      vertex 3.8438 5.35718 0
      vertex 3.9648 5.49157 0
    endloop
  endfacet
  facet normal 0 0 -1
    outer loop
      vertex 12 0 0
      vertex 3.6975 5.25089 0
      vertex 3.8438 5.35718 0
    endloop
  endfacet
  facet normal 0 0 -1
    outer loop
      vertex 12 0 0
      vertex 3.5323 5.17734 0
      vertex 3.6975 5.25089 0
    endloop
  endfacet
  facet normal 0 0 -1
    outer loop
      vertex 0 0 0
      vertex 3.5323 5.17734 0
      vertex 12 0 0
    endloop
  endfacet
  facet normal 0 0 -1
    outer loop
      vertex 3.5323 5.17734 0
      vertex 0 0 0
      vertex 3.35542 5.13974 0
    endloop
  endfacet
  facet normal -0 0 -1
    outer loop
      vertex 3.35542 5.13974 0
      vertex 0 0 0
      vertex 3.17458 5.13974 0
    endloop
  endfacet
  facet normal -0 0 -1
    outer loop
      vertex 3.17458 5.13974 0
      vertex 0 0 0
      vertex 2.9977 5.17734 0
    endloop
  endfacet
  facet normal -0 0 -1
    outer loop
      vertex 2.4189 5.82016 0
      vertex 0 0 0
      vertex 2.4 6 0
    endloop
  endfacet
  facet normal -0 0 -1
    outer loop
      vertex 2.47478 5.64817 0
      vertex 0 0 0
      vertex 2.4189 5.82016 0
    endloop
  endfacet
  facet normal -0 0 -1
    outer loop
      vertex 2.5652 5.49157 0
      vertex 0 0 0
      vertex 2.47478 5.64817 0
    endloop
  endfacet
  facet normal -0 0 -1
    outer loop
      vertex 2.6862 5.35718 0
      vertex 0 0 0
      vertex 2.5652 5.49157 0
    endloop
  endfacet
  facet normal -0 0 -1
    outer loop
      vertex 2.8325 5.25089 0
      vertex 0 0 0
      vertex 2.6862 5.35718 0
    endloop
  endfacet
  facet normal -0 0 -1
    outer loop
      vertex 2.9977 5.17734 0
      vertex 0 0 0
      vertex 2.8325 5.25089 0
    endloop
  endfacet
  facet normal 0 0 -1
    outer loop
      vertex 4.1111 6.17984 0
      vertex 12 12 0
      vertex 4.13 6 0
    endloop
  endfacet
  facet normal 0 0 -1
    outer loop
      vertex 4.05522 6.35183 0
      vertex 12 12 0
      vertex 4.1111 6.17984 0
    endloop
  endfacet
  facet normal 0 0 -1
    outer loop
      vertex 3.9648 6.50843 0
      vertex 12 12 0
      vertex 4.05522 6.35183 0
    endloop
  endfacet
  facet normal 0 0 -1
    outer loop
      vertex 3.8438 6.64282 0
      vertex 12 12 0
      vertex 3.9648 6.50843 0
    endloop
  endfacet
  facet normal 0 0 -1
    outer loop
      vertex 3.6975 6.74911 0
      vertex 12 12 0
      vertex 3.8438 6.64282 0
    endloop
  endfacet
  facet normal 0 0 -1
    outer loop
      vertex 3.5323 6.82266 0
      vertex 12 12 0
      vertex 3.6975 6.74911 0
    endloop
  endfacet
  facet normal 0 0 -1
    outer loop
      vertex 0 12 0
      vertex 3.5323 6.82266 0
      vertex 3.35542 6.86026 0
    endloop
  endfacet
  facet normal 0 0 -1
    outer loop
      vertex 0 12 0
      vertex 3.35542 6.86026 0
      vertex 3.17458 6.86026 0
    endloop
  endfacet
  facet normal 0 0 -1
    outer loop
      vertex 0 12 0
      vertex 3.17458 6.86026 0
      vertex 2.9977 6.82266 0
    endloop
  endfacet
  facet normal 0 0 -1
    outer loop
      vertex 0 12 0
      vertex 2.9977 6.82266 0
      vertex 2.8325 6.74911 0
    endloop
  endfacet
  facet normal 0 0 -1
    outer loop
      vertex 0 12 0
      vertex 2.4 6 0
      vertex 0 0 0
    endloop
  endfacet
  facet normal 0 0 -1
    outer loop
      vertex 2.4 6 0
      vertex 0 12 0
      vertex 2.4189 6.17984 0
    endloop
  endfacet
  facet normal 0 0 -1
    outer loop
      vertex 3.5323 6.82266 0
      vertex 0 12 0
      vertex 12 12 0
    endloop
  endfacet
  facet normal 0 0 -1
    outer loop
      vertex 2.6862 6.64282 0
      vertex 0 12 0
      vertex 2.8325 6.74911 0
    endloop
  endfacet
  facet normal 0 0 -1
    outer loop
      vertex 2.5652 6.50843 0
      vertex 0 12 0
      vertex 2.6862 6.64282 0
    endloop
  endfacet
  facet normal 0 0 -1
    outer loop
      vertex 2.47478 6.35183 0
      vertex 0 12 0
      vertex 2.5652 6.50843 0
    endloop
  endfacet
  facet normal 0 0 -1
    outer loop
      vertex 2.4189 6.17984 0
      vertex 0 12 0
      vertex 2.47478 6.35183 0
    endloop
  endfacet
  facet normal 0 -1 0
    outer loop
      vertex 0 0 34
      vertex 2 0 32
      vertex 12 0 34
    endloop
  endfacet
  facet normal 0 -1 0
    outer loop
      vertex 0 0 34
      vertex 2 0 7
      vertex 2 0 32
    endloop
  endfacet
  facet normal 0 -1 0
    outer loop
      vertex 2 0 7
      vertex 2 0 5
      vertex 10 0 7
    endloop
  endfacet
  facet normal 0 -1 0
    outer loop
      vertex 0 0 0
      vertex 2 0 7
      vertex 0 0 34
    endloop
  endfacet
  facet normal 0 -1 -0
    outer loop
      vertex 2 0 7
      vertex 0 0 0
      vertex 2 0 5
    endloop
  endfacet
  facet normal 0 -1 -0
    outer loop
      vertex 2 0 2
      vertex 0 0 0
      vertex 10 0 2
    endloop
  endfacet
  facet normal 0 -1 -0
    outer loop
      vertex 2 0 5
      vertex 0 0 0
      vertex 2 0 2
    endloop
  endfacet
  facet normal 0 -1 0
    outer loop
      vertex 10 0 32
      vertex 12 0 34
      vertex 2 0 32
    endloop
  endfacet
  facet normal 0 -1 0
    outer loop
      vertex 10 0 7
      vertex 12 0 34
      vertex 10 0 32
    endloop
  endfacet
  facet normal 0 -1 0
    outer loop
      vertex 10 0 5
      vertex 10 0 7
      vertex 2 0 5
    endloop
  endfacet
  facet normal 0 -1 0
    outer loop
      vertex 12 0 0
      vertex 10 0 7
      vertex 10 0 5
    endloop
  endfacet
  facet normal 0 -1 0
    outer loop
      vertex 12 0 0
      vertex 10 0 5
      vertex 10 0 2
    endloop
  endfacet
  facet normal 0 -1 0
    outer loop
      vertex 10 0 7
      vertex 12 0 0
      vertex 12 0 34
    endloop
  endfacet
  facet normal 0 -1 0
    outer loop
      vertex 12 0 0
      vertex 10 0 2
      vertex 0 0 0
    endloop
  endfacet
  facet normal 1 0 0
    outer loop
      vertex 2 10 34
      vertex 2 2 34
      vertex 2 10 32
    endloop
  endfacet
  facet normal 1 -0 0
    outer loop
      vertex 2 10 32
      vertex 2 12 7
      vertex 2 12 32
    endloop
  endfacet
  facet normal 1 0 0
    outer loop
      vertex 2 2 32
      vertex 2 10 32
      vertex 2 2 34
    endloop
  endfacet
  facet normal 1 0 0
    outer loop
      vertex 2 10 32
      vertex 2 2 32
      vertex 2 12 7
    endloop
  endfacet
  facet normal 1 0 0
    outer loop
      vertex 2 0 7
      vertex 2 2 32
      vertex 2 0 32
    endloop
  endfacet
  facet normal 1 0 0
    outer loop
      vertex 2 2 32
      vertex 2 0 7
      vertex 2 12 7
    endloop
  endfacet
  facet normal 1 -0 0
    outer loop
      vertex 2 0 5
      vertex 2 12 2
      vertex 2 12 5
    endloop
  endfacet
  facet normal 1 0 0
    outer loop
      vertex 2 12 2
      vertex 2 0 5
      vertex 2 0 2
    endloop
  endfacet
  facet normal 0 0 -1
    outer loop
      vertex 2 0 32
      vertex 10 2 32
      vertex 10 0 32
    endloop
  endfacet
  facet normal -0 0 -1
    outer loop
      vertex 10 2 32
      vertex 2 0 32
      vertex 2 2 32
    endloop
  endfacet
  facet normal 0 0 -1
    outer loop
      vertex 2 10 32
      vertex 10 12 32
      vertex 10 10 32
    endloop
  endfacet
  facet normal -0 0 -1
    outer loop
      vertex 10 12 32
      vertex 2 10 32
      vertex 2 12 32
    endloop
  endfacet
  facet normal -1 0 0
    outer loop
      vertex 10 12 7
      vertex 10 10 32
      vertex 10 12 32
    endloop
  endfacet
  facet normal -1 0 0
    outer loop
      vertex 10 10 32
      vertex 10 2 32
      vertex 10 10 34
    endloop
  endfacet
  facet normal -1 0 0
    outer loop
      vertex 10 12 7
      vertex 10 2 32
      vertex 10 10 32
    endloop
  endfacet
  facet normal -1 0 0
    outer loop
      vertex 10 0 7
      vertex 10 2 32
      vertex 10 12 7
    endloop
  endfacet
  facet normal -1 -0 0
    outer loop
      vertex 10 2 32
      vertex 10 0 7
      vertex 10 0 32
    endloop
  endfacet
  facet normal -1 -0 0
    outer loop
      vertex 10 10 34
      vertex 10 2 32
      vertex 10 2 34
    endloop
  endfacet
  facet normal -1 0 0
    outer loop
      vertex 10 0 2
      vertex 10 12 5
      vertex 10 12 2
    endloop
  endfacet
  facet normal -1 -0 0
    outer loop
      vertex 10 12 5
      vertex 10 0 2
      vertex 10 0 5
    endloop
  endfacet
  facet normal 0 0 1
    outer loop
      vertex 10 12 2
      vertex 4.13 6 2
      vertex 10 0 2
    endloop
  endfacet
  facet normal 0 0 1
    outer loop
      vertex 10 12 2
      vertex 4.1111 6.17984 2
      vertex 4.13 6 2
    endloop
  endfacet
  facet normal 0 0 1
    outer loop
      vertex 10 12 2
      vertex 4.05522 6.35183 2
      vertex 4.1111 6.17984 2
    endloop
  endfacet
  facet normal 0 0 1
    outer loop
      vertex 10 12 2
      vertex 3.9648 6.50843 2
      vertex 4.05522 6.35183 2
    endloop
  endfacet
  facet normal 0 0 1
    outer loop
      vertex 10 12 2
      vertex 3.8438 6.64282 2
      vertex 3.9648 6.50843 2
    endloop
  endfacet
  facet normal 0 0 1
    outer loop
      vertex 10 12 2
      vertex 3.6975 6.74911 2
      vertex 3.8438 6.64282 2
    endloop
  endfacet
  facet normal -0 0 1
    outer loop
      vertex 2 12 2
      vertex 3.6975 6.74911 2
      vertex 10 12 2
    endloop
  endfacet
  facet normal 0 0 1
    outer loop
      vertex 3.6975 6.74911 2
      vertex 2 12 2
      vertex 3.5323 6.82266 2
    endloop
  endfacet
  facet normal 0 0 1
    outer loop
      vertex 3.5323 6.82266 2
      vertex 2 12 2
      vertex 3.35542 6.86026 2
    endloop
  endfacet
  facet normal 0 0 1
    outer loop
      vertex 3.35542 6.86026 2
      vertex 2 12 2
      vertex 3.17458 6.86026 2
    endloop
  endfacet
  facet normal 0 0 1
    outer loop
      vertex 3.17458 6.86026 2
      vertex 2 12 2
      vertex 2.9977 6.82266 2
    endloop
  endfacet
  facet normal 0 0 1
    outer loop
      vertex 2.9977 6.82266 2
      vertex 2 12 2
      vertex 2.8325 6.74911 2
    endloop
  endfacet
  facet normal 0 0 1
    outer loop
      vertex 2.4189 6.17984 2
      vertex 2 12 2
      vertex 2.4 6 2
    endloop
  endfacet
  facet normal 0 0 1
    outer loop
      vertex 2.47478 6.35183 2
      vertex 2 12 2
      vertex 2.4189 6.17984 2
    endloop
  endfacet
  facet normal 0 0 1
    outer loop
      vertex 2.5652 6.50843 2
      vertex 2 12 2
      vertex 2.47478 6.35183 2
    endloop
  endfacet
  facet normal 0 0 1
    outer loop
      vertex 2.6862 6.64282 2
      vertex 2 12 2
      vertex 2.5652 6.50843 2
    endloop
  endfacet
  facet normal 0 0 1
    outer loop
      vertex 2.8325 6.74911 2
      vertex 2 12 2
      vertex 2.6862 6.64282 2
    endloop
  endfacet
  facet normal -0 0 1
    outer loop
      vertex 4.1111 5.82016 2
      vertex 10 0 2
      vertex 4.13 6 2
    endloop
  endfacet
  facet normal -0 0 1
    outer loop
      vertex 4.05522 5.64817 2
      vertex 10 0 2
      vertex 4.1111 5.82016 2
    endloop
  endfacet
  facet normal -0 0 1
    outer loop
      vertex 3.9648 5.49157 2
      vertex 10 0 2
      vertex 4.05522 5.64817 2
    endloop
  endfacet
  facet normal -0 0 1
    outer loop
      vertex 3.8438 5.35718 2
      vertex 10 0 2
      vertex 3.9648 5.49157 2
    endloop
  endfacet
  facet normal -0 0 1
    outer loop
      vertex 3.6975 5.25089 2
      vertex 10 0 2
      vertex 3.8438 5.35718 2
    endloop
  endfacet
  facet normal 0 0 1
    outer loop
      vertex 2 0 2
      vertex 3.6975 5.25089 2
      vertex 3.5323 5.17734 2
    endloop
  endfacet
  facet normal 0 0 1
    outer loop
      vertex 2 0 2
      vertex 3.5323 5.17734 2
      vertex 3.35542 5.13974 2
    endloop
  endfacet
  facet normal 0 0 1
    outer loop
      vertex 2 0 2
      vertex 3.35542 5.13974 2
      vertex 3.17458 5.13974 2
    endloop
  endfacet
  facet normal 0 0 1
    outer loop
      vertex 2 0 2
      vertex 3.17458 5.13974 2
      vertex 2.9977 5.17734 2
    endloop
  endfacet
  facet normal 0 0 1
    outer loop
      vertex 2 0 2
      vertex 2.9977 5.17734 2
      vertex 2.8325 5.25089 2
    endloop
  endfacet
  facet normal 0 0 1
    outer loop
      vertex 2 0 2
      vertex 2.8325 5.25089 2
      vertex 2.6862 5.35718 2
    endloop
  endfacet
  facet normal 0 0 1
    outer loop
      vertex 3.6975 5.25089 2
      vertex 2 0 2
      vertex 10 0 2
    endloop
  endfacet
  facet normal 0 0 1
    outer loop
      vertex 2.5652 5.49157 2
      vertex 2 0 2
      vertex 2.6862 5.35718 2
    endloop
  endfacet
  facet normal 0 0 1
    outer loop
      vertex 2.47478 5.64817 2
      vertex 2 0 2
      vertex 2.5652 5.49157 2
    endloop
  endfacet
  facet normal 0 0 1
    outer loop
      vertex 2.4189 5.82016 2
      vertex 2 0 2
      vertex 2.47478 5.64817 2
    endloop
  endfacet
  facet normal 0 0 1
    outer loop
      vertex 2.4 6 2
      vertex 2 0 2
      vertex 2.4189 5.82016 2
    endloop
  endfacet
  facet normal 0 0 1
    outer loop
      vertex 2 0 2
      vertex 2.4 6 2
      vertex 2 12 2
    endloop
  endfacet
  facet normal 0 0 1
    outer loop
      vertex 10 12 7
      vertex 4.13 6 7
      vertex 10 0 7
    endloop
  endfacet
  facet normal 0 0 1
    outer loop
      vertex 10 12 7
      vertex 4.1111 6.17984 7
      vertex 4.13 6 7
    endloop
  endfacet
  facet normal 0 0 1
    outer loop
      vertex 10 12 7
      vertex 4.05522 6.35183 7
      vertex 4.1111 6.17984 7
    endloop
  endfacet
  facet normal 0 0 1
    outer loop
      vertex 10 12 7
      vertex 3.9648 6.50843 7
      vertex 4.05522 6.35183 7
    endloop
  endfacet
  facet normal 0 0 1
    outer loop
      vertex 10 12 7
      vertex 3.8438 6.64282 7
      vertex 3.9648 6.50843 7
    endloop
  endfacet
  facet normal 0 0 1
    outer loop
      vertex 10 12 7
      vertex 3.6975 6.74911 7
      vertex 3.8438 6.64282 7
    endloop
  endfacet
  facet normal -0 0 1
    outer loop
      vertex 2 12 7
      vertex 3.6975 6.74911 7
      vertex 10 12 7
    endloop
  endfacet
  facet normal 0 0 1
    outer loop
      vertex 3.6975 6.74911 7
      vertex 2 12 7
      vertex 3.5323 6.82266 7
    endloop
  endfacet
  facet normal 0 0 1
    outer loop
      vertex 3.5323 6.82266 7
      vertex 2 12 7
      vertex 3.35542 6.86026 7
    endloop
  endfacet
  facet normal 0 0 1
    outer loop
      vertex 3.35542 6.86026 7
      vertex 2 12 7
      vertex 3.17458 6.86026 7
    endloop
  endfacet
  facet normal 0 0 1
    outer loop
      vertex 3.17458 6.86026 7
      vertex 2 12 7
      vertex 2.9977 6.82266 7
    endloop
  endfacet
  facet normal 0 0 1
    outer loop
      vertex 2.9977 6.82266 7
      vertex 2 12 7
      vertex 2.8325 6.74911 7
    endloop
  endfacet
  facet normal 0 0 1
    outer loop
      vertex 2.4189 6.17984 7
      vertex 2 12 7
      vertex 2.4 6 7
    endloop
  endfacet
  facet normal 0 0 1
    outer loop
      vertex 2.47478 6.35183 7
      vertex 2 12 7
      vertex 2.4189 6.17984 7
    endloop
  endfacet
  facet normal 0 0 1
    outer loop
      vertex 2.5652 6.50843 7
      vertex 2 12 7
      vertex 2.47478 6.35183 7
    endloop
  endfacet
  facet normal 0 0 1
    outer loop
      vertex 2.6862 6.64282 7
      vertex 2 12 7
      vertex 2.5652 6.50843 7
    endloop
  endfacet
  facet normal 0 0 1
    outer loop
      vertex 2.8325 6.74911 7
      vertex 2 12 7
      vertex 2.6862 6.64282 7
    endloop
  endfacet
  facet normal -0 0 1
    outer loop
      vertex 4.1111 5.82016 7
      vertex 10 0 7
      vertex 4.13 6 7
    endloop
  endfacet
  facet normal -0 0 1
    outer loop
      vertex 4.05522 5.64817 7
      vertex 10 0 7
      vertex 4.1111 5.82016 7
    endloop
  endfacet
  facet normal -0 0 1
    outer loop
      vertex 3.9648 5.49157 7
      vertex 10 0 7
      vertex 4.05522 5.64817 7
    endloop
  endfacet
  facet normal -0 0 1
    outer loop
      vertex 3.8438 5.35718 7
      vertex 10 0 7
      vertex 3.9648 5.49157 7
    endloop
  endfacet
  facet normal -0 0 1
    outer loop
      vertex 3.6975 5.25089 7
      vertex 10 0 7
      vertex 3.8438 5.35718 7
    endloop
  endfacet
  facet normal 0 0 1
    outer loop
      vertex 2 0 7
      vertex 3.6975 5.25089 7
      vertex 3.5323 5.17734 7
    endloop
  endfacet
  facet normal 0 0 1
    outer loop
      vertex 2 0 7
      vertex 3.5323 5.17734 7
      vertex 3.35542 5.13974 7
    endloop
  endfacet
  facet normal 0 0 1
    outer loop
      vertex 2 0 7
      vertex 3.35542 5.13974 7
      vertex 3.17458 5.13974 7
    endloop
  endfacet
  facet normal 0 0 1
    outer loop
      vertex 2 0 7
      vertex 3.17458 5.13974 7
      vertex 2.9977 5.17734 7
    endloop
  endfacet
  facet normal 0 0 1
    outer loop
      vertex 2 0 7
      vertex 2.9977 5.17734 7
      vertex 2.8325 5.25089 7
    endloop
  endfacet
  facet normal 0 0 1
    outer loop
      vertex 2 0 7
      vertex 2.8325 5.25089 7
      vertex 2.6862 5.35718 7
    endloop
  endfacet
  facet normal 0 0 1
    outer loop
      vertex 3.6975 5.25089 7
      vertex 2 0 7
      vertex 10 0 7
    endloop
  endfacet
  facet normal 0 0 1
    outer loop
      vertex 2.5652 5.49157 7
      vertex 2 0 7
      vertex 2.6862 5.35718 7
    endloop
  endfacet
  facet normal 0 0 1
    outer loop
      vertex 2.47478 5.64817 7
      vertex 2 0 7
      vertex 2.5652 5.49157 7
    endloop
  endfacet
  facet normal 0 0 1
    outer loop
      vertex 2.4189 5.82016 7
      vertex 2 0 7
      vertex 2.47478 5.64817 7
    endloop
  endfacet
  facet normal 0 0 1
    outer loop
      vertex 2.4 6 7
      vertex 2 0 7
      vertex 2.4189 5.82016 7
    endloop
  endfacet
  facet normal 0 0 1
    outer loop
      vertex 2 0 7
      vertex 2.4 6 7
      vertex 2 12 7
    endloop
  endfacet
  facet normal 0 0 -1
    outer loop
      vertex 10 0 5
      vertex 4.13 6 5
      vertex 10 12 5
    endloop
  endfacet
  facet normal 0 0 -1
    outer loop
      vertex 10 0 5
      vertex 4.1111 5.82016 5
      vertex 4.13 6 5
    endloop
  endfacet
  facet normal 0 0 -1
    outer loop
      vertex 10 0 5
      vertex 4.05522 5.64817 5
      vertex 4.1111 5.82016 5
    endloop
  endfacet
  facet normal 0 0 -1
    outer loop
      vertex 10 0 5
      vertex 3.9648 5.49157 5
      vertex 4.05522 5.64817 5
    endloop
  endfacet
  facet normal 0 0 -1
    outer loop
      vertex 10 0 5
      vertex 3.8438 5.35718 5
      vertex 3.9648 5.49157 5
    endloop
  endfacet
  facet normal 0 0 -1
    outer loop
      vertex 10 0 5
      vertex 3.6975 5.25089 5
      vertex 3.8438 5.35718 5
    endloop
  endfacet
  facet normal 0 0 -1
    outer loop
      vertex 2 0 5
      vertex 3.6975 5.25089 5
      vertex 10 0 5
    endloop
  endfacet
  facet normal 0 0 -1
    outer loop
      vertex 3.6975 5.25089 5
      vertex 2 0 5
      vertex 3.5323 5.17734 5
    endloop
  endfacet
  facet normal 0 0 -1
    outer loop
      vertex 3.5323 5.17734 5
      vertex 2 0 5
      vertex 3.35542 5.13974 5
    endloop
  endfacet
  facet normal -0 0 -1
    outer loop
      vertex 3.35542 5.13974 5
      vertex 2 0 5
      vertex 3.17458 5.13974 5
    endloop
  endfacet
  facet normal -0 0 -1
    outer loop
      vertex 3.17458 5.13974 5
      vertex 2 0 5
      vertex 2.9977 5.17734 5
    endloop
  endfacet
  facet normal -0 0 -1
    outer loop
      vertex 2.9977 5.17734 5
      vertex 2 0 5
      vertex 2.8325 5.25089 5
    endloop
  endfacet
  facet normal -0 0 -1
    outer loop
      vertex 2.4189 5.82016 5
      vertex 2 0 5
      vertex 2.4 6 5
    endloop
  endfacet
  facet normal -0 0 -1
    outer loop
      vertex 2.47478 5.64817 5
      vertex 2 0 5
      vertex 2.4189 5.82016 5
    endloop
  endfacet
  facet normal -0 0 -1
    outer loop
      vertex 2.5652 5.49157 5
      vertex 2 0 5
      vertex 2.47478 5.64817 5
    endloop
  endfacet
  facet normal -0 0 -1
    outer loop
      vertex 2.6862 5.35718 5
      vertex 2 0 5
      vertex 2.5652 5.49157 5
    endloop
  endfacet
  facet normal -0 0 -1
    outer loop
      vertex 2.8325 5.25089 5
      vertex 2 0 5
      vertex 2.6862 5.35718 5
    endloop
  endfacet
  facet normal 0 0 -1
    outer loop
      vertex 4.1111 6.17984 5
      vertex 10 12 5
      vertex 4.13 6 5
    endloop
  endfacet
  facet normal 0 0 -1
    outer loop
      vertex 4.05522 6.35183 5
      vertex 10 12 5
      vertex 4.1111 6.17984 5
    endloop
  endfacet
  facet normal 0 0 -1
    outer loop
      vertex 3.9648 6.50843 5
      vertex 10 12 5
      vertex 4.05522 6.35183 5
    endloop
  endfacet
  facet normal 0 0 -1
    outer loop
      vertex 3.8438 6.64282 5
      vertex 10 12 5
      vertex 3.9648 6.50843 5
    endloop
  endfacet
  facet normal 0 0 -1
    outer loop
      vertex 3.6975 6.74911 5
      vertex 10 12 5
      vertex 3.8438 6.64282 5
    endloop
  endfacet
  facet normal 0 0 -1
    outer loop
      vertex 2 12 5
      vertex 3.6975 6.74911 5
      vertex 3.5323 6.82266 5
    endloop
  endfacet
  facet normal 0 0 -1
    outer loop
      vertex 2 12 5
      vertex 3.5323 6.82266 5
      vertex 3.35542 6.86026 5
    endloop
  endfacet
  facet normal 0 0 -1
    outer loop
      vertex 2 12 5
      vertex 3.35542 6.86026 5
      vertex 3.17458 6.86026 5
    endloop
  endfacet
  facet normal 0 0 -1
    outer loop
      vertex 2 12 5
      vertex 3.17458 6.86026 5
      vertex 2.9977 6.82266 5
    endloop
  endfacet
  facet normal 0 0 -1
    outer loop
      vertex 2 12 5
      vertex 2.9977 6.82266 5
      vertex 2.8325 6.74911 5
    endloop
  endfacet
  facet normal 0 0 -1
    outer loop
      vertex 2 12 5
      vertex 2.8325 6.74911 5
      vertex 2.6862 6.64282 5
    endloop
  endfacet
  facet normal 0 0 -1
    outer loop
      vertex 3.6975 6.74911 5
      vertex 2 12 5
      vertex 10 12 5
    endloop
  endfacet
  facet normal 0 0 -1
    outer loop
      vertex 2.5652 6.50843 5
      vertex 2 12 5
      vertex 2.6862 6.64282 5
    endloop
  endfacet
  facet normal 0 0 -1
    outer loop
      vertex 2.47478 6.35183 5
      vertex 2 12 5
      vertex 2.5652 6.50843 5
    endloop
  endfacet
  facet normal 0 0 -1
    outer loop
      vertex 2.4189 6.17984 5
      vertex 2 12 5
      vertex 2.47478 6.35183 5
    endloop
  endfacet
  facet normal 0 0 -1
    outer loop
      vertex 2.4 6 5
      vertex 2 12 5
      vertex 2.4189 6.17984 5
    endloop
  endfacet
  facet normal 0 0 -1
    outer loop
      vertex 2 12 5
      vertex 2.4 6 5
      vertex 2 0 5
    endloop
  endfacet
  facet normal -0.587774 -0.809025 0
    outer loop
      vertex 3.6975 6.74911 0
      vertex 3.8438 6.64282 2
      vertex 3.6975 6.74911 2
    endloop
  endfacet
  facet normal -0.587774 -0.809025 -0
    outer loop
      vertex 3.8438 6.64282 2
      vertex 3.6975 6.74911 0
      vertex 3.8438 6.64282 0
    endloop
  endfacet
  facet normal -0.587774 -0.809025 0
    outer loop
      vertex 3.6975 6.74911 5
      vertex 3.8438 6.64282 7
      vertex 3.6975 6.74911 7
    endloop
  endfacet
  facet normal -0.587774 -0.809025 -0
    outer loop
      vertex 3.8438 6.64282 7
      vertex 3.6975 6.74911 5
      vertex 3.8438 6.64282 5
    endloop
  endfacet
  facet normal -0.994523 0.104518 0
    outer loop
      vertex 4.1111 5.82016 0
      vertex 4.13 6 2
      vertex 4.13 6 0
    endloop
  endfacet
  facet normal -0.994523 0.104518 0
    outer loop
      vertex 4.13 6 2
      vertex 4.1111 5.82016 0
      vertex 4.1111 5.82016 2
    endloop
  endfacet
  facet normal -0.994523 0.104518 0
    outer loop
      vertex 4.1111 5.82016 5
      vertex 4.13 6 7
      vertex 4.13 6 5
    endloop
  endfacet
  facet normal -0.994523 0.104518 0
    outer loop
      vertex 4.13 6 7
      vertex 4.1111 5.82016 5
      vertex 4.1111 5.82016 7
    endloop
  endfacet
  facet normal 0.207928 0.978144 -0
    outer loop
      vertex 3.17458 5.13974 0
      vertex 2.9977 5.17734 2
      vertex 3.17458 5.13974 2
    endloop
  endfacet
  facet normal 0.207928 0.978144 0
    outer loop
      vertex 2.9977 5.17734 2
      vertex 3.17458 5.13974 0
      vertex 2.9977 5.17734 0
    endloop
  endfacet
  facet normal 0.207928 0.978144 -0
    outer loop
      vertex 3.17458 5.13974 5
      vertex 2.9977 5.17734 7
      vertex 3.17458 5.13974 7
    endloop
  endfacet
  facet normal 0.207928 0.978144 0
    outer loop
      vertex 2.9977 5.17734 7
      vertex 3.17458 5.13974 5
      vertex 2.9977 5.17734 5
    endloop
  endfacet
  facet normal -0.951061 -0.309002 0
    outer loop
      vertex 4.1111 6.17984 0
      vertex 4.05522 6.35183 2
      vertex 4.05522 6.35183 0
    endloop
  endfacet
  facet normal -0.951061 -0.309002 0
    outer loop
      vertex 4.05522 6.35183 2
      vertex 4.1111 6.17984 0
      vertex 4.1111 6.17984 2
    endloop
  endfacet
  facet normal -0.951061 -0.309002 0
    outer loop
      vertex 4.1111 6.17984 5
      vertex 4.05522 6.35183 7
      vertex 4.05522 6.35183 5
    endloop
  endfacet
  facet normal -0.951061 -0.309002 0
    outer loop
      vertex 4.05522 6.35183 7
      vertex 4.1111 6.17984 5
      vertex 4.1111 6.17984 7
    endloop
  endfacet
  facet normal 0.406728 -0.913549 0
    outer loop
      vertex 2.8325 6.74911 0
      vertex 2.9977 6.82266 2
      vertex 2.8325 6.74911 2
    endloop
  endfacet
  facet normal 0.406728 -0.913549 0
    outer loop
      vertex 2.9977 6.82266 2
      vertex 2.8325 6.74911 0
      vertex 2.9977 6.82266 0
    endloop
  endfacet
  facet normal 0.406728 -0.913549 0
    outer loop
      vertex 2.8325 6.74911 5
      vertex 2.9977 6.82266 7
      vertex 2.8325 6.74911 7
    endloop
  endfacet
  facet normal 0.406728 -0.913549 0
    outer loop
      vertex 2.9977 6.82266 7
      vertex 2.8325 6.74911 5
      vertex 2.9977 6.82266 5
    endloop
  endfacet
  facet normal 0.951061 -0.309002 0
    outer loop
      vertex 2.4189 6.17984 2
      vertex 2.47478 6.35183 0
      vertex 2.47478 6.35183 2
    endloop
  endfacet
  facet normal 0.951061 -0.309002 0
    outer loop
      vertex 2.47478 6.35183 0
      vertex 2.4189 6.17984 2
      vertex 2.4189 6.17984 0
    endloop
  endfacet
  facet normal 0.951061 -0.309002 0
    outer loop
      vertex 2.4189 6.17984 7
      vertex 2.47478 6.35183 5
      vertex 2.47478 6.35183 7
    endloop
  endfacet
  facet normal 0.951061 -0.309002 0
    outer loop
      vertex 2.47478 6.35183 5
      vertex 2.4189 6.17984 7
      vertex 2.4189 6.17984 5
    endloop
  endfacet
  facet normal -0.866009 -0.500029 0
    outer loop
      vertex 4.05522 6.35183 0
      vertex 3.9648 6.50843 2
      vertex 3.9648 6.50843 0
    endloop
  endfacet
  facet normal -0.866009 -0.500029 0
    outer loop
      vertex 3.9648 6.50843 2
      vertex 4.05522 6.35183 0
      vertex 4.05522 6.35183 2
    endloop
  endfacet
  facet normal -0.866009 -0.500029 0
    outer loop
      vertex 4.05522 6.35183 5
      vertex 3.9648 6.50843 7
      vertex 3.9648 6.50843 5
    endloop
  endfacet
  facet normal -0.866009 -0.500029 0
    outer loop
      vertex 3.9648 6.50843 7
      vertex 4.05522 6.35183 5
      vertex 4.05522 6.35183 7
    endloop
  endfacet
  facet normal -0.743159 -0.669114 0
    outer loop
      vertex 3.9648 6.50843 0
      vertex 3.8438 6.64282 2
      vertex 3.8438 6.64282 0
    endloop
  endfacet
  facet normal -0.743159 -0.669114 0
    outer loop
      vertex 3.8438 6.64282 2
      vertex 3.9648 6.50843 0
      vertex 3.9648 6.50843 2
    endloop
  endfacet
  facet normal -0.743159 -0.669114 0
    outer loop
      vertex 3.9648 6.50843 5
      vertex 3.8438 6.64282 7
      vertex 3.8438 6.64282 5
    endloop
  endfacet
  facet normal -0.743159 -0.669114 0
    outer loop
      vertex 3.8438 6.64282 7
      vertex 3.9648 6.50843 5
      vertex 3.9648 6.50843 7
    endloop
  endfacet
  facet normal -0.406728 -0.913549 0
    outer loop
      vertex 3.5323 6.82266 0
      vertex 3.6975 6.74911 2
      vertex 3.5323 6.82266 2
    endloop
  endfacet
  facet normal -0.406728 -0.913549 -0
    outer loop
      vertex 3.6975 6.74911 2
      vertex 3.5323 6.82266 0
      vertex 3.6975 6.74911 0
    endloop
  endfacet
  facet normal -0.406728 -0.913549 0
    outer loop
      vertex 3.5323 6.82266 5
      vertex 3.6975 6.74911 7
      vertex 3.5323 6.82266 7
    endloop
  endfacet
  facet normal -0.406728 -0.913549 -0
    outer loop
      vertex 3.6975 6.74911 7
      vertex 3.5323 6.82266 5
      vertex 3.6975 6.74911 5
    endloop
  endfacet
  facet normal 0 -1 0
    outer loop
      vertex 3.17458 6.86026 0
      vertex 3.35542 6.86026 2
      vertex 3.17458 6.86026 2
    endloop
  endfacet
  facet normal 0 -1 -0
    outer loop
      vertex 3.35542 6.86026 2
      vertex 3.17458 6.86026 0
      vertex 3.35542 6.86026 0
    endloop
  endfacet
  facet normal 0 -1 0
    outer loop
      vertex 3.17458 6.86026 5
      vertex 3.35542 6.86026 7
      vertex 3.17458 6.86026 7
    endloop
  endfacet
  facet normal 0 -1 -0
    outer loop
      vertex 3.35542 6.86026 7
      vertex 3.17458 6.86026 5
      vertex 3.35542 6.86026 5
    endloop
  endfacet
  facet normal 0.994523 0.104518 0
    outer loop
      vertex 2.4189 5.82016 2
      vertex 2.4 6 0
      vertex 2.4 6 2
    endloop
  endfacet
  facet normal 0.994523 0.104518 0
    outer loop
      vertex 2.4 6 0
      vertex 2.4189 5.82016 2
      vertex 2.4189 5.82016 0
    endloop
  endfacet
  facet normal 0.994523 0.104518 0
    outer loop
      vertex 2.4189 5.82016 7
      vertex 2.4 6 5
      vertex 2.4 6 7
    endloop
  endfacet
  facet normal 0.994523 0.104518 0
    outer loop
      vertex 2.4 6 5
      vertex 2.4189 5.82016 7
      vertex 2.4189 5.82016 5
    endloop
  endfacet
  facet normal 0.866009 -0.500029 0
    outer loop
      vertex 2.47478 6.35183 2
      vertex 2.5652 6.50843 0
      vertex 2.5652 6.50843 2
    endloop
  endfacet
  facet normal 0.866009 -0.500029 0
    outer loop
      vertex 2.5652 6.50843 0
      vertex 2.47478 6.35183 2
      vertex 2.47478 6.35183 0
    endloop
  endfacet
  facet normal 0.866009 -0.500029 0
    outer loop
      vertex 2.47478 6.35183 7
      vertex 2.5652 6.50843 5
      vertex 2.5652 6.50843 7
    endloop
  endfacet
  facet normal 0.866009 -0.500029 0
    outer loop
      vertex 2.5652 6.50843 5
      vertex 2.47478 6.35183 7
      vertex 2.47478 6.35183 5
    endloop
  endfacet
  facet normal 0.587774 -0.809025 0
    outer loop
      vertex 2.6862 6.64282 0
      vertex 2.8325 6.74911 2
      vertex 2.6862 6.64282 2
    endloop
  endfacet
  facet normal 0.587774 -0.809025 0
    outer loop
      vertex 2.8325 6.74911 2
      vertex 2.6862 6.64282 0
      vertex 2.8325 6.74911 0
    endloop
  endfacet
  facet normal 0.587774 -0.809025 0
    outer loop
      vertex 2.6862 6.64282 5
      vertex 2.8325 6.74911 7
      vertex 2.6862 6.64282 7
    endloop
  endfacet
  facet normal 0.587774 -0.809025 0
    outer loop
      vertex 2.8325 6.74911 7
      vertex 2.6862 6.64282 5
      vertex 2.8325 6.74911 5
    endloop
  endfacet
  facet normal 0.207928 -0.978144 0
    outer loop
      vertex 2.9977 6.82266 0
      vertex 3.17458 6.86026 2
      vertex 2.9977 6.82266 2
    endloop
  endfacet
  facet normal 0.207928 -0.978144 0
    outer loop
      vertex 3.17458 6.86026 2
      vertex 2.9977 6.82266 0
      vertex 3.17458 6.86026 0
    endloop
  endfacet
  facet normal 0.207928 -0.978144 0
    outer loop
      vertex 2.9977 6.82266 5
      vertex 3.17458 6.86026 7
      vertex 2.9977 6.82266 7
    endloop
  endfacet
  facet normal 0.207928 -0.978144 0
    outer loop
      vertex 3.17458 6.86026 7
      vertex 2.9977 6.82266 5
      vertex 3.17458 6.86026 5
    endloop
  endfacet
  facet normal 0.743159 -0.669114 0
    outer loop
      vertex 2.5652 6.50843 2
      vertex 2.6862 6.64282 0
      vertex 2.6862 6.64282 2
    endloop
  endfacet
  facet normal 0.743159 -0.669114 0
    outer loop
      vertex 2.6862 6.64282 0
      vertex 2.5652 6.50843 2
      vertex 2.5652 6.50843 0
    endloop
  endfacet
  facet normal 0.743159 -0.669114 0
    outer loop
      vertex 2.5652 6.50843 7
      vertex 2.6862 6.64282 5
      vertex 2.6862 6.64282 7
    endloop
  endfacet
  facet normal 0.743159 -0.669114 0
    outer loop
      vertex 2.6862 6.64282 5
      vertex 2.5652 6.50843 7
      vertex 2.5652 6.50843 5
    endloop
  endfacet
  facet normal -0.994523 -0.104518 0
    outer loop
      vertex 4.13 6 0
      vertex 4.1111 6.17984 2
      vertex 4.1111 6.17984 0
    endloop
  endfacet
  facet normal -0.994523 -0.104518 0
    outer loop
      vertex 4.1111 6.17984 2
      vertex 4.13 6 0
      vertex 4.13 6 2
    endloop
  endfacet
  facet normal -0.994523 -0.104518 0
    outer loop
      vertex 4.13 6 5
      vertex 4.1111 6.17984 7
      vertex 4.1111 6.17984 5
    endloop
  endfacet
  facet normal -0.994523 -0.104518 0
    outer loop
      vertex 4.1111 6.17984 7
      vertex 4.13 6 5
      vertex 4.13 6 7
    endloop
  endfacet
  facet normal -0.207928 0.978144 0
    outer loop
      vertex 3.5323 5.17734 0
      vertex 3.35542 5.13974 2
      vertex 3.5323 5.17734 2
    endloop
  endfacet
  facet normal -0.207928 0.978144 0
    outer loop
      vertex 3.35542 5.13974 2
      vertex 3.5323 5.17734 0
      vertex 3.35542 5.13974 0
    endloop
  endfacet
  facet normal -0.207928 0.978144 0
    outer loop
      vertex 3.5323 5.17734 5
      vertex 3.35542 5.13974 7
      vertex 3.5323 5.17734 7
    endloop
  endfacet
  facet normal -0.207928 0.978144 0
    outer loop
      vertex 3.35542 5.13974 7
      vertex 3.5323 5.17734 5
      vertex 3.35542 5.13974 5
    endloop
  endfacet
  facet normal -0.866009 0.500029 0
    outer loop
      vertex 3.9648 5.49157 0
      vertex 4.05522 5.64817 2
      vertex 4.05522 5.64817 0
    endloop
  endfacet
  facet normal -0.866009 0.500029 0
    outer loop
      vertex 4.05522 5.64817 2
      vertex 3.9648 5.49157 0
      vertex 3.9648 5.49157 2
    endloop
  endfacet
  facet normal -0.866009 0.500029 0
    outer loop
      vertex 3.9648 5.49157 5
      vertex 4.05522 5.64817 7
      vertex 4.05522 5.64817 5
    endloop
  endfacet
  facet normal -0.866009 0.500029 0
    outer loop
      vertex 4.05522 5.64817 7
      vertex 3.9648 5.49157 5
      vertex 3.9648 5.49157 7
    endloop
  endfacet
  facet normal -0.951061 0.309002 0
    outer loop
      vertex 4.05522 5.64817 0
      vertex 4.1111 5.82016 2
      vertex 4.1111 5.82016 0
    endloop
  endfacet
  facet normal -0.951061 0.309002 0
    outer loop
      vertex 4.1111 5.82016 2
      vertex 4.05522 5.64817 0
      vertex 4.05522 5.64817 2
    endloop
  endfacet
  facet normal -0.951061 0.309002 0
    outer loop
      vertex 4.05522 5.64817 5
      vertex 4.1111 5.82016 7
      vertex 4.1111 5.82016 5
    endloop
  endfacet
  facet normal -0.951061 0.309002 0
    outer loop
      vertex 4.1111 5.82016 7
      vertex 4.05522 5.64817 5
      vertex 4.05522 5.64817 7
    endloop
  endfacet
  facet normal -0.406728 0.913549 0
    outer loop
      vertex 3.6975 5.25089 0
      vertex 3.5323 5.17734 2
      vertex 3.6975 5.25089 2
    endloop
  endfacet
  facet normal -0.406728 0.913549 0
    outer loop
      vertex 3.5323 5.17734 2
      vertex 3.6975 5.25089 0
      vertex 3.5323 5.17734 0
    endloop
  endfacet
  facet normal -0.406728 0.913549 0
    outer loop
      vertex 3.6975 5.25089 5
      vertex 3.5323 5.17734 7
      vertex 3.6975 5.25089 7
    endloop
  endfacet
  facet normal -0.406728 0.913549 0
    outer loop
      vertex 3.5323 5.17734 7
      vertex 3.6975 5.25089 5
      vertex 3.5323 5.17734 5
    endloop
  endfacet
  facet normal -0.587774 0.809025 0
    outer loop
      vertex 3.8438 5.35718 0
      vertex 3.6975 5.25089 2
      vertex 3.8438 5.35718 2
    endloop
  endfacet
  facet normal -0.587774 0.809025 0
    outer loop
      vertex 3.6975 5.25089 2
      vertex 3.8438 5.35718 0
      vertex 3.6975 5.25089 0
    endloop
  endfacet
  facet normal -0.587774 0.809025 0
    outer loop
      vertex 3.8438 5.35718 5
      vertex 3.6975 5.25089 7
      vertex 3.8438 5.35718 7
    endloop
  endfacet
  facet normal -0.587774 0.809025 0
    outer loop
      vertex 3.6975 5.25089 7
      vertex 3.8438 5.35718 5
      vertex 3.6975 5.25089 5
    endloop
  endfacet
  facet normal 0 1 -0
    outer loop
      vertex 3.35542 5.13974 0
      vertex 3.17458 5.13974 2
      vertex 3.35542 5.13974 2
    endloop
  endfacet
  facet normal 0 1 0
    outer loop
      vertex 3.17458 5.13974 2
      vertex 3.35542 5.13974 0
      vertex 3.17458 5.13974 0
    endloop
  endfacet
  facet normal 0 1 -0
    outer loop
      vertex 3.35542 5.13974 5
      vertex 3.17458 5.13974 7
      vertex 3.35542 5.13974 7
    endloop
  endfacet
  facet normal 0 1 0
    outer loop
      vertex 3.17458 5.13974 7
      vertex 3.35542 5.13974 5
      vertex 3.17458 5.13974 5
    endloop
  endfacet
  facet normal 0.587774 0.809025 -0
    outer loop
      vertex 2.8325 5.25089 0
      vertex 2.6862 5.35718 2
      vertex 2.8325 5.25089 2
    endloop
  endfacet
  facet normal 0.587774 0.809025 0
    outer loop
      vertex 2.6862 5.35718 2
      vertex 2.8325 5.25089 0
      vertex 2.6862 5.35718 0
    endloop
  endfacet
  facet normal 0.587774 0.809025 -0
    outer loop
      vertex 2.8325 5.25089 5
      vertex 2.6862 5.35718 7
      vertex 2.8325 5.25089 7
    endloop
  endfacet
  facet normal 0.587774 0.809025 0
    outer loop
      vertex 2.6862 5.35718 7
      vertex 2.8325 5.25089 5
      vertex 2.6862 5.35718 5
    endloop
  endfacet
  facet normal 0.743159 0.669114 0
    outer loop
      vertex 2.6862 5.35718 2
      vertex 2.5652 5.49157 0
      vertex 2.5652 5.49157 2
    endloop
  endfacet
  facet normal 0.743159 0.669114 0
    outer loop
      vertex 2.5652 5.49157 0
      vertex 2.6862 5.35718 2
      vertex 2.6862 5.35718 0
    endloop
  endfacet
  facet normal 0.743159 0.669114 0
    outer loop
      vertex 2.6862 5.35718 7
      vertex 2.5652 5.49157 5
      vertex 2.5652 5.49157 7
    endloop
  endfacet
  facet normal 0.743159 0.669114 0
    outer loop
      vertex 2.5652 5.49157 5
      vertex 2.6862 5.35718 7
      vertex 2.6862 5.35718 5
    endloop
  endfacet
  facet normal 0.951061 0.309002 0
    outer loop
      vertex 2.47478 5.64817 2
      vertex 2.4189 5.82016 0
      vertex 2.4189 5.82016 2
    endloop
  endfacet
  facet normal 0.951061 0.309002 0
    outer loop
      vertex 2.4189 5.82016 0
      vertex 2.47478 5.64817 2
      vertex 2.47478 5.64817 0
    endloop
  endfacet
  facet normal 0.951061 0.309002 0
    outer loop
      vertex 2.47478 5.64817 7
      vertex 2.4189 5.82016 5
      vertex 2.4189 5.82016 7
    endloop
  endfacet
  facet normal 0.951061 0.309002 0
    outer loop
      vertex 2.4189 5.82016 5
      vertex 2.47478 5.64817 7
      vertex 2.47478 5.64817 5
    endloop
  endfacet
  facet normal -0.207928 -0.978144 0
    outer loop
      vertex 3.35542 6.86026 0
      vertex 3.5323 6.82266 2
      vertex 3.35542 6.86026 2
    endloop
  endfacet
  facet normal -0.207928 -0.978144 -0
    outer loop
      vertex 3.5323 6.82266 2
      vertex 3.35542 6.86026 0
      vertex 3.5323 6.82266 0
    endloop
  endfacet
  facet normal -0.207928 -0.978144 0
    outer loop
      vertex 3.35542 6.86026 5
      vertex 3.5323 6.82266 7
      vertex 3.35542 6.86026 7
    endloop
  endfacet
  facet normal -0.207928 -0.978144 -0
    outer loop
      vertex 3.5323 6.82266 7
      vertex 3.35542 6.86026 5
      vertex 3.5323 6.82266 5
    endloop
  endfacet
  facet normal 0.994523 -0.104518 0
    outer loop
      vertex 2.4 6 2
      vertex 2.4189 6.17984 0
      vertex 2.4189 6.17984 2
    endloop
  endfacet
  facet normal 0.994523 -0.104518 0
    outer loop
      vertex 2.4189 6.17984 0
      vertex 2.4 6 2
      vertex 2.4 6 0
    endloop
  endfacet
  facet normal 0.994523 -0.104518 0
    outer loop
      vertex 2.4 6 7
      vertex 2.4189 6.17984 5
      vertex 2.4189 6.17984 7
    endloop
  endfacet
  facet normal 0.994523 -0.104518 0
    outer loop
      vertex 2.4189 6.17984 5
      vertex 2.4 6 7
      vertex 2.4 6 5
    endloop
  endfacet
  facet normal -0.743159 0.669114 0
    outer loop
      vertex 3.8438 5.35718 0
      vertex 3.9648 5.49157 2
      vertex 3.9648 5.49157 0
    endloop
  endfacet
  facet normal -0.743159 0.669114 0
    outer loop
      vertex 3.9648 5.49157 2
      vertex 3.8438 5.35718 0
      vertex 3.8438 5.35718 2
    endloop
  endfacet
  facet normal -0.743159 0.669114 0
    outer loop
      vertex 3.8438 5.35718 5
      vertex 3.9648 5.49157 7
      vertex 3.9648 5.49157 5
    endloop
  endfacet
  facet normal -0.743159 0.669114 0
    outer loop
      vertex 3.9648 5.49157 7
      vertex 3.8438 5.35718 5
      vertex 3.8438 5.35718 7
    endloop
  endfacet
  facet normal 0.406728 0.913549 -0
    outer loop
      vertex 2.9977 5.17734 0
      vertex 2.8325 5.25089 2
      vertex 2.9977 5.17734 2
    endloop
  endfacet
  facet normal 0.406728 0.913549 0
    outer loop
      vertex 2.8325 5.25089 2
      vertex 2.9977 5.17734 0
      vertex 2.8325 5.25089 0
    endloop
  endfacet
  facet normal 0.406728 0.913549 -0
    outer loop
      vertex 2.9977 5.17734 5
      vertex 2.8325 5.25089 7
      vertex 2.9977 5.17734 7
    endloop
  endfacet
  facet normal 0.406728 0.913549 0
    outer loop
      vertex 2.8325 5.25089 7
      vertex 2.9977 5.17734 5
      vertex 2.8325 5.25089 5
    endloop
  endfacet
  facet normal 0.866009 0.500029 0
    outer loop
      vertex 2.5652 5.49157 2
      vertex 2.47478 5.64817 0
      vertex 2.47478 5.64817 2
    endloop
  endfacet
  facet normal 0.866009 0.500029 0
    outer loop
      vertex 2.47478 5.64817 0
      vertex 2.5652 5.49157 2
      vertex 2.5652 5.49157 0
    endloop
  endfacet
  facet normal 0.866009 0.500029 0
    outer loop
      vertex 2.5652 5.49157 7
      vertex 2.47478 5.64817 5
      vertex 2.47478 5.64817 7
    endloop
  endfacet
  facet normal 0.866009 0.500029 0
    outer loop
      vertex 2.47478 5.64817 5
      vertex 2.5652 5.49157 7
      vertex 2.5652 5.49157 5
    endloop
  endfacet
  facet normal 0 1 -0
    outer loop
      vertex 10 2 32
      vertex 2 2 34
      vertex 10 2 34
    endloop
  endfacet
  facet normal 0 1 0
    outer loop
      vertex 2 2 34
      vertex 10 2 32
      vertex 2 2 32
    endloop
  endfacet
  facet normal 0 -1 0
    outer loop
      vertex 2 10 32
      vertex 10 10 34
      vertex 2 10 34
    endloop
  endfacet
  facet normal 0 -1 -0
    outer loop
      vertex 10 10 34
      vertex 2 10 32
      vertex 10 10 32
    endloop
  endfacet
endsolid OpenSCAD_Model
