%TF.GenerationSoftware,KiCad,Pcbnew,7.0.5*%
%TF.CreationDate,2023-07-12T17:07:00+01:00*%
%TF.ProjectId,med_assoc_lick_sens_addon,6d65645f-6173-4736-9f63-5f6c69636b5f,rev?*%
%TF.SameCoordinates,Original*%
%TF.FileFunction,Legend,Top*%
%TF.FilePolarity,Positive*%
%FSLAX46Y46*%
G04 Gerber Fmt 4.6, Leading zero omitted, Abs format (unit mm)*
G04 Created by KiCad (PCBNEW 7.0.5) date 2023-07-12 17:07:00*
%MOMM*%
%LPD*%
G01*
G04 APERTURE LIST*
%ADD10C,0.150000*%
%ADD11C,0.120000*%
G04 APERTURE END LIST*
D10*
%TO.C,J1*%
X159116666Y-69934819D02*
X159116666Y-70649104D01*
X159116666Y-70649104D02*
X159069047Y-70791961D01*
X159069047Y-70791961D02*
X158973809Y-70887200D01*
X158973809Y-70887200D02*
X158830952Y-70934819D01*
X158830952Y-70934819D02*
X158735714Y-70934819D01*
X160116666Y-70934819D02*
X159545238Y-70934819D01*
X159830952Y-70934819D02*
X159830952Y-69934819D01*
X159830952Y-69934819D02*
X159735714Y-70077676D01*
X159735714Y-70077676D02*
X159640476Y-70172914D01*
X159640476Y-70172914D02*
X159545238Y-70220533D01*
%TO.C,U1*%
X163068095Y-53004819D02*
X163068095Y-53814342D01*
X163068095Y-53814342D02*
X163115714Y-53909580D01*
X163115714Y-53909580D02*
X163163333Y-53957200D01*
X163163333Y-53957200D02*
X163258571Y-54004819D01*
X163258571Y-54004819D02*
X163449047Y-54004819D01*
X163449047Y-54004819D02*
X163544285Y-53957200D01*
X163544285Y-53957200D02*
X163591904Y-53909580D01*
X163591904Y-53909580D02*
X163639523Y-53814342D01*
X163639523Y-53814342D02*
X163639523Y-53004819D01*
X164639523Y-54004819D02*
X164068095Y-54004819D01*
X164353809Y-54004819D02*
X164353809Y-53004819D01*
X164353809Y-53004819D02*
X164258571Y-53147676D01*
X164258571Y-53147676D02*
X164163333Y-53242914D01*
X164163333Y-53242914D02*
X164068095Y-53290533D01*
%TO.C,R4*%
X176804819Y-61126666D02*
X176328628Y-61459999D01*
X176804819Y-61698094D02*
X175804819Y-61698094D01*
X175804819Y-61698094D02*
X175804819Y-61317142D01*
X175804819Y-61317142D02*
X175852438Y-61221904D01*
X175852438Y-61221904D02*
X175900057Y-61174285D01*
X175900057Y-61174285D02*
X175995295Y-61126666D01*
X175995295Y-61126666D02*
X176138152Y-61126666D01*
X176138152Y-61126666D02*
X176233390Y-61174285D01*
X176233390Y-61174285D02*
X176281009Y-61221904D01*
X176281009Y-61221904D02*
X176328628Y-61317142D01*
X176328628Y-61317142D02*
X176328628Y-61698094D01*
X176138152Y-60269523D02*
X176804819Y-60269523D01*
X175757200Y-60507618D02*
X176471485Y-60745713D01*
X176471485Y-60745713D02*
X176471485Y-60126666D01*
%TO.C,D1*%
X150391905Y-53644819D02*
X150391905Y-52644819D01*
X150391905Y-52644819D02*
X150630000Y-52644819D01*
X150630000Y-52644819D02*
X150772857Y-52692438D01*
X150772857Y-52692438D02*
X150868095Y-52787676D01*
X150868095Y-52787676D02*
X150915714Y-52882914D01*
X150915714Y-52882914D02*
X150963333Y-53073390D01*
X150963333Y-53073390D02*
X150963333Y-53216247D01*
X150963333Y-53216247D02*
X150915714Y-53406723D01*
X150915714Y-53406723D02*
X150868095Y-53501961D01*
X150868095Y-53501961D02*
X150772857Y-53597200D01*
X150772857Y-53597200D02*
X150630000Y-53644819D01*
X150630000Y-53644819D02*
X150391905Y-53644819D01*
X151915714Y-53644819D02*
X151344286Y-53644819D01*
X151630000Y-53644819D02*
X151630000Y-52644819D01*
X151630000Y-52644819D02*
X151534762Y-52787676D01*
X151534762Y-52787676D02*
X151439524Y-52882914D01*
X151439524Y-52882914D02*
X151344286Y-52930533D01*
%TO.C,H1*%
X144018095Y-35624819D02*
X144018095Y-34624819D01*
X144018095Y-35101009D02*
X144589523Y-35101009D01*
X144589523Y-35624819D02*
X144589523Y-34624819D01*
X145589523Y-35624819D02*
X145018095Y-35624819D01*
X145303809Y-35624819D02*
X145303809Y-34624819D01*
X145303809Y-34624819D02*
X145208571Y-34767676D01*
X145208571Y-34767676D02*
X145113333Y-34862914D01*
X145113333Y-34862914D02*
X145018095Y-34910533D01*
%TO.C,J2*%
X158416666Y-35534819D02*
X158416666Y-36249104D01*
X158416666Y-36249104D02*
X158369047Y-36391961D01*
X158369047Y-36391961D02*
X158273809Y-36487200D01*
X158273809Y-36487200D02*
X158130952Y-36534819D01*
X158130952Y-36534819D02*
X158035714Y-36534819D01*
X158845238Y-35630057D02*
X158892857Y-35582438D01*
X158892857Y-35582438D02*
X158988095Y-35534819D01*
X158988095Y-35534819D02*
X159226190Y-35534819D01*
X159226190Y-35534819D02*
X159321428Y-35582438D01*
X159321428Y-35582438D02*
X159369047Y-35630057D01*
X159369047Y-35630057D02*
X159416666Y-35725295D01*
X159416666Y-35725295D02*
X159416666Y-35820533D01*
X159416666Y-35820533D02*
X159369047Y-35963390D01*
X159369047Y-35963390D02*
X158797619Y-36534819D01*
X158797619Y-36534819D02*
X159416666Y-36534819D01*
%TO.C,R6*%
X182244819Y-77636666D02*
X181768628Y-77969999D01*
X182244819Y-78208094D02*
X181244819Y-78208094D01*
X181244819Y-78208094D02*
X181244819Y-77827142D01*
X181244819Y-77827142D02*
X181292438Y-77731904D01*
X181292438Y-77731904D02*
X181340057Y-77684285D01*
X181340057Y-77684285D02*
X181435295Y-77636666D01*
X181435295Y-77636666D02*
X181578152Y-77636666D01*
X181578152Y-77636666D02*
X181673390Y-77684285D01*
X181673390Y-77684285D02*
X181721009Y-77731904D01*
X181721009Y-77731904D02*
X181768628Y-77827142D01*
X181768628Y-77827142D02*
X181768628Y-78208094D01*
X181244819Y-76779523D02*
X181244819Y-76969999D01*
X181244819Y-76969999D02*
X181292438Y-77065237D01*
X181292438Y-77065237D02*
X181340057Y-77112856D01*
X181340057Y-77112856D02*
X181482914Y-77208094D01*
X181482914Y-77208094D02*
X181673390Y-77255713D01*
X181673390Y-77255713D02*
X182054342Y-77255713D01*
X182054342Y-77255713D02*
X182149580Y-77208094D01*
X182149580Y-77208094D02*
X182197200Y-77160475D01*
X182197200Y-77160475D02*
X182244819Y-77065237D01*
X182244819Y-77065237D02*
X182244819Y-76874761D01*
X182244819Y-76874761D02*
X182197200Y-76779523D01*
X182197200Y-76779523D02*
X182149580Y-76731904D01*
X182149580Y-76731904D02*
X182054342Y-76684285D01*
X182054342Y-76684285D02*
X181816247Y-76684285D01*
X181816247Y-76684285D02*
X181721009Y-76731904D01*
X181721009Y-76731904D02*
X181673390Y-76779523D01*
X181673390Y-76779523D02*
X181625771Y-76874761D01*
X181625771Y-76874761D02*
X181625771Y-77065237D01*
X181625771Y-77065237D02*
X181673390Y-77160475D01*
X181673390Y-77160475D02*
X181721009Y-77208094D01*
X181721009Y-77208094D02*
X181816247Y-77255713D01*
%TO.C,H2*%
X184658095Y-35624819D02*
X184658095Y-34624819D01*
X184658095Y-35101009D02*
X185229523Y-35101009D01*
X185229523Y-35624819D02*
X185229523Y-34624819D01*
X185658095Y-34720057D02*
X185705714Y-34672438D01*
X185705714Y-34672438D02*
X185800952Y-34624819D01*
X185800952Y-34624819D02*
X186039047Y-34624819D01*
X186039047Y-34624819D02*
X186134285Y-34672438D01*
X186134285Y-34672438D02*
X186181904Y-34720057D01*
X186181904Y-34720057D02*
X186229523Y-34815295D01*
X186229523Y-34815295D02*
X186229523Y-34910533D01*
X186229523Y-34910533D02*
X186181904Y-35053390D01*
X186181904Y-35053390D02*
X185610476Y-35624819D01*
X185610476Y-35624819D02*
X186229523Y-35624819D01*
%TO.C,R5*%
X177164819Y-77636666D02*
X176688628Y-77969999D01*
X177164819Y-78208094D02*
X176164819Y-78208094D01*
X176164819Y-78208094D02*
X176164819Y-77827142D01*
X176164819Y-77827142D02*
X176212438Y-77731904D01*
X176212438Y-77731904D02*
X176260057Y-77684285D01*
X176260057Y-77684285D02*
X176355295Y-77636666D01*
X176355295Y-77636666D02*
X176498152Y-77636666D01*
X176498152Y-77636666D02*
X176593390Y-77684285D01*
X176593390Y-77684285D02*
X176641009Y-77731904D01*
X176641009Y-77731904D02*
X176688628Y-77827142D01*
X176688628Y-77827142D02*
X176688628Y-78208094D01*
X176164819Y-76731904D02*
X176164819Y-77208094D01*
X176164819Y-77208094D02*
X176641009Y-77255713D01*
X176641009Y-77255713D02*
X176593390Y-77208094D01*
X176593390Y-77208094D02*
X176545771Y-77112856D01*
X176545771Y-77112856D02*
X176545771Y-76874761D01*
X176545771Y-76874761D02*
X176593390Y-76779523D01*
X176593390Y-76779523D02*
X176641009Y-76731904D01*
X176641009Y-76731904D02*
X176736247Y-76684285D01*
X176736247Y-76684285D02*
X176974342Y-76684285D01*
X176974342Y-76684285D02*
X177069580Y-76731904D01*
X177069580Y-76731904D02*
X177117200Y-76779523D01*
X177117200Y-76779523D02*
X177164819Y-76874761D01*
X177164819Y-76874761D02*
X177164819Y-77112856D01*
X177164819Y-77112856D02*
X177117200Y-77208094D01*
X177117200Y-77208094D02*
X177069580Y-77255713D01*
%TO.C,H4*%
X184658095Y-78804819D02*
X184658095Y-77804819D01*
X184658095Y-78281009D02*
X185229523Y-78281009D01*
X185229523Y-78804819D02*
X185229523Y-77804819D01*
X186134285Y-78138152D02*
X186134285Y-78804819D01*
X185896190Y-77757200D02*
X185658095Y-78471485D01*
X185658095Y-78471485D02*
X186277142Y-78471485D01*
%TO.C,R2*%
X151764819Y-70016666D02*
X151288628Y-70349999D01*
X151764819Y-70588094D02*
X150764819Y-70588094D01*
X150764819Y-70588094D02*
X150764819Y-70207142D01*
X150764819Y-70207142D02*
X150812438Y-70111904D01*
X150812438Y-70111904D02*
X150860057Y-70064285D01*
X150860057Y-70064285D02*
X150955295Y-70016666D01*
X150955295Y-70016666D02*
X151098152Y-70016666D01*
X151098152Y-70016666D02*
X151193390Y-70064285D01*
X151193390Y-70064285D02*
X151241009Y-70111904D01*
X151241009Y-70111904D02*
X151288628Y-70207142D01*
X151288628Y-70207142D02*
X151288628Y-70588094D01*
X150860057Y-69635713D02*
X150812438Y-69588094D01*
X150812438Y-69588094D02*
X150764819Y-69492856D01*
X150764819Y-69492856D02*
X150764819Y-69254761D01*
X150764819Y-69254761D02*
X150812438Y-69159523D01*
X150812438Y-69159523D02*
X150860057Y-69111904D01*
X150860057Y-69111904D02*
X150955295Y-69064285D01*
X150955295Y-69064285D02*
X151050533Y-69064285D01*
X151050533Y-69064285D02*
X151193390Y-69111904D01*
X151193390Y-69111904D02*
X151764819Y-69683332D01*
X151764819Y-69683332D02*
X151764819Y-69064285D01*
%TO.C,U2*%
X178039819Y-47751904D02*
X178849342Y-47751904D01*
X178849342Y-47751904D02*
X178944580Y-47704285D01*
X178944580Y-47704285D02*
X178992200Y-47656666D01*
X178992200Y-47656666D02*
X179039819Y-47561428D01*
X179039819Y-47561428D02*
X179039819Y-47370952D01*
X179039819Y-47370952D02*
X178992200Y-47275714D01*
X178992200Y-47275714D02*
X178944580Y-47228095D01*
X178944580Y-47228095D02*
X178849342Y-47180476D01*
X178849342Y-47180476D02*
X178039819Y-47180476D01*
X178135057Y-46751904D02*
X178087438Y-46704285D01*
X178087438Y-46704285D02*
X178039819Y-46609047D01*
X178039819Y-46609047D02*
X178039819Y-46370952D01*
X178039819Y-46370952D02*
X178087438Y-46275714D01*
X178087438Y-46275714D02*
X178135057Y-46228095D01*
X178135057Y-46228095D02*
X178230295Y-46180476D01*
X178230295Y-46180476D02*
X178325533Y-46180476D01*
X178325533Y-46180476D02*
X178468390Y-46228095D01*
X178468390Y-46228095D02*
X179039819Y-46799523D01*
X179039819Y-46799523D02*
X179039819Y-46180476D01*
%TO.C,R1*%
X156844819Y-70016666D02*
X156368628Y-70349999D01*
X156844819Y-70588094D02*
X155844819Y-70588094D01*
X155844819Y-70588094D02*
X155844819Y-70207142D01*
X155844819Y-70207142D02*
X155892438Y-70111904D01*
X155892438Y-70111904D02*
X155940057Y-70064285D01*
X155940057Y-70064285D02*
X156035295Y-70016666D01*
X156035295Y-70016666D02*
X156178152Y-70016666D01*
X156178152Y-70016666D02*
X156273390Y-70064285D01*
X156273390Y-70064285D02*
X156321009Y-70111904D01*
X156321009Y-70111904D02*
X156368628Y-70207142D01*
X156368628Y-70207142D02*
X156368628Y-70588094D01*
X156844819Y-69064285D02*
X156844819Y-69635713D01*
X156844819Y-69349999D02*
X155844819Y-69349999D01*
X155844819Y-69349999D02*
X155987676Y-69445237D01*
X155987676Y-69445237D02*
X156082914Y-69540475D01*
X156082914Y-69540475D02*
X156130533Y-69635713D01*
%TO.C,R3*%
X171724819Y-61126666D02*
X171248628Y-61459999D01*
X171724819Y-61698094D02*
X170724819Y-61698094D01*
X170724819Y-61698094D02*
X170724819Y-61317142D01*
X170724819Y-61317142D02*
X170772438Y-61221904D01*
X170772438Y-61221904D02*
X170820057Y-61174285D01*
X170820057Y-61174285D02*
X170915295Y-61126666D01*
X170915295Y-61126666D02*
X171058152Y-61126666D01*
X171058152Y-61126666D02*
X171153390Y-61174285D01*
X171153390Y-61174285D02*
X171201009Y-61221904D01*
X171201009Y-61221904D02*
X171248628Y-61317142D01*
X171248628Y-61317142D02*
X171248628Y-61698094D01*
X170724819Y-60793332D02*
X170724819Y-60174285D01*
X170724819Y-60174285D02*
X171105771Y-60507618D01*
X171105771Y-60507618D02*
X171105771Y-60364761D01*
X171105771Y-60364761D02*
X171153390Y-60269523D01*
X171153390Y-60269523D02*
X171201009Y-60221904D01*
X171201009Y-60221904D02*
X171296247Y-60174285D01*
X171296247Y-60174285D02*
X171534342Y-60174285D01*
X171534342Y-60174285D02*
X171629580Y-60221904D01*
X171629580Y-60221904D02*
X171677200Y-60269523D01*
X171677200Y-60269523D02*
X171724819Y-60364761D01*
X171724819Y-60364761D02*
X171724819Y-60650475D01*
X171724819Y-60650475D02*
X171677200Y-60745713D01*
X171677200Y-60745713D02*
X171629580Y-60793332D01*
%TO.C,H3*%
X144018095Y-78804819D02*
X144018095Y-77804819D01*
X144018095Y-78281009D02*
X144589523Y-78281009D01*
X144589523Y-78804819D02*
X144589523Y-77804819D01*
X144970476Y-77804819D02*
X145589523Y-77804819D01*
X145589523Y-77804819D02*
X145256190Y-78185771D01*
X145256190Y-78185771D02*
X145399047Y-78185771D01*
X145399047Y-78185771D02*
X145494285Y-78233390D01*
X145494285Y-78233390D02*
X145541904Y-78281009D01*
X145541904Y-78281009D02*
X145589523Y-78376247D01*
X145589523Y-78376247D02*
X145589523Y-78614342D01*
X145589523Y-78614342D02*
X145541904Y-78709580D01*
X145541904Y-78709580D02*
X145494285Y-78757200D01*
X145494285Y-78757200D02*
X145399047Y-78804819D01*
X145399047Y-78804819D02*
X145113333Y-78804819D01*
X145113333Y-78804819D02*
X145018095Y-78757200D01*
X145018095Y-78757200D02*
X144970476Y-78709580D01*
D11*
%TO.C,J1*%
X158720000Y-71170000D02*
X158720000Y-83770000D01*
X158720000Y-83770000D02*
X169070000Y-83770000D01*
X169070000Y-75970000D02*
X169570000Y-76270000D01*
X169070000Y-81370000D02*
X169070000Y-75970000D01*
X169070000Y-82820000D02*
X169570000Y-83070000D01*
X169070000Y-83770000D02*
X169070000Y-82820000D01*
X169570000Y-71170000D02*
X158720000Y-71170000D01*
X169570000Y-76270000D02*
X169570000Y-71170000D01*
X169570000Y-81120000D02*
X169070000Y-81370000D01*
X169570000Y-81170000D02*
X169570000Y-81120000D01*
X169570000Y-83070000D02*
X169570000Y-81170000D01*
%TO.C,U1*%
X161580000Y-54550000D02*
X161580000Y-64830000D01*
X161580000Y-64830000D02*
X166080000Y-64830000D01*
X162830000Y-54550000D02*
X161580000Y-54550000D01*
X166080000Y-54550000D02*
X164830000Y-54550000D01*
X166080000Y-64830000D02*
X166080000Y-54550000D01*
X162830000Y-54550000D02*
G75*
G03*
X164830000Y-54550000I1000000J0D01*
G01*
%TO.C,R4*%
X179070000Y-66270000D02*
X179070000Y-65580000D01*
X177350000Y-65580000D02*
X180790000Y-65580000D01*
X180790000Y-65580000D02*
X180790000Y-56340000D01*
X177350000Y-56340000D02*
X177350000Y-65580000D01*
X180790000Y-56340000D02*
X177350000Y-56340000D01*
X179070000Y-55650000D02*
X179070000Y-56340000D01*
%TO.C,D1*%
X148570000Y-55605000D02*
X148570000Y-58695000D01*
X154119999Y-57150462D02*
G75*
G03*
X148570001Y-55605170I-2989999J462D01*
G01*
X148570000Y-58694830D02*
G75*
G03*
X154120000Y-57149538I2560000J1544830D01*
G01*
X153630000Y-57150000D02*
G75*
G03*
X153630000Y-57150000I-2500000J0D01*
G01*
%TO.C,J2*%
X151100000Y-36880000D02*
X151100000Y-49480000D01*
X151100000Y-49480000D02*
X166500000Y-49480000D01*
X166500000Y-41680000D02*
X167000000Y-41930000D01*
X166500000Y-47080000D02*
X166500000Y-41680000D01*
X166500000Y-48530000D02*
X167000000Y-48830000D01*
X166500000Y-49480000D02*
X166500000Y-48530000D01*
X167000000Y-36880000D02*
X151100000Y-36880000D01*
X167000000Y-41930000D02*
X167000000Y-36880000D01*
X167000000Y-46830000D02*
X166500000Y-47080000D01*
X167000000Y-48830000D02*
X167000000Y-46830000D01*
%TO.C,R6*%
X179070000Y-72160000D02*
X179070000Y-72850000D01*
X180790000Y-72850000D02*
X177350000Y-72850000D01*
X177350000Y-72850000D02*
X177350000Y-82090000D01*
X180790000Y-82090000D02*
X180790000Y-72850000D01*
X177350000Y-82090000D02*
X180790000Y-82090000D01*
X179070000Y-82780000D02*
X179070000Y-82090000D01*
%TO.C,R5*%
X173990000Y-72160000D02*
X173990000Y-72850000D01*
X175710000Y-72850000D02*
X172270000Y-72850000D01*
X172270000Y-72850000D02*
X172270000Y-82090000D01*
X175710000Y-82090000D02*
X175710000Y-72850000D01*
X172270000Y-82090000D02*
X175710000Y-82090000D01*
X173990000Y-82780000D02*
X173990000Y-82090000D01*
%TO.C,R2*%
X148590000Y-64540000D02*
X148590000Y-65230000D01*
X150310000Y-65230000D02*
X146870000Y-65230000D01*
X146870000Y-65230000D02*
X146870000Y-74470000D01*
X150310000Y-74470000D02*
X150310000Y-65230000D01*
X146870000Y-74470000D02*
X150310000Y-74470000D01*
X148590000Y-75160000D02*
X148590000Y-74470000D01*
%TO.C,U2*%
X177585000Y-41870000D02*
X172944000Y-41870000D01*
X177585000Y-41870000D02*
X177585000Y-52110000D01*
X176075000Y-41870000D02*
X176075000Y-52110000D01*
X172944000Y-41870000D02*
X172944000Y-52110000D01*
X177585000Y-45140000D02*
X176075000Y-45140000D01*
X177585000Y-48841000D02*
X176075000Y-48841000D01*
X177585000Y-52110000D02*
X172944000Y-52110000D01*
%TO.C,R1*%
X153670000Y-64540000D02*
X153670000Y-65230000D01*
X155390000Y-65230000D02*
X151950000Y-65230000D01*
X151950000Y-65230000D02*
X151950000Y-74470000D01*
X155390000Y-74470000D02*
X155390000Y-65230000D01*
X151950000Y-74470000D02*
X155390000Y-74470000D01*
X153670000Y-75160000D02*
X153670000Y-74470000D01*
%TO.C,R3*%
X173990000Y-66270000D02*
X173990000Y-65580000D01*
X172270000Y-65580000D02*
X175710000Y-65580000D01*
X175710000Y-65580000D02*
X175710000Y-56340000D01*
X172270000Y-56340000D02*
X172270000Y-65580000D01*
X175710000Y-56340000D02*
X172270000Y-56340000D01*
X173990000Y-55650000D02*
X173990000Y-56340000D01*
%TD*%
M02*
