%TF.GenerationSoftware,KiCad,Pcbnew,7.0.5*%
%TF.CreationDate,2023-07-12T17:07:00+01:00*%
%TF.ProjectId,med_assoc_lick_sens_addon,6d65645f-6173-4736-9f63-5f6c69636b5f,rev?*%
%TF.SameCoordinates,Original*%
%TF.FileFunction,Copper,L1,Top*%
%TF.FilePolarity,Positive*%
%FSLAX46Y46*%
G04 Gerber Fmt 4.6, Leading zero omitted, Abs format (unit mm)*
G04 Created by KiCad (PCBNEW 7.0.5) date 2023-07-12 17:07:00*
%MOMM*%
%LPD*%
G01*
G04 APERTURE LIST*
%ADD10C,0.150000*%
%TA.AperFunction,NonConductor*%
%ADD11C,0.150000*%
%TD*%
%ADD12C,0.200000*%
%TA.AperFunction,NonConductor*%
%ADD13C,0.200000*%
%TD*%
%TA.AperFunction,ComponentPad*%
%ADD14R,1.980000X3.960000*%
%TD*%
%TA.AperFunction,ComponentPad*%
%ADD15O,1.980000X3.960000*%
%TD*%
%TA.AperFunction,ComponentPad*%
%ADD16R,2.400000X1.600000*%
%TD*%
%TA.AperFunction,ComponentPad*%
%ADD17O,2.400000X1.600000*%
%TD*%
%TA.AperFunction,ComponentPad*%
%ADD18C,1.600000*%
%TD*%
%TA.AperFunction,ComponentPad*%
%ADD19O,1.600000X1.600000*%
%TD*%
%TA.AperFunction,ComponentPad*%
%ADD20R,1.800000X1.800000*%
%TD*%
%TA.AperFunction,ComponentPad*%
%ADD21C,1.800000*%
%TD*%
%TA.AperFunction,ComponentPad*%
%ADD22R,2.000000X1.905000*%
%TD*%
%TA.AperFunction,ComponentPad*%
%ADD23O,2.000000X1.905000*%
%TD*%
%TA.AperFunction,Conductor*%
%ADD24C,0.500000*%
%TD*%
G04 APERTURE END LIST*
D10*
D11*
X165706588Y-72831438D02*
X165611350Y-72783819D01*
X165611350Y-72783819D02*
X165468493Y-72783819D01*
X165468493Y-72783819D02*
X165325636Y-72831438D01*
X165325636Y-72831438D02*
X165230398Y-72926676D01*
X165230398Y-72926676D02*
X165182779Y-73021914D01*
X165182779Y-73021914D02*
X165135160Y-73212390D01*
X165135160Y-73212390D02*
X165135160Y-73355247D01*
X165135160Y-73355247D02*
X165182779Y-73545723D01*
X165182779Y-73545723D02*
X165230398Y-73640961D01*
X165230398Y-73640961D02*
X165325636Y-73736200D01*
X165325636Y-73736200D02*
X165468493Y-73783819D01*
X165468493Y-73783819D02*
X165563731Y-73783819D01*
X165563731Y-73783819D02*
X165706588Y-73736200D01*
X165706588Y-73736200D02*
X165754207Y-73688580D01*
X165754207Y-73688580D02*
X165754207Y-73355247D01*
X165754207Y-73355247D02*
X165563731Y-73355247D01*
X166182779Y-73783819D02*
X166182779Y-72783819D01*
X166182779Y-72783819D02*
X166754207Y-73783819D01*
X166754207Y-73783819D02*
X166754207Y-72783819D01*
X167230398Y-73783819D02*
X167230398Y-72783819D01*
X167230398Y-72783819D02*
X167468493Y-72783819D01*
X167468493Y-72783819D02*
X167611350Y-72831438D01*
X167611350Y-72831438D02*
X167706588Y-72926676D01*
X167706588Y-72926676D02*
X167754207Y-73021914D01*
X167754207Y-73021914D02*
X167801826Y-73212390D01*
X167801826Y-73212390D02*
X167801826Y-73355247D01*
X167801826Y-73355247D02*
X167754207Y-73545723D01*
X167754207Y-73545723D02*
X167706588Y-73640961D01*
X167706588Y-73640961D02*
X167611350Y-73736200D01*
X167611350Y-73736200D02*
X167468493Y-73783819D01*
X167468493Y-73783819D02*
X167230398Y-73783819D01*
D12*
D13*
X150531292Y-37739600D02*
X151445578Y-37739600D01*
X150988435Y-38196742D02*
X150988435Y-37282457D01*
X151959863Y-37111028D02*
X152017006Y-37053885D01*
X152017006Y-37053885D02*
X152131292Y-36996742D01*
X152131292Y-36996742D02*
X152417006Y-36996742D01*
X152417006Y-36996742D02*
X152531292Y-37053885D01*
X152531292Y-37053885D02*
X152588434Y-37111028D01*
X152588434Y-37111028D02*
X152645577Y-37225314D01*
X152645577Y-37225314D02*
X152645577Y-37339600D01*
X152645577Y-37339600D02*
X152588434Y-37511028D01*
X152588434Y-37511028D02*
X151902720Y-38196742D01*
X151902720Y-38196742D02*
X152645577Y-38196742D01*
X153331291Y-37511028D02*
X153217006Y-37453885D01*
X153217006Y-37453885D02*
X153159863Y-37396742D01*
X153159863Y-37396742D02*
X153102720Y-37282457D01*
X153102720Y-37282457D02*
X153102720Y-37225314D01*
X153102720Y-37225314D02*
X153159863Y-37111028D01*
X153159863Y-37111028D02*
X153217006Y-37053885D01*
X153217006Y-37053885D02*
X153331291Y-36996742D01*
X153331291Y-36996742D02*
X153559863Y-36996742D01*
X153559863Y-36996742D02*
X153674149Y-37053885D01*
X153674149Y-37053885D02*
X153731291Y-37111028D01*
X153731291Y-37111028D02*
X153788434Y-37225314D01*
X153788434Y-37225314D02*
X153788434Y-37282457D01*
X153788434Y-37282457D02*
X153731291Y-37396742D01*
X153731291Y-37396742D02*
X153674149Y-37453885D01*
X153674149Y-37453885D02*
X153559863Y-37511028D01*
X153559863Y-37511028D02*
X153331291Y-37511028D01*
X153331291Y-37511028D02*
X153217006Y-37568171D01*
X153217006Y-37568171D02*
X153159863Y-37625314D01*
X153159863Y-37625314D02*
X153102720Y-37739600D01*
X153102720Y-37739600D02*
X153102720Y-37968171D01*
X153102720Y-37968171D02*
X153159863Y-38082457D01*
X153159863Y-38082457D02*
X153217006Y-38139600D01*
X153217006Y-38139600D02*
X153331291Y-38196742D01*
X153331291Y-38196742D02*
X153559863Y-38196742D01*
X153559863Y-38196742D02*
X153674149Y-38139600D01*
X153674149Y-38139600D02*
X153731291Y-38082457D01*
X153731291Y-38082457D02*
X153788434Y-37968171D01*
X153788434Y-37968171D02*
X153788434Y-37739600D01*
X153788434Y-37739600D02*
X153731291Y-37625314D01*
X153731291Y-37625314D02*
X153674149Y-37568171D01*
X153674149Y-37568171D02*
X153559863Y-37511028D01*
X154131291Y-36996742D02*
X154531291Y-38196742D01*
X154531291Y-38196742D02*
X154931291Y-36996742D01*
X156245577Y-38196742D02*
X156245577Y-36996742D01*
X156245577Y-36996742D02*
X156645577Y-37853885D01*
X156645577Y-37853885D02*
X157045577Y-36996742D01*
X157045577Y-36996742D02*
X157045577Y-38196742D01*
X157559863Y-37853885D02*
X158131292Y-37853885D01*
X157445577Y-38196742D02*
X157845577Y-36996742D01*
X157845577Y-36996742D02*
X158245577Y-38196742D01*
X158645577Y-37739600D02*
X159559863Y-37739600D01*
X160074148Y-38139600D02*
X160245577Y-38196742D01*
X160245577Y-38196742D02*
X160531291Y-38196742D01*
X160531291Y-38196742D02*
X160645577Y-38139600D01*
X160645577Y-38139600D02*
X160702719Y-38082457D01*
X160702719Y-38082457D02*
X160759862Y-37968171D01*
X160759862Y-37968171D02*
X160759862Y-37853885D01*
X160759862Y-37853885D02*
X160702719Y-37739600D01*
X160702719Y-37739600D02*
X160645577Y-37682457D01*
X160645577Y-37682457D02*
X160531291Y-37625314D01*
X160531291Y-37625314D02*
X160302719Y-37568171D01*
X160302719Y-37568171D02*
X160188434Y-37511028D01*
X160188434Y-37511028D02*
X160131291Y-37453885D01*
X160131291Y-37453885D02*
X160074148Y-37339600D01*
X160074148Y-37339600D02*
X160074148Y-37225314D01*
X160074148Y-37225314D02*
X160131291Y-37111028D01*
X160131291Y-37111028D02*
X160188434Y-37053885D01*
X160188434Y-37053885D02*
X160302719Y-36996742D01*
X160302719Y-36996742D02*
X160588434Y-36996742D01*
X160588434Y-36996742D02*
X160759862Y-37053885D01*
X161274148Y-38196742D02*
X161274148Y-36996742D01*
X162474148Y-37053885D02*
X162359863Y-36996742D01*
X162359863Y-36996742D02*
X162188434Y-36996742D01*
X162188434Y-36996742D02*
X162017005Y-37053885D01*
X162017005Y-37053885D02*
X161902720Y-37168171D01*
X161902720Y-37168171D02*
X161845577Y-37282457D01*
X161845577Y-37282457D02*
X161788434Y-37511028D01*
X161788434Y-37511028D02*
X161788434Y-37682457D01*
X161788434Y-37682457D02*
X161845577Y-37911028D01*
X161845577Y-37911028D02*
X161902720Y-38025314D01*
X161902720Y-38025314D02*
X162017005Y-38139600D01*
X162017005Y-38139600D02*
X162188434Y-38196742D01*
X162188434Y-38196742D02*
X162302720Y-38196742D01*
X162302720Y-38196742D02*
X162474148Y-38139600D01*
X162474148Y-38139600D02*
X162531291Y-38082457D01*
X162531291Y-38082457D02*
X162531291Y-37682457D01*
X162531291Y-37682457D02*
X162302720Y-37682457D01*
X164588434Y-37053885D02*
X164474149Y-36996742D01*
X164474149Y-36996742D02*
X164302720Y-36996742D01*
X164302720Y-36996742D02*
X164131291Y-37053885D01*
X164131291Y-37053885D02*
X164017006Y-37168171D01*
X164017006Y-37168171D02*
X163959863Y-37282457D01*
X163959863Y-37282457D02*
X163902720Y-37511028D01*
X163902720Y-37511028D02*
X163902720Y-37682457D01*
X163902720Y-37682457D02*
X163959863Y-37911028D01*
X163959863Y-37911028D02*
X164017006Y-38025314D01*
X164017006Y-38025314D02*
X164131291Y-38139600D01*
X164131291Y-38139600D02*
X164302720Y-38196742D01*
X164302720Y-38196742D02*
X164417006Y-38196742D01*
X164417006Y-38196742D02*
X164588434Y-38139600D01*
X164588434Y-38139600D02*
X164645577Y-38082457D01*
X164645577Y-38082457D02*
X164645577Y-37682457D01*
X164645577Y-37682457D02*
X164417006Y-37682457D01*
X165159863Y-38196742D02*
X165159863Y-36996742D01*
X165159863Y-36996742D02*
X165845577Y-38196742D01*
X165845577Y-38196742D02*
X165845577Y-36996742D01*
X166417006Y-38196742D02*
X166417006Y-36996742D01*
X166417006Y-36996742D02*
X166702720Y-36996742D01*
X166702720Y-36996742D02*
X166874149Y-37053885D01*
X166874149Y-37053885D02*
X166988434Y-37168171D01*
X166988434Y-37168171D02*
X167045577Y-37282457D01*
X167045577Y-37282457D02*
X167102720Y-37511028D01*
X167102720Y-37511028D02*
X167102720Y-37682457D01*
X167102720Y-37682457D02*
X167045577Y-37911028D01*
X167045577Y-37911028D02*
X166988434Y-38025314D01*
X166988434Y-38025314D02*
X166874149Y-38139600D01*
X166874149Y-38139600D02*
X166702720Y-38196742D01*
X166702720Y-38196742D02*
X166417006Y-38196742D01*
D10*
D11*
X160864779Y-73148866D02*
X161626684Y-73148866D01*
X161245731Y-73529819D02*
X161245731Y-72767914D01*
D14*
%TO.P,J1,1,In*%
%TO.N,Net-(J1-In)*%
X161370000Y-77470000D03*
D15*
%TO.P,J1,2,Ext*%
%TO.N,GND*%
X166370000Y-77470000D03*
%TD*%
D16*
%TO.P,U1,1,NC*%
%TO.N,unconnected-(U1-NC-Pad1)*%
X160020000Y-55880000D03*
D17*
%TO.P,U1,2,C1*%
%TO.N,Net-(U1-C1)*%
X160020000Y-58420000D03*
%TO.P,U1,3,C2*%
%TO.N,med_ass_sig_lin*%
X160020000Y-60960000D03*
%TO.P,U1,4,NC*%
%TO.N,unconnected-(U1-NC-Pad4)*%
X160020000Y-63500000D03*
%TO.P,U1,5,GND*%
%TO.N,Net-(U1-GND)*%
X167640000Y-63500000D03*
%TO.P,U1,6,VO2*%
%TO.N,Net-(U1-VO2)*%
X167640000Y-60960000D03*
%TO.P,U1,7,VO1*%
%TO.N,unconnected-(U1-VO1-Pad7)*%
X167640000Y-58420000D03*
%TO.P,U1,8,VCC*%
%TO.N,Net-(U1-VCC)*%
X167640000Y-55880000D03*
%TD*%
D18*
%TO.P,R4,1*%
%TO.N,Net-(U1-VO2)*%
X179070000Y-67310000D03*
D19*
%TO.P,R4,2*%
%TO.N,+5V*%
X179070000Y-54610000D03*
%TD*%
D20*
%TO.P,D1,1,K*%
%TO.N,Net-(D1-K)*%
X149860000Y-57150000D03*
D21*
%TO.P,D1,2,A*%
%TO.N,+28V*%
X152400000Y-57150000D03*
%TD*%
D14*
%TO.P,J2,1,Pin_1*%
%TO.N,+28V*%
X153750000Y-43180000D03*
D15*
%TO.P,J2,2,Pin_2*%
%TO.N,med_ass_sig_lin*%
X158750000Y-43180000D03*
%TO.P,J2,3,Pin_3*%
%TO.N,GND*%
X163750000Y-43180000D03*
%TD*%
D18*
%TO.P,R6,1*%
%TO.N,Net-(U1-GND)*%
X179070000Y-71120000D03*
D19*
%TO.P,R6,2*%
%TO.N,Net-(J1-In)*%
X179070000Y-83820000D03*
%TD*%
D18*
%TO.P,R5,1*%
%TO.N,Net-(U1-GND)*%
X173990000Y-71120000D03*
D19*
%TO.P,R5,2*%
%TO.N,GND*%
X173990000Y-83820000D03*
%TD*%
D18*
%TO.P,R2,1*%
%TO.N,Net-(D1-K)*%
X148590000Y-63500000D03*
D19*
%TO.P,R2,2*%
%TO.N,Net-(U1-C1)*%
X148590000Y-76200000D03*
%TD*%
D22*
%TO.P,U2,1,IN*%
%TO.N,+28V*%
X174315000Y-44450000D03*
D23*
%TO.P,U2,2,GND*%
%TO.N,GND*%
X174315000Y-46990000D03*
%TO.P,U2,3,OUT*%
%TO.N,+5V*%
X174315000Y-49530000D03*
%TD*%
D18*
%TO.P,R1,1*%
%TO.N,Net-(D1-K)*%
X153670000Y-63500000D03*
D19*
%TO.P,R1,2*%
%TO.N,Net-(U1-C1)*%
X153670000Y-76200000D03*
%TD*%
D18*
%TO.P,R3,1*%
%TO.N,Net-(U1-VCC)*%
X173990000Y-67310000D03*
D19*
%TO.P,R3,2*%
%TO.N,+5V*%
X173990000Y-54610000D03*
%TD*%
D24*
%TO.N,Net-(D1-K)*%
X152400000Y-63500000D02*
X153670000Y-63500000D01*
X149860000Y-60960000D02*
X149860000Y-62230000D01*
X149860000Y-57150000D02*
X149860000Y-60960000D01*
X149860000Y-60960000D02*
X152400000Y-63500000D01*
X149860000Y-62230000D02*
X148590000Y-63500000D01*
%TO.N,+28V*%
X174315000Y-44450000D02*
X173990000Y-44450000D01*
X153750000Y-43180000D02*
X153750000Y-55800000D01*
X153750000Y-55800000D02*
X152400000Y-57150000D01*
X168910000Y-39370000D02*
X157560000Y-39370000D01*
X157560000Y-39370000D02*
X153750000Y-43180000D01*
X173990000Y-44450000D02*
X168910000Y-39370000D01*
%TO.N,Net-(J1-In)*%
X165100000Y-81280000D02*
X161370000Y-77550000D01*
X161370000Y-77550000D02*
X161370000Y-77470000D01*
X176530000Y-81280000D02*
X165100000Y-81280000D01*
X179070000Y-83820000D02*
X176530000Y-81280000D01*
%TO.N,med_ass_sig_lin*%
X158750000Y-43180000D02*
X158750000Y-49530000D01*
X162560000Y-59690000D02*
X161290000Y-60960000D01*
X161290000Y-60960000D02*
X160020000Y-60960000D01*
X158750000Y-49530000D02*
X162560000Y-53340000D01*
X162560000Y-53340000D02*
X162560000Y-59690000D01*
%TO.N,Net-(U1-C1)*%
X151130000Y-76200000D02*
X152400000Y-74930000D01*
X156210000Y-69850000D02*
X156210000Y-60960000D01*
X152400000Y-74930000D02*
X152400000Y-73660000D01*
X158750000Y-58420000D02*
X160020000Y-58420000D01*
X151130000Y-76200000D02*
X153670000Y-76200000D01*
X148590000Y-76200000D02*
X151130000Y-76200000D01*
X152400000Y-73660000D02*
X156210000Y-69850000D01*
X156210000Y-60960000D02*
X158750000Y-58420000D01*
%TO.N,Net-(U1-VCC)*%
X173990000Y-58420000D02*
X171450000Y-55880000D01*
X171450000Y-55880000D02*
X167640000Y-55880000D01*
X173990000Y-67310000D02*
X173990000Y-58420000D01*
%TO.N,+5V*%
X174315000Y-49855000D02*
X179070000Y-54610000D01*
X174315000Y-49530000D02*
X174315000Y-54285000D01*
X174315000Y-54285000D02*
X173990000Y-54610000D01*
X174315000Y-49530000D02*
X174315000Y-49855000D01*
%TO.N,Net-(U1-VO2)*%
X171450000Y-67310000D02*
X171450000Y-63500000D01*
X179070000Y-67310000D02*
X177800000Y-67310000D01*
X177800000Y-67310000D02*
X176530000Y-68580000D01*
X168910000Y-60960000D02*
X167640000Y-60960000D01*
X172720000Y-68580000D02*
X171450000Y-67310000D01*
X176530000Y-68580000D02*
X172720000Y-68580000D01*
X171450000Y-63500000D02*
X168910000Y-60960000D01*
%TO.N,Net-(U1-GND)*%
X172720000Y-71120000D02*
X173990000Y-71120000D01*
X167640000Y-63500000D02*
X167640000Y-66040000D01*
X167640000Y-66040000D02*
X172720000Y-71120000D01*
X179070000Y-71120000D02*
X173990000Y-71120000D01*
%TD*%
%TA.AperFunction,Conductor*%
%TO.N,GND*%
G36*
X181045039Y-35580185D02*
G01*
X181090794Y-35632989D01*
X181102000Y-35684500D01*
X181102000Y-44704000D01*
X190375500Y-44704000D01*
X190442539Y-44723685D01*
X190488294Y-44776489D01*
X190499500Y-44828000D01*
X190499500Y-78362000D01*
X190479815Y-78429039D01*
X190427011Y-78474794D01*
X190375500Y-78486000D01*
X181102000Y-78486000D01*
X181102000Y-87505500D01*
X181082315Y-87572539D01*
X181029511Y-87618294D01*
X180978000Y-87629500D01*
X148714000Y-87629500D01*
X148646961Y-87609815D01*
X148601206Y-87557011D01*
X148590000Y-87505500D01*
X148590000Y-83569999D01*
X172711127Y-83569999D01*
X172711128Y-83570000D01*
X173674314Y-83570000D01*
X173662359Y-83581955D01*
X173604835Y-83694852D01*
X173585014Y-83820000D01*
X173604835Y-83945148D01*
X173662359Y-84058045D01*
X173674314Y-84070000D01*
X172711128Y-84070000D01*
X172763730Y-84266317D01*
X172763734Y-84266326D01*
X172859865Y-84472482D01*
X172990342Y-84658820D01*
X173151179Y-84819657D01*
X173337517Y-84950134D01*
X173543673Y-85046265D01*
X173543682Y-85046269D01*
X173739999Y-85098872D01*
X173740000Y-85098871D01*
X173740000Y-84135685D01*
X173751955Y-84147641D01*
X173864852Y-84205165D01*
X173958519Y-84220000D01*
X174021481Y-84220000D01*
X174115148Y-84205165D01*
X174228045Y-84147641D01*
X174240000Y-84135685D01*
X174240000Y-85098872D01*
X174436317Y-85046269D01*
X174436326Y-85046265D01*
X174642482Y-84950134D01*
X174828820Y-84819657D01*
X174989657Y-84658820D01*
X175120134Y-84472482D01*
X175216265Y-84266326D01*
X175216269Y-84266317D01*
X175268872Y-84070000D01*
X174305686Y-84070000D01*
X174317641Y-84058045D01*
X174375165Y-83945148D01*
X174394986Y-83820000D01*
X174375165Y-83694852D01*
X174317641Y-83581955D01*
X174305686Y-83570000D01*
X175268872Y-83570000D01*
X175268872Y-83569999D01*
X175216269Y-83373682D01*
X175216265Y-83373673D01*
X175120134Y-83167517D01*
X174989657Y-82981179D01*
X174828820Y-82820342D01*
X174642482Y-82689865D01*
X174436328Y-82593734D01*
X174240000Y-82541127D01*
X174240000Y-83504314D01*
X174228045Y-83492359D01*
X174115148Y-83434835D01*
X174021481Y-83420000D01*
X173958519Y-83420000D01*
X173864852Y-83434835D01*
X173751955Y-83492359D01*
X173740000Y-83504314D01*
X173740000Y-82541127D01*
X173543671Y-82593734D01*
X173337517Y-82689865D01*
X173151179Y-82820342D01*
X172990342Y-82981179D01*
X172859865Y-83167517D01*
X172763734Y-83373673D01*
X172763730Y-83373682D01*
X172711127Y-83569999D01*
X148590000Y-83569999D01*
X148590000Y-79497870D01*
X159879500Y-79497870D01*
X159879501Y-79497876D01*
X159885908Y-79557483D01*
X159936202Y-79692328D01*
X159936206Y-79692335D01*
X160022452Y-79807544D01*
X160022455Y-79807547D01*
X160137664Y-79893793D01*
X160137671Y-79893797D01*
X160272517Y-79944091D01*
X160272516Y-79944091D01*
X160279444Y-79944835D01*
X160332127Y-79950500D01*
X162407872Y-79950499D01*
X162467483Y-79944091D01*
X162564154Y-79908034D01*
X162633844Y-79903050D01*
X162695165Y-79936532D01*
X162695168Y-79936535D01*
X164524267Y-81765634D01*
X164536048Y-81779266D01*
X164550390Y-81798530D01*
X164590420Y-81832119D01*
X164594392Y-81835759D01*
X164597312Y-81838679D01*
X164600221Y-81841589D01*
X164625250Y-81861379D01*
X164626646Y-81862517D01*
X164684786Y-81911302D01*
X164684787Y-81911302D01*
X164684789Y-81911304D01*
X164690818Y-81915270D01*
X164690785Y-81915319D01*
X164697143Y-81919369D01*
X164697175Y-81919319D01*
X164703317Y-81923107D01*
X164703319Y-81923108D01*
X164703323Y-81923111D01*
X164772132Y-81955197D01*
X164773754Y-81955983D01*
X164841567Y-81990040D01*
X164841569Y-81990040D01*
X164848361Y-81992513D01*
X164848340Y-81992570D01*
X164855455Y-81995043D01*
X164855475Y-81994986D01*
X164862324Y-81997256D01*
X164862327Y-81997256D01*
X164862328Y-81997257D01*
X164936705Y-82012613D01*
X164938414Y-82012993D01*
X164962415Y-82018681D01*
X165012273Y-82030499D01*
X165012276Y-82030499D01*
X165012279Y-82030500D01*
X165012282Y-82030500D01*
X165019452Y-82031338D01*
X165019444Y-82031397D01*
X165026945Y-82032164D01*
X165026951Y-82032105D01*
X165034140Y-82032734D01*
X165034144Y-82032733D01*
X165034145Y-82032734D01*
X165062230Y-82031916D01*
X165110033Y-82030526D01*
X165111836Y-82030500D01*
X176167770Y-82030500D01*
X176234809Y-82050185D01*
X176255451Y-82066819D01*
X177743282Y-83554650D01*
X177776767Y-83615973D01*
X177779129Y-83653137D01*
X177764532Y-83819996D01*
X177764532Y-83820001D01*
X177784364Y-84046686D01*
X177784366Y-84046697D01*
X177843258Y-84266488D01*
X177843261Y-84266497D01*
X177939431Y-84472732D01*
X177939432Y-84472734D01*
X178069954Y-84659141D01*
X178230858Y-84820045D01*
X178230861Y-84820047D01*
X178417266Y-84950568D01*
X178623504Y-85046739D01*
X178843308Y-85105635D01*
X179005230Y-85119801D01*
X179069998Y-85125468D01*
X179070000Y-85125468D01*
X179070002Y-85125468D01*
X179126672Y-85120509D01*
X179296692Y-85105635D01*
X179516496Y-85046739D01*
X179722734Y-84950568D01*
X179909139Y-84820047D01*
X180070047Y-84659139D01*
X180200568Y-84472734D01*
X180296739Y-84266496D01*
X180355635Y-84046692D01*
X180375468Y-83820000D01*
X180355635Y-83593308D01*
X180296739Y-83373504D01*
X180200568Y-83167266D01*
X180070047Y-82980861D01*
X180070045Y-82980858D01*
X179909141Y-82819954D01*
X179722734Y-82689432D01*
X179722732Y-82689431D01*
X179516497Y-82593261D01*
X179516488Y-82593258D01*
X179296697Y-82534366D01*
X179296693Y-82534365D01*
X179296692Y-82534365D01*
X179296691Y-82534364D01*
X179296686Y-82534364D01*
X179070002Y-82514532D01*
X179069997Y-82514532D01*
X178903137Y-82529129D01*
X178834637Y-82515362D01*
X178804650Y-82493282D01*
X177105729Y-80794361D01*
X177093949Y-80780730D01*
X177086482Y-80770701D01*
X177079612Y-80761472D01*
X177079610Y-80761470D01*
X177039587Y-80727886D01*
X177035612Y-80724244D01*
X177032690Y-80721322D01*
X177029779Y-80718410D01*
X177004736Y-80698609D01*
X177003338Y-80697470D01*
X176945214Y-80648698D01*
X176939180Y-80644729D01*
X176939212Y-80644680D01*
X176932853Y-80640628D01*
X176932822Y-80640679D01*
X176926680Y-80636891D01*
X176926678Y-80636890D01*
X176926677Y-80636889D01*
X176857872Y-80604804D01*
X176856252Y-80604019D01*
X176816512Y-80584061D01*
X176788433Y-80569960D01*
X176788431Y-80569959D01*
X176788430Y-80569959D01*
X176781645Y-80567489D01*
X176781665Y-80567433D01*
X176774549Y-80564959D01*
X176774531Y-80565015D01*
X176767674Y-80562743D01*
X176693328Y-80547391D01*
X176691569Y-80547001D01*
X176617718Y-80529499D01*
X176610547Y-80528661D01*
X176610553Y-80528601D01*
X176603055Y-80527835D01*
X176603050Y-80527895D01*
X176595860Y-80527265D01*
X176519968Y-80529474D01*
X176518165Y-80529500D01*
X165462229Y-80529500D01*
X165395190Y-80509815D01*
X165374548Y-80493181D01*
X163402992Y-78521624D01*
X164880000Y-78521624D01*
X164895284Y-78706090D01*
X164955901Y-78945460D01*
X165055092Y-79171591D01*
X165190148Y-79378311D01*
X165357394Y-79559988D01*
X165357398Y-79559991D01*
X165552245Y-79711647D01*
X165552251Y-79711651D01*
X165769421Y-79829178D01*
X165769429Y-79829181D01*
X166002970Y-79909356D01*
X166119999Y-79928885D01*
X166120000Y-79928884D01*
X166120000Y-78081057D01*
X166210892Y-78115528D01*
X166330081Y-78130000D01*
X166409919Y-78130000D01*
X166529108Y-78115528D01*
X166620000Y-78081057D01*
X166620000Y-79928885D01*
X166737029Y-79909356D01*
X166970570Y-79829181D01*
X166970578Y-79829178D01*
X167187748Y-79711651D01*
X167187754Y-79711647D01*
X167382601Y-79559991D01*
X167382605Y-79559988D01*
X167549851Y-79378311D01*
X167684907Y-79171591D01*
X167784098Y-78945460D01*
X167844715Y-78706090D01*
X167860000Y-78521624D01*
X167860000Y-77720000D01*
X166984168Y-77720000D01*
X166991643Y-77705758D01*
X167030000Y-77550138D01*
X167030000Y-77389862D01*
X166991643Y-77234242D01*
X166984168Y-77220000D01*
X167860000Y-77220000D01*
X167860000Y-76418375D01*
X167844715Y-76233909D01*
X167784098Y-75994539D01*
X167684907Y-75768408D01*
X167549851Y-75561688D01*
X167382605Y-75380011D01*
X167382601Y-75380008D01*
X167187754Y-75228352D01*
X167187748Y-75228348D01*
X166970578Y-75110821D01*
X166970570Y-75110818D01*
X166737029Y-75030643D01*
X166620000Y-75011114D01*
X166620000Y-76858942D01*
X166529108Y-76824472D01*
X166409919Y-76810000D01*
X166330081Y-76810000D01*
X166210892Y-76824472D01*
X166120000Y-76858942D01*
X166120000Y-75011114D01*
X166119999Y-75011114D01*
X166002970Y-75030643D01*
X165769429Y-75110818D01*
X165769421Y-75110821D01*
X165552251Y-75228348D01*
X165552245Y-75228352D01*
X165357398Y-75380008D01*
X165357394Y-75380011D01*
X165190148Y-75561688D01*
X165055092Y-75768408D01*
X164955901Y-75994539D01*
X164895284Y-76233909D01*
X164880000Y-76418375D01*
X164880000Y-77220000D01*
X165755832Y-77220000D01*
X165748357Y-77234242D01*
X165710000Y-77389862D01*
X165710000Y-77550138D01*
X165748357Y-77705758D01*
X165755832Y-77720000D01*
X164880000Y-77720000D01*
X164880000Y-78521624D01*
X163402992Y-78521624D01*
X162896818Y-78015450D01*
X162863333Y-77954127D01*
X162860499Y-77927769D01*
X162860499Y-75442129D01*
X162860498Y-75442123D01*
X162860497Y-75442116D01*
X162854091Y-75382517D01*
X162853156Y-75380011D01*
X162803797Y-75247671D01*
X162803793Y-75247664D01*
X162717547Y-75132455D01*
X162717544Y-75132452D01*
X162602335Y-75046206D01*
X162602328Y-75046202D01*
X162467482Y-74995908D01*
X162467483Y-74995908D01*
X162407883Y-74989501D01*
X162407881Y-74989500D01*
X162407873Y-74989500D01*
X162407864Y-74989500D01*
X160332129Y-74989500D01*
X160332123Y-74989501D01*
X160272516Y-74995908D01*
X160137671Y-75046202D01*
X160137664Y-75046206D01*
X160022455Y-75132452D01*
X160022452Y-75132455D01*
X159936206Y-75247664D01*
X159936202Y-75247671D01*
X159885908Y-75382517D01*
X159879501Y-75442116D01*
X159879501Y-75442123D01*
X159879500Y-75442135D01*
X159879500Y-79497870D01*
X148590000Y-79497870D01*
X148590000Y-78486000D01*
X139824500Y-78486000D01*
X139757461Y-78466315D01*
X139711706Y-78413511D01*
X139700500Y-78362000D01*
X139700500Y-76200001D01*
X147284532Y-76200001D01*
X147304364Y-76426686D01*
X147304366Y-76426697D01*
X147363258Y-76646488D01*
X147363261Y-76646497D01*
X147459431Y-76852732D01*
X147459432Y-76852734D01*
X147589954Y-77039141D01*
X147750858Y-77200045D01*
X147750861Y-77200047D01*
X147937266Y-77330568D01*
X148143504Y-77426739D01*
X148363308Y-77485635D01*
X148525230Y-77499801D01*
X148589998Y-77505468D01*
X148590000Y-77505468D01*
X148590002Y-77505468D01*
X148646672Y-77500509D01*
X148816692Y-77485635D01*
X149036496Y-77426739D01*
X149242734Y-77330568D01*
X149429139Y-77200047D01*
X149590047Y-77039139D01*
X149615086Y-77003377D01*
X149669665Y-76959752D01*
X149716663Y-76950500D01*
X151042279Y-76950500D01*
X151066295Y-76950500D01*
X151084265Y-76951809D01*
X151108023Y-76955289D01*
X151160068Y-76950735D01*
X151165470Y-76950500D01*
X152543337Y-76950500D01*
X152610376Y-76970185D01*
X152644912Y-77003377D01*
X152669954Y-77039141D01*
X152830858Y-77200045D01*
X152830861Y-77200047D01*
X153017266Y-77330568D01*
X153223504Y-77426739D01*
X153443308Y-77485635D01*
X153605230Y-77499801D01*
X153669998Y-77505468D01*
X153670000Y-77505468D01*
X153670002Y-77505468D01*
X153726673Y-77500509D01*
X153896692Y-77485635D01*
X154116496Y-77426739D01*
X154322734Y-77330568D01*
X154509139Y-77200047D01*
X154670047Y-77039139D01*
X154800568Y-76852734D01*
X154896739Y-76646496D01*
X154955635Y-76426692D01*
X154975468Y-76200000D01*
X154955635Y-75973308D01*
X154910916Y-75806415D01*
X154896741Y-75753511D01*
X154896738Y-75753502D01*
X154800568Y-75547267D01*
X154800567Y-75547265D01*
X154726949Y-75442127D01*
X154670047Y-75360861D01*
X154670045Y-75360858D01*
X154509141Y-75199954D01*
X154322734Y-75069432D01*
X154322732Y-75069431D01*
X154116497Y-74973261D01*
X154116488Y-74973258D01*
X153896697Y-74914366D01*
X153896693Y-74914365D01*
X153896692Y-74914365D01*
X153896691Y-74914364D01*
X153896686Y-74914364D01*
X153670002Y-74894532D01*
X153669998Y-74894532D01*
X153443313Y-74914364D01*
X153443302Y-74914366D01*
X153306593Y-74950997D01*
X153236743Y-74949334D01*
X153178881Y-74910171D01*
X153151377Y-74845943D01*
X153150500Y-74831222D01*
X153150500Y-74022228D01*
X153170185Y-73955189D01*
X153186814Y-73934552D01*
X155479722Y-71641643D01*
X159884643Y-71641643D01*
X159884643Y-74303357D01*
X162584452Y-74303357D01*
X162584452Y-71895643D01*
X164202643Y-71895643D01*
X164202643Y-74557357D01*
X168711976Y-74557357D01*
X168711976Y-71895643D01*
X164202643Y-71895643D01*
X162584452Y-71895643D01*
X162584452Y-71641643D01*
X159884643Y-71641643D01*
X155479722Y-71641643D01*
X156695638Y-70425727D01*
X156709267Y-70413950D01*
X156728530Y-70399610D01*
X156728532Y-70399606D01*
X156728534Y-70399606D01*
X156753795Y-70369500D01*
X156762113Y-70359585D01*
X156765767Y-70355599D01*
X156771591Y-70349776D01*
X156791400Y-70324721D01*
X156792476Y-70323401D01*
X156841302Y-70265214D01*
X156841304Y-70265209D01*
X156845274Y-70259175D01*
X156845325Y-70259208D01*
X156849369Y-70252860D01*
X156849317Y-70252828D01*
X156853106Y-70246682D01*
X156853111Y-70246677D01*
X156885212Y-70177834D01*
X156885961Y-70176287D01*
X156920040Y-70108433D01*
X156920041Y-70108428D01*
X156922508Y-70101650D01*
X156922566Y-70101671D01*
X156925043Y-70094544D01*
X156924986Y-70094526D01*
X156927256Y-70087676D01*
X156942612Y-70013301D01*
X156942984Y-70011619D01*
X156960500Y-69937721D01*
X156960500Y-69937717D01*
X156960501Y-69937713D01*
X156961339Y-69930548D01*
X156961398Y-69930554D01*
X156962164Y-69923054D01*
X156962105Y-69923049D01*
X156962734Y-69915859D01*
X156960526Y-69839967D01*
X156960500Y-69838164D01*
X156960500Y-65677770D01*
X156960500Y-61322225D01*
X156980184Y-61255190D01*
X156996813Y-61234553D01*
X158725205Y-59506161D01*
X158786526Y-59472678D01*
X158856218Y-59477662D01*
X158884001Y-59492266D01*
X158967266Y-59550568D01*
X159025275Y-59577618D01*
X159077714Y-59623791D01*
X159096866Y-59690984D01*
X159076650Y-59757865D01*
X159025275Y-59802382D01*
X158967267Y-59829431D01*
X158967265Y-59829432D01*
X158780858Y-59959954D01*
X158619954Y-60120858D01*
X158489432Y-60307265D01*
X158489431Y-60307267D01*
X158393261Y-60513502D01*
X158393258Y-60513511D01*
X158334366Y-60733302D01*
X158334364Y-60733313D01*
X158314532Y-60959998D01*
X158314532Y-60960001D01*
X158334364Y-61186686D01*
X158334366Y-61186697D01*
X158393258Y-61406488D01*
X158393261Y-61406497D01*
X158489431Y-61612732D01*
X158489432Y-61612734D01*
X158619954Y-61799141D01*
X158780858Y-61960045D01*
X158780861Y-61960047D01*
X158967266Y-62090568D01*
X159025275Y-62117618D01*
X159077714Y-62163791D01*
X159096866Y-62230984D01*
X159076650Y-62297865D01*
X159025275Y-62342382D01*
X158967267Y-62369431D01*
X158967265Y-62369432D01*
X158780858Y-62499954D01*
X158619954Y-62660858D01*
X158489432Y-62847265D01*
X158489431Y-62847267D01*
X158393261Y-63053502D01*
X158393258Y-63053511D01*
X158334366Y-63273302D01*
X158334364Y-63273313D01*
X158314532Y-63499998D01*
X158314532Y-63500001D01*
X158334364Y-63726686D01*
X158334366Y-63726697D01*
X158393258Y-63946488D01*
X158393261Y-63946497D01*
X158489431Y-64152732D01*
X158489432Y-64152734D01*
X158619954Y-64339141D01*
X158780858Y-64500045D01*
X158780861Y-64500047D01*
X158967266Y-64630568D01*
X159173504Y-64726739D01*
X159393308Y-64785635D01*
X159563214Y-64800499D01*
X159563215Y-64800500D01*
X159563216Y-64800500D01*
X160476785Y-64800500D01*
X160476785Y-64800499D01*
X160646692Y-64785635D01*
X160866496Y-64726739D01*
X161072734Y-64630568D01*
X161259139Y-64500047D01*
X161420047Y-64339139D01*
X161550568Y-64152734D01*
X161646739Y-63946496D01*
X161705635Y-63726692D01*
X161725468Y-63500001D01*
X165934532Y-63500001D01*
X165954364Y-63726686D01*
X165954366Y-63726697D01*
X166013258Y-63946488D01*
X166013261Y-63946497D01*
X166109431Y-64152732D01*
X166109432Y-64152734D01*
X166239954Y-64339141D01*
X166400858Y-64500045D01*
X166400861Y-64500047D01*
X166587266Y-64630568D01*
X166793504Y-64726739D01*
X166797586Y-64727832D01*
X166857248Y-64764192D01*
X166887782Y-64827037D01*
X166889500Y-64847609D01*
X166889500Y-65976294D01*
X166888191Y-65994263D01*
X166884710Y-66018025D01*
X166889264Y-66070064D01*
X166889500Y-66075470D01*
X166889500Y-66083712D01*
X166893202Y-66115391D01*
X166893386Y-66117185D01*
X166900000Y-66192792D01*
X166901461Y-66199867D01*
X166901403Y-66199878D01*
X166903034Y-66207237D01*
X166903092Y-66207224D01*
X166904757Y-66214249D01*
X166904758Y-66214254D01*
X166904759Y-66214255D01*
X166930474Y-66284910D01*
X166930708Y-66285551D01*
X166931299Y-66287253D01*
X166955182Y-66359326D01*
X166958236Y-66365874D01*
X166958182Y-66365898D01*
X166961470Y-66372688D01*
X166961521Y-66372663D01*
X166964761Y-66379113D01*
X166964762Y-66379114D01*
X166964763Y-66379117D01*
X167006494Y-66442567D01*
X167007443Y-66444058D01*
X167047289Y-66508657D01*
X167051766Y-66514319D01*
X167051719Y-66514356D01*
X167056482Y-66520202D01*
X167056528Y-66520164D01*
X167061173Y-66525699D01*
X167116363Y-66577768D01*
X167117657Y-66579025D01*
X172144270Y-71605638D01*
X172156051Y-71619270D01*
X172170388Y-71638528D01*
X172210409Y-71672111D01*
X172214397Y-71675766D01*
X172220217Y-71681586D01*
X172220222Y-71681590D01*
X172220223Y-71681591D01*
X172245263Y-71701390D01*
X172246644Y-71702515D01*
X172304786Y-71751302D01*
X172304787Y-71751302D01*
X172304789Y-71751304D01*
X172310818Y-71755270D01*
X172310785Y-71755319D01*
X172317147Y-71759372D01*
X172317179Y-71759321D01*
X172323319Y-71763108D01*
X172323323Y-71763111D01*
X172343960Y-71772734D01*
X172392137Y-71795200D01*
X172393760Y-71795986D01*
X172461562Y-71830038D01*
X172468357Y-71832511D01*
X172468336Y-71832567D01*
X172475457Y-71835043D01*
X172475476Y-71834986D01*
X172482319Y-71837253D01*
X172482327Y-71837257D01*
X172556748Y-71852623D01*
X172558371Y-71852983D01*
X172632279Y-71870500D01*
X172632280Y-71870500D01*
X172632284Y-71870501D01*
X172639453Y-71871339D01*
X172639446Y-71871398D01*
X172646944Y-71872164D01*
X172646950Y-71872105D01*
X172654139Y-71872734D01*
X172654143Y-71872733D01*
X172654144Y-71872734D01*
X172682229Y-71871916D01*
X172730032Y-71870526D01*
X172731835Y-71870500D01*
X172863337Y-71870500D01*
X172930376Y-71890185D01*
X172964912Y-71923377D01*
X172989954Y-71959141D01*
X173150858Y-72120045D01*
X173150861Y-72120047D01*
X173337266Y-72250568D01*
X173543504Y-72346739D01*
X173763308Y-72405635D01*
X173925230Y-72419801D01*
X173989998Y-72425468D01*
X173990000Y-72425468D01*
X173990002Y-72425468D01*
X174046672Y-72420509D01*
X174216692Y-72405635D01*
X174436496Y-72346739D01*
X174642734Y-72250568D01*
X174829139Y-72120047D01*
X174990047Y-71959139D01*
X175015086Y-71923377D01*
X175069665Y-71879752D01*
X175116663Y-71870500D01*
X177943337Y-71870500D01*
X178010376Y-71890185D01*
X178044912Y-71923377D01*
X178069954Y-71959141D01*
X178230858Y-72120045D01*
X178230861Y-72120047D01*
X178417266Y-72250568D01*
X178623504Y-72346739D01*
X178843308Y-72405635D01*
X179005230Y-72419801D01*
X179069998Y-72425468D01*
X179070000Y-72425468D01*
X179070002Y-72425468D01*
X179126672Y-72420509D01*
X179296692Y-72405635D01*
X179516496Y-72346739D01*
X179722734Y-72250568D01*
X179909139Y-72120047D01*
X180070047Y-71959139D01*
X180200568Y-71772734D01*
X180296739Y-71566496D01*
X180355635Y-71346692D01*
X180375468Y-71120000D01*
X180355635Y-70893308D01*
X180296739Y-70673504D01*
X180200568Y-70467266D01*
X180070047Y-70280861D01*
X180070045Y-70280858D01*
X179909141Y-70119954D01*
X179722734Y-69989432D01*
X179722732Y-69989431D01*
X179516497Y-69893261D01*
X179516488Y-69893258D01*
X179296697Y-69834366D01*
X179296693Y-69834365D01*
X179296692Y-69834365D01*
X179296691Y-69834364D01*
X179296686Y-69834364D01*
X179070002Y-69814532D01*
X179069998Y-69814532D01*
X178843313Y-69834364D01*
X178843302Y-69834366D01*
X178623511Y-69893258D01*
X178623502Y-69893261D01*
X178417267Y-69989431D01*
X178417265Y-69989432D01*
X178230858Y-70119954D01*
X178069954Y-70280858D01*
X178044912Y-70316623D01*
X177990335Y-70360248D01*
X177943337Y-70369500D01*
X175116663Y-70369500D01*
X175049624Y-70349815D01*
X175015088Y-70316623D01*
X174990045Y-70280858D01*
X174829141Y-70119954D01*
X174642734Y-69989432D01*
X174642732Y-69989431D01*
X174436497Y-69893261D01*
X174436488Y-69893258D01*
X174216697Y-69834366D01*
X174216693Y-69834365D01*
X174216692Y-69834365D01*
X174216691Y-69834364D01*
X174216686Y-69834364D01*
X173990002Y-69814532D01*
X173989998Y-69814532D01*
X173763313Y-69834364D01*
X173763302Y-69834366D01*
X173543511Y-69893258D01*
X173543502Y-69893261D01*
X173337267Y-69989431D01*
X173337265Y-69989432D01*
X173150858Y-70119954D01*
X173053771Y-70217042D01*
X172992448Y-70250527D01*
X172922756Y-70245543D01*
X172878409Y-70217042D01*
X168426819Y-65765451D01*
X168393334Y-65704128D01*
X168390500Y-65677770D01*
X168390500Y-64847609D01*
X168410185Y-64780570D01*
X168462989Y-64734815D01*
X168482410Y-64727833D01*
X168486496Y-64726739D01*
X168692734Y-64630568D01*
X168879139Y-64500047D01*
X169040047Y-64339139D01*
X169170568Y-64152734D01*
X169266739Y-63946496D01*
X169325635Y-63726692D01*
X169345468Y-63500000D01*
X169325635Y-63273308D01*
X169266739Y-63053504D01*
X169170568Y-62847266D01*
X169040047Y-62660861D01*
X169040045Y-62660858D01*
X168879141Y-62499954D01*
X168692734Y-62369432D01*
X168692732Y-62369431D01*
X168634725Y-62342382D01*
X168582286Y-62296209D01*
X168563134Y-62229016D01*
X168583350Y-62162135D01*
X168634726Y-62117618D01*
X168659374Y-62106123D01*
X168692734Y-62090568D01*
X168775993Y-62032269D01*
X168842197Y-62009943D01*
X168909965Y-62026953D01*
X168934796Y-62046164D01*
X170663181Y-63774548D01*
X170696666Y-63835871D01*
X170699500Y-63862229D01*
X170699500Y-67246294D01*
X170698191Y-67264263D01*
X170694710Y-67288025D01*
X170699264Y-67340064D01*
X170699500Y-67345470D01*
X170699500Y-67353712D01*
X170703202Y-67385391D01*
X170703386Y-67387185D01*
X170710000Y-67462792D01*
X170711461Y-67469867D01*
X170711403Y-67469878D01*
X170713034Y-67477237D01*
X170713092Y-67477224D01*
X170714757Y-67484249D01*
X170714758Y-67484254D01*
X170714759Y-67484255D01*
X170720404Y-67499766D01*
X170740708Y-67555551D01*
X170741299Y-67557253D01*
X170765182Y-67629326D01*
X170768236Y-67635874D01*
X170768182Y-67635898D01*
X170771470Y-67642688D01*
X170771521Y-67642663D01*
X170774761Y-67649113D01*
X170774762Y-67649114D01*
X170774763Y-67649117D01*
X170816494Y-67712567D01*
X170817443Y-67714058D01*
X170843619Y-67756496D01*
X170857289Y-67778657D01*
X170861766Y-67784319D01*
X170861719Y-67784356D01*
X170866482Y-67790202D01*
X170866528Y-67790164D01*
X170871173Y-67795699D01*
X170926364Y-67847769D01*
X170927658Y-67849026D01*
X172144267Y-69065634D01*
X172156048Y-69079266D01*
X172170390Y-69098530D01*
X172210420Y-69132119D01*
X172214392Y-69135759D01*
X172217312Y-69138679D01*
X172220220Y-69141588D01*
X172245252Y-69161381D01*
X172246649Y-69162519D01*
X172258794Y-69172710D01*
X172304786Y-69211302D01*
X172304794Y-69211306D01*
X172310824Y-69215273D01*
X172310790Y-69215323D01*
X172317137Y-69219366D01*
X172317169Y-69219316D01*
X172323321Y-69223110D01*
X172323322Y-69223110D01*
X172323323Y-69223111D01*
X172392143Y-69255202D01*
X172393692Y-69255952D01*
X172461567Y-69290040D01*
X172461576Y-69290042D01*
X172468355Y-69292510D01*
X172468334Y-69292567D01*
X172475451Y-69295040D01*
X172475470Y-69294984D01*
X172482324Y-69297254D01*
X172482327Y-69297256D01*
X172556715Y-69312615D01*
X172558352Y-69312978D01*
X172632279Y-69330500D01*
X172632285Y-69330500D01*
X172639452Y-69331338D01*
X172639445Y-69331397D01*
X172646946Y-69332163D01*
X172646952Y-69332104D01*
X172654141Y-69332733D01*
X172654143Y-69332732D01*
X172654144Y-69332733D01*
X172675764Y-69332104D01*
X172730012Y-69330526D01*
X172731815Y-69330500D01*
X176466295Y-69330500D01*
X176484265Y-69331809D01*
X176508023Y-69335289D01*
X176560068Y-69330735D01*
X176565470Y-69330500D01*
X176573704Y-69330500D01*
X176573709Y-69330500D01*
X176605458Y-69326788D01*
X176607075Y-69326622D01*
X176682797Y-69319999D01*
X176682805Y-69319996D01*
X176689866Y-69318539D01*
X176689878Y-69318598D01*
X176697243Y-69316965D01*
X176697229Y-69316906D01*
X176704251Y-69315241D01*
X176704255Y-69315241D01*
X176775587Y-69289277D01*
X176777286Y-69288688D01*
X176849334Y-69264814D01*
X176849342Y-69264808D01*
X176855882Y-69261760D01*
X176855908Y-69261816D01*
X176862690Y-69258532D01*
X176862663Y-69258478D01*
X176869109Y-69255239D01*
X176869117Y-69255237D01*
X176932612Y-69213475D01*
X176933977Y-69212605D01*
X176998656Y-69172712D01*
X176998661Y-69172706D01*
X177004325Y-69168229D01*
X177004362Y-69168277D01*
X177010204Y-69163518D01*
X177010164Y-69163471D01*
X177015686Y-69158835D01*
X177015696Y-69158830D01*
X177067800Y-69103601D01*
X177068994Y-69102372D01*
X177958410Y-68212955D01*
X178019731Y-68179472D01*
X178089422Y-68184456D01*
X178133770Y-68212957D01*
X178230858Y-68310045D01*
X178230861Y-68310047D01*
X178417266Y-68440568D01*
X178623504Y-68536739D01*
X178843308Y-68595635D01*
X179005230Y-68609801D01*
X179069998Y-68615468D01*
X179070000Y-68615468D01*
X179070002Y-68615468D01*
X179126672Y-68610509D01*
X179296692Y-68595635D01*
X179516496Y-68536739D01*
X179722734Y-68440568D01*
X179909139Y-68310047D01*
X180070047Y-68149139D01*
X180200568Y-67962734D01*
X180296739Y-67756496D01*
X180355635Y-67536692D01*
X180375468Y-67310000D01*
X180373545Y-67288025D01*
X180355635Y-67083313D01*
X180355635Y-67083312D01*
X180355635Y-67083308D01*
X180296739Y-66863504D01*
X180200568Y-66657266D01*
X180070047Y-66470861D01*
X180070045Y-66470858D01*
X179909141Y-66309954D01*
X179722734Y-66179432D01*
X179722732Y-66179431D01*
X179516497Y-66083261D01*
X179516488Y-66083258D01*
X179296697Y-66024366D01*
X179296693Y-66024365D01*
X179296692Y-66024365D01*
X179296691Y-66024364D01*
X179296686Y-66024364D01*
X179070002Y-66004532D01*
X179069998Y-66004532D01*
X178843313Y-66024364D01*
X178843302Y-66024366D01*
X178623511Y-66083258D01*
X178623502Y-66083261D01*
X178417267Y-66179431D01*
X178417265Y-66179432D01*
X178230858Y-66309954D01*
X178069954Y-66470858D01*
X178044912Y-66506623D01*
X177990335Y-66550248D01*
X177943337Y-66559500D01*
X177863705Y-66559500D01*
X177845735Y-66558191D01*
X177821972Y-66554710D01*
X177776890Y-66558655D01*
X177769933Y-66559264D01*
X177764532Y-66559500D01*
X177756281Y-66559500D01*
X177724594Y-66563203D01*
X177722802Y-66563386D01*
X177647201Y-66570001D01*
X177640134Y-66571461D01*
X177640122Y-66571404D01*
X177632753Y-66573038D01*
X177632767Y-66573095D01*
X177625743Y-66574759D01*
X177554398Y-66600725D01*
X177552697Y-66601316D01*
X177480660Y-66625187D01*
X177474123Y-66628236D01*
X177474098Y-66628184D01*
X177467310Y-66631470D01*
X177467336Y-66631521D01*
X177460884Y-66634761D01*
X177397483Y-66676460D01*
X177395963Y-66677429D01*
X177331347Y-66717285D01*
X177325682Y-66721765D01*
X177325646Y-66721719D01*
X177319798Y-66726484D01*
X177319835Y-66726528D01*
X177314309Y-66731164D01*
X177262229Y-66786364D01*
X177260974Y-66787657D01*
X176255451Y-67793181D01*
X176194128Y-67826666D01*
X176167770Y-67829500D01*
X175358778Y-67829500D01*
X175291739Y-67809815D01*
X175245984Y-67757011D01*
X175236040Y-67687853D01*
X175239003Y-67673407D01*
X175254507Y-67615541D01*
X175275635Y-67536692D01*
X175295468Y-67310000D01*
X175293545Y-67288025D01*
X175275635Y-67083313D01*
X175275635Y-67083312D01*
X175275635Y-67083308D01*
X175216739Y-66863504D01*
X175120568Y-66657266D01*
X175054833Y-66563386D01*
X174990048Y-66470862D01*
X174961723Y-66442537D01*
X174829139Y-66309953D01*
X174829134Y-66309950D01*
X174829131Y-66309947D01*
X174793375Y-66284910D01*
X174749750Y-66230333D01*
X174740499Y-66183341D01*
X174740499Y-58483703D01*
X174741809Y-58465729D01*
X174745289Y-58441975D01*
X174740736Y-58389939D01*
X174740500Y-58384532D01*
X174740500Y-58376296D01*
X174740500Y-58376291D01*
X174736791Y-58344564D01*
X174736618Y-58342872D01*
X174729998Y-58267202D01*
X174729996Y-58267197D01*
X174728538Y-58260133D01*
X174728597Y-58260120D01*
X174726967Y-58252764D01*
X174726908Y-58252779D01*
X174725241Y-58245747D01*
X174725241Y-58245745D01*
X174699247Y-58174327D01*
X174698708Y-58172775D01*
X174674814Y-58100665D01*
X174674813Y-58100663D01*
X174671763Y-58094121D01*
X174671817Y-58094095D01*
X174668533Y-58087312D01*
X174668480Y-58087340D01*
X174665238Y-58080885D01*
X174665237Y-58080883D01*
X174623496Y-58017419D01*
X174622555Y-58015941D01*
X174620835Y-58013153D01*
X174582711Y-57951344D01*
X174582710Y-57951343D01*
X174582709Y-57951341D01*
X174578233Y-57945681D01*
X174578280Y-57945643D01*
X174573519Y-57939799D01*
X174573474Y-57939838D01*
X174568831Y-57934305D01*
X174513616Y-57882212D01*
X174512356Y-57880989D01*
X172025729Y-55394361D01*
X172013949Y-55380730D01*
X172006482Y-55370701D01*
X171999612Y-55361472D01*
X171999610Y-55361470D01*
X171959587Y-55327886D01*
X171955612Y-55324244D01*
X171952690Y-55321322D01*
X171949779Y-55318410D01*
X171924736Y-55298609D01*
X171923338Y-55297470D01*
X171865214Y-55248698D01*
X171859180Y-55244729D01*
X171859212Y-55244680D01*
X171852853Y-55240628D01*
X171852822Y-55240679D01*
X171846680Y-55236891D01*
X171846678Y-55236890D01*
X171846677Y-55236889D01*
X171777872Y-55204804D01*
X171776252Y-55204019D01*
X171736512Y-55184061D01*
X171708433Y-55169960D01*
X171708431Y-55169959D01*
X171708430Y-55169959D01*
X171701645Y-55167489D01*
X171701665Y-55167433D01*
X171694549Y-55164959D01*
X171694531Y-55165015D01*
X171687674Y-55162743D01*
X171613328Y-55147391D01*
X171611569Y-55147001D01*
X171537718Y-55129499D01*
X171530547Y-55128661D01*
X171530553Y-55128601D01*
X171523055Y-55127835D01*
X171523050Y-55127895D01*
X171515860Y-55127265D01*
X171439968Y-55129474D01*
X171438165Y-55129500D01*
X169166663Y-55129500D01*
X169099624Y-55109815D01*
X169065088Y-55076623D01*
X169040045Y-55040858D01*
X168879141Y-54879954D01*
X168692734Y-54749432D01*
X168692732Y-54749431D01*
X168486497Y-54653261D01*
X168486488Y-54653258D01*
X168266697Y-54594366D01*
X168266687Y-54594364D01*
X168096785Y-54579500D01*
X168096784Y-54579500D01*
X167183216Y-54579500D01*
X167183215Y-54579500D01*
X167013312Y-54594364D01*
X167013302Y-54594366D01*
X166793511Y-54653258D01*
X166793502Y-54653261D01*
X166587267Y-54749431D01*
X166587265Y-54749432D01*
X166400858Y-54879954D01*
X166239954Y-55040858D01*
X166109432Y-55227265D01*
X166109431Y-55227267D01*
X166013261Y-55433502D01*
X166013258Y-55433511D01*
X165954366Y-55653302D01*
X165954364Y-55653313D01*
X165934532Y-55879998D01*
X165934532Y-55880001D01*
X165954364Y-56106686D01*
X165954366Y-56106697D01*
X166013258Y-56326488D01*
X166013261Y-56326497D01*
X166109431Y-56532732D01*
X166109432Y-56532734D01*
X166239954Y-56719141D01*
X166400858Y-56880045D01*
X166400861Y-56880047D01*
X166587266Y-57010568D01*
X166645275Y-57037618D01*
X166697714Y-57083791D01*
X166716866Y-57150984D01*
X166696650Y-57217865D01*
X166645275Y-57262382D01*
X166587267Y-57289431D01*
X166587265Y-57289432D01*
X166400858Y-57419954D01*
X166239954Y-57580858D01*
X166109432Y-57767265D01*
X166109431Y-57767267D01*
X166013261Y-57973502D01*
X166013258Y-57973511D01*
X165954366Y-58193302D01*
X165954364Y-58193313D01*
X165934532Y-58419998D01*
X165934532Y-58420001D01*
X165954364Y-58646686D01*
X165954366Y-58646697D01*
X166013258Y-58866488D01*
X166013261Y-58866497D01*
X166109431Y-59072732D01*
X166109432Y-59072734D01*
X166239954Y-59259141D01*
X166400858Y-59420045D01*
X166400861Y-59420047D01*
X166587266Y-59550568D01*
X166645275Y-59577618D01*
X166697714Y-59623791D01*
X166716866Y-59690984D01*
X166696650Y-59757865D01*
X166645275Y-59802382D01*
X166587267Y-59829431D01*
X166587265Y-59829432D01*
X166400858Y-59959954D01*
X166239954Y-60120858D01*
X166109432Y-60307265D01*
X166109431Y-60307267D01*
X166013261Y-60513502D01*
X166013258Y-60513511D01*
X165954366Y-60733302D01*
X165954364Y-60733313D01*
X165934532Y-60959998D01*
X165934532Y-60960001D01*
X165954364Y-61186686D01*
X165954366Y-61186697D01*
X166013258Y-61406488D01*
X166013261Y-61406497D01*
X166109431Y-61612732D01*
X166109432Y-61612734D01*
X166239954Y-61799141D01*
X166400858Y-61960045D01*
X166496414Y-62026953D01*
X166587266Y-62090568D01*
X166645278Y-62117619D01*
X166697713Y-62163788D01*
X166716866Y-62230982D01*
X166696651Y-62297863D01*
X166645277Y-62342380D01*
X166587268Y-62369430D01*
X166587265Y-62369432D01*
X166400858Y-62499954D01*
X166239954Y-62660858D01*
X166109432Y-62847265D01*
X166109431Y-62847267D01*
X166013261Y-63053502D01*
X166013258Y-63053511D01*
X165954366Y-63273302D01*
X165954364Y-63273313D01*
X165934532Y-63499998D01*
X165934532Y-63500001D01*
X161725468Y-63500001D01*
X161725468Y-63500000D01*
X161705635Y-63273308D01*
X161646739Y-63053504D01*
X161550568Y-62847266D01*
X161420047Y-62660861D01*
X161420045Y-62660858D01*
X161259141Y-62499954D01*
X161072734Y-62369432D01*
X161072728Y-62369429D01*
X161014725Y-62342382D01*
X160962285Y-62296210D01*
X160943133Y-62229017D01*
X160963348Y-62162135D01*
X161014725Y-62117618D01*
X161072734Y-62090568D01*
X161259139Y-61960047D01*
X161420047Y-61799139D01*
X161479997Y-61713519D01*
X161534571Y-61669895D01*
X161542547Y-61666944D01*
X161609334Y-61644814D01*
X161609342Y-61644808D01*
X161615882Y-61641760D01*
X161615908Y-61641816D01*
X161622690Y-61638532D01*
X161622663Y-61638478D01*
X161629109Y-61635239D01*
X161629117Y-61635237D01*
X161692612Y-61593475D01*
X161693977Y-61592605D01*
X161758656Y-61552712D01*
X161758661Y-61552706D01*
X161764325Y-61548229D01*
X161764362Y-61548277D01*
X161770204Y-61543518D01*
X161770164Y-61543471D01*
X161775686Y-61538835D01*
X161775696Y-61538830D01*
X161827800Y-61483601D01*
X161828994Y-61482372D01*
X163045638Y-60265727D01*
X163059267Y-60253950D01*
X163078530Y-60239610D01*
X163078532Y-60239606D01*
X163078534Y-60239606D01*
X163111686Y-60200095D01*
X163112113Y-60199585D01*
X163115767Y-60195599D01*
X163121590Y-60189777D01*
X163141376Y-60164750D01*
X163142494Y-60163378D01*
X163191302Y-60105214D01*
X163191303Y-60105211D01*
X163195272Y-60099179D01*
X163195323Y-60099212D01*
X163199369Y-60092860D01*
X163199317Y-60092828D01*
X163203109Y-60086679D01*
X163203111Y-60086677D01*
X163235195Y-60017869D01*
X163235958Y-60016292D01*
X163270040Y-59948433D01*
X163270043Y-59948417D01*
X163272510Y-59941644D01*
X163272568Y-59941665D01*
X163275043Y-59934546D01*
X163274985Y-59934527D01*
X163277255Y-59927677D01*
X163288372Y-59873835D01*
X163292608Y-59853319D01*
X163292990Y-59851596D01*
X163298244Y-59829432D01*
X163310500Y-59777721D01*
X163310500Y-59777720D01*
X163310501Y-59777716D01*
X163311339Y-59770548D01*
X163311397Y-59770554D01*
X163312164Y-59763056D01*
X163312104Y-59763051D01*
X163312733Y-59755860D01*
X163310526Y-59679988D01*
X163310500Y-59678185D01*
X163310500Y-53403705D01*
X163311809Y-53385735D01*
X163312995Y-53377635D01*
X163315289Y-53361977D01*
X163315248Y-53361513D01*
X163311876Y-53322964D01*
X163310735Y-53309931D01*
X163310500Y-53304528D01*
X163310500Y-53296296D01*
X163310500Y-53296291D01*
X163306795Y-53264602D01*
X163306618Y-53262876D01*
X163299999Y-53187203D01*
X163299999Y-53187201D01*
X163298539Y-53180129D01*
X163298597Y-53180116D01*
X163296965Y-53172757D01*
X163296906Y-53172772D01*
X163295241Y-53165751D01*
X163295241Y-53165745D01*
X163269267Y-53094382D01*
X163268691Y-53092723D01*
X163244814Y-53020666D01*
X163244810Y-53020659D01*
X163241760Y-53014118D01*
X163241815Y-53014091D01*
X163238533Y-53007313D01*
X163238480Y-53007340D01*
X163235236Y-53000881D01*
X163193529Y-52937470D01*
X163192560Y-52935949D01*
X163152710Y-52871342D01*
X163148234Y-52865682D01*
X163148281Y-52865644D01*
X163143519Y-52859799D01*
X163143474Y-52859838D01*
X163138831Y-52854305D01*
X163083616Y-52802212D01*
X163082356Y-52800989D01*
X159536819Y-49255451D01*
X159503334Y-49194128D01*
X159500500Y-49167770D01*
X159500500Y-45532501D01*
X159520185Y-45465462D01*
X159563808Y-45425000D01*
X159563728Y-45424877D01*
X159564448Y-45424406D01*
X159565485Y-45423445D01*
X159568018Y-45422074D01*
X159568017Y-45422074D01*
X159568020Y-45422073D01*
X159568568Y-45421647D01*
X159633476Y-45371126D01*
X159762948Y-45270355D01*
X159930245Y-45088621D01*
X160065348Y-44881831D01*
X160164572Y-44655623D01*
X160225210Y-44416169D01*
X160240500Y-44231645D01*
X160240500Y-44231624D01*
X162260000Y-44231624D01*
X162275284Y-44416090D01*
X162335901Y-44655460D01*
X162435092Y-44881591D01*
X162570148Y-45088311D01*
X162737394Y-45269988D01*
X162737398Y-45269991D01*
X162932245Y-45421647D01*
X162932251Y-45421651D01*
X163149421Y-45539178D01*
X163149429Y-45539181D01*
X163382970Y-45619356D01*
X163499999Y-45638885D01*
X163500000Y-45638884D01*
X163500000Y-43791057D01*
X163590892Y-43825528D01*
X163710081Y-43840000D01*
X163789919Y-43840000D01*
X163909108Y-43825528D01*
X164000000Y-43791057D01*
X164000000Y-45638885D01*
X164117029Y-45619356D01*
X164350570Y-45539181D01*
X164350578Y-45539178D01*
X164567748Y-45421651D01*
X164567754Y-45421647D01*
X164762601Y-45269991D01*
X164762605Y-45269988D01*
X164929851Y-45088311D01*
X165064907Y-44881591D01*
X165164098Y-44655460D01*
X165224715Y-44416090D01*
X165240000Y-44231624D01*
X165240000Y-43430000D01*
X164364168Y-43430000D01*
X164371643Y-43415758D01*
X164410000Y-43260138D01*
X164410000Y-43099862D01*
X164371643Y-42944242D01*
X164364168Y-42930000D01*
X165240000Y-42930000D01*
X165240000Y-42128375D01*
X165224715Y-41943909D01*
X165164098Y-41704539D01*
X165064907Y-41478408D01*
X164929851Y-41271688D01*
X164762605Y-41090011D01*
X164762601Y-41090008D01*
X164567754Y-40938352D01*
X164567748Y-40938348D01*
X164350578Y-40820821D01*
X164350570Y-40820818D01*
X164117029Y-40740643D01*
X164000000Y-40721114D01*
X164000000Y-42568942D01*
X163909108Y-42534472D01*
X163789919Y-42520000D01*
X163710081Y-42520000D01*
X163590892Y-42534472D01*
X163500000Y-42568942D01*
X163500000Y-40721114D01*
X163499999Y-40721114D01*
X163382970Y-40740643D01*
X163149429Y-40820818D01*
X163149421Y-40820821D01*
X162932251Y-40938348D01*
X162932245Y-40938352D01*
X162737398Y-41090008D01*
X162737394Y-41090011D01*
X162570148Y-41271688D01*
X162435092Y-41478408D01*
X162335901Y-41704539D01*
X162275284Y-41943909D01*
X162260000Y-42128375D01*
X162260000Y-42930000D01*
X163135832Y-42930000D01*
X163128357Y-42944242D01*
X163090000Y-43099862D01*
X163090000Y-43260138D01*
X163128357Y-43415758D01*
X163135832Y-43430000D01*
X162260000Y-43430000D01*
X162260000Y-44231624D01*
X160240500Y-44231624D01*
X160240500Y-42128355D01*
X160225210Y-41943831D01*
X160164572Y-41704377D01*
X160065348Y-41478169D01*
X159930245Y-41271379D01*
X159762948Y-41089645D01*
X159762943Y-41089641D01*
X159762941Y-41089639D01*
X159568028Y-40937932D01*
X159568022Y-40937928D01*
X159350780Y-40820362D01*
X159350771Y-40820359D01*
X159117153Y-40740157D01*
X158911907Y-40705908D01*
X158873506Y-40699500D01*
X158626494Y-40699500D01*
X158588093Y-40705908D01*
X158382846Y-40740157D01*
X158149228Y-40820359D01*
X158149219Y-40820362D01*
X157931977Y-40937928D01*
X157931971Y-40937932D01*
X157737058Y-41089639D01*
X157737055Y-41089642D01*
X157569752Y-41271382D01*
X157434650Y-41478172D01*
X157335428Y-41704376D01*
X157274789Y-41943834D01*
X157259500Y-42128343D01*
X157259500Y-44231656D01*
X157274789Y-44416165D01*
X157335428Y-44655623D01*
X157434546Y-44881591D01*
X157434652Y-44881831D01*
X157569755Y-45088621D01*
X157737052Y-45270355D01*
X157737055Y-45270357D01*
X157737058Y-45270360D01*
X157931971Y-45422067D01*
X157931981Y-45422074D01*
X157934515Y-45423445D01*
X157935352Y-45424276D01*
X157936272Y-45424877D01*
X157936148Y-45425066D01*
X157984107Y-45472663D01*
X157999500Y-45532501D01*
X157999500Y-49466294D01*
X157998191Y-49484263D01*
X157994710Y-49508025D01*
X157999264Y-49560064D01*
X157999500Y-49565470D01*
X157999500Y-49573712D01*
X158003202Y-49605391D01*
X158003386Y-49607185D01*
X158010000Y-49682792D01*
X158011461Y-49689867D01*
X158011403Y-49689878D01*
X158013034Y-49697237D01*
X158013092Y-49697224D01*
X158014757Y-49704249D01*
X158040708Y-49775551D01*
X158041299Y-49777253D01*
X158065182Y-49849326D01*
X158068236Y-49855874D01*
X158068182Y-49855898D01*
X158071470Y-49862688D01*
X158071521Y-49862663D01*
X158074761Y-49869113D01*
X158074762Y-49869114D01*
X158074763Y-49869117D01*
X158116494Y-49932567D01*
X158117443Y-49934058D01*
X158157289Y-49998657D01*
X158161766Y-50004319D01*
X158161719Y-50004356D01*
X158166482Y-50010202D01*
X158166528Y-50010164D01*
X158171173Y-50015699D01*
X158226364Y-50067769D01*
X158227658Y-50069026D01*
X160012067Y-51853435D01*
X161773181Y-53614548D01*
X161806666Y-53675871D01*
X161809500Y-53702229D01*
X161809500Y-54659748D01*
X161789815Y-54726787D01*
X161737011Y-54772542D01*
X161667853Y-54782486D01*
X161604297Y-54753461D01*
X161586234Y-54734060D01*
X161577546Y-54722454D01*
X161577544Y-54722453D01*
X161577544Y-54722452D01*
X161462335Y-54636206D01*
X161462328Y-54636202D01*
X161327482Y-54585908D01*
X161327483Y-54585908D01*
X161267883Y-54579501D01*
X161267881Y-54579500D01*
X161267873Y-54579500D01*
X161267864Y-54579500D01*
X158772129Y-54579500D01*
X158772123Y-54579501D01*
X158712516Y-54585908D01*
X158577671Y-54636202D01*
X158577664Y-54636206D01*
X158462455Y-54722452D01*
X158462452Y-54722455D01*
X158376206Y-54837664D01*
X158376202Y-54837671D01*
X158325908Y-54972517D01*
X158319501Y-55032116D01*
X158319500Y-55032135D01*
X158319500Y-56727870D01*
X158319501Y-56727876D01*
X158325908Y-56787483D01*
X158376202Y-56922328D01*
X158376206Y-56922335D01*
X158462452Y-57037544D01*
X158462455Y-57037547D01*
X158577664Y-57123793D01*
X158577671Y-57123797D01*
X158622618Y-57140561D01*
X158712517Y-57174091D01*
X158747596Y-57177862D01*
X158812144Y-57204599D01*
X158851993Y-57261991D01*
X158854488Y-57331816D01*
X158818836Y-57391905D01*
X158805464Y-57402725D01*
X158780861Y-57419952D01*
X158619951Y-57580863D01*
X158560003Y-57666478D01*
X158505425Y-57710103D01*
X158497434Y-57713059D01*
X158430668Y-57735184D01*
X158424119Y-57738238D01*
X158424094Y-57738186D01*
X158417314Y-57741468D01*
X158417340Y-57741520D01*
X158410882Y-57744763D01*
X158347483Y-57786460D01*
X158345965Y-57787428D01*
X158281346Y-57827287D01*
X158275677Y-57831770D01*
X158275641Y-57831724D01*
X158269798Y-57836484D01*
X158269835Y-57836528D01*
X158264309Y-57841164D01*
X158212213Y-57896381D01*
X158210957Y-57897674D01*
X155724358Y-60384272D01*
X155710729Y-60396051D01*
X155691468Y-60410390D01*
X155657898Y-60450397D01*
X155654253Y-60454376D01*
X155648407Y-60460223D01*
X155628618Y-60485251D01*
X155627481Y-60486647D01*
X155578694Y-60544790D01*
X155574729Y-60550819D01*
X155574682Y-60550788D01*
X155570630Y-60557147D01*
X155570679Y-60557177D01*
X155566889Y-60563321D01*
X155534812Y-60632110D01*
X155534027Y-60633731D01*
X155499957Y-60701572D01*
X155497488Y-60708357D01*
X155497432Y-60708336D01*
X155494960Y-60715450D01*
X155495015Y-60715469D01*
X155492743Y-60722325D01*
X155477391Y-60796670D01*
X155477001Y-60798428D01*
X155459499Y-60872279D01*
X155458661Y-60879454D01*
X155458601Y-60879447D01*
X155457835Y-60886945D01*
X155457895Y-60886951D01*
X155457265Y-60894140D01*
X155459474Y-60970030D01*
X155459500Y-60971833D01*
X155459500Y-69487769D01*
X155439815Y-69554808D01*
X155423181Y-69575450D01*
X151914358Y-73084272D01*
X151900729Y-73096051D01*
X151881468Y-73110390D01*
X151847898Y-73150397D01*
X151844253Y-73154376D01*
X151838407Y-73160223D01*
X151818618Y-73185251D01*
X151817481Y-73186647D01*
X151768694Y-73244790D01*
X151764729Y-73250819D01*
X151764682Y-73250788D01*
X151760630Y-73257147D01*
X151760679Y-73257177D01*
X151756889Y-73263321D01*
X151724812Y-73332110D01*
X151724027Y-73333731D01*
X151689957Y-73401572D01*
X151687488Y-73408357D01*
X151687432Y-73408336D01*
X151684960Y-73415450D01*
X151685015Y-73415469D01*
X151682743Y-73422325D01*
X151667391Y-73496670D01*
X151667001Y-73498428D01*
X151649499Y-73572279D01*
X151648661Y-73579454D01*
X151648601Y-73579447D01*
X151647835Y-73586945D01*
X151647895Y-73586951D01*
X151647265Y-73594140D01*
X151649474Y-73670030D01*
X151649500Y-73671833D01*
X151649500Y-74567770D01*
X151629815Y-74634809D01*
X151613181Y-74655451D01*
X150855451Y-75413181D01*
X150794128Y-75446666D01*
X150767770Y-75449500D01*
X149716663Y-75449500D01*
X149649624Y-75429815D01*
X149615088Y-75396623D01*
X149590045Y-75360858D01*
X149429141Y-75199954D01*
X149242734Y-75069432D01*
X149242732Y-75069431D01*
X149036497Y-74973261D01*
X149036488Y-74973258D01*
X148816697Y-74914366D01*
X148816693Y-74914365D01*
X148816692Y-74914365D01*
X148816691Y-74914364D01*
X148816686Y-74914364D01*
X148590002Y-74894532D01*
X148589998Y-74894532D01*
X148363313Y-74914364D01*
X148363302Y-74914366D01*
X148143511Y-74973258D01*
X148143502Y-74973261D01*
X147937267Y-75069431D01*
X147937265Y-75069432D01*
X147750858Y-75199954D01*
X147589954Y-75360858D01*
X147459432Y-75547265D01*
X147459431Y-75547267D01*
X147363261Y-75753502D01*
X147363258Y-75753511D01*
X147304366Y-75973302D01*
X147304364Y-75973313D01*
X147284532Y-76199998D01*
X147284532Y-76200001D01*
X139700500Y-76200001D01*
X139700500Y-63500001D01*
X147284532Y-63500001D01*
X147304364Y-63726686D01*
X147304366Y-63726697D01*
X147363258Y-63946488D01*
X147363261Y-63946497D01*
X147459431Y-64152732D01*
X147459432Y-64152734D01*
X147589954Y-64339141D01*
X147750858Y-64500045D01*
X147750861Y-64500047D01*
X147937266Y-64630568D01*
X148143504Y-64726739D01*
X148363308Y-64785635D01*
X148525230Y-64799801D01*
X148589998Y-64805468D01*
X148590000Y-64805468D01*
X148590002Y-64805468D01*
X148646796Y-64800499D01*
X148816692Y-64785635D01*
X149036496Y-64726739D01*
X149242734Y-64630568D01*
X149429139Y-64500047D01*
X149590047Y-64339139D01*
X149720568Y-64152734D01*
X149816739Y-63946496D01*
X149875635Y-63726692D01*
X149895468Y-63500000D01*
X149880869Y-63333137D01*
X149894635Y-63264639D01*
X149916713Y-63234653D01*
X150345638Y-62805727D01*
X150359267Y-62793950D01*
X150378530Y-62779610D01*
X150400914Y-62752932D01*
X150459084Y-62714228D01*
X150528945Y-62713117D01*
X150583587Y-62744954D01*
X151824267Y-63985634D01*
X151836048Y-63999266D01*
X151850390Y-64018530D01*
X151890420Y-64052119D01*
X151894392Y-64055759D01*
X151897313Y-64058680D01*
X151900223Y-64061591D01*
X151925246Y-64081375D01*
X151926645Y-64082515D01*
X151984786Y-64131302D01*
X151990823Y-64135272D01*
X151990789Y-64135322D01*
X151997144Y-64139370D01*
X151997177Y-64139318D01*
X152003318Y-64143106D01*
X152003323Y-64143110D01*
X152072144Y-64175201D01*
X152073660Y-64175935D01*
X152141567Y-64210040D01*
X152141572Y-64210041D01*
X152148355Y-64212510D01*
X152148334Y-64212567D01*
X152155451Y-64215040D01*
X152155470Y-64214984D01*
X152162324Y-64217254D01*
X152162327Y-64217256D01*
X152236715Y-64232615D01*
X152238352Y-64232978D01*
X152312279Y-64250500D01*
X152312285Y-64250500D01*
X152319452Y-64251338D01*
X152319445Y-64251397D01*
X152326946Y-64252163D01*
X152326952Y-64252104D01*
X152334141Y-64252733D01*
X152334143Y-64252732D01*
X152334144Y-64252733D01*
X152355764Y-64252104D01*
X152410012Y-64250526D01*
X152411815Y-64250500D01*
X152543337Y-64250500D01*
X152610376Y-64270185D01*
X152644912Y-64303377D01*
X152669954Y-64339141D01*
X152830858Y-64500045D01*
X152830861Y-64500047D01*
X153017266Y-64630568D01*
X153223504Y-64726739D01*
X153443308Y-64785635D01*
X153605230Y-64799801D01*
X153669998Y-64805468D01*
X153670000Y-64805468D01*
X153670002Y-64805468D01*
X153726796Y-64800499D01*
X153896692Y-64785635D01*
X154116496Y-64726739D01*
X154322734Y-64630568D01*
X154509139Y-64500047D01*
X154670047Y-64339139D01*
X154800568Y-64152734D01*
X154896739Y-63946496D01*
X154955635Y-63726692D01*
X154975468Y-63500000D01*
X154955635Y-63273308D01*
X154896739Y-63053504D01*
X154800568Y-62847266D01*
X154670047Y-62660861D01*
X154670045Y-62660858D01*
X154509141Y-62499954D01*
X154322734Y-62369432D01*
X154322732Y-62369431D01*
X154116497Y-62273261D01*
X154116488Y-62273258D01*
X153896697Y-62214366D01*
X153896693Y-62214365D01*
X153896692Y-62214365D01*
X153896691Y-62214364D01*
X153896686Y-62214364D01*
X153670002Y-62194532D01*
X153669998Y-62194532D01*
X153443313Y-62214364D01*
X153443302Y-62214366D01*
X153223511Y-62273258D01*
X153223502Y-62273261D01*
X153017267Y-62369431D01*
X153017265Y-62369432D01*
X152830858Y-62499954D01*
X152733771Y-62597042D01*
X152672448Y-62630527D01*
X152602756Y-62625543D01*
X152558409Y-62597042D01*
X151630341Y-61668974D01*
X150646819Y-60685451D01*
X150613334Y-60624128D01*
X150610500Y-60597770D01*
X150610500Y-58674499D01*
X150630185Y-58607460D01*
X150682989Y-58561705D01*
X150734500Y-58550499D01*
X150807871Y-58550499D01*
X150807872Y-58550499D01*
X150867483Y-58544091D01*
X151002331Y-58493796D01*
X151117546Y-58407546D01*
X151203796Y-58292331D01*
X151203798Y-58292326D01*
X151232455Y-58215493D01*
X151274326Y-58159559D01*
X151339790Y-58135141D01*
X151408063Y-58149992D01*
X151439866Y-58174843D01*
X151447302Y-58182920D01*
X151448215Y-58183912D01*
X151448222Y-58183918D01*
X151631365Y-58326464D01*
X151631371Y-58326468D01*
X151631374Y-58326470D01*
X151835497Y-58436936D01*
X151919368Y-58465729D01*
X152055015Y-58512297D01*
X152055017Y-58512297D01*
X152055019Y-58512298D01*
X152283951Y-58550500D01*
X152283952Y-58550500D01*
X152516048Y-58550500D01*
X152516049Y-58550500D01*
X152744981Y-58512298D01*
X152964503Y-58436936D01*
X153168626Y-58326470D01*
X153351784Y-58183913D01*
X153508979Y-58013153D01*
X153635924Y-57818849D01*
X153729157Y-57606300D01*
X153786134Y-57381305D01*
X153786135Y-57381297D01*
X153805300Y-57150006D01*
X153805300Y-57149993D01*
X153786135Y-56918702D01*
X153786134Y-56918698D01*
X153786134Y-56918695D01*
X153784545Y-56912420D01*
X153787168Y-56842600D01*
X153817067Y-56794298D01*
X154235638Y-56375727D01*
X154249267Y-56363950D01*
X154268530Y-56349610D01*
X154268532Y-56349606D01*
X154268534Y-56349606D01*
X154287924Y-56326497D01*
X154302113Y-56309585D01*
X154305767Y-56305599D01*
X154311590Y-56299777D01*
X154331376Y-56274750D01*
X154332494Y-56273378D01*
X154381302Y-56215214D01*
X154381303Y-56215211D01*
X154385272Y-56209179D01*
X154385323Y-56209212D01*
X154389369Y-56202860D01*
X154389317Y-56202828D01*
X154393109Y-56196679D01*
X154393111Y-56196677D01*
X154425195Y-56127869D01*
X154425958Y-56126292D01*
X154460040Y-56058433D01*
X154460043Y-56058417D01*
X154462510Y-56051644D01*
X154462568Y-56051665D01*
X154465043Y-56044546D01*
X154464985Y-56044527D01*
X154467255Y-56037677D01*
X154467256Y-56037673D01*
X154482608Y-55963319D01*
X154482990Y-55961596D01*
X154493924Y-55915468D01*
X154500500Y-55887721D01*
X154500500Y-55887720D01*
X154500501Y-55887716D01*
X154501339Y-55880548D01*
X154501397Y-55880554D01*
X154502164Y-55873056D01*
X154502104Y-55873051D01*
X154502733Y-55865860D01*
X154500526Y-55789988D01*
X154500500Y-55788185D01*
X154500500Y-45784499D01*
X154520185Y-45717460D01*
X154572989Y-45671705D01*
X154624500Y-45660499D01*
X154787871Y-45660499D01*
X154787872Y-45660499D01*
X154847483Y-45654091D01*
X154982331Y-45603796D01*
X155097546Y-45517546D01*
X155183796Y-45402331D01*
X155234091Y-45267483D01*
X155240500Y-45207873D01*
X155240499Y-42802228D01*
X155260184Y-42735190D01*
X155276813Y-42714553D01*
X157834547Y-40156818D01*
X157895871Y-40123334D01*
X157922229Y-40120500D01*
X168547770Y-40120500D01*
X168614809Y-40140185D01*
X168635451Y-40156819D01*
X172778181Y-44299549D01*
X172811666Y-44360872D01*
X172814500Y-44387230D01*
X172814500Y-45450370D01*
X172814501Y-45450376D01*
X172820908Y-45509983D01*
X172871202Y-45644828D01*
X172871206Y-45644835D01*
X172957452Y-45760044D01*
X172957455Y-45760047D01*
X173072664Y-45846293D01*
X173072671Y-45846297D01*
X173072674Y-45846298D01*
X173103802Y-45857907D01*
X173159736Y-45899777D01*
X173184155Y-45965241D01*
X173169305Y-46033514D01*
X173158325Y-46050252D01*
X173047345Y-46192838D01*
X173047344Y-46192840D01*
X172932784Y-46404531D01*
X172932778Y-46404545D01*
X172854619Y-46632208D01*
X172836633Y-46739999D01*
X172836634Y-46740000D01*
X173820148Y-46740000D01*
X173771441Y-46877047D01*
X173761123Y-47027886D01*
X173791884Y-47175915D01*
X173825090Y-47240000D01*
X172836633Y-47240000D01*
X172854619Y-47347791D01*
X172932778Y-47575454D01*
X172932784Y-47575468D01*
X173047344Y-47787159D01*
X173047350Y-47787168D01*
X173195193Y-47977116D01*
X173195202Y-47977126D01*
X173372297Y-48140154D01*
X173372296Y-48140154D01*
X173396385Y-48155892D01*
X173441742Y-48209038D01*
X173451166Y-48278269D01*
X173421664Y-48341605D01*
X173396389Y-48363507D01*
X173371994Y-48379446D01*
X173371988Y-48379450D01*
X173194832Y-48542534D01*
X173194829Y-48542537D01*
X173151305Y-48598456D01*
X173046929Y-48732558D01*
X172932321Y-48944334D01*
X172932318Y-48944343D01*
X172854134Y-49172083D01*
X172840223Y-49255451D01*
X172814500Y-49409601D01*
X172814500Y-49650399D01*
X172819906Y-49682797D01*
X172854134Y-49887916D01*
X172932318Y-50115656D01*
X172932321Y-50115665D01*
X173046929Y-50327441D01*
X173090451Y-50383358D01*
X173194829Y-50517463D01*
X173371990Y-50680551D01*
X173508322Y-50769621D01*
X173553678Y-50822768D01*
X173564500Y-50873430D01*
X173564500Y-53294474D01*
X173544815Y-53361513D01*
X173492905Y-53406856D01*
X173337267Y-53479431D01*
X173337265Y-53479432D01*
X173150858Y-53609954D01*
X172989954Y-53770858D01*
X172859432Y-53957265D01*
X172859431Y-53957267D01*
X172763261Y-54163502D01*
X172763258Y-54163511D01*
X172704366Y-54383302D01*
X172704364Y-54383313D01*
X172684532Y-54609998D01*
X172684532Y-54610001D01*
X172704364Y-54836686D01*
X172704366Y-54836697D01*
X172763258Y-55056488D01*
X172763261Y-55056497D01*
X172859431Y-55262732D01*
X172859432Y-55262734D01*
X172989954Y-55449141D01*
X173150858Y-55610045D01*
X173150861Y-55610047D01*
X173337266Y-55740568D01*
X173543504Y-55836739D01*
X173763308Y-55895635D01*
X173925230Y-55909801D01*
X173989998Y-55915468D01*
X173990000Y-55915468D01*
X173990002Y-55915468D01*
X174046672Y-55910509D01*
X174216692Y-55895635D01*
X174436496Y-55836739D01*
X174642734Y-55740568D01*
X174829139Y-55610047D01*
X174990047Y-55449139D01*
X175120568Y-55262734D01*
X175216739Y-55056496D01*
X175275635Y-54836692D01*
X175295468Y-54610000D01*
X175275635Y-54383308D01*
X175216739Y-54163504D01*
X175120568Y-53957266D01*
X175087924Y-53910645D01*
X175065597Y-53844439D01*
X175065500Y-53839523D01*
X175065500Y-51966229D01*
X175085185Y-51899190D01*
X175137989Y-51853435D01*
X175207147Y-51843491D01*
X175270703Y-51872516D01*
X175277179Y-51878546D01*
X176564376Y-53165744D01*
X177743282Y-54344650D01*
X177776767Y-54405973D01*
X177779129Y-54443137D01*
X177764532Y-54609996D01*
X177764532Y-54610001D01*
X177784364Y-54836686D01*
X177784366Y-54836697D01*
X177843258Y-55056488D01*
X177843261Y-55056497D01*
X177939431Y-55262732D01*
X177939432Y-55262734D01*
X178069954Y-55449141D01*
X178230858Y-55610045D01*
X178230861Y-55610047D01*
X178417266Y-55740568D01*
X178623504Y-55836739D01*
X178843308Y-55895635D01*
X179005230Y-55909801D01*
X179069998Y-55915468D01*
X179070000Y-55915468D01*
X179070002Y-55915468D01*
X179126672Y-55910509D01*
X179296692Y-55895635D01*
X179516496Y-55836739D01*
X179722734Y-55740568D01*
X179909139Y-55610047D01*
X180070047Y-55449139D01*
X180200568Y-55262734D01*
X180296739Y-55056496D01*
X180355635Y-54836692D01*
X180375468Y-54610000D01*
X180355635Y-54383308D01*
X180296739Y-54163504D01*
X180200568Y-53957266D01*
X180070047Y-53770861D01*
X180070045Y-53770858D01*
X179909141Y-53609954D01*
X179722734Y-53479432D01*
X179722732Y-53479431D01*
X179516497Y-53383261D01*
X179516488Y-53383258D01*
X179296697Y-53324366D01*
X179296693Y-53324365D01*
X179296692Y-53324365D01*
X179296691Y-53324364D01*
X179296686Y-53324364D01*
X179070002Y-53304532D01*
X179069997Y-53304532D01*
X178903137Y-53319129D01*
X178834637Y-53305362D01*
X178804650Y-53283282D01*
X175736913Y-50215545D01*
X175703428Y-50154222D01*
X175707313Y-50087601D01*
X175775865Y-49887916D01*
X175782304Y-49849334D01*
X175815500Y-49650399D01*
X175815500Y-49409601D01*
X175775866Y-49172087D01*
X175697679Y-48944336D01*
X175583072Y-48732561D01*
X175435171Y-48542537D01*
X175258010Y-48379449D01*
X175258007Y-48379446D01*
X175233614Y-48363510D01*
X175188257Y-48310364D01*
X175178833Y-48241132D01*
X175208335Y-48177796D01*
X175233616Y-48155891D01*
X175257701Y-48140155D01*
X175257702Y-48140154D01*
X175434797Y-47977126D01*
X175434806Y-47977116D01*
X175582649Y-47787168D01*
X175582655Y-47787159D01*
X175697215Y-47575468D01*
X175697221Y-47575454D01*
X175775380Y-47347791D01*
X175793367Y-47240000D01*
X174809852Y-47240000D01*
X174858559Y-47102953D01*
X174868877Y-46952114D01*
X174838116Y-46804085D01*
X174804910Y-46740000D01*
X175793366Y-46740000D01*
X175793366Y-46739999D01*
X175775380Y-46632208D01*
X175697221Y-46404545D01*
X175697215Y-46404531D01*
X175582655Y-46192840D01*
X175582649Y-46192831D01*
X175471675Y-46050252D01*
X175446032Y-45985258D01*
X175459598Y-45916719D01*
X175508067Y-45866394D01*
X175526194Y-45857909D01*
X175541209Y-45852308D01*
X175557327Y-45846298D01*
X175557329Y-45846296D01*
X175557331Y-45846296D01*
X175672546Y-45760046D01*
X175758796Y-45644831D01*
X175809091Y-45509983D01*
X175815500Y-45450373D01*
X175815499Y-43449628D01*
X175809091Y-43390017D01*
X175760649Y-43260138D01*
X175758797Y-43255171D01*
X175758793Y-43255164D01*
X175672547Y-43139955D01*
X175672544Y-43139952D01*
X175557335Y-43053706D01*
X175557328Y-43053702D01*
X175422482Y-43003408D01*
X175422483Y-43003408D01*
X175362883Y-42997001D01*
X175362881Y-42997000D01*
X175362873Y-42997000D01*
X175362865Y-42997000D01*
X173649730Y-42997000D01*
X173582691Y-42977315D01*
X173562049Y-42960681D01*
X169485729Y-38884361D01*
X169473949Y-38870730D01*
X169466482Y-38860701D01*
X169459612Y-38851472D01*
X169459610Y-38851470D01*
X169419587Y-38817886D01*
X169415612Y-38814244D01*
X169412690Y-38811322D01*
X169409779Y-38808410D01*
X169384736Y-38788609D01*
X169383338Y-38787470D01*
X169325214Y-38738698D01*
X169319180Y-38734729D01*
X169319212Y-38734680D01*
X169312853Y-38730628D01*
X169312822Y-38730679D01*
X169306680Y-38726891D01*
X169306678Y-38726890D01*
X169306677Y-38726889D01*
X169237872Y-38694804D01*
X169236252Y-38694019D01*
X169196512Y-38674061D01*
X169168433Y-38659960D01*
X169168431Y-38659959D01*
X169168430Y-38659959D01*
X169161645Y-38657489D01*
X169161665Y-38657433D01*
X169154549Y-38654959D01*
X169154531Y-38655015D01*
X169147674Y-38652743D01*
X169073328Y-38637391D01*
X169071569Y-38637001D01*
X168997718Y-38619499D01*
X168990547Y-38618661D01*
X168990553Y-38618601D01*
X168983055Y-38617835D01*
X168983050Y-38617895D01*
X168975860Y-38617265D01*
X168899968Y-38619474D01*
X168898165Y-38619500D01*
X168255643Y-38619500D01*
X168188604Y-38599815D01*
X168142849Y-38547011D01*
X168131643Y-38495500D01*
X168131643Y-35982071D01*
X149442071Y-35982071D01*
X149442071Y-39025929D01*
X156543342Y-39025929D01*
X156610381Y-39045614D01*
X156656136Y-39098418D01*
X156666080Y-39167576D01*
X156637055Y-39231132D01*
X156631023Y-39237610D01*
X155132116Y-40736514D01*
X155070793Y-40769999D01*
X155001101Y-40765015D01*
X154985009Y-40757666D01*
X154982330Y-40756203D01*
X154847482Y-40705908D01*
X154847483Y-40705908D01*
X154787883Y-40699501D01*
X154787881Y-40699500D01*
X154787873Y-40699500D01*
X154787864Y-40699500D01*
X152712129Y-40699500D01*
X152712123Y-40699501D01*
X152652516Y-40705908D01*
X152517671Y-40756202D01*
X152517664Y-40756206D01*
X152402455Y-40842452D01*
X152402452Y-40842455D01*
X152316206Y-40957664D01*
X152316202Y-40957671D01*
X152265908Y-41092517D01*
X152259501Y-41152116D01*
X152259500Y-41152135D01*
X152259500Y-45207870D01*
X152259501Y-45207876D01*
X152265908Y-45267483D01*
X152316202Y-45402328D01*
X152316206Y-45402335D01*
X152402452Y-45517544D01*
X152402455Y-45517547D01*
X152517664Y-45603793D01*
X152517671Y-45603797D01*
X152559388Y-45619356D01*
X152652517Y-45654091D01*
X152712127Y-45660500D01*
X152875500Y-45660499D01*
X152942539Y-45680183D01*
X152988294Y-45732987D01*
X152999500Y-45784499D01*
X152999500Y-55437769D01*
X152979815Y-55504808D01*
X152963181Y-55525450D01*
X152752362Y-55736268D01*
X152691039Y-55769753D01*
X152644272Y-55770896D01*
X152516049Y-55749500D01*
X152283951Y-55749500D01*
X152245550Y-55755908D01*
X152055015Y-55787702D01*
X151835504Y-55863061D01*
X151835495Y-55863064D01*
X151631371Y-55973531D01*
X151631365Y-55973535D01*
X151448222Y-56116081D01*
X151448218Y-56116085D01*
X151439866Y-56125158D01*
X151379979Y-56161148D01*
X151310141Y-56159047D01*
X151252525Y-56119522D01*
X151232455Y-56084507D01*
X151203797Y-56007671D01*
X151203793Y-56007664D01*
X151117547Y-55892455D01*
X151117544Y-55892452D01*
X151002335Y-55806206D01*
X151002328Y-55806202D01*
X150867482Y-55755908D01*
X150867483Y-55755908D01*
X150807883Y-55749501D01*
X150807881Y-55749500D01*
X150807873Y-55749500D01*
X150807864Y-55749500D01*
X148912129Y-55749500D01*
X148912123Y-55749501D01*
X148852516Y-55755908D01*
X148717671Y-55806202D01*
X148717664Y-55806206D01*
X148602455Y-55892452D01*
X148602452Y-55892455D01*
X148516206Y-56007664D01*
X148516202Y-56007671D01*
X148465908Y-56142517D01*
X148459501Y-56202116D01*
X148459500Y-56202135D01*
X148459500Y-58097870D01*
X148459501Y-58097876D01*
X148465908Y-58157483D01*
X148516202Y-58292328D01*
X148516206Y-58292335D01*
X148602452Y-58407544D01*
X148602455Y-58407547D01*
X148717664Y-58493793D01*
X148717671Y-58493797D01*
X148762618Y-58510560D01*
X148852517Y-58544091D01*
X148912127Y-58550500D01*
X148985500Y-58550499D01*
X149052538Y-58570183D01*
X149098294Y-58622986D01*
X149109500Y-58674499D01*
X149109500Y-60896294D01*
X149108191Y-60914263D01*
X149104710Y-60938025D01*
X149109264Y-60990064D01*
X149109500Y-60995470D01*
X149109500Y-61867769D01*
X149089815Y-61934808D01*
X149073181Y-61955450D01*
X148855348Y-62173282D01*
X148794025Y-62206767D01*
X148756861Y-62209129D01*
X148590003Y-62194532D01*
X148589998Y-62194532D01*
X148363313Y-62214364D01*
X148363302Y-62214366D01*
X148143511Y-62273258D01*
X148143502Y-62273261D01*
X147937267Y-62369431D01*
X147937265Y-62369432D01*
X147750858Y-62499954D01*
X147589954Y-62660858D01*
X147459432Y-62847265D01*
X147459431Y-62847267D01*
X147363261Y-63053502D01*
X147363258Y-63053511D01*
X147304366Y-63273302D01*
X147304364Y-63273313D01*
X147284532Y-63499998D01*
X147284532Y-63500001D01*
X139700500Y-63500001D01*
X139700500Y-44828000D01*
X139720185Y-44760961D01*
X139772989Y-44715206D01*
X139824500Y-44704000D01*
X149098000Y-44704000D01*
X149098000Y-35684500D01*
X149117685Y-35617461D01*
X149170489Y-35571706D01*
X149222000Y-35560500D01*
X180978000Y-35560500D01*
X181045039Y-35580185D01*
G37*
%TD.AperFunction*%
%TD*%
M02*
