%TF.GenerationSoftware,KiCad,Pcbnew,7.0.6*%
%TF.CreationDate,2023-07-17T15:49:31+01:00*%
%TF.ProjectId,med_assoc_lick_sens_addon,6d65645f-6173-4736-9f63-5f6c69636b5f,rev?*%
%TF.SameCoordinates,Original*%
%TF.FileFunction,Drillmap*%
%TF.FilePolarity,Positive*%
%FSLAX45Y45*%
G04 Gerber Fmt 4.5, Leading zero omitted, Abs format (unit mm)*
G04 Created by KiCad (PCBNEW 7.0.6) date 2023-07-17 15:49:31*
%MOMM*%
%LPD*%
G01*
G04 APERTURE LIST*
%ADD10C,0.100000*%
%ADD11C,0.200000*%
%ADD12C,0.080000*%
%ADD13C,0.090000*%
%ADD14C,0.110000*%
%ADD15C,0.132000*%
G04 APERTURE END LIST*
D10*
X13970000Y-3556000D02*
X19050000Y-3556000D01*
X19050000Y-8763000D01*
X13970000Y-8763000D01*
X13970000Y-3556000D01*
D11*
D12*
X14819000Y-6310000D02*
X14899000Y-6390000D01*
X14899000Y-6310000D02*
X14819000Y-6390000D01*
X14819000Y-7580000D02*
X14899000Y-7660000D01*
X14899000Y-7580000D02*
X14819000Y-7660000D01*
X15327000Y-6310000D02*
X15407000Y-6390000D01*
X15407000Y-6310000D02*
X15327000Y-6390000D01*
X15327000Y-7580000D02*
X15407000Y-7660000D01*
X15407000Y-7580000D02*
X15327000Y-7660000D01*
X15962000Y-5548000D02*
X16042000Y-5628000D01*
X16042000Y-5548000D02*
X15962000Y-5628000D01*
X15962000Y-5802000D02*
X16042000Y-5882000D01*
X16042000Y-5802000D02*
X15962000Y-5882000D01*
X15962000Y-6056000D02*
X16042000Y-6136000D01*
X16042000Y-6056000D02*
X15962000Y-6136000D01*
X15962000Y-6310000D02*
X16042000Y-6390000D01*
X16042000Y-6310000D02*
X15962000Y-6390000D01*
X16724000Y-5548000D02*
X16804000Y-5628000D01*
X16804000Y-5548000D02*
X16724000Y-5628000D01*
X16724000Y-5802000D02*
X16804000Y-5882000D01*
X16804000Y-5802000D02*
X16724000Y-5882000D01*
X16724000Y-6056000D02*
X16804000Y-6136000D01*
X16804000Y-6056000D02*
X16724000Y-6136000D01*
X16724000Y-6310000D02*
X16804000Y-6390000D01*
X16804000Y-6310000D02*
X16724000Y-6390000D01*
X17359000Y-5421000D02*
X17439000Y-5501000D01*
X17439000Y-5421000D02*
X17359000Y-5501000D01*
X17359000Y-6691000D02*
X17439000Y-6771000D01*
X17439000Y-6691000D02*
X17359000Y-6771000D01*
X17359000Y-7072000D02*
X17439000Y-7152000D01*
X17439000Y-7072000D02*
X17359000Y-7152000D01*
X17359000Y-8342000D02*
X17439000Y-8422000D01*
X17439000Y-8342000D02*
X17359000Y-8422000D01*
X17867000Y-5421000D02*
X17947000Y-5501000D01*
X17947000Y-5421000D02*
X17867000Y-5501000D01*
X17867000Y-6691000D02*
X17947000Y-6771000D01*
X17947000Y-6691000D02*
X17867000Y-6771000D01*
X17867000Y-7072000D02*
X17947000Y-7152000D01*
X17947000Y-7072000D02*
X17867000Y-7152000D01*
X17867000Y-8342000D02*
X17947000Y-8422000D01*
X17947000Y-8342000D02*
X17867000Y-8422000D01*
D13*
X15031000Y-5715000D02*
G75*
G03*
X15031000Y-5715000I-45000J0D01*
G01*
X15285000Y-5715000D02*
G75*
G03*
X15285000Y-5715000I-45000J0D01*
G01*
D14*
X17431500Y-4390000D02*
X17431500Y-4500000D01*
X17376500Y-4445000D02*
X17486500Y-4445000D01*
X17431500Y-4644000D02*
X17431500Y-4754000D01*
X17376500Y-4699000D02*
X17486500Y-4699000D01*
X17431500Y-4898000D02*
X17431500Y-5008000D01*
X17376500Y-4953000D02*
X17486500Y-4953000D01*
D15*
X15421669Y-4364670D02*
X15421669Y-4271331D01*
X15328330Y-4271331D01*
X15328330Y-4364670D01*
X15421669Y-4364670D01*
X15921669Y-4364670D02*
X15921669Y-4271331D01*
X15828330Y-4271331D01*
X15828330Y-4364670D01*
X15921669Y-4364670D01*
X16183669Y-7793669D02*
X16183669Y-7700330D01*
X16090330Y-7700330D01*
X16090330Y-7793669D01*
X16183669Y-7793669D01*
X16421669Y-4364670D02*
X16421669Y-4271331D01*
X16328330Y-4271331D01*
X16328330Y-4364670D01*
X16421669Y-4364670D01*
X16683669Y-7793669D02*
X16683669Y-7700330D01*
X16590330Y-7700330D01*
X16590330Y-7793669D01*
X16683669Y-7793669D01*
D11*
X14225777Y-9079484D02*
X14225777Y-8879484D01*
X14225777Y-8879484D02*
X14273396Y-8879484D01*
X14273396Y-8879484D02*
X14301967Y-8889008D01*
X14301967Y-8889008D02*
X14321015Y-8908055D01*
X14321015Y-8908055D02*
X14330539Y-8927103D01*
X14330539Y-8927103D02*
X14340062Y-8965198D01*
X14340062Y-8965198D02*
X14340062Y-8993770D01*
X14340062Y-8993770D02*
X14330539Y-9031865D01*
X14330539Y-9031865D02*
X14321015Y-9050912D01*
X14321015Y-9050912D02*
X14301967Y-9069960D01*
X14301967Y-9069960D02*
X14273396Y-9079484D01*
X14273396Y-9079484D02*
X14225777Y-9079484D01*
X14425777Y-9079484D02*
X14425777Y-8946150D01*
X14425777Y-8984246D02*
X14435301Y-8965198D01*
X14435301Y-8965198D02*
X14444824Y-8955674D01*
X14444824Y-8955674D02*
X14463872Y-8946150D01*
X14463872Y-8946150D02*
X14482920Y-8946150D01*
X14549586Y-9079484D02*
X14549586Y-8946150D01*
X14549586Y-8879484D02*
X14540062Y-8889008D01*
X14540062Y-8889008D02*
X14549586Y-8898531D01*
X14549586Y-8898531D02*
X14559110Y-8889008D01*
X14559110Y-8889008D02*
X14549586Y-8879484D01*
X14549586Y-8879484D02*
X14549586Y-8898531D01*
X14673396Y-9079484D02*
X14654348Y-9069960D01*
X14654348Y-9069960D02*
X14644824Y-9050912D01*
X14644824Y-9050912D02*
X14644824Y-8879484D01*
X14778158Y-9079484D02*
X14759110Y-9069960D01*
X14759110Y-9069960D02*
X14749586Y-9050912D01*
X14749586Y-9050912D02*
X14749586Y-8879484D01*
X15006729Y-9079484D02*
X15006729Y-8879484D01*
X15006729Y-8879484D02*
X15073396Y-9022341D01*
X15073396Y-9022341D02*
X15140062Y-8879484D01*
X15140062Y-8879484D02*
X15140062Y-9079484D01*
X15321015Y-9079484D02*
X15321015Y-8974722D01*
X15321015Y-8974722D02*
X15311491Y-8955674D01*
X15311491Y-8955674D02*
X15292443Y-8946150D01*
X15292443Y-8946150D02*
X15254348Y-8946150D01*
X15254348Y-8946150D02*
X15235301Y-8955674D01*
X15321015Y-9069960D02*
X15301967Y-9079484D01*
X15301967Y-9079484D02*
X15254348Y-9079484D01*
X15254348Y-9079484D02*
X15235301Y-9069960D01*
X15235301Y-9069960D02*
X15225777Y-9050912D01*
X15225777Y-9050912D02*
X15225777Y-9031865D01*
X15225777Y-9031865D02*
X15235301Y-9012817D01*
X15235301Y-9012817D02*
X15254348Y-9003293D01*
X15254348Y-9003293D02*
X15301967Y-9003293D01*
X15301967Y-9003293D02*
X15321015Y-8993770D01*
X15416253Y-8946150D02*
X15416253Y-9146150D01*
X15416253Y-8955674D02*
X15435301Y-8946150D01*
X15435301Y-8946150D02*
X15473396Y-8946150D01*
X15473396Y-8946150D02*
X15492443Y-8955674D01*
X15492443Y-8955674D02*
X15501967Y-8965198D01*
X15501967Y-8965198D02*
X15511491Y-8984246D01*
X15511491Y-8984246D02*
X15511491Y-9041389D01*
X15511491Y-9041389D02*
X15501967Y-9060436D01*
X15501967Y-9060436D02*
X15492443Y-9069960D01*
X15492443Y-9069960D02*
X15473396Y-9079484D01*
X15473396Y-9079484D02*
X15435301Y-9079484D01*
X15435301Y-9079484D02*
X15416253Y-9069960D01*
X15597205Y-9060436D02*
X15606729Y-9069960D01*
X15606729Y-9069960D02*
X15597205Y-9079484D01*
X15597205Y-9079484D02*
X15587682Y-9069960D01*
X15587682Y-9069960D02*
X15597205Y-9060436D01*
X15597205Y-9060436D02*
X15597205Y-9079484D01*
X15597205Y-8955674D02*
X15606729Y-8965198D01*
X15606729Y-8965198D02*
X15597205Y-8974722D01*
X15597205Y-8974722D02*
X15587682Y-8965198D01*
X15587682Y-8965198D02*
X15597205Y-8955674D01*
X15597205Y-8955674D02*
X15597205Y-8974722D01*
D12*
X13885000Y-9368000D02*
X13965000Y-9448000D01*
X13965000Y-9368000D02*
X13885000Y-9448000D01*
D11*
X14263872Y-9299484D02*
X14282920Y-9299484D01*
X14282920Y-9299484D02*
X14301967Y-9309008D01*
X14301967Y-9309008D02*
X14311491Y-9318531D01*
X14311491Y-9318531D02*
X14321015Y-9337579D01*
X14321015Y-9337579D02*
X14330539Y-9375674D01*
X14330539Y-9375674D02*
X14330539Y-9423293D01*
X14330539Y-9423293D02*
X14321015Y-9461389D01*
X14321015Y-9461389D02*
X14311491Y-9480436D01*
X14311491Y-9480436D02*
X14301967Y-9489960D01*
X14301967Y-9489960D02*
X14282920Y-9499484D01*
X14282920Y-9499484D02*
X14263872Y-9499484D01*
X14263872Y-9499484D02*
X14244824Y-9489960D01*
X14244824Y-9489960D02*
X14235301Y-9480436D01*
X14235301Y-9480436D02*
X14225777Y-9461389D01*
X14225777Y-9461389D02*
X14216253Y-9423293D01*
X14216253Y-9423293D02*
X14216253Y-9375674D01*
X14216253Y-9375674D02*
X14225777Y-9337579D01*
X14225777Y-9337579D02*
X14235301Y-9318531D01*
X14235301Y-9318531D02*
X14244824Y-9309008D01*
X14244824Y-9309008D02*
X14263872Y-9299484D01*
X14416253Y-9480436D02*
X14425777Y-9489960D01*
X14425777Y-9489960D02*
X14416253Y-9499484D01*
X14416253Y-9499484D02*
X14406729Y-9489960D01*
X14406729Y-9489960D02*
X14416253Y-9480436D01*
X14416253Y-9480436D02*
X14416253Y-9499484D01*
X14540062Y-9385198D02*
X14521015Y-9375674D01*
X14521015Y-9375674D02*
X14511491Y-9366150D01*
X14511491Y-9366150D02*
X14501967Y-9347103D01*
X14501967Y-9347103D02*
X14501967Y-9337579D01*
X14501967Y-9337579D02*
X14511491Y-9318531D01*
X14511491Y-9318531D02*
X14521015Y-9309008D01*
X14521015Y-9309008D02*
X14540062Y-9299484D01*
X14540062Y-9299484D02*
X14578158Y-9299484D01*
X14578158Y-9299484D02*
X14597205Y-9309008D01*
X14597205Y-9309008D02*
X14606729Y-9318531D01*
X14606729Y-9318531D02*
X14616253Y-9337579D01*
X14616253Y-9337579D02*
X14616253Y-9347103D01*
X14616253Y-9347103D02*
X14606729Y-9366150D01*
X14606729Y-9366150D02*
X14597205Y-9375674D01*
X14597205Y-9375674D02*
X14578158Y-9385198D01*
X14578158Y-9385198D02*
X14540062Y-9385198D01*
X14540062Y-9385198D02*
X14521015Y-9394722D01*
X14521015Y-9394722D02*
X14511491Y-9404246D01*
X14511491Y-9404246D02*
X14501967Y-9423293D01*
X14501967Y-9423293D02*
X14501967Y-9461389D01*
X14501967Y-9461389D02*
X14511491Y-9480436D01*
X14511491Y-9480436D02*
X14521015Y-9489960D01*
X14521015Y-9489960D02*
X14540062Y-9499484D01*
X14540062Y-9499484D02*
X14578158Y-9499484D01*
X14578158Y-9499484D02*
X14597205Y-9489960D01*
X14597205Y-9489960D02*
X14606729Y-9480436D01*
X14606729Y-9480436D02*
X14616253Y-9461389D01*
X14616253Y-9461389D02*
X14616253Y-9423293D01*
X14616253Y-9423293D02*
X14606729Y-9404246D01*
X14606729Y-9404246D02*
X14597205Y-9394722D01*
X14597205Y-9394722D02*
X14578158Y-9385198D01*
X14740062Y-9299484D02*
X14759110Y-9299484D01*
X14759110Y-9299484D02*
X14778158Y-9309008D01*
X14778158Y-9309008D02*
X14787682Y-9318531D01*
X14787682Y-9318531D02*
X14797205Y-9337579D01*
X14797205Y-9337579D02*
X14806729Y-9375674D01*
X14806729Y-9375674D02*
X14806729Y-9423293D01*
X14806729Y-9423293D02*
X14797205Y-9461389D01*
X14797205Y-9461389D02*
X14787682Y-9480436D01*
X14787682Y-9480436D02*
X14778158Y-9489960D01*
X14778158Y-9489960D02*
X14759110Y-9499484D01*
X14759110Y-9499484D02*
X14740062Y-9499484D01*
X14740062Y-9499484D02*
X14721015Y-9489960D01*
X14721015Y-9489960D02*
X14711491Y-9480436D01*
X14711491Y-9480436D02*
X14701967Y-9461389D01*
X14701967Y-9461389D02*
X14692443Y-9423293D01*
X14692443Y-9423293D02*
X14692443Y-9375674D01*
X14692443Y-9375674D02*
X14701967Y-9337579D01*
X14701967Y-9337579D02*
X14711491Y-9318531D01*
X14711491Y-9318531D02*
X14721015Y-9309008D01*
X14721015Y-9309008D02*
X14740062Y-9299484D01*
X14930539Y-9299484D02*
X14949586Y-9299484D01*
X14949586Y-9299484D02*
X14968634Y-9309008D01*
X14968634Y-9309008D02*
X14978158Y-9318531D01*
X14978158Y-9318531D02*
X14987682Y-9337579D01*
X14987682Y-9337579D02*
X14997205Y-9375674D01*
X14997205Y-9375674D02*
X14997205Y-9423293D01*
X14997205Y-9423293D02*
X14987682Y-9461389D01*
X14987682Y-9461389D02*
X14978158Y-9480436D01*
X14978158Y-9480436D02*
X14968634Y-9489960D01*
X14968634Y-9489960D02*
X14949586Y-9499484D01*
X14949586Y-9499484D02*
X14930539Y-9499484D01*
X14930539Y-9499484D02*
X14911491Y-9489960D01*
X14911491Y-9489960D02*
X14901967Y-9480436D01*
X14901967Y-9480436D02*
X14892443Y-9461389D01*
X14892443Y-9461389D02*
X14882920Y-9423293D01*
X14882920Y-9423293D02*
X14882920Y-9375674D01*
X14882920Y-9375674D02*
X14892443Y-9337579D01*
X14892443Y-9337579D02*
X14901967Y-9318531D01*
X14901967Y-9318531D02*
X14911491Y-9309008D01*
X14911491Y-9309008D02*
X14930539Y-9299484D01*
X15082920Y-9499484D02*
X15082920Y-9366150D01*
X15082920Y-9385198D02*
X15092443Y-9375674D01*
X15092443Y-9375674D02*
X15111491Y-9366150D01*
X15111491Y-9366150D02*
X15140063Y-9366150D01*
X15140063Y-9366150D02*
X15159110Y-9375674D01*
X15159110Y-9375674D02*
X15168634Y-9394722D01*
X15168634Y-9394722D02*
X15168634Y-9499484D01*
X15168634Y-9394722D02*
X15178158Y-9375674D01*
X15178158Y-9375674D02*
X15197205Y-9366150D01*
X15197205Y-9366150D02*
X15225777Y-9366150D01*
X15225777Y-9366150D02*
X15244824Y-9375674D01*
X15244824Y-9375674D02*
X15254348Y-9394722D01*
X15254348Y-9394722D02*
X15254348Y-9499484D01*
X15349586Y-9499484D02*
X15349586Y-9366150D01*
X15349586Y-9385198D02*
X15359110Y-9375674D01*
X15359110Y-9375674D02*
X15378158Y-9366150D01*
X15378158Y-9366150D02*
X15406729Y-9366150D01*
X15406729Y-9366150D02*
X15425777Y-9375674D01*
X15425777Y-9375674D02*
X15435301Y-9394722D01*
X15435301Y-9394722D02*
X15435301Y-9499484D01*
X15435301Y-9394722D02*
X15444824Y-9375674D01*
X15444824Y-9375674D02*
X15463872Y-9366150D01*
X15463872Y-9366150D02*
X15492443Y-9366150D01*
X15492443Y-9366150D02*
X15511491Y-9375674D01*
X15511491Y-9375674D02*
X15521015Y-9394722D01*
X15521015Y-9394722D02*
X15521015Y-9499484D01*
X15911491Y-9289960D02*
X15740063Y-9547103D01*
X16168634Y-9299484D02*
X16187682Y-9299484D01*
X16187682Y-9299484D02*
X16206729Y-9309008D01*
X16206729Y-9309008D02*
X16216253Y-9318531D01*
X16216253Y-9318531D02*
X16225777Y-9337579D01*
X16225777Y-9337579D02*
X16235301Y-9375674D01*
X16235301Y-9375674D02*
X16235301Y-9423293D01*
X16235301Y-9423293D02*
X16225777Y-9461389D01*
X16225777Y-9461389D02*
X16216253Y-9480436D01*
X16216253Y-9480436D02*
X16206729Y-9489960D01*
X16206729Y-9489960D02*
X16187682Y-9499484D01*
X16187682Y-9499484D02*
X16168634Y-9499484D01*
X16168634Y-9499484D02*
X16149586Y-9489960D01*
X16149586Y-9489960D02*
X16140063Y-9480436D01*
X16140063Y-9480436D02*
X16130539Y-9461389D01*
X16130539Y-9461389D02*
X16121015Y-9423293D01*
X16121015Y-9423293D02*
X16121015Y-9375674D01*
X16121015Y-9375674D02*
X16130539Y-9337579D01*
X16130539Y-9337579D02*
X16140063Y-9318531D01*
X16140063Y-9318531D02*
X16149586Y-9309008D01*
X16149586Y-9309008D02*
X16168634Y-9299484D01*
X16321015Y-9480436D02*
X16330539Y-9489960D01*
X16330539Y-9489960D02*
X16321015Y-9499484D01*
X16321015Y-9499484D02*
X16311491Y-9489960D01*
X16311491Y-9489960D02*
X16321015Y-9480436D01*
X16321015Y-9480436D02*
X16321015Y-9499484D01*
X16454348Y-9299484D02*
X16473396Y-9299484D01*
X16473396Y-9299484D02*
X16492444Y-9309008D01*
X16492444Y-9309008D02*
X16501967Y-9318531D01*
X16501967Y-9318531D02*
X16511491Y-9337579D01*
X16511491Y-9337579D02*
X16521015Y-9375674D01*
X16521015Y-9375674D02*
X16521015Y-9423293D01*
X16521015Y-9423293D02*
X16511491Y-9461389D01*
X16511491Y-9461389D02*
X16501967Y-9480436D01*
X16501967Y-9480436D02*
X16492444Y-9489960D01*
X16492444Y-9489960D02*
X16473396Y-9499484D01*
X16473396Y-9499484D02*
X16454348Y-9499484D01*
X16454348Y-9499484D02*
X16435301Y-9489960D01*
X16435301Y-9489960D02*
X16425777Y-9480436D01*
X16425777Y-9480436D02*
X16416253Y-9461389D01*
X16416253Y-9461389D02*
X16406729Y-9423293D01*
X16406729Y-9423293D02*
X16406729Y-9375674D01*
X16406729Y-9375674D02*
X16416253Y-9337579D01*
X16416253Y-9337579D02*
X16425777Y-9318531D01*
X16425777Y-9318531D02*
X16435301Y-9309008D01*
X16435301Y-9309008D02*
X16454348Y-9299484D01*
X16587682Y-9299484D02*
X16711491Y-9299484D01*
X16711491Y-9299484D02*
X16644825Y-9375674D01*
X16644825Y-9375674D02*
X16673396Y-9375674D01*
X16673396Y-9375674D02*
X16692444Y-9385198D01*
X16692444Y-9385198D02*
X16701967Y-9394722D01*
X16701967Y-9394722D02*
X16711491Y-9413770D01*
X16711491Y-9413770D02*
X16711491Y-9461389D01*
X16711491Y-9461389D02*
X16701967Y-9480436D01*
X16701967Y-9480436D02*
X16692444Y-9489960D01*
X16692444Y-9489960D02*
X16673396Y-9499484D01*
X16673396Y-9499484D02*
X16616253Y-9499484D01*
X16616253Y-9499484D02*
X16597206Y-9489960D01*
X16597206Y-9489960D02*
X16587682Y-9480436D01*
X16901968Y-9499484D02*
X16787682Y-9499484D01*
X16844825Y-9499484D02*
X16844825Y-9299484D01*
X16844825Y-9299484D02*
X16825777Y-9328055D01*
X16825777Y-9328055D02*
X16806729Y-9347103D01*
X16806729Y-9347103D02*
X16787682Y-9356627D01*
X17082920Y-9299484D02*
X16987682Y-9299484D01*
X16987682Y-9299484D02*
X16978158Y-9394722D01*
X16978158Y-9394722D02*
X16987682Y-9385198D01*
X16987682Y-9385198D02*
X17006729Y-9375674D01*
X17006729Y-9375674D02*
X17054349Y-9375674D01*
X17054349Y-9375674D02*
X17073396Y-9385198D01*
X17073396Y-9385198D02*
X17082920Y-9394722D01*
X17082920Y-9394722D02*
X17092444Y-9413770D01*
X17092444Y-9413770D02*
X17092444Y-9461389D01*
X17092444Y-9461389D02*
X17082920Y-9480436D01*
X17082920Y-9480436D02*
X17073396Y-9489960D01*
X17073396Y-9489960D02*
X17054349Y-9499484D01*
X17054349Y-9499484D02*
X17006729Y-9499484D01*
X17006729Y-9499484D02*
X16987682Y-9489960D01*
X16987682Y-9489960D02*
X16978158Y-9480436D01*
X17168634Y-9299484D02*
X17168634Y-9337579D01*
X17244825Y-9299484D02*
X17244825Y-9337579D01*
X17540063Y-9575674D02*
X17530539Y-9566150D01*
X17530539Y-9566150D02*
X17511491Y-9537579D01*
X17511491Y-9537579D02*
X17501968Y-9518531D01*
X17501968Y-9518531D02*
X17492444Y-9489960D01*
X17492444Y-9489960D02*
X17482920Y-9442341D01*
X17482920Y-9442341D02*
X17482920Y-9404246D01*
X17482920Y-9404246D02*
X17492444Y-9356627D01*
X17492444Y-9356627D02*
X17501968Y-9328055D01*
X17501968Y-9328055D02*
X17511491Y-9309008D01*
X17511491Y-9309008D02*
X17530539Y-9280436D01*
X17530539Y-9280436D02*
X17540063Y-9270912D01*
X17606730Y-9318531D02*
X17616253Y-9309008D01*
X17616253Y-9309008D02*
X17635301Y-9299484D01*
X17635301Y-9299484D02*
X17682920Y-9299484D01*
X17682920Y-9299484D02*
X17701968Y-9309008D01*
X17701968Y-9309008D02*
X17711491Y-9318531D01*
X17711491Y-9318531D02*
X17721015Y-9337579D01*
X17721015Y-9337579D02*
X17721015Y-9356627D01*
X17721015Y-9356627D02*
X17711491Y-9385198D01*
X17711491Y-9385198D02*
X17597206Y-9499484D01*
X17597206Y-9499484D02*
X17721015Y-9499484D01*
X17844825Y-9299484D02*
X17863872Y-9299484D01*
X17863872Y-9299484D02*
X17882920Y-9309008D01*
X17882920Y-9309008D02*
X17892444Y-9318531D01*
X17892444Y-9318531D02*
X17901968Y-9337579D01*
X17901968Y-9337579D02*
X17911491Y-9375674D01*
X17911491Y-9375674D02*
X17911491Y-9423293D01*
X17911491Y-9423293D02*
X17901968Y-9461389D01*
X17901968Y-9461389D02*
X17892444Y-9480436D01*
X17892444Y-9480436D02*
X17882920Y-9489960D01*
X17882920Y-9489960D02*
X17863872Y-9499484D01*
X17863872Y-9499484D02*
X17844825Y-9499484D01*
X17844825Y-9499484D02*
X17825777Y-9489960D01*
X17825777Y-9489960D02*
X17816253Y-9480436D01*
X17816253Y-9480436D02*
X17806730Y-9461389D01*
X17806730Y-9461389D02*
X17797206Y-9423293D01*
X17797206Y-9423293D02*
X17797206Y-9375674D01*
X17797206Y-9375674D02*
X17806730Y-9337579D01*
X17806730Y-9337579D02*
X17816253Y-9318531D01*
X17816253Y-9318531D02*
X17825777Y-9309008D01*
X17825777Y-9309008D02*
X17844825Y-9299484D01*
X18149587Y-9499484D02*
X18149587Y-9299484D01*
X18235301Y-9499484D02*
X18235301Y-9394722D01*
X18235301Y-9394722D02*
X18225777Y-9375674D01*
X18225777Y-9375674D02*
X18206730Y-9366150D01*
X18206730Y-9366150D02*
X18178158Y-9366150D01*
X18178158Y-9366150D02*
X18159111Y-9375674D01*
X18159111Y-9375674D02*
X18149587Y-9385198D01*
X18359111Y-9499484D02*
X18340063Y-9489960D01*
X18340063Y-9489960D02*
X18330539Y-9480436D01*
X18330539Y-9480436D02*
X18321015Y-9461389D01*
X18321015Y-9461389D02*
X18321015Y-9404246D01*
X18321015Y-9404246D02*
X18330539Y-9385198D01*
X18330539Y-9385198D02*
X18340063Y-9375674D01*
X18340063Y-9375674D02*
X18359111Y-9366150D01*
X18359111Y-9366150D02*
X18387682Y-9366150D01*
X18387682Y-9366150D02*
X18406730Y-9375674D01*
X18406730Y-9375674D02*
X18416253Y-9385198D01*
X18416253Y-9385198D02*
X18425777Y-9404246D01*
X18425777Y-9404246D02*
X18425777Y-9461389D01*
X18425777Y-9461389D02*
X18416253Y-9480436D01*
X18416253Y-9480436D02*
X18406730Y-9489960D01*
X18406730Y-9489960D02*
X18387682Y-9499484D01*
X18387682Y-9499484D02*
X18359111Y-9499484D01*
X18540063Y-9499484D02*
X18521015Y-9489960D01*
X18521015Y-9489960D02*
X18511492Y-9470912D01*
X18511492Y-9470912D02*
X18511492Y-9299484D01*
X18692444Y-9489960D02*
X18673396Y-9499484D01*
X18673396Y-9499484D02*
X18635301Y-9499484D01*
X18635301Y-9499484D02*
X18616253Y-9489960D01*
X18616253Y-9489960D02*
X18606730Y-9470912D01*
X18606730Y-9470912D02*
X18606730Y-9394722D01*
X18606730Y-9394722D02*
X18616253Y-9375674D01*
X18616253Y-9375674D02*
X18635301Y-9366150D01*
X18635301Y-9366150D02*
X18673396Y-9366150D01*
X18673396Y-9366150D02*
X18692444Y-9375674D01*
X18692444Y-9375674D02*
X18701968Y-9394722D01*
X18701968Y-9394722D02*
X18701968Y-9413770D01*
X18701968Y-9413770D02*
X18606730Y-9432817D01*
X18778158Y-9489960D02*
X18797206Y-9499484D01*
X18797206Y-9499484D02*
X18835301Y-9499484D01*
X18835301Y-9499484D02*
X18854349Y-9489960D01*
X18854349Y-9489960D02*
X18863873Y-9470912D01*
X18863873Y-9470912D02*
X18863873Y-9461389D01*
X18863873Y-9461389D02*
X18854349Y-9442341D01*
X18854349Y-9442341D02*
X18835301Y-9432817D01*
X18835301Y-9432817D02*
X18806730Y-9432817D01*
X18806730Y-9432817D02*
X18787682Y-9423293D01*
X18787682Y-9423293D02*
X18778158Y-9404246D01*
X18778158Y-9404246D02*
X18778158Y-9394722D01*
X18778158Y-9394722D02*
X18787682Y-9375674D01*
X18787682Y-9375674D02*
X18806730Y-9366150D01*
X18806730Y-9366150D02*
X18835301Y-9366150D01*
X18835301Y-9366150D02*
X18854349Y-9375674D01*
X18930539Y-9575674D02*
X18940063Y-9566150D01*
X18940063Y-9566150D02*
X18959111Y-9537579D01*
X18959111Y-9537579D02*
X18968634Y-9518531D01*
X18968634Y-9518531D02*
X18978158Y-9489960D01*
X18978158Y-9489960D02*
X18987682Y-9442341D01*
X18987682Y-9442341D02*
X18987682Y-9404246D01*
X18987682Y-9404246D02*
X18978158Y-9356627D01*
X18978158Y-9356627D02*
X18968634Y-9328055D01*
X18968634Y-9328055D02*
X18959111Y-9309008D01*
X18959111Y-9309008D02*
X18940063Y-9280436D01*
X18940063Y-9280436D02*
X18930539Y-9270912D01*
D13*
X13965000Y-9672000D02*
G75*
G03*
X13965000Y-9672000I-45000J0D01*
G01*
D11*
X14263872Y-9563484D02*
X14282920Y-9563484D01*
X14282920Y-9563484D02*
X14301967Y-9573008D01*
X14301967Y-9573008D02*
X14311491Y-9582531D01*
X14311491Y-9582531D02*
X14321015Y-9601579D01*
X14321015Y-9601579D02*
X14330539Y-9639674D01*
X14330539Y-9639674D02*
X14330539Y-9687293D01*
X14330539Y-9687293D02*
X14321015Y-9725389D01*
X14321015Y-9725389D02*
X14311491Y-9744436D01*
X14311491Y-9744436D02*
X14301967Y-9753960D01*
X14301967Y-9753960D02*
X14282920Y-9763484D01*
X14282920Y-9763484D02*
X14263872Y-9763484D01*
X14263872Y-9763484D02*
X14244824Y-9753960D01*
X14244824Y-9753960D02*
X14235301Y-9744436D01*
X14235301Y-9744436D02*
X14225777Y-9725389D01*
X14225777Y-9725389D02*
X14216253Y-9687293D01*
X14216253Y-9687293D02*
X14216253Y-9639674D01*
X14216253Y-9639674D02*
X14225777Y-9601579D01*
X14225777Y-9601579D02*
X14235301Y-9582531D01*
X14235301Y-9582531D02*
X14244824Y-9573008D01*
X14244824Y-9573008D02*
X14263872Y-9563484D01*
X14416253Y-9744436D02*
X14425777Y-9753960D01*
X14425777Y-9753960D02*
X14416253Y-9763484D01*
X14416253Y-9763484D02*
X14406729Y-9753960D01*
X14406729Y-9753960D02*
X14416253Y-9744436D01*
X14416253Y-9744436D02*
X14416253Y-9763484D01*
X14521015Y-9763484D02*
X14559110Y-9763484D01*
X14559110Y-9763484D02*
X14578158Y-9753960D01*
X14578158Y-9753960D02*
X14587682Y-9744436D01*
X14587682Y-9744436D02*
X14606729Y-9715865D01*
X14606729Y-9715865D02*
X14616253Y-9677770D01*
X14616253Y-9677770D02*
X14616253Y-9601579D01*
X14616253Y-9601579D02*
X14606729Y-9582531D01*
X14606729Y-9582531D02*
X14597205Y-9573008D01*
X14597205Y-9573008D02*
X14578158Y-9563484D01*
X14578158Y-9563484D02*
X14540062Y-9563484D01*
X14540062Y-9563484D02*
X14521015Y-9573008D01*
X14521015Y-9573008D02*
X14511491Y-9582531D01*
X14511491Y-9582531D02*
X14501967Y-9601579D01*
X14501967Y-9601579D02*
X14501967Y-9649198D01*
X14501967Y-9649198D02*
X14511491Y-9668246D01*
X14511491Y-9668246D02*
X14521015Y-9677770D01*
X14521015Y-9677770D02*
X14540062Y-9687293D01*
X14540062Y-9687293D02*
X14578158Y-9687293D01*
X14578158Y-9687293D02*
X14597205Y-9677770D01*
X14597205Y-9677770D02*
X14606729Y-9668246D01*
X14606729Y-9668246D02*
X14616253Y-9649198D01*
X14740062Y-9563484D02*
X14759110Y-9563484D01*
X14759110Y-9563484D02*
X14778158Y-9573008D01*
X14778158Y-9573008D02*
X14787682Y-9582531D01*
X14787682Y-9582531D02*
X14797205Y-9601579D01*
X14797205Y-9601579D02*
X14806729Y-9639674D01*
X14806729Y-9639674D02*
X14806729Y-9687293D01*
X14806729Y-9687293D02*
X14797205Y-9725389D01*
X14797205Y-9725389D02*
X14787682Y-9744436D01*
X14787682Y-9744436D02*
X14778158Y-9753960D01*
X14778158Y-9753960D02*
X14759110Y-9763484D01*
X14759110Y-9763484D02*
X14740062Y-9763484D01*
X14740062Y-9763484D02*
X14721015Y-9753960D01*
X14721015Y-9753960D02*
X14711491Y-9744436D01*
X14711491Y-9744436D02*
X14701967Y-9725389D01*
X14701967Y-9725389D02*
X14692443Y-9687293D01*
X14692443Y-9687293D02*
X14692443Y-9639674D01*
X14692443Y-9639674D02*
X14701967Y-9601579D01*
X14701967Y-9601579D02*
X14711491Y-9582531D01*
X14711491Y-9582531D02*
X14721015Y-9573008D01*
X14721015Y-9573008D02*
X14740062Y-9563484D01*
X14930539Y-9563484D02*
X14949586Y-9563484D01*
X14949586Y-9563484D02*
X14968634Y-9573008D01*
X14968634Y-9573008D02*
X14978158Y-9582531D01*
X14978158Y-9582531D02*
X14987682Y-9601579D01*
X14987682Y-9601579D02*
X14997205Y-9639674D01*
X14997205Y-9639674D02*
X14997205Y-9687293D01*
X14997205Y-9687293D02*
X14987682Y-9725389D01*
X14987682Y-9725389D02*
X14978158Y-9744436D01*
X14978158Y-9744436D02*
X14968634Y-9753960D01*
X14968634Y-9753960D02*
X14949586Y-9763484D01*
X14949586Y-9763484D02*
X14930539Y-9763484D01*
X14930539Y-9763484D02*
X14911491Y-9753960D01*
X14911491Y-9753960D02*
X14901967Y-9744436D01*
X14901967Y-9744436D02*
X14892443Y-9725389D01*
X14892443Y-9725389D02*
X14882920Y-9687293D01*
X14882920Y-9687293D02*
X14882920Y-9639674D01*
X14882920Y-9639674D02*
X14892443Y-9601579D01*
X14892443Y-9601579D02*
X14901967Y-9582531D01*
X14901967Y-9582531D02*
X14911491Y-9573008D01*
X14911491Y-9573008D02*
X14930539Y-9563484D01*
X15082920Y-9763484D02*
X15082920Y-9630150D01*
X15082920Y-9649198D02*
X15092443Y-9639674D01*
X15092443Y-9639674D02*
X15111491Y-9630150D01*
X15111491Y-9630150D02*
X15140063Y-9630150D01*
X15140063Y-9630150D02*
X15159110Y-9639674D01*
X15159110Y-9639674D02*
X15168634Y-9658722D01*
X15168634Y-9658722D02*
X15168634Y-9763484D01*
X15168634Y-9658722D02*
X15178158Y-9639674D01*
X15178158Y-9639674D02*
X15197205Y-9630150D01*
X15197205Y-9630150D02*
X15225777Y-9630150D01*
X15225777Y-9630150D02*
X15244824Y-9639674D01*
X15244824Y-9639674D02*
X15254348Y-9658722D01*
X15254348Y-9658722D02*
X15254348Y-9763484D01*
X15349586Y-9763484D02*
X15349586Y-9630150D01*
X15349586Y-9649198D02*
X15359110Y-9639674D01*
X15359110Y-9639674D02*
X15378158Y-9630150D01*
X15378158Y-9630150D02*
X15406729Y-9630150D01*
X15406729Y-9630150D02*
X15425777Y-9639674D01*
X15425777Y-9639674D02*
X15435301Y-9658722D01*
X15435301Y-9658722D02*
X15435301Y-9763484D01*
X15435301Y-9658722D02*
X15444824Y-9639674D01*
X15444824Y-9639674D02*
X15463872Y-9630150D01*
X15463872Y-9630150D02*
X15492443Y-9630150D01*
X15492443Y-9630150D02*
X15511491Y-9639674D01*
X15511491Y-9639674D02*
X15521015Y-9658722D01*
X15521015Y-9658722D02*
X15521015Y-9763484D01*
X15911491Y-9553960D02*
X15740063Y-9811103D01*
X16168634Y-9563484D02*
X16187682Y-9563484D01*
X16187682Y-9563484D02*
X16206729Y-9573008D01*
X16206729Y-9573008D02*
X16216253Y-9582531D01*
X16216253Y-9582531D02*
X16225777Y-9601579D01*
X16225777Y-9601579D02*
X16235301Y-9639674D01*
X16235301Y-9639674D02*
X16235301Y-9687293D01*
X16235301Y-9687293D02*
X16225777Y-9725389D01*
X16225777Y-9725389D02*
X16216253Y-9744436D01*
X16216253Y-9744436D02*
X16206729Y-9753960D01*
X16206729Y-9753960D02*
X16187682Y-9763484D01*
X16187682Y-9763484D02*
X16168634Y-9763484D01*
X16168634Y-9763484D02*
X16149586Y-9753960D01*
X16149586Y-9753960D02*
X16140063Y-9744436D01*
X16140063Y-9744436D02*
X16130539Y-9725389D01*
X16130539Y-9725389D02*
X16121015Y-9687293D01*
X16121015Y-9687293D02*
X16121015Y-9639674D01*
X16121015Y-9639674D02*
X16130539Y-9601579D01*
X16130539Y-9601579D02*
X16140063Y-9582531D01*
X16140063Y-9582531D02*
X16149586Y-9573008D01*
X16149586Y-9573008D02*
X16168634Y-9563484D01*
X16321015Y-9744436D02*
X16330539Y-9753960D01*
X16330539Y-9753960D02*
X16321015Y-9763484D01*
X16321015Y-9763484D02*
X16311491Y-9753960D01*
X16311491Y-9753960D02*
X16321015Y-9744436D01*
X16321015Y-9744436D02*
X16321015Y-9763484D01*
X16454348Y-9563484D02*
X16473396Y-9563484D01*
X16473396Y-9563484D02*
X16492444Y-9573008D01*
X16492444Y-9573008D02*
X16501967Y-9582531D01*
X16501967Y-9582531D02*
X16511491Y-9601579D01*
X16511491Y-9601579D02*
X16521015Y-9639674D01*
X16521015Y-9639674D02*
X16521015Y-9687293D01*
X16521015Y-9687293D02*
X16511491Y-9725389D01*
X16511491Y-9725389D02*
X16501967Y-9744436D01*
X16501967Y-9744436D02*
X16492444Y-9753960D01*
X16492444Y-9753960D02*
X16473396Y-9763484D01*
X16473396Y-9763484D02*
X16454348Y-9763484D01*
X16454348Y-9763484D02*
X16435301Y-9753960D01*
X16435301Y-9753960D02*
X16425777Y-9744436D01*
X16425777Y-9744436D02*
X16416253Y-9725389D01*
X16416253Y-9725389D02*
X16406729Y-9687293D01*
X16406729Y-9687293D02*
X16406729Y-9639674D01*
X16406729Y-9639674D02*
X16416253Y-9601579D01*
X16416253Y-9601579D02*
X16425777Y-9582531D01*
X16425777Y-9582531D02*
X16435301Y-9573008D01*
X16435301Y-9573008D02*
X16454348Y-9563484D01*
X16587682Y-9563484D02*
X16711491Y-9563484D01*
X16711491Y-9563484D02*
X16644825Y-9639674D01*
X16644825Y-9639674D02*
X16673396Y-9639674D01*
X16673396Y-9639674D02*
X16692444Y-9649198D01*
X16692444Y-9649198D02*
X16701967Y-9658722D01*
X16701967Y-9658722D02*
X16711491Y-9677770D01*
X16711491Y-9677770D02*
X16711491Y-9725389D01*
X16711491Y-9725389D02*
X16701967Y-9744436D01*
X16701967Y-9744436D02*
X16692444Y-9753960D01*
X16692444Y-9753960D02*
X16673396Y-9763484D01*
X16673396Y-9763484D02*
X16616253Y-9763484D01*
X16616253Y-9763484D02*
X16597206Y-9753960D01*
X16597206Y-9753960D02*
X16587682Y-9744436D01*
X16892444Y-9563484D02*
X16797206Y-9563484D01*
X16797206Y-9563484D02*
X16787682Y-9658722D01*
X16787682Y-9658722D02*
X16797206Y-9649198D01*
X16797206Y-9649198D02*
X16816253Y-9639674D01*
X16816253Y-9639674D02*
X16863872Y-9639674D01*
X16863872Y-9639674D02*
X16882920Y-9649198D01*
X16882920Y-9649198D02*
X16892444Y-9658722D01*
X16892444Y-9658722D02*
X16901968Y-9677770D01*
X16901968Y-9677770D02*
X16901968Y-9725389D01*
X16901968Y-9725389D02*
X16892444Y-9744436D01*
X16892444Y-9744436D02*
X16882920Y-9753960D01*
X16882920Y-9753960D02*
X16863872Y-9763484D01*
X16863872Y-9763484D02*
X16816253Y-9763484D01*
X16816253Y-9763484D02*
X16797206Y-9753960D01*
X16797206Y-9753960D02*
X16787682Y-9744436D01*
X17073396Y-9630150D02*
X17073396Y-9763484D01*
X17025777Y-9553960D02*
X16978158Y-9696817D01*
X16978158Y-9696817D02*
X17101968Y-9696817D01*
X17168634Y-9563484D02*
X17168634Y-9601579D01*
X17244825Y-9563484D02*
X17244825Y-9601579D01*
X17540063Y-9839674D02*
X17530539Y-9830150D01*
X17530539Y-9830150D02*
X17511491Y-9801579D01*
X17511491Y-9801579D02*
X17501968Y-9782531D01*
X17501968Y-9782531D02*
X17492444Y-9753960D01*
X17492444Y-9753960D02*
X17482920Y-9706341D01*
X17482920Y-9706341D02*
X17482920Y-9668246D01*
X17482920Y-9668246D02*
X17492444Y-9620627D01*
X17492444Y-9620627D02*
X17501968Y-9592055D01*
X17501968Y-9592055D02*
X17511491Y-9573008D01*
X17511491Y-9573008D02*
X17530539Y-9544436D01*
X17530539Y-9544436D02*
X17540063Y-9534912D01*
X17606730Y-9582531D02*
X17616253Y-9573008D01*
X17616253Y-9573008D02*
X17635301Y-9563484D01*
X17635301Y-9563484D02*
X17682920Y-9563484D01*
X17682920Y-9563484D02*
X17701968Y-9573008D01*
X17701968Y-9573008D02*
X17711491Y-9582531D01*
X17711491Y-9582531D02*
X17721015Y-9601579D01*
X17721015Y-9601579D02*
X17721015Y-9620627D01*
X17721015Y-9620627D02*
X17711491Y-9649198D01*
X17711491Y-9649198D02*
X17597206Y-9763484D01*
X17597206Y-9763484D02*
X17721015Y-9763484D01*
X17959111Y-9763484D02*
X17959111Y-9563484D01*
X18044825Y-9763484D02*
X18044825Y-9658722D01*
X18044825Y-9658722D02*
X18035301Y-9639674D01*
X18035301Y-9639674D02*
X18016253Y-9630150D01*
X18016253Y-9630150D02*
X17987682Y-9630150D01*
X17987682Y-9630150D02*
X17968634Y-9639674D01*
X17968634Y-9639674D02*
X17959111Y-9649198D01*
X18168634Y-9763484D02*
X18149587Y-9753960D01*
X18149587Y-9753960D02*
X18140063Y-9744436D01*
X18140063Y-9744436D02*
X18130539Y-9725389D01*
X18130539Y-9725389D02*
X18130539Y-9668246D01*
X18130539Y-9668246D02*
X18140063Y-9649198D01*
X18140063Y-9649198D02*
X18149587Y-9639674D01*
X18149587Y-9639674D02*
X18168634Y-9630150D01*
X18168634Y-9630150D02*
X18197206Y-9630150D01*
X18197206Y-9630150D02*
X18216253Y-9639674D01*
X18216253Y-9639674D02*
X18225777Y-9649198D01*
X18225777Y-9649198D02*
X18235301Y-9668246D01*
X18235301Y-9668246D02*
X18235301Y-9725389D01*
X18235301Y-9725389D02*
X18225777Y-9744436D01*
X18225777Y-9744436D02*
X18216253Y-9753960D01*
X18216253Y-9753960D02*
X18197206Y-9763484D01*
X18197206Y-9763484D02*
X18168634Y-9763484D01*
X18349587Y-9763484D02*
X18330539Y-9753960D01*
X18330539Y-9753960D02*
X18321015Y-9734912D01*
X18321015Y-9734912D02*
X18321015Y-9563484D01*
X18501968Y-9753960D02*
X18482920Y-9763484D01*
X18482920Y-9763484D02*
X18444825Y-9763484D01*
X18444825Y-9763484D02*
X18425777Y-9753960D01*
X18425777Y-9753960D02*
X18416253Y-9734912D01*
X18416253Y-9734912D02*
X18416253Y-9658722D01*
X18416253Y-9658722D02*
X18425777Y-9639674D01*
X18425777Y-9639674D02*
X18444825Y-9630150D01*
X18444825Y-9630150D02*
X18482920Y-9630150D01*
X18482920Y-9630150D02*
X18501968Y-9639674D01*
X18501968Y-9639674D02*
X18511492Y-9658722D01*
X18511492Y-9658722D02*
X18511492Y-9677770D01*
X18511492Y-9677770D02*
X18416253Y-9696817D01*
X18587682Y-9753960D02*
X18606730Y-9763484D01*
X18606730Y-9763484D02*
X18644825Y-9763484D01*
X18644825Y-9763484D02*
X18663873Y-9753960D01*
X18663873Y-9753960D02*
X18673396Y-9734912D01*
X18673396Y-9734912D02*
X18673396Y-9725389D01*
X18673396Y-9725389D02*
X18663873Y-9706341D01*
X18663873Y-9706341D02*
X18644825Y-9696817D01*
X18644825Y-9696817D02*
X18616253Y-9696817D01*
X18616253Y-9696817D02*
X18597206Y-9687293D01*
X18597206Y-9687293D02*
X18587682Y-9668246D01*
X18587682Y-9668246D02*
X18587682Y-9658722D01*
X18587682Y-9658722D02*
X18597206Y-9639674D01*
X18597206Y-9639674D02*
X18616253Y-9630150D01*
X18616253Y-9630150D02*
X18644825Y-9630150D01*
X18644825Y-9630150D02*
X18663873Y-9639674D01*
X18740063Y-9839674D02*
X18749587Y-9830150D01*
X18749587Y-9830150D02*
X18768634Y-9801579D01*
X18768634Y-9801579D02*
X18778158Y-9782531D01*
X18778158Y-9782531D02*
X18787682Y-9753960D01*
X18787682Y-9753960D02*
X18797206Y-9706341D01*
X18797206Y-9706341D02*
X18797206Y-9668246D01*
X18797206Y-9668246D02*
X18787682Y-9620627D01*
X18787682Y-9620627D02*
X18778158Y-9592055D01*
X18778158Y-9592055D02*
X18768634Y-9573008D01*
X18768634Y-9573008D02*
X18749587Y-9544436D01*
X18749587Y-9544436D02*
X18740063Y-9534912D01*
D14*
X13910000Y-9881000D02*
X13910000Y-9991000D01*
X13855000Y-9936000D02*
X13965000Y-9936000D01*
D11*
X14330539Y-10027484D02*
X14216253Y-10027484D01*
X14273396Y-10027484D02*
X14273396Y-9827484D01*
X14273396Y-9827484D02*
X14254348Y-9856055D01*
X14254348Y-9856055D02*
X14235301Y-9875103D01*
X14235301Y-9875103D02*
X14216253Y-9884627D01*
X14416253Y-10008436D02*
X14425777Y-10017960D01*
X14425777Y-10017960D02*
X14416253Y-10027484D01*
X14416253Y-10027484D02*
X14406729Y-10017960D01*
X14406729Y-10017960D02*
X14416253Y-10008436D01*
X14416253Y-10008436D02*
X14416253Y-10027484D01*
X14616253Y-10027484D02*
X14501967Y-10027484D01*
X14559110Y-10027484D02*
X14559110Y-9827484D01*
X14559110Y-9827484D02*
X14540062Y-9856055D01*
X14540062Y-9856055D02*
X14521015Y-9875103D01*
X14521015Y-9875103D02*
X14501967Y-9884627D01*
X14740062Y-9827484D02*
X14759110Y-9827484D01*
X14759110Y-9827484D02*
X14778158Y-9837008D01*
X14778158Y-9837008D02*
X14787682Y-9846531D01*
X14787682Y-9846531D02*
X14797205Y-9865579D01*
X14797205Y-9865579D02*
X14806729Y-9903674D01*
X14806729Y-9903674D02*
X14806729Y-9951293D01*
X14806729Y-9951293D02*
X14797205Y-9989389D01*
X14797205Y-9989389D02*
X14787682Y-10008436D01*
X14787682Y-10008436D02*
X14778158Y-10017960D01*
X14778158Y-10017960D02*
X14759110Y-10027484D01*
X14759110Y-10027484D02*
X14740062Y-10027484D01*
X14740062Y-10027484D02*
X14721015Y-10017960D01*
X14721015Y-10017960D02*
X14711491Y-10008436D01*
X14711491Y-10008436D02*
X14701967Y-9989389D01*
X14701967Y-9989389D02*
X14692443Y-9951293D01*
X14692443Y-9951293D02*
X14692443Y-9903674D01*
X14692443Y-9903674D02*
X14701967Y-9865579D01*
X14701967Y-9865579D02*
X14711491Y-9846531D01*
X14711491Y-9846531D02*
X14721015Y-9837008D01*
X14721015Y-9837008D02*
X14740062Y-9827484D01*
X14930539Y-9827484D02*
X14949586Y-9827484D01*
X14949586Y-9827484D02*
X14968634Y-9837008D01*
X14968634Y-9837008D02*
X14978158Y-9846531D01*
X14978158Y-9846531D02*
X14987682Y-9865579D01*
X14987682Y-9865579D02*
X14997205Y-9903674D01*
X14997205Y-9903674D02*
X14997205Y-9951293D01*
X14997205Y-9951293D02*
X14987682Y-9989389D01*
X14987682Y-9989389D02*
X14978158Y-10008436D01*
X14978158Y-10008436D02*
X14968634Y-10017960D01*
X14968634Y-10017960D02*
X14949586Y-10027484D01*
X14949586Y-10027484D02*
X14930539Y-10027484D01*
X14930539Y-10027484D02*
X14911491Y-10017960D01*
X14911491Y-10017960D02*
X14901967Y-10008436D01*
X14901967Y-10008436D02*
X14892443Y-9989389D01*
X14892443Y-9989389D02*
X14882920Y-9951293D01*
X14882920Y-9951293D02*
X14882920Y-9903674D01*
X14882920Y-9903674D02*
X14892443Y-9865579D01*
X14892443Y-9865579D02*
X14901967Y-9846531D01*
X14901967Y-9846531D02*
X14911491Y-9837008D01*
X14911491Y-9837008D02*
X14930539Y-9827484D01*
X15082920Y-10027484D02*
X15082920Y-9894150D01*
X15082920Y-9913198D02*
X15092443Y-9903674D01*
X15092443Y-9903674D02*
X15111491Y-9894150D01*
X15111491Y-9894150D02*
X15140063Y-9894150D01*
X15140063Y-9894150D02*
X15159110Y-9903674D01*
X15159110Y-9903674D02*
X15168634Y-9922722D01*
X15168634Y-9922722D02*
X15168634Y-10027484D01*
X15168634Y-9922722D02*
X15178158Y-9903674D01*
X15178158Y-9903674D02*
X15197205Y-9894150D01*
X15197205Y-9894150D02*
X15225777Y-9894150D01*
X15225777Y-9894150D02*
X15244824Y-9903674D01*
X15244824Y-9903674D02*
X15254348Y-9922722D01*
X15254348Y-9922722D02*
X15254348Y-10027484D01*
X15349586Y-10027484D02*
X15349586Y-9894150D01*
X15349586Y-9913198D02*
X15359110Y-9903674D01*
X15359110Y-9903674D02*
X15378158Y-9894150D01*
X15378158Y-9894150D02*
X15406729Y-9894150D01*
X15406729Y-9894150D02*
X15425777Y-9903674D01*
X15425777Y-9903674D02*
X15435301Y-9922722D01*
X15435301Y-9922722D02*
X15435301Y-10027484D01*
X15435301Y-9922722D02*
X15444824Y-9903674D01*
X15444824Y-9903674D02*
X15463872Y-9894150D01*
X15463872Y-9894150D02*
X15492443Y-9894150D01*
X15492443Y-9894150D02*
X15511491Y-9903674D01*
X15511491Y-9903674D02*
X15521015Y-9922722D01*
X15521015Y-9922722D02*
X15521015Y-10027484D01*
X15911491Y-9817960D02*
X15740063Y-10075103D01*
X16168634Y-9827484D02*
X16187682Y-9827484D01*
X16187682Y-9827484D02*
X16206729Y-9837008D01*
X16206729Y-9837008D02*
X16216253Y-9846531D01*
X16216253Y-9846531D02*
X16225777Y-9865579D01*
X16225777Y-9865579D02*
X16235301Y-9903674D01*
X16235301Y-9903674D02*
X16235301Y-9951293D01*
X16235301Y-9951293D02*
X16225777Y-9989389D01*
X16225777Y-9989389D02*
X16216253Y-10008436D01*
X16216253Y-10008436D02*
X16206729Y-10017960D01*
X16206729Y-10017960D02*
X16187682Y-10027484D01*
X16187682Y-10027484D02*
X16168634Y-10027484D01*
X16168634Y-10027484D02*
X16149586Y-10017960D01*
X16149586Y-10017960D02*
X16140063Y-10008436D01*
X16140063Y-10008436D02*
X16130539Y-9989389D01*
X16130539Y-9989389D02*
X16121015Y-9951293D01*
X16121015Y-9951293D02*
X16121015Y-9903674D01*
X16121015Y-9903674D02*
X16130539Y-9865579D01*
X16130539Y-9865579D02*
X16140063Y-9846531D01*
X16140063Y-9846531D02*
X16149586Y-9837008D01*
X16149586Y-9837008D02*
X16168634Y-9827484D01*
X16321015Y-10008436D02*
X16330539Y-10017960D01*
X16330539Y-10017960D02*
X16321015Y-10027484D01*
X16321015Y-10027484D02*
X16311491Y-10017960D01*
X16311491Y-10017960D02*
X16321015Y-10008436D01*
X16321015Y-10008436D02*
X16321015Y-10027484D01*
X16454348Y-9827484D02*
X16473396Y-9827484D01*
X16473396Y-9827484D02*
X16492444Y-9837008D01*
X16492444Y-9837008D02*
X16501967Y-9846531D01*
X16501967Y-9846531D02*
X16511491Y-9865579D01*
X16511491Y-9865579D02*
X16521015Y-9903674D01*
X16521015Y-9903674D02*
X16521015Y-9951293D01*
X16521015Y-9951293D02*
X16511491Y-9989389D01*
X16511491Y-9989389D02*
X16501967Y-10008436D01*
X16501967Y-10008436D02*
X16492444Y-10017960D01*
X16492444Y-10017960D02*
X16473396Y-10027484D01*
X16473396Y-10027484D02*
X16454348Y-10027484D01*
X16454348Y-10027484D02*
X16435301Y-10017960D01*
X16435301Y-10017960D02*
X16425777Y-10008436D01*
X16425777Y-10008436D02*
X16416253Y-9989389D01*
X16416253Y-9989389D02*
X16406729Y-9951293D01*
X16406729Y-9951293D02*
X16406729Y-9903674D01*
X16406729Y-9903674D02*
X16416253Y-9865579D01*
X16416253Y-9865579D02*
X16425777Y-9846531D01*
X16425777Y-9846531D02*
X16435301Y-9837008D01*
X16435301Y-9837008D02*
X16454348Y-9827484D01*
X16692444Y-9894150D02*
X16692444Y-10027484D01*
X16644825Y-9817960D02*
X16597206Y-9960817D01*
X16597206Y-9960817D02*
X16721015Y-9960817D01*
X16778158Y-9827484D02*
X16901968Y-9827484D01*
X16901968Y-9827484D02*
X16835301Y-9903674D01*
X16835301Y-9903674D02*
X16863872Y-9903674D01*
X16863872Y-9903674D02*
X16882920Y-9913198D01*
X16882920Y-9913198D02*
X16892444Y-9922722D01*
X16892444Y-9922722D02*
X16901968Y-9941770D01*
X16901968Y-9941770D02*
X16901968Y-9989389D01*
X16901968Y-9989389D02*
X16892444Y-10008436D01*
X16892444Y-10008436D02*
X16882920Y-10017960D01*
X16882920Y-10017960D02*
X16863872Y-10027484D01*
X16863872Y-10027484D02*
X16806729Y-10027484D01*
X16806729Y-10027484D02*
X16787682Y-10017960D01*
X16787682Y-10017960D02*
X16778158Y-10008436D01*
X16968634Y-9827484D02*
X17092444Y-9827484D01*
X17092444Y-9827484D02*
X17025777Y-9903674D01*
X17025777Y-9903674D02*
X17054349Y-9903674D01*
X17054349Y-9903674D02*
X17073396Y-9913198D01*
X17073396Y-9913198D02*
X17082920Y-9922722D01*
X17082920Y-9922722D02*
X17092444Y-9941770D01*
X17092444Y-9941770D02*
X17092444Y-9989389D01*
X17092444Y-9989389D02*
X17082920Y-10008436D01*
X17082920Y-10008436D02*
X17073396Y-10017960D01*
X17073396Y-10017960D02*
X17054349Y-10027484D01*
X17054349Y-10027484D02*
X16997206Y-10027484D01*
X16997206Y-10027484D02*
X16978158Y-10017960D01*
X16978158Y-10017960D02*
X16968634Y-10008436D01*
X17168634Y-9827484D02*
X17168634Y-9865579D01*
X17244825Y-9827484D02*
X17244825Y-9865579D01*
X17540063Y-10103674D02*
X17530539Y-10094150D01*
X17530539Y-10094150D02*
X17511491Y-10065579D01*
X17511491Y-10065579D02*
X17501968Y-10046531D01*
X17501968Y-10046531D02*
X17492444Y-10017960D01*
X17492444Y-10017960D02*
X17482920Y-9970341D01*
X17482920Y-9970341D02*
X17482920Y-9932246D01*
X17482920Y-9932246D02*
X17492444Y-9884627D01*
X17492444Y-9884627D02*
X17501968Y-9856055D01*
X17501968Y-9856055D02*
X17511491Y-9837008D01*
X17511491Y-9837008D02*
X17530539Y-9808436D01*
X17530539Y-9808436D02*
X17540063Y-9798912D01*
X17597206Y-9827484D02*
X17721015Y-9827484D01*
X17721015Y-9827484D02*
X17654349Y-9903674D01*
X17654349Y-9903674D02*
X17682920Y-9903674D01*
X17682920Y-9903674D02*
X17701968Y-9913198D01*
X17701968Y-9913198D02*
X17711491Y-9922722D01*
X17711491Y-9922722D02*
X17721015Y-9941770D01*
X17721015Y-9941770D02*
X17721015Y-9989389D01*
X17721015Y-9989389D02*
X17711491Y-10008436D01*
X17711491Y-10008436D02*
X17701968Y-10017960D01*
X17701968Y-10017960D02*
X17682920Y-10027484D01*
X17682920Y-10027484D02*
X17625777Y-10027484D01*
X17625777Y-10027484D02*
X17606730Y-10017960D01*
X17606730Y-10017960D02*
X17597206Y-10008436D01*
X17959111Y-10027484D02*
X17959111Y-9827484D01*
X18044825Y-10027484D02*
X18044825Y-9922722D01*
X18044825Y-9922722D02*
X18035301Y-9903674D01*
X18035301Y-9903674D02*
X18016253Y-9894150D01*
X18016253Y-9894150D02*
X17987682Y-9894150D01*
X17987682Y-9894150D02*
X17968634Y-9903674D01*
X17968634Y-9903674D02*
X17959111Y-9913198D01*
X18168634Y-10027484D02*
X18149587Y-10017960D01*
X18149587Y-10017960D02*
X18140063Y-10008436D01*
X18140063Y-10008436D02*
X18130539Y-9989389D01*
X18130539Y-9989389D02*
X18130539Y-9932246D01*
X18130539Y-9932246D02*
X18140063Y-9913198D01*
X18140063Y-9913198D02*
X18149587Y-9903674D01*
X18149587Y-9903674D02*
X18168634Y-9894150D01*
X18168634Y-9894150D02*
X18197206Y-9894150D01*
X18197206Y-9894150D02*
X18216253Y-9903674D01*
X18216253Y-9903674D02*
X18225777Y-9913198D01*
X18225777Y-9913198D02*
X18235301Y-9932246D01*
X18235301Y-9932246D02*
X18235301Y-9989389D01*
X18235301Y-9989389D02*
X18225777Y-10008436D01*
X18225777Y-10008436D02*
X18216253Y-10017960D01*
X18216253Y-10017960D02*
X18197206Y-10027484D01*
X18197206Y-10027484D02*
X18168634Y-10027484D01*
X18349587Y-10027484D02*
X18330539Y-10017960D01*
X18330539Y-10017960D02*
X18321015Y-9998912D01*
X18321015Y-9998912D02*
X18321015Y-9827484D01*
X18501968Y-10017960D02*
X18482920Y-10027484D01*
X18482920Y-10027484D02*
X18444825Y-10027484D01*
X18444825Y-10027484D02*
X18425777Y-10017960D01*
X18425777Y-10017960D02*
X18416253Y-9998912D01*
X18416253Y-9998912D02*
X18416253Y-9922722D01*
X18416253Y-9922722D02*
X18425777Y-9903674D01*
X18425777Y-9903674D02*
X18444825Y-9894150D01*
X18444825Y-9894150D02*
X18482920Y-9894150D01*
X18482920Y-9894150D02*
X18501968Y-9903674D01*
X18501968Y-9903674D02*
X18511492Y-9922722D01*
X18511492Y-9922722D02*
X18511492Y-9941770D01*
X18511492Y-9941770D02*
X18416253Y-9960817D01*
X18587682Y-10017960D02*
X18606730Y-10027484D01*
X18606730Y-10027484D02*
X18644825Y-10027484D01*
X18644825Y-10027484D02*
X18663873Y-10017960D01*
X18663873Y-10017960D02*
X18673396Y-9998912D01*
X18673396Y-9998912D02*
X18673396Y-9989389D01*
X18673396Y-9989389D02*
X18663873Y-9970341D01*
X18663873Y-9970341D02*
X18644825Y-9960817D01*
X18644825Y-9960817D02*
X18616253Y-9960817D01*
X18616253Y-9960817D02*
X18597206Y-9951293D01*
X18597206Y-9951293D02*
X18587682Y-9932246D01*
X18587682Y-9932246D02*
X18587682Y-9922722D01*
X18587682Y-9922722D02*
X18597206Y-9903674D01*
X18597206Y-9903674D02*
X18616253Y-9894150D01*
X18616253Y-9894150D02*
X18644825Y-9894150D01*
X18644825Y-9894150D02*
X18663873Y-9903674D01*
X18740063Y-10103674D02*
X18749587Y-10094150D01*
X18749587Y-10094150D02*
X18768634Y-10065579D01*
X18768634Y-10065579D02*
X18778158Y-10046531D01*
X18778158Y-10046531D02*
X18787682Y-10017960D01*
X18787682Y-10017960D02*
X18797206Y-9970341D01*
X18797206Y-9970341D02*
X18797206Y-9932246D01*
X18797206Y-9932246D02*
X18787682Y-9884627D01*
X18787682Y-9884627D02*
X18778158Y-9856055D01*
X18778158Y-9856055D02*
X18768634Y-9837008D01*
X18768634Y-9837008D02*
X18749587Y-9808436D01*
X18749587Y-9808436D02*
X18740063Y-9798912D01*
D15*
X13945669Y-10246670D02*
X13945669Y-10153331D01*
X13852330Y-10153331D01*
X13852330Y-10246670D01*
X13945669Y-10246670D01*
D11*
X14330539Y-10291484D02*
X14216253Y-10291484D01*
X14273396Y-10291484D02*
X14273396Y-10091484D01*
X14273396Y-10091484D02*
X14254348Y-10120055D01*
X14254348Y-10120055D02*
X14235301Y-10139103D01*
X14235301Y-10139103D02*
X14216253Y-10148627D01*
X14416253Y-10272436D02*
X14425777Y-10281960D01*
X14425777Y-10281960D02*
X14416253Y-10291484D01*
X14416253Y-10291484D02*
X14406729Y-10281960D01*
X14406729Y-10281960D02*
X14416253Y-10272436D01*
X14416253Y-10272436D02*
X14416253Y-10291484D01*
X14492443Y-10091484D02*
X14616253Y-10091484D01*
X14616253Y-10091484D02*
X14549586Y-10167674D01*
X14549586Y-10167674D02*
X14578158Y-10167674D01*
X14578158Y-10167674D02*
X14597205Y-10177198D01*
X14597205Y-10177198D02*
X14606729Y-10186722D01*
X14606729Y-10186722D02*
X14616253Y-10205770D01*
X14616253Y-10205770D02*
X14616253Y-10253389D01*
X14616253Y-10253389D02*
X14606729Y-10272436D01*
X14606729Y-10272436D02*
X14597205Y-10281960D01*
X14597205Y-10281960D02*
X14578158Y-10291484D01*
X14578158Y-10291484D02*
X14521015Y-10291484D01*
X14521015Y-10291484D02*
X14501967Y-10281960D01*
X14501967Y-10281960D02*
X14492443Y-10272436D01*
X14692443Y-10110531D02*
X14701967Y-10101008D01*
X14701967Y-10101008D02*
X14721015Y-10091484D01*
X14721015Y-10091484D02*
X14768634Y-10091484D01*
X14768634Y-10091484D02*
X14787682Y-10101008D01*
X14787682Y-10101008D02*
X14797205Y-10110531D01*
X14797205Y-10110531D02*
X14806729Y-10129579D01*
X14806729Y-10129579D02*
X14806729Y-10148627D01*
X14806729Y-10148627D02*
X14797205Y-10177198D01*
X14797205Y-10177198D02*
X14682920Y-10291484D01*
X14682920Y-10291484D02*
X14806729Y-10291484D01*
X14930539Y-10091484D02*
X14949586Y-10091484D01*
X14949586Y-10091484D02*
X14968634Y-10101008D01*
X14968634Y-10101008D02*
X14978158Y-10110531D01*
X14978158Y-10110531D02*
X14987682Y-10129579D01*
X14987682Y-10129579D02*
X14997205Y-10167674D01*
X14997205Y-10167674D02*
X14997205Y-10215293D01*
X14997205Y-10215293D02*
X14987682Y-10253389D01*
X14987682Y-10253389D02*
X14978158Y-10272436D01*
X14978158Y-10272436D02*
X14968634Y-10281960D01*
X14968634Y-10281960D02*
X14949586Y-10291484D01*
X14949586Y-10291484D02*
X14930539Y-10291484D01*
X14930539Y-10291484D02*
X14911491Y-10281960D01*
X14911491Y-10281960D02*
X14901967Y-10272436D01*
X14901967Y-10272436D02*
X14892443Y-10253389D01*
X14892443Y-10253389D02*
X14882920Y-10215293D01*
X14882920Y-10215293D02*
X14882920Y-10167674D01*
X14882920Y-10167674D02*
X14892443Y-10129579D01*
X14892443Y-10129579D02*
X14901967Y-10110531D01*
X14901967Y-10110531D02*
X14911491Y-10101008D01*
X14911491Y-10101008D02*
X14930539Y-10091484D01*
X15082920Y-10291484D02*
X15082920Y-10158150D01*
X15082920Y-10177198D02*
X15092443Y-10167674D01*
X15092443Y-10167674D02*
X15111491Y-10158150D01*
X15111491Y-10158150D02*
X15140063Y-10158150D01*
X15140063Y-10158150D02*
X15159110Y-10167674D01*
X15159110Y-10167674D02*
X15168634Y-10186722D01*
X15168634Y-10186722D02*
X15168634Y-10291484D01*
X15168634Y-10186722D02*
X15178158Y-10167674D01*
X15178158Y-10167674D02*
X15197205Y-10158150D01*
X15197205Y-10158150D02*
X15225777Y-10158150D01*
X15225777Y-10158150D02*
X15244824Y-10167674D01*
X15244824Y-10167674D02*
X15254348Y-10186722D01*
X15254348Y-10186722D02*
X15254348Y-10291484D01*
X15349586Y-10291484D02*
X15349586Y-10158150D01*
X15349586Y-10177198D02*
X15359110Y-10167674D01*
X15359110Y-10167674D02*
X15378158Y-10158150D01*
X15378158Y-10158150D02*
X15406729Y-10158150D01*
X15406729Y-10158150D02*
X15425777Y-10167674D01*
X15425777Y-10167674D02*
X15435301Y-10186722D01*
X15435301Y-10186722D02*
X15435301Y-10291484D01*
X15435301Y-10186722D02*
X15444824Y-10167674D01*
X15444824Y-10167674D02*
X15463872Y-10158150D01*
X15463872Y-10158150D02*
X15492443Y-10158150D01*
X15492443Y-10158150D02*
X15511491Y-10167674D01*
X15511491Y-10167674D02*
X15521015Y-10186722D01*
X15521015Y-10186722D02*
X15521015Y-10291484D01*
X15911491Y-10081960D02*
X15740063Y-10339103D01*
X16168634Y-10091484D02*
X16187682Y-10091484D01*
X16187682Y-10091484D02*
X16206729Y-10101008D01*
X16206729Y-10101008D02*
X16216253Y-10110531D01*
X16216253Y-10110531D02*
X16225777Y-10129579D01*
X16225777Y-10129579D02*
X16235301Y-10167674D01*
X16235301Y-10167674D02*
X16235301Y-10215293D01*
X16235301Y-10215293D02*
X16225777Y-10253389D01*
X16225777Y-10253389D02*
X16216253Y-10272436D01*
X16216253Y-10272436D02*
X16206729Y-10281960D01*
X16206729Y-10281960D02*
X16187682Y-10291484D01*
X16187682Y-10291484D02*
X16168634Y-10291484D01*
X16168634Y-10291484D02*
X16149586Y-10281960D01*
X16149586Y-10281960D02*
X16140063Y-10272436D01*
X16140063Y-10272436D02*
X16130539Y-10253389D01*
X16130539Y-10253389D02*
X16121015Y-10215293D01*
X16121015Y-10215293D02*
X16121015Y-10167674D01*
X16121015Y-10167674D02*
X16130539Y-10129579D01*
X16130539Y-10129579D02*
X16140063Y-10110531D01*
X16140063Y-10110531D02*
X16149586Y-10101008D01*
X16149586Y-10101008D02*
X16168634Y-10091484D01*
X16321015Y-10272436D02*
X16330539Y-10281960D01*
X16330539Y-10281960D02*
X16321015Y-10291484D01*
X16321015Y-10291484D02*
X16311491Y-10281960D01*
X16311491Y-10281960D02*
X16321015Y-10272436D01*
X16321015Y-10272436D02*
X16321015Y-10291484D01*
X16454348Y-10091484D02*
X16473396Y-10091484D01*
X16473396Y-10091484D02*
X16492444Y-10101008D01*
X16492444Y-10101008D02*
X16501967Y-10110531D01*
X16501967Y-10110531D02*
X16511491Y-10129579D01*
X16511491Y-10129579D02*
X16521015Y-10167674D01*
X16521015Y-10167674D02*
X16521015Y-10215293D01*
X16521015Y-10215293D02*
X16511491Y-10253389D01*
X16511491Y-10253389D02*
X16501967Y-10272436D01*
X16501967Y-10272436D02*
X16492444Y-10281960D01*
X16492444Y-10281960D02*
X16473396Y-10291484D01*
X16473396Y-10291484D02*
X16454348Y-10291484D01*
X16454348Y-10291484D02*
X16435301Y-10281960D01*
X16435301Y-10281960D02*
X16425777Y-10272436D01*
X16425777Y-10272436D02*
X16416253Y-10253389D01*
X16416253Y-10253389D02*
X16406729Y-10215293D01*
X16406729Y-10215293D02*
X16406729Y-10167674D01*
X16406729Y-10167674D02*
X16416253Y-10129579D01*
X16416253Y-10129579D02*
X16425777Y-10110531D01*
X16425777Y-10110531D02*
X16435301Y-10101008D01*
X16435301Y-10101008D02*
X16454348Y-10091484D01*
X16701967Y-10091484D02*
X16606729Y-10091484D01*
X16606729Y-10091484D02*
X16597206Y-10186722D01*
X16597206Y-10186722D02*
X16606729Y-10177198D01*
X16606729Y-10177198D02*
X16625777Y-10167674D01*
X16625777Y-10167674D02*
X16673396Y-10167674D01*
X16673396Y-10167674D02*
X16692444Y-10177198D01*
X16692444Y-10177198D02*
X16701967Y-10186722D01*
X16701967Y-10186722D02*
X16711491Y-10205770D01*
X16711491Y-10205770D02*
X16711491Y-10253389D01*
X16711491Y-10253389D02*
X16701967Y-10272436D01*
X16701967Y-10272436D02*
X16692444Y-10281960D01*
X16692444Y-10281960D02*
X16673396Y-10291484D01*
X16673396Y-10291484D02*
X16625777Y-10291484D01*
X16625777Y-10291484D02*
X16606729Y-10281960D01*
X16606729Y-10281960D02*
X16597206Y-10272436D01*
X16787682Y-10110531D02*
X16797206Y-10101008D01*
X16797206Y-10101008D02*
X16816253Y-10091484D01*
X16816253Y-10091484D02*
X16863872Y-10091484D01*
X16863872Y-10091484D02*
X16882920Y-10101008D01*
X16882920Y-10101008D02*
X16892444Y-10110531D01*
X16892444Y-10110531D02*
X16901968Y-10129579D01*
X16901968Y-10129579D02*
X16901968Y-10148627D01*
X16901968Y-10148627D02*
X16892444Y-10177198D01*
X16892444Y-10177198D02*
X16778158Y-10291484D01*
X16778158Y-10291484D02*
X16901968Y-10291484D01*
X17025777Y-10091484D02*
X17044825Y-10091484D01*
X17044825Y-10091484D02*
X17063872Y-10101008D01*
X17063872Y-10101008D02*
X17073396Y-10110531D01*
X17073396Y-10110531D02*
X17082920Y-10129579D01*
X17082920Y-10129579D02*
X17092444Y-10167674D01*
X17092444Y-10167674D02*
X17092444Y-10215293D01*
X17092444Y-10215293D02*
X17082920Y-10253389D01*
X17082920Y-10253389D02*
X17073396Y-10272436D01*
X17073396Y-10272436D02*
X17063872Y-10281960D01*
X17063872Y-10281960D02*
X17044825Y-10291484D01*
X17044825Y-10291484D02*
X17025777Y-10291484D01*
X17025777Y-10291484D02*
X17006729Y-10281960D01*
X17006729Y-10281960D02*
X16997206Y-10272436D01*
X16997206Y-10272436D02*
X16987682Y-10253389D01*
X16987682Y-10253389D02*
X16978158Y-10215293D01*
X16978158Y-10215293D02*
X16978158Y-10167674D01*
X16978158Y-10167674D02*
X16987682Y-10129579D01*
X16987682Y-10129579D02*
X16997206Y-10110531D01*
X16997206Y-10110531D02*
X17006729Y-10101008D01*
X17006729Y-10101008D02*
X17025777Y-10091484D01*
X17168634Y-10091484D02*
X17168634Y-10129579D01*
X17244825Y-10091484D02*
X17244825Y-10129579D01*
X17540063Y-10367674D02*
X17530539Y-10358150D01*
X17530539Y-10358150D02*
X17511491Y-10329579D01*
X17511491Y-10329579D02*
X17501968Y-10310531D01*
X17501968Y-10310531D02*
X17492444Y-10281960D01*
X17492444Y-10281960D02*
X17482920Y-10234341D01*
X17482920Y-10234341D02*
X17482920Y-10196246D01*
X17482920Y-10196246D02*
X17492444Y-10148627D01*
X17492444Y-10148627D02*
X17501968Y-10120055D01*
X17501968Y-10120055D02*
X17511491Y-10101008D01*
X17511491Y-10101008D02*
X17530539Y-10072436D01*
X17530539Y-10072436D02*
X17540063Y-10062912D01*
X17711491Y-10091484D02*
X17616253Y-10091484D01*
X17616253Y-10091484D02*
X17606730Y-10186722D01*
X17606730Y-10186722D02*
X17616253Y-10177198D01*
X17616253Y-10177198D02*
X17635301Y-10167674D01*
X17635301Y-10167674D02*
X17682920Y-10167674D01*
X17682920Y-10167674D02*
X17701968Y-10177198D01*
X17701968Y-10177198D02*
X17711491Y-10186722D01*
X17711491Y-10186722D02*
X17721015Y-10205770D01*
X17721015Y-10205770D02*
X17721015Y-10253389D01*
X17721015Y-10253389D02*
X17711491Y-10272436D01*
X17711491Y-10272436D02*
X17701968Y-10281960D01*
X17701968Y-10281960D02*
X17682920Y-10291484D01*
X17682920Y-10291484D02*
X17635301Y-10291484D01*
X17635301Y-10291484D02*
X17616253Y-10281960D01*
X17616253Y-10281960D02*
X17606730Y-10272436D01*
X17959111Y-10291484D02*
X17959111Y-10091484D01*
X18044825Y-10291484D02*
X18044825Y-10186722D01*
X18044825Y-10186722D02*
X18035301Y-10167674D01*
X18035301Y-10167674D02*
X18016253Y-10158150D01*
X18016253Y-10158150D02*
X17987682Y-10158150D01*
X17987682Y-10158150D02*
X17968634Y-10167674D01*
X17968634Y-10167674D02*
X17959111Y-10177198D01*
X18168634Y-10291484D02*
X18149587Y-10281960D01*
X18149587Y-10281960D02*
X18140063Y-10272436D01*
X18140063Y-10272436D02*
X18130539Y-10253389D01*
X18130539Y-10253389D02*
X18130539Y-10196246D01*
X18130539Y-10196246D02*
X18140063Y-10177198D01*
X18140063Y-10177198D02*
X18149587Y-10167674D01*
X18149587Y-10167674D02*
X18168634Y-10158150D01*
X18168634Y-10158150D02*
X18197206Y-10158150D01*
X18197206Y-10158150D02*
X18216253Y-10167674D01*
X18216253Y-10167674D02*
X18225777Y-10177198D01*
X18225777Y-10177198D02*
X18235301Y-10196246D01*
X18235301Y-10196246D02*
X18235301Y-10253389D01*
X18235301Y-10253389D02*
X18225777Y-10272436D01*
X18225777Y-10272436D02*
X18216253Y-10281960D01*
X18216253Y-10281960D02*
X18197206Y-10291484D01*
X18197206Y-10291484D02*
X18168634Y-10291484D01*
X18349587Y-10291484D02*
X18330539Y-10281960D01*
X18330539Y-10281960D02*
X18321015Y-10262912D01*
X18321015Y-10262912D02*
X18321015Y-10091484D01*
X18501968Y-10281960D02*
X18482920Y-10291484D01*
X18482920Y-10291484D02*
X18444825Y-10291484D01*
X18444825Y-10291484D02*
X18425777Y-10281960D01*
X18425777Y-10281960D02*
X18416253Y-10262912D01*
X18416253Y-10262912D02*
X18416253Y-10186722D01*
X18416253Y-10186722D02*
X18425777Y-10167674D01*
X18425777Y-10167674D02*
X18444825Y-10158150D01*
X18444825Y-10158150D02*
X18482920Y-10158150D01*
X18482920Y-10158150D02*
X18501968Y-10167674D01*
X18501968Y-10167674D02*
X18511492Y-10186722D01*
X18511492Y-10186722D02*
X18511492Y-10205770D01*
X18511492Y-10205770D02*
X18416253Y-10224817D01*
X18587682Y-10281960D02*
X18606730Y-10291484D01*
X18606730Y-10291484D02*
X18644825Y-10291484D01*
X18644825Y-10291484D02*
X18663873Y-10281960D01*
X18663873Y-10281960D02*
X18673396Y-10262912D01*
X18673396Y-10262912D02*
X18673396Y-10253389D01*
X18673396Y-10253389D02*
X18663873Y-10234341D01*
X18663873Y-10234341D02*
X18644825Y-10224817D01*
X18644825Y-10224817D02*
X18616253Y-10224817D01*
X18616253Y-10224817D02*
X18597206Y-10215293D01*
X18597206Y-10215293D02*
X18587682Y-10196246D01*
X18587682Y-10196246D02*
X18587682Y-10186722D01*
X18587682Y-10186722D02*
X18597206Y-10167674D01*
X18597206Y-10167674D02*
X18616253Y-10158150D01*
X18616253Y-10158150D02*
X18644825Y-10158150D01*
X18644825Y-10158150D02*
X18663873Y-10167674D01*
X18740063Y-10367674D02*
X18749587Y-10358150D01*
X18749587Y-10358150D02*
X18768634Y-10329579D01*
X18768634Y-10329579D02*
X18778158Y-10310531D01*
X18778158Y-10310531D02*
X18787682Y-10281960D01*
X18787682Y-10281960D02*
X18797206Y-10234341D01*
X18797206Y-10234341D02*
X18797206Y-10196246D01*
X18797206Y-10196246D02*
X18787682Y-10148627D01*
X18787682Y-10148627D02*
X18778158Y-10120055D01*
X18778158Y-10120055D02*
X18768634Y-10101008D01*
X18768634Y-10101008D02*
X18749587Y-10072436D01*
X18749587Y-10072436D02*
X18740063Y-10062912D01*
M02*
