M48
; DRILL file {KiCad 7.0.6} date Thu Jul 13 12:44:35 2023
; FORMAT={-:-/ absolute / inch / decimal}
; #@! TF.CreationDate,2023-07-13T12:44:35+01:00
; #@! TF.GenerationSoftware,Kicad,Pcbnew,7.0.6
; #@! TF.FileFunction,Plated,1,2,PTH
FMAT,2
INCH
; #@! TA.AperFunction,Plated,PTH,ComponentDrill
T1C0.0315
; #@! TA.AperFunction,Plated,PTH,ComponentDrill
T2C0.0354
; #@! TA.AperFunction,Plated,PTH,ComponentDrill
T3C0.0433
; #@! TA.AperFunction,Plated,PTH,ComponentDrill
T4C0.0520
%
G90
G05
T1
X5.85Y-2.5
X5.85Y-3.0
X6.05Y-2.5
X6.05Y-3.0
X6.3Y-2.2
X6.3Y-2.3
X6.3Y-2.4
X6.3Y-2.5
X6.6Y-2.2
X6.6Y-2.3
X6.6Y-2.4
X6.6Y-2.5
X6.85Y-2.15
X6.85Y-2.65
X6.85Y-2.8
X6.85Y-3.3
X7.05Y-2.15
X7.05Y-2.65
X7.05Y-2.8
X7.05Y-3.3
T2
X5.9Y-2.25
X6.0Y-2.25
T3
X6.8628Y-1.75
X6.8628Y-1.85
X6.8628Y-1.95
T4
X6.0531Y-1.7
X6.25Y-1.7
X6.3531Y-3.05
X6.4469Y-1.7
X6.55Y-3.05
T0
M30
